<svg xmlns="http://www.w3.org/2000/svg" viewBox="0 0 460.22 506.12"><defs><style>.cls-1{fill:#a2bee0;}.cls-2{fill:#6f4975;}.cls-3{fill:#e28569;}.cls-4{fill:#2f1a31;}.cls-5{fill:#f7b686;}.cls-6{opacity:0.5;}.cls-7{fill:#e08b65;}.cls-8{fill:#436e8e;}.cls-9{fill:#9bbcb6;}</style></defs><g id="Layer_2" data-name="Layer 2"><g id="Layer_1-2" data-name="Layer 1"><g id="Group_1024" data-name="Group 1024"><g id="Group_1023" data-name="Group 1023"><g id="Group_980" data-name="Group 980"><g id="Group_974" data-name="Group 974"><path id="Rectangle_1305" data-name="Rectangle 1305" class="cls-1" d="M186.29,0H434a26.23,26.23,0,0,1,26.23,26.23h0V87.61A26.24,26.24,0,0,1,434,113.84H239a78.91,78.91,0,0,1-78.9-78.9h0v-8.7A26.23,26.23,0,0,1,186.29,0Z"/></g><g id="Group_975" data-name="Group 975"><path id="Path_1933" data-name="Path 1933" class="cls-2" d="M184,86.52a2.32,2.32,0,0,0-2.29,2.36,2.27,2.27,0,0,0,.61,1.54,49.3,49.3,0,0,0,36.55,16.25h183a12.83,12.83,0,0,0,12.74-12.93v-4.9a2.31,2.31,0,0,0-2.29-2.32Z"/></g><g id="Group_976" data-name="Group 976"><path id="Path_1934" data-name="Path 1934" class="cls-2" d="M410.46,74.14H176a1.46,1.46,0,1,1,0-2.91H410.46a1.46,1.46,0,1,1,0,2.91Z"/></g><g id="Group_977" data-name="Group 977"><path id="Path_1935" data-name="Path 1935" class="cls-2" d="M410.46,63.16H176a1.46,1.46,0,0,1,0-2.91H410.46a1.46,1.46,0,0,1,0,2.91Z"/></g><g id="Group_978" data-name="Group 978"><path id="Path_1936" data-name="Path 1936" class="cls-3" d="M410.46,10.46a4.38,4.38,0,1,0-4.38,4.44,4.39,4.39,0,0,0,4.38-4.44Z"/></g><g id="Group_979" data-name="Group 979"><path id="Path_1937" data-name="Path 1937" class="cls-4" d="M393.46,10.46a4.38,4.38,0,1,0-4.38,4.44A4.39,4.39,0,0,0,393.46,10.46Z"/></g></g><g id="Group_987" data-name="Group 987"><g id="Group_981" data-name="Group 981"><path id="Path_1938" data-name="Path 1938" class="cls-5" d="M10,283.22h0a2.38,2.38,0,0,0-2.54,2.19L5.8,305.77A2.39,2.39,0,0,0,8,308.34H8a2.37,2.37,0,0,0,2.54-2.19l1.64-20.35A2.39,2.39,0,0,0,10,283.22Z"/></g><g id="Group_982" data-name="Group 982"><path id="Path_1939" data-name="Path 1939" class="cls-5" d="M16,283.72h0a2.37,2.37,0,0,0-2.54,2.19l-1.83,22.76a2.38,2.38,0,0,0,2.16,2.58h0a2.38,2.38,0,0,0,2.54-2.19l1.83-22.76A2.39,2.39,0,0,0,16,283.72Z"/></g><g id="Group_983" data-name="Group 983"><path id="Path_1940" data-name="Path 1940" class="cls-5" d="M18.56,272l-.7.47a2.92,2.92,0,0,0-.78,4l8.5,12.87a2.84,2.84,0,0,0,3.92.82l0,0,.7-.47a2.92,2.92,0,0,0,.78-4l-8.5-12.87a2.83,2.83,0,0,0-3.92-.81Z"/></g><g id="Group_984" data-name="Group 984"><path id="Path_1941" data-name="Path 1941" class="cls-5" d="M22,284.22h0a2.37,2.37,0,0,0-2.54,2.19L18,304.65a2.38,2.38,0,0,0,2.16,2.58h0A2.37,2.37,0,0,0,22.7,305l1.46-18.24A2.38,2.38,0,0,0,22,284.22Z"/></g><g id="Group_985" data-name="Group 985"><path id="Path_1942" data-name="Path 1942" class="cls-5" d="M6.83,271.29s-7.75,11.19-5,20.49c1,3.22,18.7,4.18,20.59,1s1.7-15.67,1.7-15.67Z"/></g><g id="Group_986" data-name="Group 986"><path id="Path_1943" data-name="Path 1943" class="cls-5" d="M4,282.71H4a2.37,2.37,0,0,0-2.54,2.18L0,303.11a2.38,2.38,0,0,0,2.15,2.57h0a2.37,2.37,0,0,0,2.54-2.19l1.46-18.2A2.38,2.38,0,0,0,4,282.71Z"/></g></g><g id="Group_989" data-name="Group 989"><g id="Group_988" data-name="Group 988"><path id="Path_1944" data-name="Path 1944" class="cls-5" d="M27.15,279.67c9.12-25,24.13-60.26,43.91-86,4.58-6,6.42-8.17,9.57-11.25,2.54-2.48,1.13-9.84-3-14.29-3.87-4.18-11.23-5.69-12.76-4.56-2.6,1.91-5.92,6-11.13,12.6C35.62,199,20,230.56,5.82,272.92Z"/></g></g><g id="Group_990" data-name="Group 990" class="cls-6"><path id="Path_1945" data-name="Path 1945" class="cls-7" d="M37.29,220.37a2.73,2.73,0,0,1-1.16-.26c-1.86-.85-2.4-3.71-1.21-6.36a6.11,6.11,0,0,1,3.19-3.29,3,3,0,0,1,2.35,0c1.86.86,2.4,3.71,1.21,6.36a6.11,6.11,0,0,1-3.19,3.29A3.45,3.45,0,0,1,37.29,220.37Zm2-9.14a2.2,2.2,0,0,0-.84.16,5.1,5.1,0,0,0-2.64,2.76c-1,2.13-.62,4.45.73,5.07a2.09,2.09,0,0,0,1.59,0,5.15,5.15,0,0,0,2.64-2.77c.95-2.12.62-4.44-.73-5.06a1.75,1.75,0,0,0-.75-.17Z"/></g><g id="Group_991" data-name="Group 991"><path id="Path_1946" data-name="Path 1946" class="cls-5" d="M114.37,148.66l2.73-12,.79-3.5,4.67-20.59,2.27,20,1.37,12,.43,3.79c.29,2.57,1,6.22,3,8.32.83.85,7,2.77,1.66,5.68-6.69,3.63-20-.1-25.33-5.87C106,156.38,113.49,152.54,114.37,148.66Z"/></g><g id="Group_992" data-name="Group 992"><path id="Path_1947" data-name="Path 1947" class="cls-5" d="M139.47,116.47c-2.39-11.69-12.08-19.54-21.63-17.53s-15.36,13.13-13,24.83S117,143.31,126.5,141.29,141.87,128.16,139.47,116.47Z"/></g><g id="Group_993" data-name="Group 993"><path id="Path_1948" data-name="Path 1948" class="cls-4" d="M131.54,111.85c10.1-.37,14.56-6.64,14.27-12.11-.36-7-5.16-12.9-10-9.91s-3.17-3.56-8.08-3.87c-9.19-.58-10.41,6.11-17.83,7-9.79,1.16-19.76,18.61-10.65,30.1C99.22,123.06,123.56,112.15,131.54,111.85Z"/></g><g id="Group_994" data-name="Group 994"><path id="Path_1949" data-name="Path 1949" class="cls-4" d="M140,104.11s-10,11.33-8.14,17.15,1.67,8.15-4.39,11.78-.12,8.35-8.48,9.35-19.35-8.27-20.56-24.79a25.13,25.13,0,0,1,4.1-15.63Z"/></g><g id="Group_995" data-name="Group 995"><path id="Path_1950" data-name="Path 1950" class="cls-5" d="M137.27,120.59a3.62,3.62,0,0,0-5.05-.84l-.05,0A3.74,3.74,0,0,0,132,125a3.63,3.63,0,0,0,5.06.84l0,0A3.74,3.74,0,0,0,137.27,120.59Z"/></g><g id="Group_996" data-name="Group 996"><path id="Path_1951" data-name="Path 1951" class="cls-4" d="M101.35,120.71l-.1,0a.27.27,0,0,1-.15-.34h0a6.56,6.56,0,0,1,3.36-3.42.26.26,0,0,1,.21.47h0a6.09,6.09,0,0,0-3.07,3.13A.29.29,0,0,1,101.35,120.71Z"/></g><g id="Group_997" data-name="Group 997"><path id="Path_1952" data-name="Path 1952" class="cls-4" d="M104.74,116.16h-.06s-3.1-.68-3.2-3.27a.26.26,0,0,1,.25-.27.27.27,0,0,1,.27.25c.09,2.19,2.76,2.77,2.79,2.77a.26.26,0,0,1,.2.31.25.25,0,0,1-.25.21Z"/></g><g id="Group_998" data-name="Group 998"><path id="Path_1953" data-name="Path 1953" class="cls-4" d="M134.1,89.53a1.57,1.57,0,0,1-.81-.22c-1.41-.8-1.91-3.64-1.93-3.76a.27.27,0,0,1,.21-.31.28.28,0,0,1,.31.22s.47,2.71,1.67,3.4a1.14,1.14,0,0,0,1,0,6.53,6.53,0,0,0,1.84-1.19,4.51,4.51,0,0,1,4.58-1.2.26.26,0,1,1-.1.52h0a4,4,0,0,0-4.12,1.1,7.12,7.12,0,0,1-2,1.27A1.74,1.74,0,0,1,134.1,89.53Z"/></g><g id="Group_999" data-name="Group 999"><path id="Path_1954" data-name="Path 1954" class="cls-4" d="M110,92l-.61,0a.26.26,0,0,1-.24-.28.27.27,0,0,1,.28-.24c3.89.34,7-3,7-3.06a.28.28,0,0,1,.37,0,.26.26,0,0,1,0,.37C116.72,88.92,113.88,92,110,92Z"/></g><g id="Group_1000" data-name="Group 1000"><path id="Path_1955" data-name="Path 1955" class="cls-4" d="M134.79,126.75c-.88,0-2.23-.39-3.39-2.36a.12.12,0,0,1,0-.17h0a.13.13,0,0,1,.18,0c1.77,3,3.9,2.14,4,2.1a.13.13,0,0,1,.17.06h0a.12.12,0,0,1-.07.16h0A2.57,2.57,0,0,1,134.79,126.75Z"/></g><g id="Group_1002" data-name="Group 1002"><g id="Group_1001" data-name="Group 1001"><path id="Path_1956" data-name="Path 1956" class="cls-5" d="M236.54,152.69c2-5-13.71-13.5-13.71-13.5-1.72-.38-15,30.38-43.7,33.11-10.23,1-29.38-9.7-31.28-11.7-.25-.27-17.07,15.54-17.07,15.54,3.43,3.61,11,16.44,24.49,21.35C183.18,207.63,228.53,186,236.54,152.69Z"/></g></g><g id="Group_1003" data-name="Group 1003"><path id="Path_1957" data-name="Path 1957" class="cls-4" d="M112.07,486s.18,7.56,5.22,9.69,19.63,4.05,14.18,8.91c-3.13,2.78-17.88,1-22,1s-8.08,1.84-11.17-1c-3.4-3.11,0-18.6,0-18.6a16.45,16.45,0,0,0,6.82,1.81C109.74,487.64,112.07,486,112.07,486Z"/></g><g id="Group_1004" data-name="Group 1004"><path id="Path_1958" data-name="Path 1958" class="cls-8" d="M155.52,257.93s1,34.1-9.71,99.51c-7.74,47.22-16.88,94.81-21.36,117.62a17.62,17.62,0,0,1-16.38,14.45l-4.31.18c-8.66.35-15.7-7.2-15.06-16.19L99.57,319.17l2.68-50.8Z"/></g><g id="Group_1005" data-name="Group 1005"><path id="Path_1959" data-name="Path 1959" class="cls-4" d="M64.36,486s.19,7.56,5.22,9.69,19.64,4.05,14.18,8.91c-3.13,2.78-17.87,1-22,1s-8.07,1.84-11.16-1c-3.4-3.11,0-18.6,0-18.6a16.37,16.37,0,0,0,6.82,1.81C62,487.64,64.36,486,64.36,486Z"/></g><g id="Group_1006" data-name="Group 1006"><path id="Path_1960" data-name="Path 1960" class="cls-8" d="M107.82,257.93s1,34.1-9.72,99.51c-7.74,47.22-16.88,94.81-21.36,117.62a17.61,17.61,0,0,1-16.38,14.45l-4.3.18c-8.67.35-15.7-7.2-15.07-16.19L51.86,319.17l2.69-50.8Z"/></g><g id="Group_1007" data-name="Group 1007"><path id="Path_1961" data-name="Path 1961" class="cls-9" d="M74.46,168.76s8.27-20.6,47.46-15.23c56.53,7.75,42.87,47.76,38.14,99.34,0,0-51.66-2.09-105.94,1.87C54.12,254.74,57.68,199.64,74.46,168.76Z"/></g><g id="Group_1008" data-name="Group 1008"><path id="Path_1962" data-name="Path 1962" class="cls-9" d="M52.61,167.86S59.34,190.33,77,196.93c16.8,6.28,75.82,17.15,88.17,8.12,16.54-12.08,7.74-37.19,7.74-37.19s-11.11-3.17-37.41-11.46c-2.47-.78-5.05-1.45-7.74-2a89.44,89.44,0,0,0-13.65-1.66C72.36,150.47,52.61,167.86,52.61,167.86Z"/></g><g id="Group_1009" data-name="Group 1009"><path id="Path_1963" data-name="Path 1963" class="cls-4" d="M95.87,372.05a.33.33,0,0,1-.33-.33.13.13,0,0,1,0-.06A81.71,81.71,0,0,0,92.47,330a60.42,60.42,0,0,0-7.76-15.38.32.32,0,0,1,0-.46.34.34,0,0,1,.46,0v0c.18.22,17.21,22.68,11,57.56A.32.32,0,0,1,95.87,372.05Z"/></g><g id="Group_1010" data-name="Group 1010"><path id="Path_1964" data-name="Path 1964" class="cls-8" d="M54.12,254.74S83.68,231.82,85,202.19s15.92-26.12,25.7-25.34,23.21,0,24.75,8.19-4.61,29.24,8.07,48.34,16.58,19.49,16.58,19.49l-8.23,61.55L52.72,303.16Z"/></g><g id="Group_1011" data-name="Group 1011"><path id="Path_1965" data-name="Path 1965" class="cls-8" d="M98.93,178.93l-1-26.29s5.19-1.61,8.49-.13l-.6,28Z"/></g><g id="Group_1012" data-name="Group 1012"><path id="Path_1966" data-name="Path 1966" class="cls-8" d="M123.51,180.5l14.48-23s8.87-1,9.87,3.08l-17.07,25.87Z"/></g><g id="Group_1015" data-name="Group 1015"><g id="Group_1013" data-name="Group 1013"><path id="Path_1967" data-name="Path 1967" class="cls-4" d="M223.78,113.48h0a1.19,1.19,0,0,1-1.6-.55h0L205.86,79.47a1.23,1.23,0,0,1,.55-1.63h0a1.2,1.2,0,0,1,1.6.54h0l16.31,33.45A1.24,1.24,0,0,1,223.78,113.48Z"/></g><g id="Group_1014" data-name="Group 1014"><path id="Path_1968" data-name="Path 1968" class="cls-3" d="M240,146.67h0a6.57,6.57,0,0,1-8.8-3l0-.06-15-30.8a6.75,6.75,0,0,1,3-9h0a6.57,6.57,0,0,1,8.8,3l0,.07,15,30.8A6.76,6.76,0,0,1,240,146.67Z"/></g></g><g id="Group_1022" data-name="Group 1022"><g id="Group_1016" data-name="Group 1016"><path id="Path_1969" data-name="Path 1969" class="cls-5" d="M237.6,142l.53.38a2,2,0,0,0,2.82-.47v0l7.15-10.23a2.08,2.08,0,0,0-.49-2.87l-.53-.38a2,2,0,0,0-2.81.46l0,0-7.15,10.22A2.09,2.09,0,0,0,237.6,142Z"/></g><g id="Group_1017" data-name="Group 1017"><path id="Path_1970" data-name="Path 1970" class="cls-5" d="M232.71,138.48l.47.34a2.05,2.05,0,0,0,2.87-.48v0l9.3-13.32a2.12,2.12,0,0,0-.49-2.93l-.46-.34a2.06,2.06,0,0,0-2.87.48l0,0-9.3,13.32A2.13,2.13,0,0,0,232.71,138.48Z"/></g><g id="Group_1018" data-name="Group 1018"><path id="Path_1971" data-name="Path 1971" class="cls-5" d="M224.85,147.39l.83,0a2.87,2.87,0,0,0,2.69-3l-.84-15.47a2.87,2.87,0,0,0-3-2.73l-.84.05a2.88,2.88,0,0,0-2.69,3l.85,15.47A2.88,2.88,0,0,0,224.85,147.39Z"/></g><g id="Group_1019" data-name="Group 1019"><path id="Path_1972" data-name="Path 1972" class="cls-5" d="M228,135.11h0a2.35,2.35,0,0,0,3.27-.54l0,0,10.43-14.93a2.43,2.43,0,0,0-.56-3.34h0a2.35,2.35,0,0,0-3.27.54l0,0-10.43,14.93A2.43,2.43,0,0,0,228,135.11Z"/></g><g id="Group_1020" data-name="Group 1020"><path id="Path_1973" data-name="Path 1973" class="cls-5" d="M234.58,154.08s12.28-5.61,14.57-15c.79-3.26-11.29-16.83-14.55-15s-12,16.14-12,16.14Z"/></g><g id="Group_1021" data-name="Group 1021"><path id="Path_1974" data-name="Path 1974" class="cls-5" d="M242.4,145.48l.68.49a1.93,1.93,0,0,0,2.69-.44v0l5.75-8.23a2,2,0,0,0-.45-2.74l-.68-.49a1.93,1.93,0,0,0-2.69.44v0L242,142.74A2,2,0,0,0,242.4,145.48Z"/></g></g></g></g></g></g></svg>