<svg xmlns="http://www.w3.org/2000/svg" viewBox="0 0 60.64 62.55"><defs><style>.cls-1{fill:none;stroke:#000;stroke-miterlimit:10;}</style></defs><g id="Layer_2" data-name="Layer 2"><g id="Layer_1-2" data-name="Layer 1"><path class="cls-1" d="M37.31,1.23,35.38,4.09V3.42A2.79,2.79,0,0,1,38,.51,2.78,2.78,0,0,0,37.31,1.23Z"/><path class="cls-1" d="M41.58.51H58a2.06,2.06,0,0,1,1.53.7,2.52,2.52,0,0,1,.64,1.7A2.3,2.3,0,0,1,58,5.32H44.67v.25a11.33,11.33,0,0,0-1.6-3.23l-.81-1.16A2.89,2.89,0,0,0,41.58.51Z"/><path class="cls-1" d="M59.5,56.94a2.48,2.48,0,0,1,.64,1.7A2.3,2.3,0,0,1,58,61.05h-16a10.65,10.65,0,0,0,2.82-4.81H58A2.06,2.06,0,0,1,59.5,56.94Z"/><path class="cls-1" d="M44.67,16.64v5.65H57.59a2.7,2.7,0,0,1,2.55,2.83h0A2.69,2.69,0,0,1,57.59,28H44.67v5.66H57.59a2.41,2.41,0,0,1,1.8.83,2.94,2.94,0,0,1,.75,2,2.69,2.69,0,0,1-2.55,2.82H44.67v5.67H57.59a2.44,2.44,0,0,1,1.8.82,3,3,0,0,1,.75,2,2.7,2.7,0,0,1-2.55,2.83H45a13.51,13.51,0,0,0-8.75-10.26l-.2-7.2,8.36-19.8A11.65,11.65,0,0,0,45,11H57.59a2.69,2.69,0,0,1,2.55,2.82h0a2.7,2.7,0,0,1-2.55,2.83Z"/><path class="cls-1" d="M43.21,9.05a9.72,9.72,0,0,1-.68,3.54L34,32.72a7,7,0,0,1-3.89,3.77L23.05,26,39,2.35a1,1,0,0,1,.82-.44,1.14,1.14,0,0,1,.83.42l.82,1.16A9.64,9.64,0,0,1,43.21,9.05Z"/><path class="cls-1" d="M20.65,43.31l-3-4.38-1.28,0h-.33a8.35,8.35,0,0,1-1.66-.17l-2,2.92a10.7,10.7,0,0,0-10,4.88c-3.25,4.83-2.4,11.11,1.89,14A8.56,8.56,0,0,0,9.19,62a10.87,10.87,0,0,0,8.86-4.95A10.69,10.69,0,0,0,18.83,46Zm-6.88,11.2c-1.55,2.28-4.43,3-6.44,1.69s-2.39-4.31-.85-6.6,4.43-3.05,6.44-1.69S15.31,52.21,13.77,54.51Z"/><path class="cls-1" d="M36.37,56.2c-2,1.35-4.89.59-6.43-1.69s-1.16-5.25.84-6.6,4.9-.6,6.44,1.69S38.39,54.84,36.37,56.2Zm4.86-9.6a10.73,10.73,0,0,0-10-4.88L4.73,2.36a1,1,0,0,0-.81-.44.86.86,0,0,0-.83.42L2.27,3.49a9.64,9.64,0,0,0-1.09,9.12l8.5,20.11A7,7,0,0,0,16.34,37l2.39-.08L24.88,46a10.71,10.71,0,0,0,.78,11.08A11.16,11.16,0,0,0,32,61.72a9.78,9.78,0,0,0,2.48.33,8.59,8.59,0,0,0,4.82-1.45,8.85,8.85,0,0,0,3.78-6.34A11.18,11.18,0,0,0,41.23,46.6ZM22.49,36.81A1.21,1.21,0,1,1,23.7,35.6,1.21,1.21,0,0,1,22.49,36.81Z"/></g></g></svg>