<svg xmlns="http://www.w3.org/2000/svg" viewBox="0 0 194.67 230.77"><g id="Layer_2" data-name="Layer 2"><g id="Layer_1-2" data-name="Layer 1"><circle cx="136.46" cy="21.5" r="21.5" transform="translate(84.57 149.53) rotate(-76.89)"/><path d="M96.07,103.15c4.24-15.83,9.59-25.55,14.26-31.42l-8.11,39.85c5.76,9.47,10.71,22.55,15,39.73A11.43,11.43,0,0,1,116,160a11.31,11.31,0,0,1-2.67,3l.68.14.84.16v54.36a10,10,0,0,0,20,0V165.23h3.33v52.46a10,10,0,0,0,20,0V163.33c14.24-2.65,21.67-7.09,21.67-7.09L162.61,71.75l.24.29c6.71,8.59,14.77,25.15,18.88,56.38a6.5,6.5,0,0,0,12.89-1.7C190,91.78,180.52,72.6,171.38,62c-8.44-9.88-16.55-12-18.72-12.37a72.35,72.35,0,0,0-16.19-2.09,72.37,72.37,0,0,0-16.2,2.09C118.1,49.93,110,52.07,101.55,62,95.69,68.77,89.7,79.11,84.93,94.83A32.61,32.61,0,0,1,96.07,103.15Z"/><path d="M39.07,210.85H22.73V177h8.89l-1.44-6.54H22.73v-18a5.17,5.17,0,0,0-3.62-4.92,5.11,5.11,0,0,0-1.56-.27,5.19,5.19,0,0,0-5.19,5.19v73.12a5.19,5.19,0,1,0,10.37,0V217.4H42a11.43,11.43,0,0,1-2.67-5.18Z"/><path d="M73.82,85.75c0-10.89-8.07-19.72-18-19.72s-18,8.83-18,19.72,8.07,24.4,18,24.4S73.82,96.65,73.82,85.75Z"/><path d="M49.83,207.29l4.84-22-5.14-23.36a9.28,9.28,0,0,0-18.12,4L41.5,211.75a9.28,9.28,0,0,0,11,7.07,7.9,7.9,0,0,0,1.08-.32A11.49,11.49,0,0,1,49.83,207.29Z"/><path d="M73.11,154.86a9.28,9.28,0,0,0-11.06,7.06L52,207.76a9.28,9.28,0,1,0,18.12,4l10.08-45.84A9.27,9.27,0,0,0,73.11,154.86Z"/><path d="M8.54,159.55a2.48,2.48,0,0,0-.16-.86,5.43,5.43,0,0,0,2.37-3.27c5.18-20.79,10.87-32.64,15.63-38.86,3.7-4.75,6.44-6.22,8.39-6.68-.17,12.82,1.58,32.67,1.58,32.67,0,1.52-.55,6.07-1,11.13a11.06,11.06,0,0,1,2.66-1,11.4,11.4,0,0,1,2.47-.27,11.51,11.51,0,0,1,11.18,9L55.09,177h1.4l3.43-15.55a11.45,11.45,0,0,1,13.66-8.73,11.37,11.37,0,0,1,2.66,1c-.45-5.06-1-9.61-1-11.13,0,0,1.75-19.86,1.57-32.67,2,.46,4.7,1.93,8.4,6.68,4.75,6.22,10.44,18.08,15.62,38.86a5.44,5.44,0,0,0,2.38,3.27,2.48,2.48,0,0,0-.17.86v58.94a2.46,2.46,0,0,0,4.92,0V159.55a1.76,1.76,0,0,0,0-.31,5.45,5.45,0,0,0,3.5-6.47C106,131.15,100,118.07,93.89,110s-13-11.26-18.68-11.19a19.5,19.5,0,0,0-2.24.16c-3.61,7.52-9.94,13.55-17.17,13.55s-13.58-6-17.18-13.55a19.67,19.67,0,0,0-2.24-.16c-5.7-.07-12.65,3.09-18.69,11.19S5.59,131.15.16,152.77a5.48,5.48,0,0,0,3.5,6.48c0,.1,0,.2,0,.3v58.94a2.46,2.46,0,1,0,4.91,0V159.55Z"/><path d="M99.22,152.46A5.19,5.19,0,0,0,94,147.27a5,5,0,0,0-1.78.34l-.18,0a5.18,5.18,0,0,0-3.22,4.8v18H81.41L80,177h8.89v33.83H72.52l-.3,1.37a11.35,11.35,0,0,1-2.68,5.18H88.86v8.19a5.18,5.18,0,1,0,10.36,0V152.46Z"/><polygon points="29.78 148.91 30.96 148.91 30.96 124.9 29.14 124.9 28.11 124.9 25.5 124.9 25.5 130.04 25.5 148.91 29.78 148.91"/><rect x="80.62" y="124.9" width="5.46" height="24.01"/></g></g></svg>