<svg xmlns="http://www.w3.org/2000/svg" viewBox="0 0 149.9 148.9"><defs><style>.cls-1{fill:#707071;}</style></defs><g id="Layer_2" data-name="Layer 2"><g id="Layer_1-2" data-name="Layer 1"><path class="cls-1" d="M146.2,122.4h-9.6a6.38,6.38,0,0,1-6.4-6.4,24.76,24.76,0,0,0-15.3-22.9V87.2a7.77,7.77,0,0,0-3.4-6.3V7.7a7.7,7.7,0,0,0-15.4,0V80.9a7.77,7.77,0,0,0-3.4,6.3v5.5a24.79,24.79,0,0,0-16.1,23.2V124a24.8,24.8,0,0,0,24.8,24.8H127a23,23,0,0,0,22.9-22.9A3.87,3.87,0,0,0,146.2,122.4ZM103.7,4.9a2.69,2.69,0,0,1,2.7,2.7v72h-5.5V7.6A2.84,2.84,0,0,1,103.7,4.9ZM99.5,91.2v-4a.65.65,0,0,1,.6-.6h7.2a.65.65,0,0,1,.6.6v4H99.5Zm27.4,50.7a16.35,16.35,0,0,1-9.9-10.3l-.4-1.3a2.47,2.47,0,0,0-4.7,1.5l.4,1.3a22.09,22.09,0,0,0,5.4,8.8h-5.8a19.54,19.54,0,0,1-13.3-18.4v-3.4a2.5,2.5,0,0,0-5,0v3.4a24.26,24.26,0,0,0,8.4,18.4h-.8a17.84,17.84,0,0,1-17.8-17.8V116a17.84,17.84,0,0,1,17.8-17.8h4.2A17.84,17.84,0,0,1,123.2,116a13.42,13.42,0,0,0,13.5,13.4h5.7A16.24,16.24,0,0,1,126.9,141.9Z"/><path class="cls-1" d="M68.8,86.7H67.2l.1-2.5.1-2.4a3.46,3.46,0,0,0-.9-2.6h-.1A10.71,10.71,0,0,0,55.7,68.5a7.57,7.57,0,0,0-1.5.1,15,15,0,0,0-28.9-1.1,11.56,11.56,0,0,0-4.5-.8A12.5,12.5,0,0,0,8.3,79.2h0a3.54,3.54,0,0,0-1,2.6l.1,2.4.1,2.5H5.9A5.85,5.85,0,0,0,0,92.6v17.9a22.83,22.83,0,0,0,9.8,18.7h0l.2,3.1.7,13.3a3.44,3.44,0,0,0,3.5,3.3H60.5a3.51,3.51,0,0,0,3.5-3.3l.7-13.3.2-3.1a22.83,22.83,0,0,0,9.8-18.7V92.6A5.85,5.85,0,0,0,68.8,86.7Zm-47.9-15a7.81,7.81,0,0,1,4.8,1.7,2.49,2.49,0,0,0,2.6.4,2.55,2.55,0,0,0,1.5-2.2,10,10,0,0,1,20,.3A2.44,2.44,0,0,0,51,74a2.54,2.54,0,0,0,2.4.1,5.42,5.42,0,0,1,2.5-.6,5.7,5.7,0,0,1,5.6,4.6H34.9v.1a2.83,2.83,0,0,0-2.5,2.9V97.6a1.87,1.87,0,0,1-2.2,1.9,2,2,0,0,1-1.6-2V81.1a2.92,2.92,0,0,0-2.5-2.9v-.1H13.4A7.55,7.55,0,0,1,20.9,71.7Zm36.7,63.5-.3,6.7H17.6l-.4-6.7-.1-2.6a23.31,23.31,0,0,0,5.9.8H51.9a23.31,23.31,0,0,0,5.9-.8Zm12.1-24.7A17.61,17.61,0,0,1,64.5,123l-.3.3c-.3.3-.6.5-.9.8l-.3.3-1.2.9c-.1.1-.2.1-.3.2a10.91,10.91,0,0,1-1.1.6c-.1.1-.2.1-.3.2-.4.2-.9.4-1.3.6-.1,0-.2.1-.3.1a17,17,0,0,1-6.7,1.3H23a18.58,18.58,0,0,1-6.7-1.3c-.1-.1-.3-.1-.4-.2-.4-.2-.9-.4-1.3-.6-.1-.1-.2-.1-.4-.2s-.7-.4-1-.6c-.1-.1-.2-.1-.3-.2a10.63,10.63,0,0,1-1.1-.9l-.3-.3-.9-.9-.2-.2a17.84,17.84,0,0,1-5.2-12.6V92.6a.9.9,0,0,1,.9-.9H8l.1,2.5,1.2,23.2a15.45,15.45,0,0,0,7.4,7.1L14.6,85.1h9V97.7a6.84,6.84,0,0,0,7.8,6.8,7,7,0,0,0,6-7.1V85.1H60.3l-2.1,39.4a15.45,15.45,0,0,0,7.4-7.1l1.2-23.2.1-2.5h1.9a.9.9,0,0,1,.9.9Z"/></g></g></svg>