<svg xmlns="http://www.w3.org/2000/svg" viewBox="0 0 80 80"><g id="Layer_2" data-name="Layer 2"><g id="Layer_1-2" data-name="Layer 1"><path d="M51.46,55H45.53V49.06a1,1,0,0,0-1-1H35.48a1,1,0,0,0-1,1V55H28.54a1,1,0,0,0-1,1V65a1,1,0,0,0,1,1h5.94V72a1,1,0,0,0,1,1h9.05a1,1,0,0,0,1-1V66h5.93a1,1,0,0,0,1-1V56A1,1,0,0,0,51.46,55Zm-1,9.05H44.53a1,1,0,0,0-1,1V71H36.48V65a1,1,0,0,0-1-1H29.54V57h5.94a1,1,0,0,0,1-1V50.06h7.05V56a1,1,0,0,0,1,1h5.93Z"/><path d="M3.46,40.12v31.8A8.1,8.1,0,0,0,11.55,80h56.9a8.1,8.1,0,0,0,8.09-8.08V40.12A5.84,5.84,0,0,0,80,34.8V19.59a1,1,0,0,0-1-1H60.25C59.92,8.29,51,0,40,0S20.08,8.29,19.75,18.59H1a1,1,0,0,0-1,1V34.8A5.84,5.84,0,0,0,3.46,40.12Zm71.08,31.8A6.09,6.09,0,0,1,68.45,78H11.55a6.09,6.09,0,0,1-6.09-6.08V40.61l.37,0H34v2.86a1,1,0,0,0,1,1H45.12a1,1,0,0,0,1-1V40.63H74.17l.37,0ZM36,42.49v-9.7h8.17v9.7ZM40,2c9.87,0,17.92,7.39,18.25,16.59H53.58C53.26,11.76,47.3,6.29,40,6.29s-13.25,5.47-13.58,12.3H21.75C22.08,9.39,30.13,2,40,2ZM51.58,18.59H28.42c.33-5.73,5.39-10.3,11.58-10.3S51.25,12.86,51.58,18.59ZM2,20.59H78V34.8a3.84,3.84,0,0,1-3.83,3.83H46.12V31.79a1,1,0,0,0-1-1H35a1,1,0,0,0-1,1v6.84H5.83A3.84,3.84,0,0,1,2,34.8Z"/></g></g></svg>