<svg xmlns="http://www.w3.org/2000/svg" viewBox="0 0 80 80"><g id="Layer_2" data-name="Layer 2"><g id="Layer_1-2" data-name="Layer 1"><path d="M31.23,42.74l3,0-1.65,11a1,1,0,0,0,.53,1,1,1,0,0,0,.46.11,1,1,0,0,0,.7-.28l16.42-16a1,1,0,0,0-.7-1.72H43.78l4.15-9.77a1,1,0,0,0-.09-.94,1,1,0,0,0-.83-.45H33a1,1,0,0,0-1,.88l-1.72,15a1,1,0,0,0,.25.78A1,1,0,0,0,31.23,42.74Zm2.61-15H45.5l-4.15,9.76a1,1,0,0,0,.92,1.39l5.25,0L35,51.12l1.38-9.2a1,1,0,0,0-.23-.8,1,1,0,0,0-.75-.35l-3,0Z"/><path d="M67.87,27.88a6.11,6.11,0,1,0,0-2H61.75V19.25a1,1,0,0,0-1-1H54.12V12.13a6.11,6.11,0,1,0-2,0v6.12H41V7.75a1,1,0,0,0-2,0v10.5H27.88V12.13a6.11,6.11,0,1,0-2,0v6.12H19.25a1,1,0,0,0-1,1v6.63H12.13a6.11,6.11,0,1,0,0,2h6.12V39H7.75a1,1,0,0,0,0,2h10.5V52.12H12.13a6.11,6.11,0,1,0,0,2h6.12v6.63a1,1,0,0,0,1,1h6.63v6.12a6.11,6.11,0,1,0,2,0V61.75H39v10.5a1,1,0,0,0,2,0V61.75H52.12v6.12a6.11,6.11,0,1,0,2,0V61.75h6.63a1,1,0,0,0,1-1V54.12h6.12a6.11,6.11,0,1,0,0-2H61.75V41h10.5a1,1,0,0,0,0-2H61.75V27.88Zm6-5.11a4.11,4.11,0,1,1-4.11,4.11A4.12,4.12,0,0,1,73.89,22.77ZM49,6.11a4.11,4.11,0,1,1,4.11,4.11A4.11,4.11,0,0,1,49,6.11Zm-26.24,0a4.11,4.11,0,1,1,4.11,4.11A4.12,4.12,0,0,1,22.77,6.11ZM6.11,31a4.11,4.11,0,1,1,4.11-4.11A4.11,4.11,0,0,1,6.11,31Zm0,26.24a4.11,4.11,0,1,1,4.11-4.11A4.12,4.12,0,0,1,6.11,57.23ZM31,73.89a4.11,4.11,0,1,1-4.11-4.11A4.11,4.11,0,0,1,31,73.89Zm26.24,0a4.11,4.11,0,1,1-4.11-4.11A4.12,4.12,0,0,1,57.23,73.89ZM73.89,49a4.11,4.11,0,1,1-4.11,4.11A4.11,4.11,0,0,1,73.89,49ZM59.75,59.75H20.25V20.25h39.5Z"/></g></g></svg>