<svg xmlns="http://www.w3.org/2000/svg" viewBox="0 0 303.36 511.97"><defs><style>.cls-1{fill:#cfe2de;}.cls-2{fill:#2f1a31;}.cls-3{fill:#f7b686;}.cls-4{fill:#436e8e;}.cls-5{fill:#9bbcb6;}.cls-6{fill:#020202;}.cls-7{opacity:0.5;}.cls-8{fill:#e08b65;}.cls-9{fill:#56335b;}.cls-10{fill:#060633;}.cls-11{fill:#fff;}.cls-12{fill:#e28569;}.cls-13{fill:#d16b54;}.cls-14{fill:#96a7e2;}.cls-15{opacity:0.4;}.cls-16{fill:#7aa098;}</style></defs><g id="Layer_2" data-name="Layer 2"><g id="Layer_1-2" data-name="Layer 1"><g id="Group_966" data-name="Group 966"><g id="Group_963" data-name="Group 963"><g id="Group_960" data-name="Group 960"><g id="Group_903" data-name="Group 903"><path id="Path_1875" data-name="Path 1875" class="cls-1" d="M303.24,71.23c.14,2.38-12,5.25-29.93,7.47l-3.16.37c-6.93.79-14.61,1.48-22.7,2-6.87.45-13.46.74-19.55.89-2.21.06-4.36.1-6.43.11-18,.15-30.43-1.11-30.58-3.5-.13-2,8.9-4.47,22.9-6.51l3.43-.48c5.93-.8,12.6-1.53,19.75-2.13,3.15-.26,6.39-.51,9.7-.73,2.31-.15,4.6-.28,6.83-.4,9.46-.49,18.22-.68,25.66-.59h.53C293.84,68,303.1,69.18,303.24,71.23Z"/></g><g id="Group_904" data-name="Group 904"><path id="Path_1876" data-name="Path 1876" class="cls-2" d="M244.48,36.18h0a1.93,1.93,0,0,1-1.93-1.93h0V1.93A1.92,1.92,0,0,1,244.48,0h0a1.92,1.92,0,0,1,1.93,1.93h0V34.25A1.92,1.92,0,0,1,244.48,36.18Z"/></g><g id="Group_905" data-name="Group 905"><path id="Path_1877" data-name="Path 1877" class="cls-2" d="M238.89,33.77a5.59,5.59,0,1,1,5.59,5.73A5.66,5.66,0,0,1,238.89,33.77Z"/></g><g id="Group_959" data-name="Group 959"><g id="Group_906" data-name="Group 906"><path id="Path_1878" data-name="Path 1878" class="cls-3" d="M227.31,114h0a2,2,0,0,0,2.69-1v0l7.13-16.18a2.09,2.09,0,0,0-1-2.74h0a2,2,0,0,0-2.69,1v0l-7.13,16.18A2.09,2.09,0,0,0,227.31,114Z"/></g><g id="Group_907" data-name="Group 907"><path id="Path_1879" data-name="Path 1879" class="cls-3" d="M222.53,111.82h0a2,2,0,0,0,2.69-1v0l8-18.09a2.08,2.08,0,0,0-1-2.74h0a2,2,0,0,0-2.69,1h0l-8,18.1A2.09,2.09,0,0,0,222.53,111.82Z"/></g><g id="Group_908" data-name="Group 908"><path id="Path_1880" data-name="Path 1880" class="cls-3" d="M217.75,109.65h0a2,2,0,0,0,2.69-1v0l6.39-14.5a2.09,2.09,0,0,0-1-2.74h0a2,2,0,0,0-2.69,1v0l-6.39,14.5A2.1,2.1,0,0,0,217.75,109.65Z"/></g><g id="Group_909" data-name="Group 909"><path id="Path_1881" data-name="Path 1881" class="cls-3" d="M223.06,131.54s9.52-6.89,9.9-15.31c.13-2.91-14.11-8.91-16.58-6.81s-5.85,12.31-5.85,12.31Z"/></g><g id="Group_910" data-name="Group 910"><path id="Path_1882" data-name="Path 1882" class="cls-3" d="M232.05,116.16h0a2,2,0,0,0,2.69-1v0l6.38-14.47a2.09,2.09,0,0,0-1-2.74h0a2,2,0,0,0-2.69,1v0L231,113.42A2.09,2.09,0,0,0,232.05,116.16Z"/></g><g id="Group_912" data-name="Group 912"><g id="Group_911" data-name="Group 911"><path id="Path_1883" data-name="Path 1883" class="cls-3" d="M207.58,118.53c-14.92,18.22-37.76,43.22-61.82,58.84a78.8,78.8,0,0,1-11.29,6.55c-2.85,1.31-3.81,7.9-1.65,12.87,2,4.66,7,7.33,10.66,6.41,2.77-.69,1.24,3,7.52-.92,21.81-13.66,48.26-40.48,72.48-71.69Z"/></g></g><g id="Group_913" data-name="Group 913"><path id="Path_1884" data-name="Path 1884" class="cls-2" d="M118.2,491.15s.19,7.8,5.39,10,20.26,4.18,14.63,9.2c-3.23,2.87-18.45,1-22.75,1s-8.33,1.9-11.52-1c-3.51-3.22,0-19.2,0-19.2a17,17,0,0,0,7,1.88C115.8,492.9,118.2,491.15,118.2,491.15Z"/></g><g id="Group_914" data-name="Group 914"><path id="Path_1885" data-name="Path 1885" class="cls-2" d="M58.51,491.15s.19,7.8,5.39,10,20.25,4.18,14.63,9.2c-3.23,2.87-18.45,1-22.75,1s-8.33,1.9-11.52-1c-3.51-3.21,0-19.19,0-19.19a17.11,17.11,0,0,0,7,1.87C56.11,492.89,58.51,491.15,58.51,491.15Z"/></g><g id="Group_915" data-name="Group 915"><path id="Path_1886" data-name="Path 1886" class="cls-4" d="M156.83,277.43s1,32.63-9.3,95.23c-7.41,45.2-16.16,90.74-20.45,112.58a16.87,16.87,0,0,1-15.67,13.83l-4.13.17c-8.29.33-15-6.9-14.41-15.49L103.28,336l2.56-48.62Z"/></g><g id="Group_916" data-name="Group 916"><path id="Path_1887" data-name="Path 1887" class="cls-4" d="M135.38,305.22l-67.5,184.1a18.7,18.7,0,0,1-17.4,13.45l-3.48.06c-8.21.14-14.48-7.57-13-15.95l35.2-182.47c.46-2.11,7.76-3.07,9.84-3.25C96.27,299.71,136.44,297.43,135.38,305.22Z"/></g><g id="Group_917" data-name="Group 917"><path id="Path_1888" data-name="Path 1888" class="cls-5" d="M91.1,195.86s10.71-20.63,37.71-15.65c12.75,2.35,20.33-3.36,23.42,20.47,2.78,21.4-2.91,49.38-6.08,90.79,0,0-19.65-45.13-75-29.71,0,0-2.35-20.65,7.57-55.23C81.53,196.79,87.48,202.44,91.1,195.86Z"/></g><g id="Group_918" data-name="Group 918"><path id="Path_1889" data-name="Path 1889" class="cls-5" d="M69.06,183.57l20.6,23.5s47.7,22.57,63.14-.15c11.29-16.61-1.73-35.5-1.73-35.5a57.28,57.28,0,0,1-26.79,6.2c-4.07-.15-14.41.49-18.42.36C77.91,177,69.06,183.57,69.06,183.57Z"/></g><g id="Group_919" data-name="Group 919"><path id="Path_1890" data-name="Path 1890" class="cls-6" d="M98.09,408.33l-1-.22,14.23-61.73A37.34,37.34,0,0,1,128,325.51l.5.85a36.23,36.23,0,0,0-16.2,20.28Z"/></g><g id="Group_920" data-name="Group 920"><path id="Path_1891" data-name="Path 1891" class="cls-2" d="M68.92,183.73c-2.18,2.12,0,8.15,7.32,15.4S87,209,90.14,205.46c2.09-2.35,1.86-12.05-5.7-18.15C78.57,182.57,70.47,182.21,68.92,183.73Z"/></g><g id="Group_921" data-name="Group 921"><path id="Path_1892" data-name="Path 1892" class="cls-4" d="M80.06,301.08s37-6.21,73.08,1.87a3.41,3.41,0,0,1,2.63,3.66l-1.28,13.68-37.81-9.55Z"/></g><g id="Group_928" data-name="Group 928"><g id="Group_922" data-name="Group 922"><path id="Path_1893" data-name="Path 1893" class="cls-3" d="M11.37,303.73h0a2.38,2.38,0,0,0-2.7,2l-3,20.44a2.44,2.44,0,0,0,2,2.75h0a2.4,2.4,0,0,0,2.7-2l3-20.44A2.41,2.41,0,0,0,11.37,303.73Z"/></g><g id="Group_923" data-name="Group 923"><path id="Path_1894" data-name="Path 1894" class="cls-3" d="M17.41,304.63h0a2.41,2.41,0,0,0-2.71,2l-3.31,22.86a2.44,2.44,0,0,0,2,2.75h0a2.4,2.4,0,0,0,2.7-2l3.31-22.86A2.41,2.41,0,0,0,17.41,304.63Z"/></g><g id="Group_924" data-name="Group 924"><path id="Path_1895" data-name="Path 1895" class="cls-3" d="M20.76,293l-.74.43a3,3,0,0,0-1,4L26.74,311A2.87,2.87,0,0,0,30.65,312l0,0,.73-.43a3,3,0,0,0,1.05-4L24.7,294A2.88,2.88,0,0,0,20.79,293Z"/></g><g id="Group_925" data-name="Group 925"><path id="Path_1896" data-name="Path 1896" class="cls-3" d="M23.45,305.53h0a2.41,2.41,0,0,0-2.71,2L18.09,325.9a2.42,2.42,0,0,0,2,2.74h0a2.4,2.4,0,0,0,2.71-2l2.65-18.32A2.42,2.42,0,0,0,23.45,305.53Z"/></g><g id="Group_926" data-name="Group 926"><path id="Path_1897" data-name="Path 1897" class="cls-3" d="M9,291.47S.43,302.25,2.62,311.82c.76,3.32,18.61,5.47,20.73,2.33s2.73-15.7,2.73-15.7Z"/></g><g id="Group_927" data-name="Group 927"><path id="Path_1898" data-name="Path 1898" class="cls-3" d="M5.38,302.81h0a2.39,2.39,0,0,0-2.7,2L0,323.14a2.41,2.41,0,0,0,2,2.74H2a2.39,2.39,0,0,0,2.7-2h0l2.65-18.29A2.41,2.41,0,0,0,5.38,302.81Z"/></g></g><g id="Group_930" data-name="Group 930"><g id="Group_929" data-name="Group 929"><path id="Path_1899" data-name="Path 1899" class="cls-3" d="M28.94,301.28C39.76,276.62,57.19,242,78.82,217.36c5-5.72,7-7.83,10.39-10.72C91.93,204.3,91,196.78,87.1,192c-3.64-4.48-9.85-5.87-13.64-3.69-2.83,1.62-5.32,3.94-11,10.22C42.69,220.36,24.89,251.22,7.83,293Z"/></g></g><g id="Group_931" data-name="Group 931" class="cls-7"><path id="Path_1900" data-name="Path 1900" class="cls-8" d="M41.16,247.18a3.27,3.27,0,0,1-1.53-.38A3.41,3.41,0,0,1,38,244.67a7.55,7.55,0,0,1,.88-5.55c1.72-3.15,4.75-4.73,6.91-3.58a3.45,3.45,0,0,1,1.64,2.13,7.49,7.49,0,0,1-.87,5.55C45.2,245.68,43.06,247.18,41.16,247.18Zm3.09-10.83c-1.45,0-3.26,1.32-4.36,3.33h0a6.34,6.34,0,0,0-.78,4.66,2.29,2.29,0,0,0,1.07,1.42c1.52.81,4-.6,5.33-3.1a6.42,6.42,0,0,0,.78-4.65,2.36,2.36,0,0,0-1.08-1.43,2.09,2.09,0,0,0-1-.23Z"/></g><g id="Group_932" data-name="Group 932"><path id="Path_1901" data-name="Path 1901" class="cls-3" d="M112,171.07l.62-9.5.18-2.77,1-16.25,4.16,14.9,2.49,9s2,8.36,3.57,10c2.26,2.32,2.9,5.24-1.8,6.15-5.75,1.11-10.92-.8-15.7-4.53C106.63,178,111.9,176,112,171.07Z"/></g><g id="Group_947" data-name="Group 947"><g id="Group_933" data-name="Group 933"><path id="Path_1902" data-name="Path 1902" class="cls-9" d="M124.43,136.38a20.55,20.55,0,0,1,1.95,8.26c.14,4.82-7.12-5.35-7.12-5.35Z"/></g><g id="Group_934" data-name="Group 934"><path id="Path_1903" data-name="Path 1903" class="cls-3" d="M127.24,145.83c-3.24-8.6-11.57-13.36-18.6-10.63s-10.1,11.91-6.85,20.51,11.57,13.36,18.6,10.63S130.48,154.43,127.24,145.83Z"/></g><g id="Group_936" data-name="Group 936"><g id="Group_935" data-name="Group 935"><path id="Path_1904" data-name="Path 1904" class="cls-10" d="M115.05,149.92a.3.3,0,0,0,.08-.24.27.27,0,0,0-.31-.23h0a3,3,0,0,0-2.67,2.54.29.29,0,0,0,.21.34.3.3,0,0,0,.33-.21A4.8,4.8,0,0,1,114.9,150,.22.22,0,0,0,115.05,149.92Z"/></g></g><g id="Group_937" data-name="Group 937"><path id="Path_1905" data-name="Path 1905" class="cls-10" d="M114.71,153.7c.32.59.92.87,1.34.64a1.09,1.09,0,0,0,.18-1.48c-.31-.59-.91-.88-1.33-.64A1.1,1.1,0,0,0,114.71,153.7Z"/></g><g id="Group_939" data-name="Group 939"><g id="Group_938" data-name="Group 938"><path id="Path_1906" data-name="Path 1906" class="cls-10" d="M124.8,146.7a.2.2,0,0,0,.11-.17.34.34,0,0,0-.19-.35,1.93,1.93,0,0,0-2.59.83,1,1,0,0,0-.07.15.34.34,0,0,0,.08.39.19.19,0,0,0,.28,0l0,0a2.84,2.84,0,0,1,2.21-.82A.17.17,0,0,0,124.8,146.7Z"/></g></g><g id="Group_940" data-name="Group 940"><path id="Path_1907" data-name="Path 1907" class="cls-10" d="M123,150.09c.07.66.52,1.16,1,1.1s.8-.63.73-1.3-.52-1.16-1-1.1S122.94,149.42,123,150.09Z"/></g><g id="Group_941" data-name="Group 941"><path id="Path_1908" data-name="Path 1908" class="cls-9" d="M92,153.64s6.71,8.63,13.16,7.81c0,0-6.82-6.15,2.82-13.26C108,148.19,97.76,149,92,153.64Z"/></g><g id="Group_942" data-name="Group 942"><path id="Path_1909" data-name="Path 1909" class="cls-3" d="M102.09,156.84a2.8,2.8,0,0,0,3.66-1.54v0a2.86,2.86,0,0,0-1.94-3.52,2.79,2.79,0,0,0-3.65,1.54v0A2.87,2.87,0,0,0,102.09,156.84Z"/></g><g id="Group_943" data-name="Group 943"><path id="Path_1910" data-name="Path 1910" class="cls-9" d="M108,148.19s1.06,8.35,3.06,9.49,12.93-.81,17.5-4h0a11,11,0,0,1-6.1,12.81,15.58,15.58,0,0,1-5.16,1.23h0c-3.66.23-7.44-.42-9.67-3.38-.68-.9-.86-7.42-.86-7.42s-.37-3.76-2.91-5.15C103.81,151.76,105.71,149,108,148.19Z"/></g><g id="Group_944" data-name="Group 944"><path id="Path_1911" data-name="Path 1911" class="cls-11" d="M126.55,157.25a27.37,27.37,0,0,1-8.48,2.79,4.26,4.26,0,0,0,5.56,2.35,4,4,0,0,0,.47-.22C126.64,161,126.55,157.25,126.55,157.25Z"/></g><g id="Group_945" data-name="Group 945"><path id="Path_1912" data-name="Path 1912" class="cls-12" d="M103.53,148.78s27.88-2.73,35-10.89-15.07-5.48-15.07-5.48S105.42,148.53,103.53,148.78Z"/></g><g id="Group_946" data-name="Group 946"><path id="Path_1913" data-name="Path 1913" class="cls-13" d="M123.5,132.4s-7.89-10.05-20.8-6.5S83.83,140.22,92,153.64A44.66,44.66,0,0,0,111.9,143.3C121.36,134.81,123.5,132.4,123.5,132.4Z"/></g></g><g id="Group_948" data-name="Group 948"><path id="Path_1914" data-name="Path 1914" class="cls-4" d="M71.35,258.52S93.68,249,97.62,233s.88-27.72,18.21-29.15,30.87-4,36.64,1.43c5.42,5.09,6.5,68.78,2.82,105.87-.14,1.44-.19,2.65-.29,3.6-1.62,15.92-86.88-1.48-86.88-1.48Z"/></g><g id="Group_949" data-name="Group 949"><path id="Path_1915" data-name="Path 1915" class="cls-4" d="M116.34,206.4S111.9,183.23,103,177.88c0,0-4.56-1.6-5.79,0,0,0,11.06,16.92,10.8,31.54Z"/></g><g id="Group_950" data-name="Group 950"><path id="Path_1916" data-name="Path 1916" class="cls-4" d="M140,204.43s-5.78-20.32-12.42-26.82a7.6,7.6,0,0,1,6.86,1s10.66,12.94,11.54,26.49Z"/></g><g id="Group_957" data-name="Group 957"><g id="Group_951" data-name="Group 951"><path id="Path_1917" data-name="Path 1917" class="cls-14" d="M251.18,92c2.25,9.58-4.29,22.22-15.4,24.92s-22.62-2.75-24.22-12.47c-2.34-14.16,4.92-19.53,16-22.23S248.92,82.4,251.18,92Z"/></g><g id="Group_952" data-name="Group 952"><path id="Path_1918" data-name="Path 1918" class="cls-14" d="M215.07,88.42s6.25-6.4,4.61-13.35l9.7-2.36a12.71,12.71,0,0,0,9.89,8.86S227.89,91.1,215.07,88.42Z"/></g><g id="Group_953" data-name="Group 953"><path id="Path_1919" data-name="Path 1919" class="cls-5" d="M220,77.63s-3.17.29-3.24-3.32c0,0-2.71-1.79-1.11-4.21a4.37,4.37,0,0,1-1.19-4.77c1.13-2.76,13.89-4.73,15.18-3.68a2,2,0,0,1,.17,3.28s1.77.79,1.72,2.35a2.45,2.45,0,0,1-.76,2,3.14,3.14,0,0,1,1.84,2.27C233.12,73.46,231.53,76.46,220,77.63Z"/></g><g id="Group_954" data-name="Group 954" class="cls-15"><path id="Path_1920" data-name="Path 1920" class="cls-11" d="M237,108a15,15,0,0,0,3.73-8.12c.4-4.62,5-4.35,6.45-.64s-1,9.12-3.75,10.09S236.22,111.49,237,108Z"/></g><g id="Group_955" data-name="Group 955"><path id="Path_1921" data-name="Path 1921" class="cls-16" d="M216.55,70.35c-.6,0-1,0-1,0l0-.44a16.52,16.52,0,0,0,9.43-2.29l.23.37A17,17,0,0,1,216.55,70.35Z"/></g><g id="Group_956" data-name="Group 956"><path id="Path_1922" data-name="Path 1922" class="cls-16" d="M216.74,74.53h0V74.1h0c.16,0,6.58,0,10.17-2.47l.25.37C223.48,74.48,217.21,74.53,216.74,74.53Z"/></g></g><g id="Group_958" data-name="Group 958"><path id="Path_1923" data-name="Path 1923" class="cls-3" d="M206.7,121.29s2-5.64,1.1-9.46,3.54-11.66,5.26-14.37c1.95-3.07,3.61-1.72,3.72.56.08,1.76-1.27,3.88-1,6.17.61,5.23,1.53,3.77,3.2,9.7s1.52,8.57-1.29,10S206.7,121.29,206.7,121.29Z"/></g></g></g><g id="Group_961" data-name="Group 961"><path id="Path_1924" data-name="Path 1924" class="cls-2" d="M112.06,210.13a2.39,2.39,0,0,1,2.37-2.41h0c1.31,0,2.07,1.11,2.37,2.41.42,1.77-1.06,2.4-2.37,2.4A2.38,2.38,0,0,1,112.06,210.13Z"/></g><g id="Group_962" data-name="Group 962"><path id="Path_1925" data-name="Path 1925" class="cls-2" d="M139.28,206.92a2.39,2.39,0,0,1,2.37-2.41h0c1.31,0,2.07,1.12,2.37,2.41.42,1.78-1.06,2.41-2.37,2.41a2.39,2.39,0,0,1-2.37-2.41Z"/></g></g><g id="Group_965" data-name="Group 965"><g id="Group_964" data-name="Group 964"><path id="Path_1926" data-name="Path 1926" class="cls-12" d="M303.24,71.27v0c-.13-2-9.4-3.28-23.54-3.47h-.53c-7.44-.09-16.2.09-25.66.59-2.23.11-4.52.24-6.83.39-3.31.22-6.55.47-9.7.74-7.15.6-13.82,1.32-19.75,2.12l-3.43.48c-13.89,2-22.89,4.42-22.9,6.47,0-24.4,25.1-47.3,56.17-47.3S303.36,49,303.36,70.87A.72.72,0,0,1,303.24,71.27Z"/></g></g></g></g></g></svg>