<svg xmlns="http://www.w3.org/2000/svg" viewBox="0 0 143.9 130.81"><defs><style>.cls-1{fill:#707071;}</style></defs><g id="Layer_2" data-name="Layer 2"><g id="Layer_1-2" data-name="Layer 1"><path class="cls-1" d="M142.9,54.11l-10-10a3.57,3.57,0,0,0-3.4-.9l-1.8.5a6.42,6.42,0,0,1-6.4-1.8,6.53,6.53,0,0,1-1.5-6.9l.3-.9a3.41,3.41,0,0,0-.8-3.7l-20-20A35.76,35.76,0,0,0,62,2.11L49.5,6.61a8.57,8.57,0,0,0-5.5,6.3,8.82,8.82,0,0,0,10.8,10.4l.4-.1a28.47,28.47,0,0,1,24.9,5.1l-9.6,9.6a3.32,3.32,0,0,0-1,2.5,3.74,3.74,0,0,0,1,2.5L71.6,44,59.2,56.41l-.6-.6a3.5,3.5,0,0,0-5,0L4.4,105A15,15,0,0,0,0,115.71a15.4,15.4,0,0,0,4.4,10.7,14.64,14.64,0,0,0,10.7,4.4,15.22,15.22,0,0,0,10.7-4.4L75,77.11a3.32,3.32,0,0,0,1-2.5,3.74,3.74,0,0,0-1-2.5l-.6-.6,12.4-12.4,1.8,1.8a3.57,3.57,0,0,0,4.9,0L99.4,55l.1-.1a6.58,6.58,0,0,1,7,1.6,6.48,6.48,0,0,1,1.7,6.3l-.5,1.8a3.57,3.57,0,0,0,.9,3.4l10,10a3.32,3.32,0,0,0,2.5,1,3.74,3.74,0,0,0,2.5-1l9.5-9.5c.1-.1.1-.1.1-.2s.1-.1.2-.1l9.5-9.5a3.32,3.32,0,0,0,1-2.5A2.39,2.39,0,0,0,142.9,54.11ZM20.8,121.41a8.2,8.2,0,0,1-5.7,2.4,7.79,7.79,0,0,1-5.7-2.4,8.2,8.2,0,0,1-2.4-5.7A7.79,7.79,0,0,1,9.4,110l46.7-46.7,11.4,11.4Zm48.7-54.7-5.4-5.4,12.4-12.4,5.4,5.4Zm59-3.2c-.1.1-.1.1-.1.2s-.1.1-.2.1l-7,7-6.1-6.1a13.9,13.9,0,0,0-3.6-13.1,13.49,13.49,0,0,0-14.3-3.1l-.9.3a5.67,5.67,0,0,0-1.3.8l-4,4-1.8-1.8h0L79,41.51h0l-1.1-1.1,9.7-9.7a3.5,3.5,0,0,0,0-5,35.63,35.63,0,0,0-34.3-9.2l-.4.1a1.62,1.62,0,0,1-1.7-.5,2,2,0,0,1-.5-1.6,1.85,1.85,0,0,1,1.1-1.3l12.5-4.5a28.53,28.53,0,0,1,30,6.7l18.5,18.5a13.61,13.61,0,0,0,16.6,16.6l6.1,6.1Z"/></g></g></svg>