<?xml version="1.0" encoding="UTF-8"?>
<svg xmlns="http://www.w3.org/2000/svg" xmlns:xlink="http://www.w3.org/1999/xlink" width="869.25pt" height="809.999993pt" viewBox="0 0 869.25 809.999993" version="1.2">
<defs>
<clipPath id="clip1">
  <path d="M 14 15 L 831 15 L 831 746 L 14 746 Z M 14 15 "/>
</clipPath>
<clipPath id="clip2">
  <path d="M -35.039062 60.460938 L 791.066406 -18.777344 L 865.097656 753.042969 L 38.992188 832.28125 Z M -35.039062 60.460938 "/>
</clipPath>
<clipPath id="clip3">
  <path d="M -35.039062 60.460938 L 2574.277344 -189.820312 L 2648.535156 584.359375 L 39.21875 834.640625 Z M -35.039062 60.460938 "/>
</clipPath>
<clipPath id="clip4">
  <path d="M -35.039062 60.460938 L 2574.277344 -189.820312 L 2648.578125 584.820312 L 39.261719 835.101562 Z M -35.039062 60.460938 "/>
</clipPath>
<clipPath id="clip5">
  <path d="M 798 138 L 866 138 L 866 456 L 798 456 Z M 798 138 "/>
</clipPath>
<clipPath id="clip6">
  <path d="M -35.039062 60.460938 L 791.066406 -18.777344 L 865.097656 753.042969 L 38.992188 832.28125 Z M -35.039062 60.460938 "/>
</clipPath>
<clipPath id="clip7">
  <path d="M -35.039062 60.460938 L 2574.277344 -189.820312 L 2648.535156 584.359375 L 39.21875 834.640625 Z M -35.039062 60.460938 "/>
</clipPath>
<clipPath id="clip8">
  <path d="M -35.039062 60.460938 L 2574.277344 -189.820312 L 2648.578125 584.820312 L 39.261719 835.101562 Z M -35.039062 60.460938 "/>
</clipPath>
<clipPath id="clip9">
  <path d="M 840 0.347656 L 866 0.347656 L 866 754 L 840 754 Z M 840 0.347656 "/>
</clipPath>
<clipPath id="clip10">
  <path d="M -35.039062 60.460938 L 791.066406 -18.777344 L 865.097656 753.042969 L 38.992188 832.28125 Z M -35.039062 60.460938 "/>
</clipPath>
<clipPath id="clip11">
  <path d="M -35.039062 60.460938 L 2574.277344 -189.820312 L 2648.535156 584.359375 L 39.21875 834.640625 Z M -35.039062 60.460938 "/>
</clipPath>
<clipPath id="clip12">
  <path d="M -35.039062 60.460938 L 2574.277344 -189.820312 L 2648.578125 584.820312 L 39.261719 835.101562 Z M -35.039062 60.460938 "/>
</clipPath>
<clipPath id="clip13">
  <path d="M 766 222 L 868.5 222 L 868.5 461 L 766 461 Z M 766 222 "/>
</clipPath>
<clipPath id="clip14">
  <path d="M 814 630 L 868.5 630 L 868.5 755 L 814 755 Z M 814 630 "/>
</clipPath>
</defs>
<g id="surface1">
<g clip-path="url(#clip1)" clip-rule="nonzero">
<g clip-path="url(#clip2)" clip-rule="nonzero">
<g clip-path="url(#clip3)" clip-rule="nonzero">
<g clip-path="url(#clip4)" clip-rule="nonzero">
<path style=" stroke:none;fill-rule:nonzero;fill:rgb(10.198975%,9.799194%,31.369019%);fill-opacity:1;" d="M 431.691406 63.128906 C 432.234375 58.101562 431.953125 53.117188 430.855469 48.183594 C 429.757812 43.785156 428.71875 40.015625 427.636719 37.011719 L 427.671875 37.40625 C 427.046875 35.867188 426.511719 34.296875 426.066406 32.699219 C 425.632812 31.117188 425.480469 29.511719 425.605469 27.878906 C 425.667969 26.898438 425.867188 25.945312 426.199219 25.023438 C 426.53125 24.097656 426.984375 23.238281 427.5625 22.445312 C 428.136719 21.648438 428.808594 20.949219 429.582031 20.34375 C 430.355469 19.738281 431.195312 19.253906 432.105469 18.886719 C 436.28125 17.234375 440.59375 16.105469 445.039062 15.492188 C 456.167969 14.949219 467.101562 16.171875 477.835938 19.164062 C 481.75 20.332031 485.46875 21.953125 488.992188 24.023438 C 492.515625 26.089844 495.746094 28.546875 498.679688 31.394531 C 505.464844 37.964844 510.976562 45.472656 515.210938 53.921875 C 520.121094 63.398438 524.300781 73.1875 527.742188 83.292969 C 531.332031 93.75 534.457031 104.332031 537.046875 115.125 C 539.632812 125.917969 541.863281 135.867188 543.898438 145.039062 L 546.433594 155.320312 C 549.492188 170.570312 552.488281 187.304688 555.542969 205.425781 C 558.59375 223.546875 561.660156 242.226562 564.890625 261.410156 C 568.785156 285.960938 572.4375 308.515625 575.839844 329.074219 C 579.246094 349.636719 582.882812 367.886719 586.746094 383.832031 C 594.695312 361.28125 604.449219 336.65625 616.007812 309.957031 C 627.570312 283.257812 639.589844 256.410156 652.078125 229.410156 C 664.664062 202.371094 676.933594 176.136719 688.878906 150.703125 C 700.824219 125.269531 711.03125 102.449219 719.496094 82.238281 L 719.199219 79.15625 C 719.492188 76.007812 719.195312 72.914062 718.308594 69.875 C 717.433594 67.371094 716.621094 65.136719 715.90625 63.089844 C 715.507812 61.855469 715.167969 60.769531 714.804688 59.890625 C 714.457031 58.820312 714.351562 57.726562 714.488281 56.609375 C 714.363281 55.878906 714.347656 55.148438 714.445312 54.414062 C 714.546875 53.679688 714.75 52.976562 715.0625 52.304688 C 715.375 51.636719 715.78125 51.027344 716.28125 50.480469 C 716.78125 49.933594 717.347656 49.472656 717.988281 49.101562 C 721.136719 47.410156 724.457031 46.175781 727.945312 45.394531 C 732.117188 44.402344 736.347656 43.867188 740.632812 43.785156 C 744.921875 43.703125 749.167969 44.078125 753.378906 44.910156 C 756.371094 45.550781 759.226562 46.585938 761.9375 48.007812 C 764.648438 49.433594 767.121094 51.199219 769.351562 53.300781 C 771.3125 55.308594 772.988281 57.53125 774.378906 59.972656 C 775.765625 62.410156 776.820312 64.988281 777.539062 67.703125 C 779.140625 73.5625 779.964844 79.527344 780.011719 85.601562 C 780.171875 102.113281 779.484375 118.585938 777.945312 135.027344 C 776.304688 154.421875 774.03125 175.289062 771.128906 197.621094 C 768.230469 219.957031 764.988281 243.039062 761.410156 266.871094 C 757.886719 290.726562 754.34375 313.855469 750.785156 336.25 C 747.019531 359.226562 743.863281 379.058594 741.324219 395.75 C 738.785156 412.445312 736.757812 427.121094 735.238281 439.78125 C 733.699219 452.367188 732.644531 463.386719 731.992188 472.777344 C 731.339844 482.167969 731.007812 491.167969 731.074219 499.730469 C 731.136719 511.136719 732.027344 522.476562 733.742188 533.753906 C 735.199219 543.976562 738.140625 553.753906 742.566406 563.082031 C 744.546875 567.222656 746.976562 571.082031 749.851562 574.660156 C 752.730469 578.234375 755.980469 581.429688 759.605469 584.246094 C 763.582031 587.179688 767.878906 589.515625 772.503906 591.253906 C 777.128906 592.988281 781.898438 594.0625 786.820312 594.472656 C 788.824219 594.847656 790.828125 594.851562 792.835938 594.492188 C 795.28125 594.257812 797.925781 594.003906 800.726562 593.734375 L 810.941406 592.753906 C 814.105469 592.414062 817.273438 592.375 820.445312 592.640625 C 822.957031 592.785156 825.351562 593.390625 827.628906 594.464844 C 828.070312 594.667969 828.476562 594.929688 828.847656 595.242188 C 829.21875 595.558594 829.542969 595.914062 829.820312 596.316406 C 830.09375 596.71875 830.316406 597.148438 830.476562 597.605469 C 830.636719 598.066406 830.738281 598.539062 830.773438 599.023438 C 831.09375 602.367188 828.394531 606.613281 822.679688 611.757812 C 805.359375 617.136719 787.648438 620.390625 769.550781 621.519531 C 749.648438 622.390625 733.34375 619.410156 720.640625 612.578125 C 714.496094 609.363281 708.886719 605.390625 703.8125 600.664062 C 698.738281 595.9375 694.378906 590.621094 690.734375 584.714844 C 686.960938 578.375 683.792969 571.742188 681.238281 564.820312 C 678.679688 557.894531 676.773438 550.796875 675.515625 543.523438 C 672.539062 527.382812 671.046875 511.101562 671.03125 494.6875 C 670.890625 479.929688 671.46875 465.070312 672.769531 450.117188 C 674.066406 435.167969 675.535156 421.394531 677.167969 408.800781 C 678.304688 399.085938 679.652344 388.632812 681.113281 376.894531 C 682.574219 365.15625 684.199219 353.441406 685.652344 341.222656 C 687.109375 329.003906 689.144531 316.613281 691.046875 304.074219 C 692.949219 291.535156 694.902344 279.511719 696.933594 267.914062 C 698.535156 257.597656 699.941406 248.214844 701.1875 239.605469 C 702.429688 230.996094 703.558594 222.835938 704.867188 214.898438 C 706.175781 206.960938 707.097656 199.140625 708.054688 191.234375 C 709.007812 183.332031 710.046875 175.101562 711.285156 166.410156 C 709.65625 170.992188 707.761719 175.757812 705.65625 180.78125 C 703.550781 185.808594 700.839844 192.007812 697.535156 199.457031 C 694.230469 206.910156 690.214844 216.105469 685.394531 226.890625 C 680.578125 237.675781 674.566406 251.367188 667.339844 267.765625 C 660.113281 284.164062 651.523438 303.761719 641.683594 326.507812 C 631.839844 349.253906 620.191406 376.398438 606.835938 407.335938 L 606.800781 406.941406 C 606.492188 408.972656 606.035156 410.96875 605.421875 412.933594 C 604.824219 414.765625 604.355469 416.632812 604.007812 418.527344 C 602.550781 424.886719 600.277344 430.9375 597.191406 436.679688 C 596.34375 438.082031 595.375 439.390625 594.28125 440.609375 C 593.1875 441.828125 591.988281 442.933594 590.6875 443.921875 C 589.386719 444.914062 588 445.777344 586.539062 446.503906 C 585.074219 447.234375 583.554688 447.820312 581.980469 448.265625 C 577.203125 450.027344 572.277344 450.699219 567.203125 450.28125 C 563.148438 449.902344 559.394531 448.644531 555.929688 446.496094 C 552.710938 444.441406 550.003906 441.84375 547.820312 438.707031 C 545.527344 435.484375 543.695312 432.019531 542.324219 428.3125 C 537.757812 415.402344 533.976562 402.265625 530.980469 388.902344 C 527.253906 373.316406 523.667969 356.269531 520.222656 337.757812 C 516.773438 319.25 513.539062 300.214844 510.523438 280.652344 C 507.332031 260.949219 504.335938 241.890625 501.535156 223.480469 L 495.863281 184.683594 L 485.652344 232.21875 C 482.433594 247.195312 479.242188 261.691406 476.210938 275.734375 C 471.164062 301.410156 466.203125 325.386719 461.335938 347.671875 C 456.464844 369.957031 451.175781 391.878906 445.46875 413.449219 C 437.949219 443.238281 429.167969 472.765625 419.128906 502.03125 C 409.34375 530.679688 397.40625 558.398438 383.3125 585.183594 C 369.785156 611.019531 353.835938 635.253906 335.464844 657.894531 C 326.554688 668.902344 316.847656 679.152344 306.34375 688.648438 C 295.835938 698.144531 284.664062 706.769531 272.820312 714.523438 C 260.191406 722.996094 246.707031 729.75 232.363281 734.785156 C 218.273438 739.742188 203.796875 742.9375 188.929688 744.375 C 180.023438 745.234375 171.101562 745.453125 162.160156 745.027344 C 153.378906 744.578125 144.710938 743.324219 136.160156 741.265625 L 136.515625 741.230469 C 127.25 739.410156 118.261719 736.6875 109.542969 733.0625 C 100.824219 729.4375 92.550781 724.980469 84.726562 719.691406 C 77.308594 714.601562 70.421875 708.878906 64.054688 702.523438 C 57.691406 696.164062 51.960938 689.28125 46.859375 681.871094 C 36.273438 666.296875 28.433594 649.445312 23.335938 631.3125 C 17.773438 611.65625 14.945312 591.609375 14.863281 571.179688 C 14.605469 555.511719 15.765625 539.945312 18.347656 524.488281 C 21.800781 503.070312 27.777344 482.378906 36.28125 462.421875 C 44.457031 442.753906 55.019531 424.46875 67.964844 407.566406 C 80.238281 391.625 94.621094 377.902344 111.113281 366.398438 C 119.023438 360.835938 127.414062 356.140625 136.285156 352.300781 C 145.15625 348.460938 154.324219 345.566406 163.789062 343.605469 C 167.789062 342.84375 171.824219 342.378906 175.890625 342.214844 C 179.960938 342.050781 184.019531 342.1875 188.070312 342.628906 C 192.121094 343.066406 196.113281 343.800781 200.054688 344.835938 C 203.996094 345.867188 207.835938 347.183594 211.582031 348.789062 C 218.273438 351.894531 224.460938 355.796875 230.148438 360.5 C 235.832031 365.199219 240.828125 370.546875 245.136719 376.539062 C 249.8125 383.089844 253.835938 390.011719 257.214844 397.316406 C 260.589844 404.617188 263.261719 412.171875 265.226562 419.972656 C 269.738281 436.984375 272.050781 454.285156 272.160156 471.882812 C 272.023438 475.882812 271.855469 480.363281 271.640625 484.769531 C 271.429688 489.171875 271.117188 493.386719 270.699219 497.335938 C 270.738281 498.539062 270.601562 499.71875 270.28125 500.882812 C 270.023438 504.015625 269.699219 507.675781 269.191406 511.90625 C 268.710938 515.9375 267.925781 519.90625 266.828125 523.8125 C 265.878906 527.277344 264.4375 530.527344 262.507812 533.554688 C 262.152344 534.191406 261.726562 534.773438 261.234375 535.308594 C 260.738281 535.84375 260.191406 536.3125 259.585938 536.714844 C 258.980469 537.121094 258.335938 537.449219 257.65625 537.699219 C 256.972656 537.953125 256.269531 538.121094 255.546875 538.207031 C 251.257812 539.136719 248.339844 538.582031 246.824219 536.492188 C 246.054688 535.351562 245.507812 534.109375 245.183594 532.769531 C 244.855469 531.429688 244.769531 530.074219 244.921875 528.703125 C 244.757812 526.800781 244.84375 524.902344 245.175781 523.019531 C 245.492188 521.078125 245.835938 519.289062 246.210938 517.660156 C 246.632812 516.511719 246.902344 515.328125 247.027344 514.113281 C 247.136719 512.789062 247.246094 512.257812 247.269531 512.496094 C 248.292969 506.976562 249.144531 500.917969 249.789062 494.355469 C 250.476562 487.703125 250.753906 481.035156 250.617188 474.347656 C 250.339844 464.183594 249.371094 454.085938 247.710938 444.054688 C 246.25 434.667969 243.632812 425.621094 239.851562 416.90625 C 238.214844 413.113281 236.183594 409.546875 233.761719 406.203125 C 231.339844 402.859375 228.582031 399.816406 225.488281 397.078125 C 223.964844 395.753906 222.339844 394.566406 220.613281 393.515625 C 218.886719 392.46875 217.085938 391.570312 215.207031 390.828125 C 213.328125 390.085938 211.402344 389.503906 209.425781 389.089844 C 207.449219 388.675781 205.449219 388.429688 203.433594 388.351562 C 194.21875 386.925781 183.621094 390.027344 171.640625 397.660156 C 158.21875 406.542969 146.335938 417.15625 135.996094 429.5 C 123.421875 444.117188 112.34375 459.792969 102.765625 476.53125 C 92.460938 494.257812 84.175781 512.882812 77.910156 532.40625 C 75.164062 543 73.085938 553.722656 71.679688 564.574219 C 70.226562 574.847656 69.398438 585.171875 69.195312 595.542969 C 69.28125 610.195312 71.050781 624.640625 74.503906 638.878906 C 77.53125 651.757812 82.308594 663.949219 88.84375 675.449219 C 91.613281 680.386719 94.859375 684.988281 98.574219 689.257812 C 102.289062 693.523438 106.398438 697.371094 110.902344 700.796875 C 115.121094 703.964844 119.6875 706.503906 124.601562 708.417969 C 129.519531 710.328125 134.601562 711.539062 139.847656 712.050781 L 139.453125 712.089844 C 141.390625 712.136719 143.320312 712.070312 145.246094 711.894531 L 150.808594 711.359375 C 161.117188 710.402344 171.15625 708.222656 180.929688 704.820312 C 190.703125 701.414062 199.925781 696.882812 208.597656 691.226562 C 226.855469 679.230469 242.90625 664.777344 256.75 647.867188 C 271.875 629.476562 284.949219 609.730469 295.976562 588.621094 C 307.742188 566.496094 318.277344 543.804688 327.585938 520.535156 C 336.746094 497.335938 344.792969 474.429688 351.726562 451.816406 C 358.664062 429.199219 364.632812 408.445312 369.644531 389.550781 C 372.714844 378.386719 376.441406 363.296875 380.828125 344.273438 C 385.214844 325.25 389.785156 304.566406 394.542969 282.210938 C 399.242188 259.839844 403.84375 236.808594 408.339844 213.128906 C 412.835938 189.445312 416.875 167.386719 420.464844 146.953125 C 424.074219 126.464844 426.96875 108.664062 429.15625 93.546875 C 430.78125 83.472656 431.625 73.332031 431.691406 63.128906 Z M 431.691406 63.128906 "/>
</g>
</g>
</g>
</g>
<g clip-path="url(#clip5)" clip-rule="nonzero">
<g clip-path="url(#clip6)" clip-rule="nonzero">
<g clip-path="url(#clip7)" clip-rule="nonzero">
<g clip-path="url(#clip8)" clip-rule="nonzero">
<path style=" stroke:none;fill-rule:nonzero;fill:rgb(10.198975%,9.799194%,31.369019%);fill-opacity:1;" d="M 1008.996094 327.824219 C 1003.238281 340.839844 996.769531 354.507812 989.597656 368.828125 C 982.527344 382.984375 974 396.199219 964.019531 408.472656 C 954.113281 420.675781 942.535156 431.007812 929.289062 439.464844 C 922.195312 443.875 914.683594 447.378906 906.746094 449.980469 C 898.8125 452.582031 890.679688 454.203125 882.355469 454.847656 C 876.402344 455.609375 870.460938 455.546875 864.527344 454.660156 C 858.589844 453.773438 852.886719 452.097656 847.417969 449.628906 C 842.503906 447.292969 837.9375 444.402344 833.722656 440.957031 C 829.507812 437.511719 825.761719 433.613281 822.492188 429.261719 C 815.472656 419.761719 810.265625 409.351562 806.875 398.035156 C 803.015625 385.628906 800.472656 372.957031 799.25 360.023438 L 798.304688 350.1875 C 798 346.757812 797.933594 343.320312 798.113281 339.882812 L 798.160156 340.355469 C 798.070312 325.410156 799.234375 310.566406 801.648438 295.816406 C 804.125 280.707031 807.71875 265.867188 812.429688 251.296875 C 816.988281 236.964844 822.734375 223.128906 829.667969 209.785156 C 836.113281 197.320312 843.878906 185.746094 852.96875 175.0625 C 861.222656 165.257812 870.808594 157.003906 881.726562 150.300781 C 886.78125 147.191406 892.125 144.691406 897.75 142.804688 C 903.378906 140.917969 909.144531 139.695312 915.054688 139.132812 C 920.320312 138.535156 925.574219 138.613281 930.820312 139.363281 C 936.066406 140.117188 941.132812 141.523438 946.015625 143.578125 C 950.589844 145.511719 954.914062 147.902344 958.988281 150.738281 C 963.066406 153.578125 966.804688 156.808594 970.207031 160.429688 C 977.132812 167.871094 982.480469 176.3125 986.25 185.757812 C 990.152344 195.359375 992.34375 205.339844 992.824219 215.699219 C 992.734375 222.957031 991.703125 230.082031 989.734375 237.070312 C 987.765625 244.058594 984.921875 250.671875 981.210938 256.910156 C 973.476562 270.03125 963.980469 281.714844 952.726562 291.96875 C 941.222656 302.453125 928.65625 311.441406 915.023438 318.941406 C 902.332031 326.050781 889.074219 331.867188 875.253906 336.390625 C 874.648438 340.871094 874.25 345.453125 874.023438 350.140625 C 873.796875 354.824219 873.714844 359.773438 873.730469 364.957031 C 873.660156 367.09375 873.734375 369.222656 873.949219 371.351562 L 874.558594 377.710938 C 875.066406 383.226562 876.039062 388.660156 877.476562 394.011719 C 878.761719 398.957031 880.820312 403.558594 883.65625 407.808594 C 886.390625 411.882812 889.933594 415.050781 894.28125 417.3125 C 896.75 418.523438 899.328125 419.410156 902.015625 419.976562 C 904.707031 420.542969 907.421875 420.765625 910.167969 420.652344 C 915.101562 420.003906 919.84375 418.667969 924.394531 416.644531 C 928.941406 414.621094 933.109375 411.992188 936.894531 408.761719 C 945.457031 401.695312 952.996094 393.664062 959.507812 384.667969 C 966.320312 375.257812 972.363281 365.378906 977.644531 355.027344 C 983.007812 344.546875 987.726562 334.941406 991.800781 326.207031 L 991.839844 326.601562 C 996.984375 315.238281 1001.6875 304.078125 1005.945312 293.121094 C 1010.203125 282.164062 1014.121094 272.25 1017.703125 263.375 L 1023.347656 249.601562 C 1025.441406 244.457031 1027.367188 240.007812 1029.070312 236.214844 C 1030.828125 235.125 1032.699219 234.292969 1034.683594 233.726562 C 1035.710938 233.582031 1036.726562 233.644531 1037.726562 233.914062 C 1038.726562 234.1875 1039.632812 234.644531 1040.449219 235.285156 C 1042.101562 236.679688 1043.492188 238.296875 1044.617188 240.144531 L 1041.488281 249.015625 C 1037.746094 258.996094 1033.117188 270.929688 1027.605469 284.828125 C 1022.089844 298.722656 1015.886719 313.054688 1008.996094 327.824219 Z M 966.007812 191.765625 C 961.421875 184.65625 956.4375 181.375 951.046875 181.917969 C 948.128906 182.445312 945.375 183.4375 942.785156 184.886719 C 940.195312 186.335938 937.910156 188.167969 935.933594 190.382812 C 929.945312 196.363281 924.742188 202.960938 920.316406 210.175781 C 914.902344 218.820312 909.972656 227.730469 905.523438 236.90625 C 900.765625 246.691406 896.570312 256.460938 892.984375 266.011719 C 889.402344 275.5625 886.238281 284.914062 883.691406 293.609375 C 881.40625 300.574219 879.6875 307.671875 878.527344 314.910156 C 888.820312 312.429688 898.625 308.675781 907.941406 303.636719 C 919.300781 297.753906 929.832031 290.648438 939.539062 282.3125 C 949.316406 274.058594 957.695312 264.566406 964.675781 253.832031 C 967.960938 248.90625 970.460938 243.605469 972.175781 237.9375 C 973.886719 232.265625 974.742188 226.46875 974.738281 220.542969 C 974.6875 215.425781 973.921875 210.421875 972.433594 205.527344 C 970.949219 200.628906 968.808594 196.042969 966.007812 191.765625 Z M 966.007812 191.765625 "/>
</g>
</g>
</g>
</g>
<g clip-path="url(#clip9)" clip-rule="nonzero">
<g clip-path="url(#clip10)" clip-rule="nonzero">
<g clip-path="url(#clip11)" clip-rule="nonzero">
<g clip-path="url(#clip12)" clip-rule="nonzero">
<path style=" stroke:none;fill-rule:nonzero;fill:rgb(10.198975%,9.799194%,31.369019%);fill-opacity:1;" d="M 2298.683594 497.367188 C 2285.585938 498.738281 2272.660156 497.773438 2259.90625 494.46875 C 2253.824219 492.871094 2247.984375 490.632812 2242.390625 487.753906 C 2236.796875 484.875 2231.578125 481.425781 2226.738281 477.402344 C 2221.566406 473.019531 2216.894531 468.160156 2212.714844 462.820312 C 2208.535156 457.484375 2204.9375 451.777344 2201.921875 445.703125 C 2198.347656 438.355469 2195.460938 430.742188 2193.265625 422.867188 C 2191.074219 414.992188 2189.605469 406.984375 2188.867188 398.84375 C 2168.074219 395.113281 2147.121094 392.878906 2126.007812 392.140625 C 2104.898438 391.398438 2083.839844 392.164062 2062.835938 394.433594 C 2043.546875 396.28125 1238.207031 523.035156 1217.695312 526.714844 C 1197.1875 530.398438 1176.046875 534.9375 1154.234375 540.375 C 1124.292969 547.835938 1094.996094 557.289062 1066.339844 568.738281 C 1038.898438 579.660156 1012.777344 593.140625 987.96875 609.179688 C 964.859375 624.078125 944.128906 641.769531 925.777344 662.257812 C 917.121094 671.875 909.484375 682.242188 902.859375 693.363281 C 896.234375 704.480469 890.753906 716.136719 886.410156 728.332031 C 886.183594 728.871094 885.9375 729.613281 885.628906 730.558594 C 885.34375 731.417969 885.109375 732.292969 884.925781 733.179688 C 883.796875 737.402344 882.375 741.527344 880.65625 745.546875 C 880.277344 746.601562 879.769531 747.59375 879.132812 748.519531 C 878.5 749.441406 877.753906 750.269531 876.902344 751.003906 C 876.054688 751.734375 875.121094 752.34375 874.113281 752.835938 C 873.105469 753.324219 872.046875 753.675781 870.949219 753.890625 C 869.574219 753.890625 868.21875 753.714844 866.886719 753.367188 C 865.554688 753.019531 864.289062 752.511719 863.085938 751.84375 C 861.882812 751.175781 860.785156 750.367188 859.785156 749.417969 C 858.789062 748.46875 857.925781 747.410156 857.195312 746.242188 C 852.972656 740.546875 849.59375 734.386719 847.0625 727.761719 C 843.550781 719.472656 841.398438 710.84375 840.597656 701.875 C 839.566406 691.058594 840.292969 680.359375 842.773438 669.78125 C 845.296875 658.867188 849.027344 648.382812 853.972656 638.332031 C 859.0625 627.917969 865.042969 618.042969 871.914062 608.710938 C 878.648438 599.453125 886.054688 590.769531 894.136719 582.664062 C 909.015625 569.433594 925.171875 558.011719 942.605469 548.398438 C 961.871094 537.695312 981.785156 528.382812 1002.351562 520.464844 C 1024.226562 512.03125 1046.472656 504.71875 1069.082031 498.519531 C 1092.195312 492.132812 1115.214844 486.667969 1138.136719 482.132812 C 1150.324219 479.6875 1162.671875 477.664062 1175.058594 476.078125 C 1187.449219 474.492188 1199.5 473.136719 1211.058594 472.027344 C 1246.5625 468.621094 2066.125 344.054688 2099.035156 346.355469 C 2130.523438 348.363281 2161.183594 354.511719 2191.015625 364.796875 C 2192.847656 340.707031 2195.484375 318.132812 2198.933594 297.074219 C 2202.378906 276.015625 2206.175781 256.109375 2210.324219 237.347656 C 2214.472656 218.640625 2218.886719 201.144531 2223.5625 184.859375 C 2228.238281 168.574219 2232.605469 153.367188 2236.664062 139.238281 C 2238.195312 133.632812 2239.578125 128.117188 2241.121094 122.628906 C 2242.664062 117.140625 2244.050781 111.667969 2245.9375 106.023438 L 2239.585938 106.632812 C 2237.710938 106.824219 2235.832031 106.871094 2233.949219 106.777344 C 2231.894531 106.972656 2229.449219 107.207031 2226.609375 107.480469 C 2223.769531 107.753906 2221.332031 107.667969 2219.257812 107.625 L 2198.242188 164.527344 C 2192.757812 163.78125 2188.925781 163.269531 2186.839844 163.113281 C 2184.929688 162.945312 2183.074219 162.539062 2181.269531 161.890625 C 2184.769531 152.46875 2188.363281 143.289062 2192.042969 134.351562 C 2195.722656 125.417969 2199.347656 116.433594 2202.914062 107.402344 C 2198.75 107.683594 2194.613281 107.460938 2190.503906 106.734375 C 2186.394531 106.011719 2182.433594 104.804688 2178.617188 103.113281 C 2175.261719 101.605469 2172.132812 99.722656 2169.222656 97.46875 C 2166.316406 95.214844 2163.710938 92.648438 2161.410156 89.777344 C 2156.839844 83.855469 2153.558594 77.289062 2151.558594 70.074219 C 2149.390625 62.476562 2148.316406 54.730469 2148.335938 46.828125 C 2148.332031 37.632812 2149.617188 28.621094 2152.191406 19.792969 C 2154.785156 10.683594 2158.792969 2.246094 2164.214844 -5.515625 C 2169.355469 -13.082031 2175.683594 -19.46875 2183.199219 -24.675781 C 2187.027344 -27.277344 2191.128906 -29.347656 2195.492188 -30.886719 C 2199.859375 -32.425781 2204.347656 -33.386719 2208.960938 -33.761719 C 2219.730469 -34.796875 2227.984375 -32.160156 2233.613281 -25.804688 C 2239.238281 -19.449219 2242.351562 -9.820312 2242.792969 3.089844 C 2242.609375 9.996094 2242.035156 16.867188 2241.066406 23.703125 C 2240.089844 30.933594 2238.9375 38.019531 2237.644531 44.878906 C 2236.351562 51.738281 2234.933594 58.132812 2233.464844 63.972656 C 2231.996094 69.8125 2230.742188 74.597656 2229.789062 78.355469 C 2229.394531 78.953125 2229.191406 79.613281 2229.179688 80.328125 C 2229.183594 81.167969 2229.007812 81.96875 2228.65625 82.730469 C 2231.960938 82.988281 2235.273438 83.054688 2238.585938 82.933594 C 2242.320312 82.855469 2246.003906 82.621094 2249.59375 82.277344 C 2251.683594 82.074219 2253.773438 81.875 2255.984375 81.664062 C 2258.191406 81.453125 2260.382812 81.042969 2262.710938 80.820312 C 2265.039062 80.59375 2266.65625 80.441406 2268.863281 80.230469 C 2271.074219 80.015625 2272.808594 79.851562 2274.664062 79.671875 C 2279.277344 79.230469 2283.5 78.824219 2287.417969 79.007812 C 2291.046875 78.980469 2294.597656 79.492188 2298.074219 80.535156 C 2304.738281 82.765625 2308.613281 89.132812 2309.625 99.675781 C 2310.171875 106.953125 2309.832031 114.1875 2308.601562 121.378906 C 2307.328125 129.683594 2305.675781 138.214844 2303.652344 146.964844 C 2301.625 155.714844 2299.316406 164.1875 2296.734375 172.382812 C 2294.160156 180.972656 2291.890625 188.457031 2289.929688 194.835938 C 2289.128906 197.265625 2288.230469 199.941406 2287.214844 203.070312 C 2286.289062 205.757812 2285.515625 208.488281 2284.894531 211.261719 C 2281.339844 225.636719 2277.703125 240.453125 2273.992188 255.714844 C 2270.28125 270.980469 2266.75 286.1875 2263.398438 301.335938 C 2260.019531 316.460938 2257.085938 331.277344 2254.601562 345.785156 C 2252.121094 360.292969 2250.207031 374.109375 2248.863281 387.230469 C 2255.199219 391.035156 2260.945312 394.761719 2266.101562 398.414062 C 2271.476562 402.292969 2276.601562 406.476562 2281.476562 410.96875 C 2280.996094 407.4375 2280.800781 403.886719 2280.890625 400.324219 C 2280.980469 396.761719 2281.351562 393.230469 2282.003906 389.726562 C 2282.660156 386.222656 2283.589844 382.792969 2284.796875 379.441406 C 2286 376.085938 2287.464844 372.851562 2289.1875 369.730469 C 2290.738281 367.035156 2292.480469 364.464844 2294.410156 362.027344 C 2296.339844 359.585938 2298.441406 357.304688 2300.707031 355.175781 C 2302.976562 353.046875 2305.386719 351.097656 2307.941406 349.324219 C 2310.5 347.554688 2313.171875 345.980469 2315.960938 344.601562 C 2324.6875 340.28125 2333.890625 337.578125 2343.566406 336.492188 C 2347.878906 336.015625 2352.1875 336.011719 2356.496094 336.484375 C 2360.808594 336.960938 2365.015625 337.898438 2369.117188 339.304688 C 2376.707031 341.890625 2383.507812 345.832031 2389.523438 351.140625 C 2395.425781 356.535156 2400.117188 362.835938 2403.597656 370.039062 C 2407.199219 377.554688 2409.378906 385.464844 2410.132812 393.765625 C 2410.519531 398.410156 2410.40625 403.039062 2409.804688 407.660156 C 2409.199219 412.28125 2408.117188 416.785156 2406.550781 421.171875 C 2402.933594 431.375 2397.664062 440.636719 2390.742188 448.957031 C 2382.667969 458.695312 2373.359375 467.058594 2362.8125 474.035156 C 2350.339844 482.238281 2336.988281 488.582031 2322.753906 493.066406 C 2318.859375 493.957031 2314.957031 494.769531 2310.773438 495.570312 C 2306.589844 496.371094 2302.550781 496.996094 2298.683594 497.367188 Z M 2196.011719 63.660156 C 2195.898438 65.757812 2196.089844 67.828125 2196.582031 69.871094 C 2197.078125 71.914062 2197.855469 73.84375 2198.914062 75.65625 C 2199.53125 76.484375 2200.230469 77.234375 2201.007812 77.910156 C 2201.785156 78.585938 2202.625 79.171875 2203.527344 79.667969 C 2204.429688 80.167969 2205.375 80.5625 2206.359375 80.859375 C 2207.347656 81.15625 2208.355469 81.347656 2209.378906 81.429688 C 2210.183594 79 2211.445312 75.132812 2213.121094 69.792969 C 2214.796875 64.449219 2216.535156 58.503906 2218.21875 51.964844 C 2219.902344 45.425781 2221.382812 38.863281 2222.578125 32.253906 C 2223.652344 26.53125 2224.253906 20.761719 2224.382812 14.941406 C 2224.144531 9.542969 2223.386719 7.0625 2222.085938 7.1875 C 2220.035156 7.386719 2217.519531 9.378906 2214.5 13.179688 C 2211.125 17.613281 2208.273438 22.363281 2205.953125 27.429688 C 2203.167969 33.394531 2200.835938 39.527344 2198.960938 45.839844 C 2197.109375 51.636719 2196.128906 57.574219 2196.011719 63.660156 Z M 2291.671875 451.683594 C 2288.328125 445.074219 2283.992188 439.191406 2278.675781 434.035156 C 2270.121094 426.019531 2260.445312 419.746094 2249.636719 415.21875 C 2251.175781 422.941406 2253.394531 430.460938 2256.300781 437.777344 C 2259.054688 444.933594 2262.917969 451.433594 2267.882812 457.273438 C 2270.207031 460.015625 2272.816406 462.449219 2275.710938 464.578125 C 2278.605469 466.703125 2281.707031 468.464844 2285.015625 469.859375 C 2288.632812 471.265625 2292.378906 472.046875 2296.25 472.207031 C 2300.125 472.367188 2303.921875 471.898438 2307.640625 470.796875 C 2312.679688 469.800781 2317.5625 468.289062 2322.285156 466.265625 C 2327.007812 464.242188 2331.46875 461.746094 2335.671875 458.78125 C 2343.152344 453.398438 2349.46875 446.878906 2354.617188 439.226562 C 2359.382812 432.148438 2362.855469 424.484375 2365.03125 416.226562 C 2367.097656 408.753906 2367.800781 401.152344 2367.140625 393.425781 C 2366.894531 389.488281 2366.0625 385.679688 2364.644531 382 C 2363.222656 378.320312 2361.285156 374.941406 2358.824219 371.859375 C 2357.5625 370.421875 2356.140625 369.167969 2354.554688 368.101562 C 2352.96875 367.03125 2351.273438 366.183594 2349.46875 365.550781 C 2347.667969 364.921875 2345.8125 364.53125 2343.90625 364.382812 C 2342 364.230469 2340.109375 364.328125 2338.226562 364.667969 C 2336.355469 364.863281 2334.5 365.175781 2332.664062 365.601562 C 2330.386719 366.089844 2328.183594 366.816406 2326.066406 367.789062 C 2321.585938 369.648438 2317.632812 372.300781 2314.207031 375.742188 C 2310.417969 379.464844 2307.25 383.664062 2304.707031 388.332031 C 2301.910156 393.523438 2299.925781 399.011719 2298.757812 404.792969 C 2297.589844 410.574219 2297.285156 416.402344 2297.851562 422.273438 C 2298.761719 430.566406 2301.195312 438.382812 2305.15625 445.726562 L 2304.761719 445.367188 C 2306.574219 448.0625 2307.09375 450.164062 2306.320312 451.632812 C 2305.09375 453.640625 2303.5 455.296875 2301.539062 456.597656 C 2301.105469 456.910156 2300.636719 457.152344 2300.128906 457.324219 C 2299.625 457.496094 2299.105469 457.589844 2298.570312 457.605469 C 2298.035156 457.621094 2297.511719 457.558594 2296.996094 457.414062 C 2296.480469 457.273438 2295.996094 457.058594 2295.546875 456.773438 C 2293.898438 455.558594 2292.625 454.035156 2291.722656 452.195312 Z M 2291.671875 451.683594 "/>
</g>
</g>
</g>
</g>
<g clip-path="url(#clip13)" clip-rule="nonzero">
<path style=" stroke:none;fill-rule:nonzero;fill:rgb(100%,100%,100%);fill-opacity:1;" d="M 766.644531 230.746094 L 853.15625 222.449219 L 875.195312 452.183594 L 788.679688 460.484375 Z M 766.644531 230.746094 "/>
</g>
<g clip-path="url(#clip14)" clip-rule="nonzero">
<path style=" stroke:none;fill-rule:nonzero;fill:rgb(100%,100%,100%);fill-opacity:1;" d="M 814.996094 637.488281 L 892.238281 630.078125 L 903.425781 746.699219 L 826.183594 754.109375 Z M 814.996094 637.488281 "/>
</g>
</g>
</svg>
