<?xml version="1.0" encoding="UTF-8"?>
<svg xmlns="http://www.w3.org/2000/svg" xmlns:xlink="http://www.w3.org/1999/xlink" width="1440pt" height="809.999993pt" viewBox="0 0 1440 809.999993" version="1.2">
<defs>
<clipPath id="clip1">
  <path d="M 378.28125 139 L 1061.53125 139 L 1061.53125 810 L 378.28125 810 Z M 378.28125 139 "/>
</clipPath>
</defs>
<g id="surface1">
<path style=" stroke:none;fill-rule:nonzero;fill:rgb(0%,2.349854%,32.548523%);fill-opacity:1;" d="M 757.863281 380.953125 L 757.863281 25.945312 C 757.863281 12.023438 746.476562 0.632812 732.558594 0.632812 L 706.621094 0.632812 C 693.335938 0.632812 681.949219 12.023438 681.949219 25.945312 L 681.949219 380.953125 C 681.949219 394.242188 694.601562 404.367188 707.253906 405.632812 L 732.558594 405.632812 C 746.476562 405.632812 757.863281 394.875 757.863281 380.953125 Z M 757.863281 380.953125 "/>
<g clip-path="url(#clip1)" clip-rule="nonzero">
<path style=" stroke:none;fill-rule:nonzero;fill:rgb(0%,2.349854%,32.548523%);fill-opacity:1;" d="M 810.375 139.851562 C 808.476562 139.21875 806.578125 139.851562 804.679688 141.117188 C 803.414062 142.382812 802.148438 144.28125 802.148438 146.179688 L 802.148438 212.625 C 802.148438 215.15625 804.046875 217.6875 806.578125 218.320312 C 913.492188 255.023438 985.613281 355.640625 985.613281 468.914062 C 985.613281 615.09375 866.679688 734.0625 720.539062 734.0625 C 574.398438 734.0625 455.464844 615.09375 455.464844 468.914062 C 455.464844 355.640625 526.953125 255.023438 633.867188 218.320312 C 636.398438 217.6875 637.664062 215.15625 637.664062 212.625 L 637.664062 145.546875 C 637.664062 143.648438 637.03125 141.75 635.132812 140.484375 C 633.867188 139.21875 631.335938 139.21875 629.4375 139.21875 C 481.402344 179.71875 378.28125 315.140625 378.28125 468.28125 C 378.28125 656.226562 531.378906 809.367188 719.273438 809.367188 C 907.167969 809.367188 1061.53125 656.859375 1061.53125 468.914062 C 1061.53125 315.140625 958.410156 180.351562 810.375 139.851562 Z M 810.375 139.851562 "/>
</g>
</g>
</svg>
