<svg xmlns="http://www.w3.org/2000/svg" viewBox="0 0 63.22 64"><g id="Layer_2" data-name="Layer 2"><g id="Layer_1-2" data-name="Layer 1"><path d="M40,50.87H1.72a1,1,0,1,0,0,2H4.81V63a1,1,0,0,0,2,0V52.87h28.1V63a1,1,0,0,0,2,0V52.87H40a1,1,0,0,0,0-2Z"/><path d="M63,46.55a3.48,3.48,0,0,0-4.51-2l-7.66,2.92-7.18-8.14a6,6,0,0,0-4-1.58L1.89,40.87A2.07,2.07,0,0,0,0,42.92v3.79a2.09,2.09,0,0,0,.6,1.46,2,2,0,0,0,1.46.6l40.51-.07,4.6,5.21a3.51,3.51,0,0,0,2.62,1.18A3.35,3.35,0,0,0,51,54.85L61,51.06A3.49,3.49,0,0,0,63,46.55Z"/><circle cx="52.25" cy="35.24" r="6.81"/><path d="M25.7,27.87,31.41,34a3.5,3.5,0,0,0,5.1-4.79l-12-12.86a6.49,6.49,0,0,0-11.45,3.88L12.09,38l13.18-1.1Z"/><path d="M3.11,17.06a1,1,0,0,0,1.41,0l.8-.79.79.79a1,1,0,0,0,1.41-1.41l-.79-.79.79-.8a1,1,0,0,0-1.41-1.41l-.79.8-.8-.8a1,1,0,0,0-1.41,1.41l.8.8-.8.79A1,1,0,0,0,3.11,17.06Z"/><path d="M33.52,6.91c1,1,2-.7,2.21-.79l.79.79a1,1,0,0,0,1.41,0,1,1,0,0,0,0-1.42l-.79-.79.79-.79a1,1,0,0,0,0-1.42,1,1,0,0,0-1.41,0l-.79.8-.8-.8a1,1,0,0,0-1.41,0,1,1,0,0,0,0,1.42l.79.79-.79.79A1,1,0,0,0,33.52,6.91Z"/><path d="M20.42,12.53A6.28,6.28,0,0,0,26,6.29a5.79,5.79,0,0,0,0-.72,6.29,6.29,0,1,0-5.53,7Z"/><path d="M41,15.91a1,1,0,0,0,1.41,0l.8-.79c.3.15,1.19,1.81,2.2.79a1,1,0,0,0,0-1.42l-.79-.79.79-.79a1,1,0,0,0,0-1.42,1,1,0,0,0-1.41,0l-.79.8-.8-.8a1,1,0,0,0-1.41,0,1,1,0,0,0,0,1.42l.79.79-.79.79A1,1,0,0,0,41,15.91Z"/></g></g></svg>