<svg xmlns="http://www.w3.org/2000/svg" viewBox="0 0 7.5 8.34"><g id="Layer_2" data-name="Layer 2"><g id="Layer_1-2" data-name="Layer 1"><path d="M3.76,0A3.43,3.43,0,0,0,3.2.08,3,3,0,0,0,2.14.59,1,1,0,0,0,1.83,1,2.85,2.85,0,0,0,1.72,2.1,4.13,4.13,0,0,1,1.65,3a.33.33,0,0,0,.13.33.71.71,0,0,0,.28.13.47.47,0,0,0,.32-.08.89.89,0,0,1,.19-.1A4.41,4.41,0,0,1,4,3.07a2,2,0,0,1,.7.25,1.31,1.31,0,0,0,.83.16A.52.52,0,0,0,5.7,3.4a.33.33,0,0,0,.13-.22,9.27,9.27,0,0,0-.12-2.05A.91.91,0,0,0,5.55.67,2.24,2.24,0,0,0,4.33.05,2.16,2.16,0,0,0,3.76,0Zm.52.31A2,2,0,0,1,5.35.84a.81.81,0,0,1,.1.33,8.8,8.8,0,0,1,.11,2l0,0a.18.18,0,0,1-.09,0,1,1,0,0,1-.66-.14A2.12,2.12,0,0,0,4,2.81a4.67,4.67,0,0,0-1.5.25,1,1,0,0,0-.26.13c-.06,0-.1.06-.13.05A.48.48,0,0,1,2,3.16.14.14,0,0,1,1.9,3.1a4.65,4.65,0,0,0,.09-1,2.3,2.3,0,0,1,.09-1A.6.6,0,0,1,2.3.8a2.51,2.51,0,0,1,1-.46A2.34,2.34,0,0,1,4.28.31Z"/><path d="M4,1.78a2.92,2.92,0,0,0-.78,0,9,9,0,0,0-.92.4c-.14,0-.49.06-.49.06v.2a3.82,3.82,0,0,0,.54-.07c.35-.1.61-.34.9-.4a3.86,3.86,0,0,1,1.47.07,7.06,7.06,0,0,1,.88.32l.08-.18a5.59,5.59,0,0,0-.93-.34A4.79,4.79,0,0,0,4,1.78Z"/><path d="M3.26.8a.11.11,0,0,0-.1.08l-.06.48a.1.1,0,0,0,.08.12H4.3a.11.11,0,0,0,.1-.1h0l0-.43A.09.09,0,0,0,4.28.84l-1,0Zm.09.2.83,0v.24H3.31Z"/><path d="M2.81,5.27s0,.1,0,.22a2.52,2.52,0,0,1-.06.35A.34.34,0,0,1,2.64,6a1,1,0,0,1-.29.16A9.09,9.09,0,0,0,.89,6.5a1.2,1.2,0,0,0-.46.41,3.27,3.27,0,0,0-.31.76c-.07.26-.12.47-.12.47a.13.13,0,0,0,.11.16h0l7.24,0a.13.13,0,0,0,.13-.13v0s0-.25-.14-.55A2.45,2.45,0,0,0,7,6.77a1.47,1.47,0,0,0-.67-.36c-.4-.14-.81-.11-1.13-.23A.7.7,0,0,1,4.92,6a.83.83,0,0,1-.08-.23c0-.15-.06-.52-.06-.52H4.51a5.07,5.07,0,0,0,.08.58.73.73,0,0,0,.13.33.76.76,0,0,0,.33.21c.4.16.82.12,1.14.24A1.33,1.33,0,0,1,6.76,7a2.35,2.35,0,0,1,.35.76,3.58,3.58,0,0,1,.09.36L.3,8c0-.08,0-.13.08-.3a2.84,2.84,0,0,1,.27-.69A1.11,1.11,0,0,1,1,6.73c.39-.2.93-.12,1.44-.32a.88.88,0,0,0,.38-.22A.49.49,0,0,0,3,5.92a1.76,1.76,0,0,0,.07-.4,1.88,1.88,0,0,0,0-.24Z"/><path d="M1.63,6.46H1.37l0,1.74h.27Z"/><path d="M5.86,6.45l0,1.79h.27l0-1.8Z"/><path d="M5.41,6.34l-.26.06a1.77,1.77,0,0,1,0,.91c-.92,0-1.84,0-2.76,0l-.07-.92L2,6.39l.08,1a.15.15,0,0,0,.14.13c1,0,2,0,3,0a.14.14,0,0,0,.13-.11,2.33,2.33,0,0,0,0-1.13Z"/><path d="M4.76,6a4.81,4.81,0,0,1-.52.24,1.73,1.73,0,0,1-.53.11,1.8,1.8,0,0,1-.5-.08,4.3,4.3,0,0,1-.53-.22l-.12.24a5.19,5.19,0,0,0,.58.24,1.79,1.79,0,0,0,.57.08,2,2,0,0,0,.61-.12,4.49,4.49,0,0,0,.56-.25Z"/><path d="M1.61,4.42a.12.12,0,0,0-.13.12l0,.56H1.1l0-.53A.13.13,0,0,0,1,4.44a.07.07,0,0,0-.06,0l-.13.07a1.09,1.09,0,0,0-.23.14A1.19,1.19,0,0,0,.35,5a1,1,0,0,0-.08.45.89.89,0,0,0,.22.47,1.24,1.24,0,0,0,.22.18l.07,0,0,.53.26,0L1.05,6A.14.14,0,0,0,1,5.92L.86,5.84.69,5.72a.78.78,0,0,1-.16-.33A.61.61,0,0,1,.6,5.08a.57.57,0,0,1,.16-.22L.85,4.8l0,.42A.14.14,0,0,0,1,5.36h.6a.12.12,0,0,0,.13-.12l0-.42A.39.39,0,0,1,1.85,5a.47.47,0,0,1,.1.27.68.68,0,0,1-.09.32.85.85,0,0,1-.17.23l-.23.17A.13.13,0,0,0,1.4,6v.42h.26V6.12A1.91,1.91,0,0,0,1.88,6a1.11,1.11,0,0,0,.22-.29.94.94,0,0,0,.11-.45.83.83,0,0,0-.13-.41,1.81,1.81,0,0,0-.24-.24l-.15-.12Z"/><path d="M6.57,7.1a.07.07,0,0,0-.07.07l0,0a1.81,1.81,0,0,1,.29.61.07.07,0,0,0,.08,0s.06,0,.05-.08h0a1.69,1.69,0,0,0-.32-.66A.05.05,0,0,0,6.57,7.1Z"/><path d="M2,3.31l0,.13a.88.88,0,0,0,0,.24A1,1,0,0,0,2,4.11a.85.85,0,0,0,.19.16.31.31,0,0,1,.12.09c.18.23.2.62.43.94a1.26,1.26,0,0,0,.49.45,1,1,0,0,0,.61.08,1.34,1.34,0,0,0,.71-.33c.35-.33.42-.8.64-1.1a2.25,2.25,0,0,0,.24-.26,1.21,1.21,0,0,0,.19-.48.47.47,0,0,0,0-.21.6.6,0,0,0,0-.11l-.25.08,0,.09a.35.35,0,0,1,0,.12A1,1,0,0,1,5.24,4,2,2,0,0,0,5,4.25c-.28.37-.35.81-.61,1a1.08,1.08,0,0,1-.57.27.72.72,0,0,1-.46-.06A1,1,0,0,1,3,5.15c-.17-.24-.19-.63-.44-1A.67.67,0,0,0,2.36,4L2.25,4a.57.57,0,0,1-.1-.3.34.34,0,0,1,0-.16.6.6,0,0,1,0-.11Z"/><path d="M4.79,3.48s-.06,0-.06.07a.05.05,0,0,0,0,.05L5,3.79a.07.07,0,0,0,.07-.11h0l-.27-.19Z"/><path d="M4.61,3.62a.07.07,0,0,0-.07.07.05.05,0,0,0,0,.05L4.94,4A.06.06,0,1,0,5,3.92H5l-.37-.28Z"/><path d="M4.51,3.84s-.06,0-.06.07a.08.08,0,0,0,0,0l.34.3a.09.09,0,0,0,.1,0,.08.08,0,0,0,0-.1h0l-.34-.3,0,0Z"/><path d="M4.42,4a.08.08,0,0,0-.07.07.05.05,0,0,0,0,0l.28.26a.06.06,0,0,0,.09,0,.06.06,0,0,0,0-.09h0l-.29-.26Z"/><path d="M4.32,4.26s-.07,0-.07.06a.05.05,0,0,0,0,0l.3.26a.08.08,0,0,0,.1,0,.08.08,0,0,0,0-.1l-.31-.26Z"/></g></g></svg>