<svg xmlns="http://www.w3.org/2000/svg" viewBox="0 0 661.44 195.59"><defs><style>.cls-1{fill:#1a1950;}</style></defs><g id="Layer_2" data-name="Layer 2"><g id="Layer_1-2" data-name="Layer 1"><path class="cls-1" d="M117.17,11.63a11.61,11.61,0,0,0,.15-3.77c-.17-1.13-.34-2.1-.54-2.88v.1a11.05,11.05,0,0,1-.29-1.22,3.56,3.56,0,0,1,0-1.22,2.63,2.63,0,0,1,1.85-2.1A14.14,14.14,0,0,1,121.67,0a26.15,26.15,0,0,1,8.15,1.71,12.84,12.84,0,0,1,4.94,3.57,21,21,0,0,1,3.61,6.05A53.73,53.73,0,0,1,140.81,19c.65,2.71,1.18,5.44,1.57,8.21s.71,5.32,1,7.67l.39,2.64c.4,3.9.75,8.17,1.08,12.79s.65,9.38,1,14.27q.58,9.38,1.12,17.24t1.42,14q3.81-8.2,9.13-17.83t11-19.34q5.72-9.72,11.14-18.86T189,23.35v-.78a6.26,6.26,0,0,0,0-2.35c-.16-.65-.31-1.23-.44-1.76-.07-.32-.13-.6-.2-.83a1.92,1.92,0,0,1,0-.83A1.83,1.83,0,0,1,189.42,15a9.89,9.89,0,0,1,2.59-.69,15.12,15.12,0,0,1,6.4.49,8.46,8.46,0,0,1,3.81,2.49,8.19,8.19,0,0,1,1.71,3.81,17.62,17.62,0,0,1,.19,4.55A121.1,121.1,0,0,1,202.41,38q-1.32,7.24-3.22,15.54t-4.11,17.14q-2.19,8.85-4.34,17.15-2.25,8.51-3.81,14.7t-2.59,10.9c-.69,3.12-1.22,5.86-1.61,8.2s-.69,4.59-.88,6.74a59.14,59.14,0,0,0-.15,8.6,25.69,25.69,0,0,0,1.51,7.57,14.89,14.89,0,0,0,3.77,5.72,13.45,13.45,0,0,0,6.59,3.22,4.21,4.21,0,0,0,1.51.15c.62,0,1.29,0,2,0h2.59a12.55,12.55,0,0,1,2.39.2,4.91,4.91,0,0,1,1.76.63,1.38,1.38,0,0,1,.68,1.22q0,1.27-2.34,3a57.27,57.27,0,0,1-13.58,1.17q-7.53-.39-12.07-3.42a19.46,19.46,0,0,1-6.84-7.71,30.38,30.38,0,0,1-2.83-10.7,68.11,68.11,0,0,1,.05-12.36q.48-5.56,1.51-11.14t2.1-10.26c.52-2.41,1.11-5,1.76-7.91s1.34-5.81,2-8.84,1.47-6.09,2.25-9.19,1.56-6.07,2.35-8.93c.65-2.55,1.23-4.87,1.75-7s1-4.15,1.52-6.11.94-3.9,1.37-5.86.89-4,1.41-6.15c-.52,1.11-1.11,2.26-1.76,3.47s-1.48,2.7-2.49,4.49-2.24,4-3.71,6.59-3.31,5.88-5.52,9.82-4.84,8.65-7.86,14.12-6.6,12-10.7,19.44v-.1a10.13,10.13,0,0,1-.49,1.47,10.72,10.72,0,0,0-.49,1.37,18.32,18.32,0,0,1-2.15,4.39,6.56,6.56,0,0,1-4.1,2.54,8.71,8.71,0,0,1-3.76.15,6.55,6.55,0,0,1-2.74-1.22,7.24,7.24,0,0,1-1.85-2.15,11.22,11.22,0,0,1-1.13-2.74,86.66,86.66,0,0,1-1.9-10.16q-.84-6-1.47-13.09T131.73,68.1q-.49-7.53-.88-14.56l-.49-9.87-3.71,11.68c-1.17,3.68-2.32,7.24-3.42,10.69q-2.83,9.48-5.47,17.69t-5.57,16.12q-3.91,10.94-8.75,21.59a147.12,147.12,0,0,1-11,20,110.27,110.27,0,0,1-13.77,17.09,68.89,68.89,0,0,1-17.1,12.7,45.23,45.23,0,0,1-10.65,4.11,46.58,46.58,0,0,1-11.14,1.36,47.11,47.11,0,0,1-6.74-.48,35.83,35.83,0,0,1-6.44-1.57h.09A35.59,35.59,0,0,1,14.2,168a37,37,0,0,1-8.6-10.4A43.65,43.65,0,0,1,.91,144.35a56.41,56.41,0,0,1-.68-15.29,64.94,64.94,0,0,1,2-11.63,67.17,67.17,0,0,1,6-15.14,61.7,61.7,0,0,1,9.28-13A49.43,49.43,0,0,1,29.34,80a35.71,35.71,0,0,1,13.78-4.45A20.77,20.77,0,0,1,55,78a21.64,21.64,0,0,1,7.76,7.77,32.49,32.49,0,0,1,4,11.38,52.23,52.23,0,0,1,.49,13.19c-.13,1-.28,2.12-.44,3.22s-.34,2.15-.54,3.13a3,3,0,0,1-.19.88c-.14.78-.31,1.69-.54,2.74a19.64,19.64,0,0,1-.88,2.93,9,9,0,0,1-1.32,2.34,2.33,2.33,0,0,1-1.86,1c-1.1.13-1.82-.08-2.15-.64a2.93,2.93,0,0,1-.29-2,5.52,5.52,0,0,1,.2-1.42q.19-.72.39-1.32a3.7,3.7,0,0,0,.29-.87c.06-.33.1-.46.1-.4.39-1.36.75-2.86,1.07-4.49a40.87,40.87,0,0,0,.69-5,56.07,56.07,0,0,0,0-7.67,28,28,0,0,0-1.32-7,14.19,14.19,0,0,0-3.13-5.32A9,9,0,0,0,52,87.73q-3.42-.87-8.21,1.57a41.88,41.88,0,0,0-9.72,7.13,76.23,76.23,0,0,0-9.48,11A71.46,71.46,0,0,0,17,120.85a66.34,66.34,0,0,0-2.34,7.92,64.77,64.77,0,0,0-1.37,7.71,47.49,47.49,0,0,0,.29,11A34.7,34.7,0,0,0,16.3,157a20.88,20.88,0,0,0,4.93,6.89,14.52,14.52,0,0,0,7,3.52h-.1a12.82,12.82,0,0,0,1.46.09H31a32.15,32.15,0,0,0,15-3.66,54.09,54.09,0,0,0,13.14-9.72,86.67,86.67,0,0,0,11.28-13.92A174.62,174.62,0,0,0,80,123.88q4.29-8.4,7.72-16.66t6-15.19q1.56-4.09,3.9-11.09t4.94-15.24q2.58-8.25,5.13-17t4.64-16.31q2.1-7.58,3.47-13.19A50.2,50.2,0,0,0,117.17,11.63Z"/><path class="cls-1" d="M255.8,91.93q-2.64,4.69-5.86,9.82a54.32,54.32,0,0,1-7.38,9.33,36.78,36.78,0,0,1-9.47,6.94,26.3,26.3,0,0,1-12.16,2.73,16.4,16.4,0,0,1-8.65-2.15,17,17,0,0,1-5.77-5.71,25.6,25.6,0,0,1-3.17-8.21,47.12,47.12,0,0,1-1-9.72V92.47a18.45,18.45,0,0,1,.2-2.59V90a66.9,66.9,0,0,1,1.95-11.09A76.77,76.77,0,0,1,208.27,68a66.24,66.24,0,0,1,5.33-10,46.42,46.42,0,0,1,6.69-8.15,30,30,0,0,1,7.82-5.52,19.58,19.58,0,0,1,8.64-2,15.61,15.61,0,0,1,7.67,1.86A18,18,0,0,1,250.09,49a20.53,20.53,0,0,1,3.42,6.74,22.86,22.86,0,0,1,.93,7.67,20.82,20.82,0,0,1-3.91,10.06,38.23,38.23,0,0,1-8,8.11,49.69,49.69,0,0,1-10.12,5.86A56.54,56.54,0,0,1,222,90.86c-.26,1.11-.47,2.25-.64,3.42s-.31,2.41-.43,3.71a12.1,12.1,0,0,0-.1,1.61v1.61a24.5,24.5,0,0,0,.34,4.16,11.48,11.48,0,0,0,1.22,3.61,7.27,7.27,0,0,0,2.44,2.64,8.32,8.32,0,0,0,3.91,1.22,13,13,0,0,0,7-2.34A32.9,32.9,0,0,0,242,105a56.62,56.62,0,0,0,5.27-7q2.4-3.75,4.25-6.89v.1q2.35-4.09,4.35-8.06t3.67-7.18l1.75-3.32c.65-1.24,1.24-2.31,1.76-3.22a5.58,5.58,0,0,1,1.47-.49,1.92,1.92,0,0,1,1.41.53,5,5,0,0,1,.93,1.32l-1,2.15q-1.77,3.62-4.35,8.65T255.8,91.93Zm-7.52-35.17q-1.47-2.84-3.52-2.83a6.72,6.72,0,0,0-4,1.76,27,27,0,0,0-4.4,4.59A71.39,71.39,0,0,0,232,66.63c-1.43,2.34-2.72,4.69-3.85,7s-2.15,4.58-3,6.7a35,35,0,0,0-1.81,5.22A30.78,30.78,0,0,0,231,83.43a41.65,41.65,0,0,0,8.45-4.59,32.75,32.75,0,0,0,7-6.54,15.09,15.09,0,0,0,3.33-8.11A13.47,13.47,0,0,0,248.28,56.76Z"/><path class="cls-1" d="M258.44,78.74l6.74-13.38a12.62,12.62,0,0,1-5.71-1.81,12.82,12.82,0,0,1-3.91-3.81,15.22,15.22,0,0,1-2.15-5.13,18,18,0,0,1-.34-5.76,24.3,24.3,0,0,1,1.8-6.45,26,26,0,0,1,3.62-6.06,19.08,19.08,0,0,1,5.13-4.49,12.3,12.3,0,0,1,6.45-1.76c2.93,0,5,.85,6.2,2.54s1.71,4.24,1.51,7.62A39.62,39.62,0,0,1,276.71,46c-.52,2-1.08,3.92-1.66,5.71s-1.16,3.4-1.71,4.84-1,2.5-1.22,3.22a22.59,22.59,0,0,0,4.54.68c1.47.07,2.85.1,4.15.1s2.59,0,3.67.1a6.38,6.38,0,0,1,2.73.73,3.58,3.58,0,0,1,1.61,1.91,8.4,8.4,0,0,1,.3,3.61,29.24,29.24,0,0,1-.59,3.32l-1,4c-.58,2.34-1.19,4.82-1.8,7.42s-1.21,5.2-1.76,7.77-1.06,5-1.52,7.38-.78,4.39-1,6.15a14.9,14.9,0,0,0,.44,5.23c.42,1.4,1,2.17,1.71,2.3a12.54,12.54,0,0,0,4.05-3.08,49.11,49.11,0,0,0,4.69-5.82c1.6-2.27,3.24-4.77,4.93-7.47s3.31-5.4,4.84-8.11,2.95-5.31,4.25-7.81,2.44-4.68,3.42-6.5l.29-.68H310a11.22,11.22,0,0,1,.93-1.57,1.79,1.79,0,0,1,1.52-.58c.84,0,1.66.65,2.44,2l-1.08,2-3.17,6.35q-1.82,3.61-3.91,7.62T302.26,95q-2.4,4.11-4.79,7.82a79.31,79.31,0,0,1-4.88,6.79,36,36,0,0,1-4.74,4.93,16.79,16.79,0,0,1-4.64,2.74,14.66,14.66,0,0,1-5.43,1.07,6.58,6.58,0,0,1-4.29-1.42,10.4,10.4,0,0,1-2.89-3.81,20.35,20.35,0,0,1-1.61-5.52,41.72,41.72,0,0,1-.49-6.54c0-.72,0-1.45.05-2.2s.08-1.48.15-2.2a62,62,0,0,1,1-6.54c.52-2.74,1.13-5.59,1.85-8.55S273,75.72,273.78,73A65.8,65.8,0,0,1,276,66.24L269.38,66c-1.11,2.28-2.24,4.59-3.42,6.93s-2.31,4.63-3.42,6.84Zm6.06-24.52a5.56,5.56,0,0,0,.44,3.13A3.38,3.38,0,0,0,267.53,59c.26-.59.66-1.52,1.22-2.79s1.1-2.7,1.66-4.29,1.06-3.21,1.51-4.84a25.68,25.68,0,0,0,.88-4.4c.07-1.36,0-2-.29-2-.52,0-1.21.44-2.05,1.32a19.56,19.56,0,0,0-2.54,3.37,29.41,29.41,0,0,0-2.25,4.45A15.76,15.76,0,0,0,264.5,54.22Z"/><path class="cls-1" d="M358.19,91.93q-2.64,4.69-5.86,9.82a54.32,54.32,0,0,1-7.38,9.33,37,37,0,0,1-9.48,6.94,26.27,26.27,0,0,1-12.16,2.73,16.4,16.4,0,0,1-8.65-2.15,16.92,16.92,0,0,1-5.76-5.71,25.38,25.38,0,0,1-3.18-8.21,47.12,47.12,0,0,1-1-9.72V92.47a18.38,18.38,0,0,1,.19-2.59V90a68,68,0,0,1,2-11.09A75.54,75.54,0,0,1,310.66,68,66.2,66.2,0,0,1,316,58a46,46,0,0,1,6.7-8.15,30,30,0,0,1,7.81-5.52,19.62,19.62,0,0,1,8.65-2,14.71,14.71,0,0,1,7.67,2,18.43,18.43,0,0,1,5.66,5.22,22.18,22.18,0,0,1,3.37,7.28,24.53,24.53,0,0,1,.78,8.16c-.06.58-.14,1.24-.24,2a10.4,10.4,0,0,1-.49,2,3.72,3.72,0,0,1-1.07,1.62,3,3,0,0,1-2,.63,4,4,0,0,1-.93-.29,3.6,3.6,0,0,1-1-.78c.26-.91.47-1.78.64-2.59s.27-1.58.34-2.3a28.69,28.69,0,0,0-.1-4.05,14,14,0,0,0-.78-3.57,7.4,7.4,0,0,0-1.52-2.54,2.94,2.94,0,0,0-2.19-1,7.19,7.19,0,0,0-4.35,2,28.72,28.72,0,0,0-4.84,5.27,71.6,71.6,0,0,0-4.88,7.72,90.46,90.46,0,0,0-4.45,9.23,101.33,101.33,0,0,0-3.51,9.92,67.94,67.94,0,0,0-2.2,9.67q-.11.78-.15,1.71c0,.62-.05,1.19-.05,1.71a23.54,23.54,0,0,0,.39,4.4,12.55,12.55,0,0,0,1.27,3.66,6.38,6.38,0,0,0,6.06,3.47,13.12,13.12,0,0,0,7.23-2.2,30.9,30.9,0,0,0,6.35-5.47,55.79,55.79,0,0,0,5.37-7.08q2.44-3.81,4.4-7v.1q2.34-4.09,4.35-8.06t3.66-7.18c.52-1,1.11-2.08,1.76-3.32s1.24-2.31,1.76-3.22a5.69,5.69,0,0,1,1.46-.49,2,2,0,0,1,1.42.53,5,5,0,0,1,.93,1.32l-1,2.15q-1.75,3.62-4.35,8.65T358.19,91.93Z"/><path class="cls-1" d="M412.41,91.93q-2.64,4.69-5.86,9.82a54.32,54.32,0,0,1-7.38,9.33A37.12,37.12,0,0,1,389.7,118a26.34,26.34,0,0,1-12.17,2.73,16.36,16.36,0,0,1-8.64-2.15,17,17,0,0,1-5.77-5.71,25.6,25.6,0,0,1-3.17-8.21A47.12,47.12,0,0,1,359,95V92.47a18.38,18.38,0,0,1,.19-2.59V90a68,68,0,0,1,2-11.09A76.77,76.77,0,0,1,364.88,68a67.11,67.11,0,0,1,5.32-10,46,46,0,0,1,6.7-8.15,30,30,0,0,1,7.81-5.52,19.62,19.62,0,0,1,8.65-2A15.63,15.63,0,0,1,401,44.16,18.15,18.15,0,0,1,406.7,49a20.7,20.7,0,0,1,3.41,6.74,22.6,22.6,0,0,1,.93,7.67,20.63,20.63,0,0,1-3.91,10.06,37.76,37.76,0,0,1-8,8.11A49.35,49.35,0,0,1,389,87.44a56.54,56.54,0,0,1-10.4,3.42c-.26,1.11-.48,2.25-.64,3.42s-.31,2.41-.44,3.71a14.06,14.06,0,0,0-.1,1.61v1.61a24.49,24.49,0,0,0,.35,4.16A11.23,11.23,0,0,0,379,109a7.18,7.18,0,0,0,2.44,2.64,8.29,8.29,0,0,0,3.91,1.22,13,13,0,0,0,7-2.34,33,33,0,0,0,6.21-5.52,57.63,57.63,0,0,0,5.27-7c1.6-2.5,3-4.8,4.25-6.89v.1q2.34-4.09,4.35-8.06t3.66-7.18c.52-1,1.11-2.08,1.76-3.32s1.24-2.31,1.76-3.22a5.58,5.58,0,0,1,1.47-.49,1.94,1.94,0,0,1,1.41.53,5,5,0,0,1,.93,1.32l-1,2.15q-1.75,3.62-4.34,8.65T412.41,91.93Zm-7.52-35.17q-1.47-2.84-3.52-2.83a6.7,6.7,0,0,0-4.05,1.76,26.66,26.66,0,0,0-4.4,4.59,67.38,67.38,0,0,0-4.35,6.35c-1.43,2.34-2.72,4.69-3.86,7s-2.15,4.58-3,6.7a36,36,0,0,0-1.8,5.22,30.72,30.72,0,0,0,7.71-2.15,41.72,41.72,0,0,0,8.46-4.59,32.75,32.75,0,0,0,7-6.54,15,15,0,0,0,3.32-8.11A13.55,13.55,0,0,0,404.89,56.76Z"/><path class="cls-1" d="M433.81,68.58c-.2.72-.38,1.4-.54,2.06s-.31,1.27-.44,1.85c.78-1.11,1.54-2.28,2.29-3.52s1.58-2.5,2.49-3.81q2.64-4.09,5.48-8.25a62.22,62.22,0,0,1,6-7.52,30.65,30.65,0,0,1,6.59-5.47A14,14,0,0,1,463,41.81a9.56,9.56,0,0,1,4.49.93,7.36,7.36,0,0,1,2.79,2.54,9.34,9.34,0,0,1,1.31,3.86,23.81,23.81,0,0,1,.1,4.89,61.55,61.55,0,0,1-2.54,12.26q-2.06,6.79-4.59,13.63-2.15,6.26-4,12.31a59.79,59.79,0,0,0-2.34,10.25c0,.66,0,1.42,0,2.3a19.12,19.12,0,0,0,.24,2.49,5.26,5.26,0,0,0,.69,2,1.44,1.44,0,0,0,1.27.78q1.36,0,3.61-2.4a54.82,54.82,0,0,0,4.84-6.1c1.72-2.48,3.47-5.21,5.22-8.21s3.42-5.89,5-8.69,2.93-5.31,4.1-7.53l2.54-4.78a.87.87,0,0,1,.29-.59l.39-.78c.33-.59.62-1.08.88-1.47a1.64,1.64,0,0,1,1.47-.58,2.07,2.07,0,0,1,1.51.53,5,5,0,0,1,.93,1.32c-.46.78-1,1.73-1.51,2.84s-1.09,2.21-1.62,3.32q-2,3.81-4.25,8.35T479,94.33q-2.6,4.55-5.42,8.79a66.49,66.49,0,0,1-5.82,7.57,30.33,30.33,0,0,1-6,5.28,11.13,11.13,0,0,1-6.06,2,13.93,13.93,0,0,1-5.72-1,9.34,9.34,0,0,1-3.66-2.78,11.38,11.38,0,0,1-2-4.2,21,21,0,0,1-.64-5.37v-1.37a9.8,9.8,0,0,1,.1-1.47,53.84,53.84,0,0,1,1.51-8.11q1.13-4.29,2.5-8.79t3-8.84c1.07-2.9,2.1-5.62,3.07-8.16q2-5.28,3.47-9.38A27.8,27.8,0,0,0,459,52.37c.06-1.18-.23-1.76-.88-1.76a6.75,6.75,0,0,0-4.05,1.9,40.06,40.06,0,0,0-4.89,5c-1.72,2.06-3.47,4.35-5.22,6.89s-3.46,5.1-5.08,7.67-3.12,5-4.45,7.28S432,83.5,431.07,85v-.1l-1.56,2.73h.09a58.14,58.14,0,0,0-2.83,9.14,70.79,70.79,0,0,0-1.56,9.72,11.37,11.37,0,0,0-.1,1.51v1.52a23.94,23.94,0,0,0,.29,4c.2,1.11.39,2,.59,2.74a4.52,4.52,0,0,1,.29,1.37c0,.91-.71,1.37-2.15,1.37a11.2,11.2,0,0,1-5.86-1.42,10.24,10.24,0,0,1-3.66-3.71,16.39,16.39,0,0,1-1.86-5.23,32.79,32.79,0,0,1-.54-6c0-.65,0-1.3.05-2s.09-1.34.15-2.06c.2-2.15.47-4.39.83-6.74s.78-4.7,1.27-7.08,1-4.7,1.61-7,1.14-4.46,1.66-6.54q1.37-5.28,2.4-9.87a63.86,63.86,0,0,0,1.32-7.91,16.13,16.13,0,0,0-.05-2.74c-.1-.78-.22-1.49-.35-2.15-.06-.32-.11-.61-.14-.88a5.11,5.11,0,0,1,0-.78,2,2,0,0,1,1.22-1.85,6.11,6.11,0,0,1,2.49-.49,12.53,12.53,0,0,1,6,1.22A9.12,9.12,0,0,1,434.05,49a11.23,11.23,0,0,1,1.56,4.35,21.73,21.73,0,0,1,.15,4.84,45,45,0,0,1-.73,5.32Q434.49,66.24,433.81,68.58Z"/><path class="cls-1" d="M534.24,72.69a2.29,2.29,0,0,1-1.13.58,5.11,5.11,0,0,1-1.31.3,2.53,2.53,0,0,1-2.06-1.18,10.92,10.92,0,0,0,.54-2c.1-.62.21-1.28.34-2a25.32,25.32,0,0,0-.34-5.13,15.17,15.17,0,0,0-1.61-4.84,11,11,0,0,0-3-3.56,7.15,7.15,0,0,0-4.49-1.42,11.47,11.47,0,0,0-6.94,2.69,36,36,0,0,0-6.74,6.93,72.81,72.81,0,0,0-6.06,9.53q-2.84,5.28-5,10.5a98.25,98.25,0,0,0-3.57,9.82,36.29,36.29,0,0,0-1.56,7.42c-.06.92-.08,1.9-.05,2.94a8.88,8.88,0,0,0,.54,2.88,5.05,5.05,0,0,0,1.46,2.15,4.15,4.15,0,0,0,2.74.83q3,0,6.4-3.08a48.57,48.57,0,0,0,6.55-7.47,101,101,0,0,0,5.91-9.24q2.73-4.83,4.59-8.45a18.27,18.27,0,0,1,.93-2.54,6.26,6.26,0,0,0,.44-3.22,1.48,1.48,0,0,1,1.07-1.81,10.83,10.83,0,0,1,2.74-.54c3.84.33,6.52,1.23,8.06,2.69a8.11,8.11,0,0,1,2.58,5.23,19.55,19.55,0,0,1-.63,6.74q-.93,3.61-1.42,6.74c-.06.46-.18,1.21-.34,2.25s-.31,2.18-.44,3.42-.23,2.49-.29,3.76a12.83,12.83,0,0,0,.15,3.17,2.36,2.36,0,0,0,.87,1.66c.43.27,1.06,0,1.91-.68a46.29,46.29,0,0,0,5-6.11q2.64-3.75,5.23-8t5-8.59c1.6-2.9,3-5.56,4.35-8,.71-1.56,1.45-3,2.2-4.44s1.38-2.56,1.9-3.47a3.64,3.64,0,0,1,1.47-.29,1.92,1.92,0,0,1,1.41.53,5,5,0,0,1,.93,1.32l-1,2.15-3.17,6.35q-1.82,3.61-3.91,7.62T549.92,95q-2.4,4.11-4.79,7.82a79.31,79.31,0,0,1-4.88,6.79,35.4,35.4,0,0,1-4.74,4.93,16.65,16.65,0,0,1-4.69,2.74,14.8,14.8,0,0,1-5.37,1.07,6.58,6.58,0,0,1-5.48-2.49,16.47,16.47,0,0,1-2.88-6,30.42,30.42,0,0,1-1-7.18,34.07,34.07,0,0,1,.29-6.16v-.24s0-.28.1-.73a92.06,92.06,0,0,1-5.82,8.55,53.92,53.92,0,0,1-6.74,7.37,34.87,34.87,0,0,1-7.47,5.23,17.34,17.34,0,0,1-8,2,13.79,13.79,0,0,1-6.45-1.37,11.32,11.32,0,0,1-4.2-3.61,15,15,0,0,1-2.25-5.28,29,29,0,0,1-.68-6.35v-1.36a9.8,9.8,0,0,1,.1-1.47,58.94,58.94,0,0,1,2.49-10.84,90.55,90.55,0,0,1,4.88-12.07,96.47,96.47,0,0,1,6.89-11.87,62.91,62.91,0,0,1,8.55-10.21,42.36,42.36,0,0,1,9.82-7.13,23,23,0,0,1,10.74-2.69,14.25,14.25,0,0,1,7.62,2,18.5,18.5,0,0,1,5.57,5.33,22.66,22.66,0,0,1,3.28,7.33,25.84,25.84,0,0,1,.73,8.15,22.89,22.89,0,0,1-1.17,5.28Z"/><path class="cls-1" d="M575.66,165.5a27.59,27.59,0,0,1-9.67-1.66,21.74,21.74,0,0,1-7.92-5.08,25.1,25.1,0,0,1-5.47-8.55,34,34,0,0,1-2.15-12.07A112.11,112.11,0,0,0,518.9,134c-4.89,0-210.23,12.42-215.47,12.85s-10.66,1.06-16.27,1.9a171.82,171.82,0,0,0-22.76,5,114.31,114.31,0,0,0-20.66,8.26,77.31,77.31,0,0,0-16.9,11.82,49.93,49.93,0,0,0-11.48,15.63c-.07.13-.15.31-.25.54a5.78,5.78,0,0,0-.24.64,23.1,23.1,0,0,1-1.37,3,3.27,3.27,0,0,1-2.64,1.86,4.1,4.1,0,0,1-3.27-2.25,19.48,19.48,0,0,1-2.1-4.88,21.63,21.63,0,0,1-1-6.65,25,25,0,0,1,1.32-8,36.64,36.64,0,0,1,3.57-7.62,48.59,48.59,0,0,1,5.22-7,55.85,55.85,0,0,1,6.21-6,67.37,67.37,0,0,1,13-7.43,119.32,119.32,0,0,1,15.68-5.57,176.66,176.66,0,0,1,17.29-3.9q8.94-1.57,17.74-2.45c3.12-.32,6.27-.53,9.42-.63s6.21-.15,9.14-.15c9,0,217.86-11.53,226.07-10.16a88.53,88.53,0,0,1,22.66,6.84q1.56-9,3.62-16.8t4.3-14.71q2.24-6.89,4.59-12.85t4.39-11.13c.52-1.37,1-2.72,1.52-4.06s1-2.68,1.61-4.05h-1.61a9.4,9.4,0,0,1-1.42-.1c-.52,0-1.14,0-1.86,0s-1.33-.08-1.85-.14l-6.65,13.77c-1.36-.32-2.31-.54-2.83-.63a5.65,5.65,0,0,1-1.37-.44q1.66-3.42,3.37-6.65T561,65.36A13,13,0,0,1,555,63.7,11.74,11.74,0,0,1,551,59.94a14.43,14.43,0,0,1-2-5.18,21.17,21.17,0,0,1-.25-5.91,24.27,24.27,0,0,1,1.62-6.69A21.36,21.36,0,0,1,554,36.1a18.6,18.6,0,0,1,5.23-4.35,13.55,13.55,0,0,1,6.69-1.66c2.73,0,4.74.86,6,2.59s1.81,4.22,1.61,7.47a45.81,45.81,0,0,1-.93,5.13c-.42,1.79-.88,3.54-1.37,5.23s-1,3.26-1.51,4.69-.94,2.6-1.27,3.52a.93.93,0,0,0-.2.48,1.44,1.44,0,0,1-.19.59,22,22,0,0,0,2.49.29c.94.07,1.87.1,2.78.1.53,0,1.06,0,1.62,0s1.12-.05,1.71-.05,1,0,1.56,0,1,0,1.47,0c1.17,0,2.24,0,3.22.14a9.13,9.13,0,0,1,2.64.64c1.62.72,2.44,2.41,2.44,5.08a22.42,22.42,0,0,1-.78,5.42q-.78,3.08-1.86,6.3T583,83.92q-1.28,3.14-2.25,5.47c-.26.59-.55,1.24-.88,2a19.26,19.26,0,0,0-.78,2q-1.86,5.28-3.81,10.89t-3.76,11.19q-1.82,5.57-3.28,10.94t-2.44,10.26q2.25,1.66,4.06,3.22a42,42,0,0,1,3.56,3.52,16.79,16.79,0,0,1,2.93-10.16,15.92,15.92,0,0,1,7.33-5.66,21,21,0,0,1,7.13-1.37,14.84,14.84,0,0,1,6.35,1.32A15.18,15.18,0,0,1,602,131a15.72,15.72,0,0,1,3.08,5.08,17.49,17.49,0,0,1,1.07,6.11,16.49,16.49,0,0,1-1.56,6.79,22.94,22.94,0,0,1-4.64,6.59,32.33,32.33,0,0,1-7.62,5.62A40.63,40.63,0,0,1,581.81,165c-1,.13-2,.24-3.07.34S576.64,165.5,575.66,165.5ZM560.32,54.22a5.41,5.41,0,0,0,.44,3.08A3.67,3.67,0,0,0,563.25,59c.26-.59.67-1.53,1.22-2.83s1.13-2.75,1.71-4.35,1.11-3.21,1.57-4.84a26.82,26.82,0,0,0,.87-4.3c.07-1.36-.06-2-.39-2-.52,0-1.2.44-2.05,1.32a19,19,0,0,0-2.49,3.37,33.51,33.51,0,0,0-2.2,4.45A15.76,15.76,0,0,0,560.32,54.22ZM575,153.87a16.68,16.68,0,0,0-2.84-4.74,24.64,24.64,0,0,0-6.84-5.42,32.69,32.69,0,0,0,1.13,5.82,17,17,0,0,0,2.44,5.17,11.53,11.53,0,0,0,4,3.57,8.85,8.85,0,0,0,5.66.78,18.51,18.51,0,0,0,7.33-2.34,19.46,19.46,0,0,0,5.23-4.45,19.07,19.07,0,0,0,3.17-5.52,16.33,16.33,0,0,0,1.08-5.67,9.67,9.67,0,0,0-1.57-5.61,5.59,5.59,0,0,0-5-2.3,11.58,11.58,0,0,0-1.42.1,8.05,8.05,0,0,0-1.71.39,9.2,9.2,0,0,0-3.17,1.71,13.5,13.5,0,0,0-2.69,2.93,15,15,0,0,0-2.54,8.35,16.15,16.15,0,0,0,1.27,6.06l-.09-.1c.39.72.47,1.26.24,1.61a4,4,0,0,1-1.32,1.13,1.35,1.35,0,0,1-1.51-.1A3.16,3.16,0,0,1,575,154Z"/><path class="cls-1" d="M657.33,70.15a2,2,0,0,0,.59-.1,5.73,5.73,0,0,1,1.56-.2,3,3,0,0,1,2,1.08q-2.55,5.17-5.77,11.14T648.93,93.5a99.42,99.42,0,0,1-7.18,9.86,32.51,32.51,0,0,1-7,6.55q-2.25,10.65-4.89,21.4T624,151.77a180.73,180.73,0,0,1-7.13,18.08,71.75,71.75,0,0,1-8.5,14.26,34.94,34.94,0,0,1-10.06,9,18.6,18.6,0,0,1-11.78,2.29,12.08,12.08,0,0,1-8.74-5.37,19.83,19.83,0,0,1-3.27-11.62,27.91,27.91,0,0,1,.88-6.84A76.84,76.84,0,0,1,582,154.9a98,98,0,0,1,9.53-14.41,134.4,134.4,0,0,1,11.67-12.85q6.3-6.11,13-11.87,1.07-5.17,2.29-11.19c.82-4,1.74-8.58,2.79-13.72l-1.27,1.85q-3.13,5-6.4,9.68a77.07,77.07,0,0,1-6.7,8.35,34.06,34.06,0,0,1-7,5.86,13.68,13.68,0,0,1-7.28,2.2c-3.39,0-5.76-1.12-7.13-3.37a17.05,17.05,0,0,1-2-8.94c0-.65,0-1.3,0-1.95s.08-1.34.14-2.06c.2-2.15.54-4.47,1-7s1-5.06,1.66-7.67,1.29-5.23,2-7.86,1.4-5.17,2-7.58c1.11-3.9,2.1-7.62,3-11.13a59.74,59.74,0,0,0,1.62-8.5,8.56,8.56,0,0,0,0-2.59c-.14-.69-.26-1.29-.39-1.81q-.1-.39-.15-.63a3.54,3.54,0,0,1,0-.74,2,2,0,0,1,1.12-1.85,5.47,5.47,0,0,1,2.4-.49,13.66,13.66,0,0,1,3.95.59,15.07,15.07,0,0,1,2.89,1.07,9.76,9.76,0,0,1,3.85,5.38,19.38,19.38,0,0,1,.74,7.14A40.74,40.74,0,0,1,608,66.27c-.65,2.42-1.31,4.57-2,6.46l-.58,1.86q-.88,2.84-2.1,6.8T601,89.51q-1.12,4.15-2,8.12a53.37,53.37,0,0,0-1.22,6.9,18.06,18.06,0,0,0,.15,3.72c.16,1,.53,1.56,1.12,1.56a5.08,5.08,0,0,0,3-1.63,35.42,35.42,0,0,0,3.91-4.3c1.4-1.78,2.84-3.8,4.34-6.09s3-4.6,4.5-7,2.93-4.71,4.3-7,2.57-4.33,3.61-6.15v.1l.78-1.18a11.91,11.91,0,0,0,.69-1.17l-.1.1c1-5,1.72-9.23,2.25-12.65s.81-5.68.88-6.79a11,11,0,0,0,0-2.93c-.14-.85-.27-1.63-.4-2.35a3.27,3.27,0,0,1-.19-1V49a2.1,2.1,0,0,1,1.22-1.8,7.81,7.81,0,0,1,2.59-.54q6.45,0,9.23,2.78a11.21,11.21,0,0,1,3.27,6.79c-.26,3.33-.57,6.66-.92,10s-.8,6.85-1.32,10.5-1.13,7.54-1.81,11.67-1.51,8.65-2.49,13.54a31.63,31.63,0,0,0,5.52-5.87q2.79-3.7,5.47-8t5.13-8.94q2.44-4.64,4.49-8.74Zm-77.47,108a7.66,7.66,0,0,0,1.12,4.25,4.17,4.17,0,0,0,3.76,1.71,9.12,9.12,0,0,0,4.4-1.95,23.1,23.1,0,0,0,4.1-4.2,58.35,58.35,0,0,0,5.43-9.09q2.58-5.28,4.83-11.19t4.2-11.91q2-6,3.62-11.19c.39-1.17.73-2.33,1-3.47s.61-2.2.93-3.17V128l1-3.81a111.63,111.63,0,0,0-13.14,12.22,112.87,112.87,0,0,0-11.38,14.55c-.72,1.17-1.63,2.87-2.74,5.08s-2.2,4.61-3.27,7.18a69.83,69.83,0,0,0-2.74,7.87A26.82,26.82,0,0,0,579.86,178.1Z"/></g></g></svg>