<svg xmlns="http://www.w3.org/2000/svg" viewBox="0 0 220.27 243.4"><defs><style>.cls-1{fill:none;stroke:#707071;stroke-miterlimit:10;stroke-width:4px;}</style></defs><g id="Layer_2" data-name="Layer 2"><g id="Layer_1-2" data-name="Layer 1"><path class="cls-1" d="M183.2,28.7c46.7,3.8,49.6,76.3-8.6,81.1-19.1,1.9-75.3-3.8-75.3,19.1v5.7c7.6,2.9,14.3,9.5,14.3,20v65.8a21.19,21.19,0,0,1-21,21h0a21.19,21.19,0,0,1-21-21V154.6c0-11.4,6.7-18.1,15.3-20v-5.7c0-38.2,63.9-29.6,86.8-31.5,41-3.8,41-52.5,9.5-56.3v5.7c0,10.5-8.6,19.1-20,19.1H21.1A19.16,19.16,0,0,1,2,46.8V21.1A19.16,19.16,0,0,1,21.1,2H163.2c11.4,0,20,8.6,20,19.1v7.6Z"/><path class="cls-1" d="M21.1,74.5C17.3,83.1,7.7,89.8,5.8,98.3c-1.9,11.4,6.7,18.1,14.3,18.1,8.6,0,17.2-5.7,15.3-18.1C33.5,89.7,23.9,83.1,21.1,74.5Z"/></g></g></svg>