<svg xmlns="http://www.w3.org/2000/svg" viewBox="0 0 47.98 57.92"><defs><style>.cls-1{fill:#707071;}</style></defs><g id="Layer_2" data-name="Layer 2"><g id="Layer_1-2" data-name="Layer 1"><path class="cls-1" d="M7.68,18.42a15.78,15.78,0,0,0,7.7,2,15.4,15.4,0,0,0,7.6-2v13.3a21.69,21.69,0,0,0-7.3-3.2c-4.5-1-8.3-.3-10.9,1.7A7.2,7.2,0,0,0,2,35.92a22,22,0,0,0,44,0v-.7a7.39,7.39,0,0,0-2.7-5.1c-2.6-2.1-6.4-2.7-10.9-1.7a19.8,19.8,0,0,0-7.4,3.3V18.42A15.41,15.41,0,0,0,48,5a6.6,6.6,0,0,0-.1-1.4,1,1,0,0,0-.4-.7A15.38,15.38,0,0,0,26,6.42a17.94,17.94,0,0,0-2,3.9A15.39,15.39,0,0,0,4.38.92a17.94,17.94,0,0,0-3.9,2,1,1,0,0,0-.4.7A15.35,15.35,0,0,0,7.68,18.42ZM24,55.92a20.06,20.06,0,0,1-20-20,5.31,5.31,0,0,1,2-4.2,8.93,8.93,0,0,1,5.7-1.7,13.42,13.42,0,0,1,3.5.4,20.64,20.64,0,0,1,7.5,3.5c3.2,2.1,6.4,4.2,12.6,3.9a19.65,19.65,0,0,0,7.5-1.8l1.2-.5v.4A20.06,20.06,0,0,1,24,55.92Zm8.7-25.6c3.9-.8,7.2-.4,9.2,1.3a7,7,0,0,1,1.5,1.9L42,34a17.46,17.46,0,0,1-6.7,1.7,15.16,15.16,0,0,1-9.5-2.3,21.51,21.51,0,0,1,6.9-3.1Zm-.8-26.5a13.51,13.51,0,0,1,14.1.4,13.28,13.28,0,0,1-12.5,14.2,13.46,13.46,0,0,1-7.3-1.6c2.3-1.2,4.5-2.6,6.7-4a72.18,72.18,0,0,0,7.7-5.6,68.46,68.46,0,0,0-8.7,4c-2.3,1.2-4.6,2.5-6.8,3.8A13.58,13.58,0,0,1,31.88,3.82ZM2,4.22a13.46,13.46,0,0,1,18.6,3.6,14,14,0,0,1,2.3,7.2c-2.2-1.4-4.5-2.6-6.8-3.8a68.46,68.46,0,0,0-8.7-4,72.18,72.18,0,0,0,7.7,5.6c2.2,1.4,4.4,2.8,6.7,4a13.46,13.46,0,0,1-18.2-5.3A13.46,13.46,0,0,1,2,4.22Z"/></g></g></svg>