<svg xmlns="http://www.w3.org/2000/svg" viewBox="0 0 93 86.34"><g id="Layer_2" data-name="Layer 2"><g id="Layer_1-2" data-name="Layer 1"><path d="M89.5,24h-21V19.47h2.14a1.5,1.5,0,0,0,0-3H63.37a1.5,1.5,0,0,0,0,3h2.15V24H48.62V7.41a4.41,4.41,0,1,1,8.82,0V12.2a1.5,1.5,0,1,0,3,0V7.41a7.41,7.41,0,1,0-14.82,0V24H27.48V19.47h2.15a1.5,1.5,0,0,0,0-3H22.34a1.5,1.5,0,0,0,0,3h2.14V24H3.5A3.5,3.5,0,0,0,0,27.46v4.71a3.49,3.49,0,0,0,2.5,3.34v7.33A14.52,14.52,0,0,0,17,57.34H36.92V63a1.5,1.5,0,0,0,1.5,1.5H39.5V79.34a7,7,0,0,0,14,0V64.5h1.08a1.5,1.5,0,0,0,1.5-1.5V57.34H76a14.52,14.52,0,0,0,14.5-14.5V35.51A3.49,3.49,0,0,0,93,32.17V27.46A3.5,3.5,0,0,0,89.5,24ZM3,27.46a.5.5,0,0,1,.5-.5h86a.5.5,0,0,1,.5.5v4.71a.5.5,0,0,1-.5.5H3.5a.5.5,0,0,1-.5-.5ZM50.5,79.34a4,4,0,0,1-8,0V64.5h8ZM53.08,61.5H39.92V57.34H53.08ZM87.5,42.84A11.51,11.51,0,0,1,76,54.34H17A11.51,11.51,0,0,1,5.5,42.84V35.67h82Z"/></g></g></svg>