<svg xmlns="http://www.w3.org/2000/svg" viewBox="0 0 326.83 387.83"><defs><style>.cls-1{fill:#2f1a31;}.cls-2{fill:#e08b65;}.cls-3{fill:#eaa678;}.cls-4{fill:#436e8e;}.cls-5{fill:#e28569;}.cls-6{fill:#9bbbb5;}.cls-7{fill:#f7b686;}.cls-8{fill:#fff;}.cls-9{fill:#060633;}.cls-10{fill:#020202;}.cls-11{opacity:0.3;}.cls-12{fill:#96a7e2;}.cls-13{fill:#bed5dc;}.cls-14{fill:#6f4975;}</style></defs><g id="Layer_2" data-name="Layer 2"><g id="Layer_1-2" data-name="Layer 1"><g id="Group_902" data-name="Group 902"><g id="Group_833" data-name="Group 833"><path id="Path_1820" data-name="Path 1820" class="cls-1" d="M218.4,363.4s-.19,7.62-5.35,9.77-20.08,4.08-14.5,9c3.2,2.81,18.29,1,22.55,1s8.26,1.86,11.43-1c3.48-3.14,0-18.75,0-18.75a17,17,0,0,1-7,1.83C220.78,365.11,218.4,363.4,218.4,363.4Z"/></g><g id="Group_834" data-name="Group 834"><path id="Path_1821" data-name="Path 1821" class="cls-1" d="M307.21,363.63s2.15,7.31-2.1,10.93-17.87,10-11.07,13c3.91,1.7,17.72-4.64,21.78-5.94s8.43-.76,10.57-4.44c2.36-4.05-5.72-17.85-5.72-17.85a17.22,17.22,0,0,1-6.09,3.88C310,364.52,307.21,363.63,307.21,363.63Z"/></g><g id="Group_901" data-name="Group 901"><g id="Group_835" data-name="Group 835"><path id="Path_1822" data-name="Path 1822" class="cls-2" d="M215.32,204a3.33,3.33,0,0,1-1.29-.29,5.89,5.89,0,0,1-2.87-3.33c-1-2.61-.3-5.31,1.52-6a2.86,2.86,0,0,1,2.24.11,5.85,5.85,0,0,1,2.87,3.33h0c1,2.61.3,5.31-1.52,6A2.59,2.59,0,0,1,215.32,204Zm-1.68-8.87a1.66,1.66,0,0,0-.62.11c-1.32.52-1.77,2.72-1,4.8a4.93,4.93,0,0,0,2.37,2.8,2,2,0,0,0,1.52.09c1.32-.51,1.77-2.71,1-4.8h0a5,5,0,0,0-2.37-2.8A2.15,2.15,0,0,0,213.64,195.12Z"/></g><g id="Group_837" data-name="Group 837"><g id="Group_836" data-name="Group 836"><path id="Path_1823" data-name="Path 1823" class="cls-3" d="M75.2,162.56l-5-15.44A212.6,212.6,0,0,0,142.85,81s1.2-2.48,11.47,2.81c10.53,5.42,9.74,9.55,9.74,9.55C139.32,141.08,75.91,162.06,75.2,162.56Z"/></g></g><g id="Group_838" data-name="Group 838"><path id="Path_1824" data-name="Path 1824" class="cls-4" d="M180.16,176.9c1.33,14.57,5.34,47.78,9.16,70.75,7.34,44.15,16,88.64,20.27,110a16.61,16.61,0,0,0,15.55,13.51l4.08.17a14,14,0,0,0,14.35-13.58,13.31,13.31,0,0,0,0-1.55L234,222.42l-.75-10.56-1.84-34.29c-6.32,2,13.89-7.4,9.57-3.07l9.27-8.15S195.22,160,180.16,176.9Z"/></g><g id="Group_839" data-name="Group 839"><path id="Path_1825" data-name="Path 1825" class="cls-4" d="M214.37,177.75,234,222.42l59,134.63a18.47,18.47,0,0,0,18.6,11.13l3.43-.32a13.09,13.09,0,0,0,11.59-14.44,12.92,12.92,0,0,0-.52-2.47S279,166.73,276.84,160.15c0,0-25.75,4.4-43.77,10.18C226.75,172.35,218.68,173.43,214.37,177.75Z"/></g><g id="Group_840" data-name="Group 840"><path id="Path_1826" data-name="Path 1826" class="cls-5" d="M241.53,54.49S228.1,34.81,198,41.54c-33.13,7.42-35.37,25.39-31.44,59.92,2.5,21.87,10,62.77,15.53,93.73,0,0,29.15-35.36,84.72-68.14C266.82,127.05,254.13,72.74,241.53,54.49Z"/></g><g id="Group_841" data-name="Group 841"><path id="Path_1827" data-name="Path 1827" class="cls-6" d="M265.83,123s-5.54,7.14-20.79,0c-18-8.45-54.18-26.63-68.93-25.51s-34.59-19.13-34.59-19.13,19-22.29,43.61-32.73c2.32-1,4.75-1.88,7.3-2.68a108.1,108.1,0,0,1,13-2.91C258.74,30.34,265.83,123,265.83,123Z"/></g><g id="Group_867" data-name="Group 867"><g id="Group_842" data-name="Group 842"><path id="Path_1828" data-name="Path 1828" class="cls-7" d="M200.19,44.42c.71-3.17-1.76-2.51-3.47-4.81l-5.29-7.13-1.54-2.08-9.06-12.2L185.06,32l2.54,8.3.8,2.62c.55,1.79.16,2.2-.61,4.19-.31.8-1.4,4,1.61,4.28C192.11,51.67,199.27,48.46,200.19,44.42Z"/></g><g id="Group_843" data-name="Group 843"><path id="Path_1829" data-name="Path 1829" class="cls-1" d="M193.34,28.27S205,18.69,199.29,9.51,190.46,23,190.46,23l1.38,5.39Z"/></g><g id="Group_844" data-name="Group 844"><path id="Path_1830" data-name="Path 1830" class="cls-1" d="M191.39,32.24a2,2,0,0,1,0,.24c.69,4.61-3.79,7.85-3.79,7.85l0,0L185.06,32c1.39-.89,3.43-1.94,4.83-1.61A2,2,0,0,1,191.39,32.24Z"/></g><g id="Group_845" data-name="Group 845"><path id="Path_1831" data-name="Path 1831" class="cls-7" d="M168.77,25c-1.88-8.26,2.15-16.23,9-17.79s13.93,3.88,15.81,12.14-2.15,16.23-9,17.79S170.65,33.25,168.77,25Z"/></g><g id="Group_846" data-name="Group 846"><path id="Path_1832" data-name="Path 1832" class="cls-1" d="M191.37,18s-3.64,2.25-6.4-.06-4.66-4.46-11.39-1.68-13.74.82-14.8-2.92S161,7,165.09,7.5s-.72-2.1,2.39-5.72,10,.82,13.74-.83,16.54-2.4,18.07,8.56Z"/></g><g id="Group_847" data-name="Group 847"><path id="Path_1833" data-name="Path 1833" class="cls-7" d="M193.93,20.37a2.49,2.49,0,1,1-.29-3.7A2.64,2.64,0,0,1,193.93,20.37Z"/></g><g id="Group_848" data-name="Group 848"><path id="Path_1834" data-name="Path 1834" class="cls-8" d="M166.32,12.46a3.09,3.09,0,0,1-.91-.14c-1.34-.44-1.68-1.14-1.55-1.66s1-1.12,2.16-.92a5.17,5.17,0,0,0,3.13-.26l.09.15a5.26,5.26,0,0,1-3.25.28c-1.06-.18-1.83.26-2,.79s.21,1.05,1.43,1.45c2.53.83,7.19-2.76,7.24-2.8l.11.14C172.64,9.63,169,12.46,166.32,12.46Z"/></g><g id="Group_849" data-name="Group 849"><path id="Path_1835" data-name="Path 1835" class="cls-8" d="M178.57,4.22a10.89,10.89,0,0,1-5.65-1.69l.14-.11-.07.05.07-.05c.15.18,4,2.41,7.52,1.34a32.17,32.17,0,0,0,3.13-1.22c2-.86,3.67-1.6,5.49-1.12l0,.17c-1.76-.47-3.43.26-5.37,1.11a28.06,28.06,0,0,1-3.15,1.22A7.18,7.18,0,0,1,178.57,4.22Z"/></g><g id="Group_850" data-name="Group 850"><path id="Path_1836" data-name="Path 1836" class="cls-8" d="M196.08,8.57c-.58,0-1.81-1.12-2.1-1.84-.16-.39,0-.54.12-.6.91-.48,2.22,1.67,2.28,1.76v0c.09.45-.06.59-.2.63Zm-1.7-2.34a.46.46,0,0,0-.2,0s-.16.09,0,.39c.29.71,1.6,1.83,2,1.72.12,0,.11-.25.08-.42-.33-.53-1.21-1.74-1.84-1.74Z"/></g><g id="Group_852" data-name="Group 852"><g id="Group_851" data-name="Group 851"><path id="Path_1837" data-name="Path 1837" class="cls-9" d="M178.71,22.39a.26.26,0,0,1-.18-.14.25.25,0,0,1,.12-.34,2.8,2.8,0,0,1,3.38.55.27.27,0,0,1,0,.37.29.29,0,0,1-.36,0,4.47,4.47,0,0,0-2.8-.47A.26.26,0,0,1,178.71,22.39Z"/></g></g><g id="Group_853" data-name="Group 853"><path id="Path_1838" data-name="Path 1838" class="cls-9" d="M180.91,25.11c.05.61-.27,1.14-.71,1.18s-.85-.43-.9-1,.26-1.14.71-1.18S180.85,24.5,180.91,25.11Z"/></g><g id="Group_855" data-name="Group 855"><g id="Group_854" data-name="Group 854"><path id="Path_1839" data-name="Path 1839" class="cls-9" d="M169.49,25a.19.19,0,0,1-.17-.07.3.3,0,0,1,0-.36,1.81,1.81,0,0,1,2.46-.7l.11.07a.3.3,0,0,1,.13.33.19.19,0,0,1-.23.15h0a2.69,2.69,0,0,0-2.14.52A.14.14,0,0,1,169.49,25Z"/></g></g><g id="Group_856" data-name="Group 856"><path id="Path_1840" data-name="Path 1840" class="cls-9" d="M172.62,26.65a.85.85,0,1,1-1.23-.62C171.78,25.82,172.33,26.1,172.62,26.65Z"/></g><g id="Group_859" data-name="Group 859"><g id="Group_857" data-name="Group 857"><path id="Path_1841" data-name="Path 1841" class="cls-10" d="M180.07,33.63a7,7,0,0,1-2.09-.29.17.17,0,0,1-.12-.22.18.18,0,0,1,.23-.12c.17.06,4.29,1.37,6.6-2.09a.18.18,0,0,1,.25-.05.17.17,0,0,1,.05.25A5.66,5.66,0,0,1,180.07,33.63Z"/></g><g id="Group_858" data-name="Group 858"><path id="Path_1842" data-name="Path 1842" class="cls-10" d="M185.33,31.76a.17.17,0,0,1-.17-.13,2.07,2.07,0,0,0-1-1.1l0,0a.19.19,0,0,1,0-.25.18.18,0,0,1,.25,0,2.43,2.43,0,0,1,1.13,1.33.18.18,0,0,1-.13.22h0Z"/></g></g><g id="Group_860" data-name="Group 860"><path id="Path_1843" data-name="Path 1843" class="cls-8" d="M170.82,35.22a3.47,3.47,0,0,1-.79-.08c-1.88-.39-3.75-2.13-5-4.64-2-4.1-1.77-9,.55-11a3.46,3.46,0,0,1,3-.77c1.89.4,3.75,2.13,5,4.65h0c2,4.1,1.77,9-.55,11A3.38,3.38,0,0,1,170.82,35.22Zm-3-16a2.88,2.88,0,0,0-1.91.71c-2.15,1.83-2.34,6.49-.42,10.38,1.17,2.37,2.9,4,4.62,4.36a2.92,2.92,0,0,0,2.58-.65c2.15-1.83,2.34-6.48.42-10.37-1.17-2.38-2.9-4-4.62-4.36a3.05,3.05,0,0,0-.67-.07Z"/></g><g id="Group_861" data-name="Group 861" class="cls-11"><path id="Path_1844" data-name="Path 1844" class="cls-8" d="M187,18.49c1.58,4.05.73,8.78-1.9,10.56S179,29,177.43,25s-.73-8.77,1.9-10.56S185.38,14.45,187,18.49Z"/></g><g id="Group_862" data-name="Group 862" class="cls-11"><path id="Path_1845" data-name="Path 1845" class="cls-8" d="M173.79,23.69c1.58,4.07,1,8.82-1.32,10.62s-5.48,0-7.07-4.1-1-8.82,1.32-10.62S172.2,19.62,173.79,23.69Z"/></g><g id="Group_863" data-name="Group 863"><path id="Path_1846" data-name="Path 1846" class="cls-8" d="M182.5,29.92a5.11,5.11,0,0,1-1.4-.22,8,8,0,0,1-4.65-4.92c-1.71-4.33-.74-9.42,2.17-11.35a4.37,4.37,0,0,1,3.86-.55,8,8,0,0,1,4.65,4.92h0c1.71,4.32.74,9.41-2.17,11.35A4.47,4.47,0,0,1,182.5,29.92ZM181.09,13.2a3.8,3.8,0,0,0-2.17.68c-2.71,1.8-3.59,6.6-2,10.7a7.55,7.55,0,0,0,4.31,4.6,3.87,3.87,0,0,0,3.4-.48c2.71-1.8,3.59-6.6,2-10.7a7.55,7.55,0,0,0-4.32-4.61,4.2,4.2,0,0,0-1.22-.19Z"/></g><g id="Group_864" data-name="Group 864"><path id="Path_1847" data-name="Path 1847" class="cls-8" d="M173.38,25.34a.49.49,0,0,1-.49-.5.5.5,0,0,1,.12-.33A5.37,5.37,0,0,1,177.25,23a.5.5,0,0,1,.48.52.5.5,0,0,1-.52.48,4.52,4.52,0,0,0-3.46,1.15A.47.47,0,0,1,173.38,25.34Z"/></g><g id="Group_865" data-name="Group 865"><path id="Path_1848" data-name="Path 1848" class="cls-1" d="M199.39,9.6l-.2-.19a3,3,0,0,0,.27-3.64l.24-.15A3.28,3.28,0,0,1,199.39,9.6Z"/></g><g id="Group_866" data-name="Group 866"><path id="Path_1849" data-name="Path 1849" class="cls-1" d="M201.83,11.91a5.06,5.06,0,0,0-2.84-1l0-.28a5.24,5.24,0,0,1,3.05,1.1Z"/></g></g><g id="Group_868" data-name="Group 868"><path id="Path_1850" data-name="Path 1850" class="cls-1" d="M249.65,86.53c-2.58,2.52-10.32-1.06-17.29-8s-10.53-14.58-8-17.1,10.33,1,17.29,8S252.23,84,249.65,86.53Z"/></g><g id="Group_875" data-name="Group 875"><g id="Group_869" data-name="Group 869"><path id="Path_1851" data-name="Path 1851" class="cls-3" d="M68.89,155.44h0a2.13,2.13,0,0,0-3-.11L54.62,165.77a2.14,2.14,0,0,0-.12,3h0a2.13,2.13,0,0,0,3,.11l11.26-10.44A2.14,2.14,0,0,0,68.89,155.44Z"/></g><g id="Group_870" data-name="Group 870"><path id="Path_1852" data-name="Path 1852" class="cls-3" d="M72.59,159.43h0a2.12,2.12,0,0,0-3-.11L55,172.86a2.14,2.14,0,0,0-.12,3h0a2.13,2.13,0,0,0,3,.11l14.6-13.54A2.13,2.13,0,0,0,72.59,159.43Z"/></g><g id="Group_871" data-name="Group 871"><path id="Rectangle_1303" data-name="Rectangle 1303" class="cls-3" d="M81,153.26h0a3,3,0,0,1,2.47,3.36l-2,12.88A3,3,0,0,1,78.12,172h0a3,3,0,0,1-2.47-3.36h0l2-12.88A3,3,0,0,1,81,153.26Z"/></g><g id="Group_872" data-name="Group 872"><path id="Path_1853" data-name="Path 1853" class="cls-3" d="M76.3,163.42h0a2.14,2.14,0,0,0-3-.11L61.35,174.38a2.13,2.13,0,0,0-.11,3h0a2.13,2.13,0,0,0,3,.11l11.94-11.07A2.13,2.13,0,0,0,76.3,163.42Z"/></g><g id="Group_873" data-name="Group 873"><path id="Path_1854" data-name="Path 1854" class="cls-3" d="M74,145.69s-11.88,2.62-15.62,10.4c-1.3,2.7,6.91,16.74,10.12,15.77S82,160,82,160Z"/></g><g id="Group_874" data-name="Group 874"><path id="Path_1855" data-name="Path 1855" class="cls-3" d="M65.28,151.51l-.1-.11a2.06,2.06,0,0,0-2.9-.11l-9.1,8.44a2.05,2.05,0,0,0-.11,2.9l.1.11a2,2,0,0,0,2.89.11l9.1-8.44A2.06,2.06,0,0,0,65.28,151.51Z"/></g></g><g id="Group_878" data-name="Group 878"><g id="Group_876" data-name="Group 876"><path id="Path_1856" data-name="Path 1856" class="cls-12" d="M142.42,148l-8.25-.33a87.77,87.77,0,0,0-2-20.37c-2.9-12.37-8.29-19.07-16-19.91-6.56-.72-11.32,1.54-14.54,6.9a25.79,25.79,0,0,0-3.22,9.28l-8.21-.87c0-.5,1.35-12.19,9.77-19,4.63-3.74,10.38-5.27,17.09-4.53C143.92,102.11,142.5,146.13,142.42,148Z"/></g><g id="Group_877" data-name="Group 877"><path id="Path_1857" data-name="Path 1857" class="cls-1" d="M89.67,121.9c-.21.9,1.67,2.11,4.21,2.7s4.75.33,5-.57-1.67-2.11-4.21-2.7S89.87,121,89.67,121.9Z"/></g></g><g id="Group_879" data-name="Group 879"><path id="Path_1858" data-name="Path 1858" class="cls-13" d="M154.38,158.06l-4.94,19.49a6.26,6.26,0,0,1-5.91,4.72l-117,3.06A6.27,6.27,0,0,1,20.38,181L12.15,155.8a6.27,6.27,0,0,1,5.77-8.2l125.14-3.66a11.35,11.35,0,0,1,11.67,11A11.21,11.21,0,0,1,154.38,158.06Z"/></g><g id="Group_883" data-name="Group 883"><g id="Group_880" data-name="Group 880"><path id="Path_1859" data-name="Path 1859" class="cls-12" d="M15.35,387.54H148.74a11.8,11.8,0,0,0,11.79-11.41l6-182A11.82,11.82,0,0,0,155.16,182h-.69l-143,3.74A11.8,11.8,0,0,0,0,197.75L3.55,376A11.8,11.8,0,0,0,15.35,387.54Z"/></g><g id="Group_881" data-name="Group 881"><path id="Path_1860" data-name="Path 1860" class="cls-14" d="M141.45,373.87h-115A10.75,10.75,0,0,1,15.78,363.4L12.72,209.77a10.69,10.69,0,0,1,10.4-10.9l123.25-3.23a10.69,10.69,0,0,1,11,10.41q0,.31,0,.63l-5.2,156.86A10.64,10.64,0,0,1,141.45,373.87Zm5.21-177.2h-.26L23.15,199.89a9.69,9.69,0,0,0-9.4,9.85l3.06,153.63a9.7,9.7,0,0,0,9.66,9.46h115a9.61,9.61,0,0,0,9.65-9.33l5.2-156.85a9.66,9.66,0,0,0-9.33-10Z"/></g><g id="Group_882" data-name="Group 882"><rect id="Rectangle_1304" data-name="Rectangle 1304" class="cls-14" x="-5.94" y="284.91" width="174.29" height="1.03" transform="translate(-206.1 359.71) rotate(-88.62)"/></g></g><g id="Group_884" data-name="Group 884"><path id="Path_1861" data-name="Path 1861" class="cls-4" d="M183,202.34s-19.05-87.46-19.11-96.75S160.35,83,183,78.81s30.19-6.27,34.32,4.23,13.45,33.5,31.47,33.39,21.76,12.21,21.76,12.21l15.83,67.52Z"/></g><g id="Group_885" data-name="Group 885"><path id="Path_1862" data-name="Path 1862" class="cls-10" d="M233.5,222.59,227.83,209c-3.59-8.55-6-12.68-13.67-16.31l.41-.88c8,3.76,10.55,8.22,14.15,16.81l5.67,13.62Z"/></g><g id="Group_896" data-name="Group 896"><g id="Group_887" data-name="Group 887"><g id="Group_886" data-name="Group 886"><path id="Path_1863" data-name="Path 1863" class="cls-7" d="M147.44,136.89l6,21.41c46.15-23.73,81.47-62,89.15-71.74a5.71,5.71,0,0,0,1-5.06,26.88,26.88,0,0,0-6-10.73A63.16,63.16,0,0,0,229.26,63a3.32,3.32,0,0,0-4.6.54C216.37,73.7,187.31,116.4,147.44,136.89Z"/></g></g><g id="Group_888" data-name="Group 888"><path id="Path_1864" data-name="Path 1864" class="cls-1" d="M140.47,167.35l-20.19-30.49a11.52,11.52,0,0,1-10.76-6.62c-3.57-7.2,2.26-5.83,5.19-3.44s6.56.89,6.81-2.12-2.11-8.16,1.86-8.25,8.23,8.59,3.82,15.7l19.69,29.74s16.74-2.32,17,12.47c0,0-3.18,4.5-5.34.55s-5.78-8.72-10.59-4.94-4.86,5.3-3.2,8.25,5.86,5.24,3.26,7.18-5.4,1.55-7.94-2.74S136.77,170.19,140.47,167.35Z"/></g><g id="Group_895" data-name="Group 895"><g id="Group_889" data-name="Group 889"><path id="Path_1865" data-name="Path 1865" class="cls-7" d="M145.73,153.82l.32.45a2.23,2.23,0,0,1-.51,3.11l-11.27,8.09a2.23,2.23,0,0,1-3.11-.51l-.32-.45a2.23,2.23,0,0,1,.51-3.11l11.27-8.09A2.23,2.23,0,0,1,145.73,153.82Z"/></g><g id="Group_890" data-name="Group 890"><path id="Path_1866" data-name="Path 1866" class="cls-7" d="M142,148.57l.36.51a2.19,2.19,0,0,1-.5,3.06l-13,9.3a2.18,2.18,0,0,1-3.05-.5l-.37-.51a2.19,2.19,0,0,1,.5-3.06l13-9.3A2.2,2.2,0,0,1,142,148.57Z"/></g><g id="Group_891" data-name="Group 891"><path id="Path_1867" data-name="Path 1867" class="cls-7" d="M151.26,140.31l0,.6a3.19,3.19,0,0,1-3.33,3l-18.13-.9a3.2,3.2,0,0,1-3-3.34l0-.6a3.17,3.17,0,0,1,3.33-3l18.13.9A3.19,3.19,0,0,1,151.26,140.31Z"/></g><g id="Group_892" data-name="Group 892"><path id="Path_1868" data-name="Path 1868" class="cls-7" d="M138.25,143.39l.32.45a2.24,2.24,0,0,1-.51,3.11l-11.42,8.2a2.24,2.24,0,0,1-3.12-.51l-.32-.45a2.24,2.24,0,0,1,.51-3.11l11.42-8.2A2.24,2.24,0,0,1,138.25,143.39Z"/></g><g id="Group_893" data-name="Group 893"><path id="Path_1869" data-name="Path 1869" class="cls-7" d="M158.34,150.48s-5.81,13.1-15.68,15.6c-3.42.86-17.72-11.92-15.85-15.4s16.85-12.88,16.85-12.88Z"/></g><g id="Group_894" data-name="Group 894"><path id="Path_1870" data-name="Path 1870" class="cls-7" d="M149.37,158.86l.51.7a2.08,2.08,0,0,1-.48,2.89l-8.18,5.88a2.08,2.08,0,0,1-2.89-.48l-.51-.7a2.07,2.07,0,0,1,.48-2.88l8.18-5.88A2.08,2.08,0,0,1,149.37,158.86Z"/></g></g></g><g id="Group_897" data-name="Group 897"><path id="Path_1871" data-name="Path 1871" class="cls-4" d="M180.1,46.24s-8.59,28.64-8.2,40.25l7-1.29s5.23-33.8,6.2-39.61C185.13,45.59,180.8,43.84,180.1,46.24Z"/></g><g id="Group_898" data-name="Group 898"><path id="Path_1872" data-name="Path 1872" class="cls-4" d="M202.36,79.14c-.13-.78-3.82-24.79,1.31-38.59,0,0,2.3-2.4,4.88-1.26,0,0-5.94,28.36-.65,39.85Z"/></g><g id="Group_899" data-name="Group 899"><path id="Path_1873" data-name="Path 1873" class="cls-1" d="M177.78,87.33s2.19-2,1.38-3.58a2.6,2.6,0,0,0-3.36-1.49l-.09,0c-1.29.51-1.43,2.65-1,3.68S177,88.21,177.78,87.33Z"/></g><g id="Group_900" data-name="Group 900"><path id="Path_1874" data-name="Path 1874" class="cls-1" d="M207.39,80.43s-1.06-2.19-2.64-2.62a2.24,2.24,0,0,0-2.7,2.62,2.29,2.29,0,0,0,2.28,2.32,3,3,0,0,0,.42,0C206.27,82.62,207.73,81.75,207.39,80.43Z"/></g></g></g></g></g></svg>