<svg xmlns="http://www.w3.org/2000/svg" xmlns:xlink="http://www.w3.org/1999/xlink" viewBox="0 0 964.84 613.14"><defs><style>.cls-1,.cls-2,.cls-3{opacity:0.25;}.cls-1,.cls-2,.cls-3,.cls-8{isolation:isolate;}.cls-1{fill:url(#linear-gradient);}.cls-2{fill:url(#linear-gradient-2);}.cls-3{fill:url(#linear-gradient-3);}.cls-4{fill:url(#linear-gradient-4);}.cls-5{fill:#df635a;}.cls-6{fill:url(#linear-gradient-5);}.cls-7{fill:#bb5b3b;}.cls-8{fill:#c59954;opacity:0.24;}.cls-9{fill:#f7e5c1;}.cls-10{fill:url(#linear-gradient-6);}.cls-11{fill:url(#linear-gradient-7);}.cls-12{fill:url(#linear-gradient-8);}.cls-13{fill:url(#linear-gradient-9);}.cls-14{fill:url(#linear-gradient-10);}.cls-15{fill:url(#linear-gradient-11);}.cls-16{fill:url(#linear-gradient-12);}.cls-17{fill:url(#linear-gradient-13);}.cls-18{fill:url(#linear-gradient-14);}.cls-19{fill:url(#linear-gradient-15);}.cls-20{fill:#e9e9e9;}.cls-21{fill:#757ac2;}.cls-22{fill:#404347;}.cls-23{fill:#bdbdbd;}.cls-24{fill:#565a8d;}.cls-25{fill:#dba585;}.cls-26{fill:#3e4148;}.cls-27{fill:#363957;}.cls-28{fill:#dba686;}.cls-29{fill:#1f2531;}.cls-30{fill:#4a5c82;}.cls-31{fill:#6783ca;}.cls-32{fill:#474442;}.cls-33{fill:#997761;}.cls-34{fill:#e7b96b;}.cls-35{fill:#e09637;}.cls-36{fill:#eac483;}.cls-37{fill:#f7f7f7;}.cls-38{fill:#3a4965;}.cls-39{fill:#5871ab;}.cls-40{fill:#2c3d54;}.cls-41{fill:#e6d8d1;}.cls-42{fill:#dcac92;}.cls-43{fill:#334862;}.cls-44{fill:#e8b79a;}.cls-45{fill:#3a5271;}.cls-46{fill:#20313f;}.cls-47{fill:#c99a7d;}.cls-48{fill:#a84848;}.cls-49{fill:#f8e9e1;}.cls-50{fill:#61534b;}</style><linearGradient id="linear-gradient" x1="-4478.97" y1="472.93" x2="-4477.97" y2="472.93" gradientTransform="matrix(898.07, 0, 0, -567.2, 4022459.72, 268540.8)" gradientUnits="userSpaceOnUse"><stop offset="0" stop-color="#a75f4e"/><stop offset="0.04" stop-color="#9e564a"/><stop offset="0.17" stop-color="#843d3f"/><stop offset="0.31" stop-color="#702937"/><stop offset="0.47" stop-color="#611b31"/><stop offset="0.67" stop-color="#59132e"/><stop offset="1" stop-color="#57112d"/></linearGradient><linearGradient id="linear-gradient-2" x1="-4478.97" y1="472.8" x2="-4477.97" y2="472.8" gradientTransform="matrix(898.07, 0, 0, -472.67, 4022415.34, 223780.61)" xlink:href="#linear-gradient"/><linearGradient id="linear-gradient-3" x1="-4479.53" y1="472.93" x2="-4478.53" y2="472.93" gradientTransform="matrix(803.53, 0, 0, -567.2, 3598663.02, 268560.92)" xlink:href="#linear-gradient"/><linearGradient id="linear-gradient-4" x1="-4478.71" y1="471.66" x2="-4477.46" y2="473.15" gradientTransform="matrix(822.7, 0, 0, -324.23, 3684524.8, 153499.68)" gradientUnits="userSpaceOnUse"><stop offset="0" stop-color="#aa4966"/><stop offset="1" stop-color="#dc3b57"/></linearGradient><linearGradient id="linear-gradient-5" x1="-4473.05" y1="473.24" x2="-4474.95" y2="472.3" gradientTransform="matrix(435.18, 0, 0, -511.18, 1947371.16, 242031.59)" gradientUnits="userSpaceOnUse"><stop offset="0" stop-color="#eebe63"/><stop offset="1" stop-color="#dc3b57"/></linearGradient><linearGradient id="linear-gradient-6" x1="-4457.32" y1="453.25" x2="-4456.32" y2="453.25" gradientTransform="matrix(150.65, 0, 0, -18.29, 671737.48, 8870.48)" gradientUnits="userSpaceOnUse"><stop offset="0" stop-color="#e59148"/><stop offset="1" stop-color="#f1cc52"/></linearGradient><linearGradient id="linear-gradient-7" x1="-4457.32" y1="453.25" x2="-4456.32" y2="453.25" gradientTransform="matrix(150.65, 0, 0, -18.29, 671742.98, 8852.19)" gradientUnits="userSpaceOnUse"><stop offset="0" stop-color="#db843a"/><stop offset="1" stop-color="#e4c04c"/></linearGradient><linearGradient id="linear-gradient-8" x1="-4457.32" y1="453.25" x2="-4456.32" y2="453.25" gradientTransform="matrix(150.65, 0, 0, -18.29, 671739.91, 8833.9)" xlink:href="#linear-gradient-6"/><linearGradient id="linear-gradient-9" x1="-4457.32" y1="453.25" x2="-4456.32" y2="453.25" gradientTransform="matrix(150.65, 0, 0, -18.29, 671742.98, 8814.67)" xlink:href="#linear-gradient-7"/><linearGradient id="linear-gradient-10" x1="-4457.32" y1="453.25" x2="-4456.32" y2="453.25" gradientTransform="matrix(150.65, 0, 0, -18.29, 671745.55, 8797.33)" xlink:href="#linear-gradient-6"/><linearGradient id="linear-gradient-11" x1="-4457.32" y1="453.25" x2="-4456.32" y2="453.25" gradientTransform="matrix(150.65, 0, 0, -18.29, 671740.83, 8779.04)" xlink:href="#linear-gradient-7"/><linearGradient id="linear-gradient-12" x1="-4457.32" y1="453.25" x2="-4456.32" y2="453.25" gradientTransform="matrix(150.65, 0, 0, -18.29, 671737.48, 8760.75)" xlink:href="#linear-gradient-6"/><linearGradient id="linear-gradient-13" x1="-4457.32" y1="453.25" x2="-4456.32" y2="453.25" gradientTransform="matrix(150.65, 0, 0, -18.29, 671743.64, 8741.51)" xlink:href="#linear-gradient-7"/><linearGradient id="linear-gradient-14" x1="-4457.32" y1="453.25" x2="-4456.32" y2="453.25" gradientTransform="matrix(150.65, 0, 0, -18.29, 671749.42, 8888.02)" xlink:href="#linear-gradient-7"/><linearGradient id="linear-gradient-15" x1="-4454.23" y1="458.38" x2="-4453.23" y2="458.38" gradientTransform="matrix(0, 150.65, 18.29, 0, -8051.11, 671852.09)" xlink:href="#linear-gradient-6"/></defs><g id="Layer_2" data-name="Layer 2"><g id="Layer_1-2" data-name="Layer 1"><g id="Group_1424" data-name="Group 1424"><path id="Path_2476" data-name="Path 2476" class="cls-1" d="M838.23,93.47C723.51,53,558.85,94.13,279.1,26.73S39.7,169.31,72.42,214.55s28.33,63.34-24,197.54,106.6,145,106.6,145l516.44,23.59C977,572.9,700.71,373.78,852.94,315.11S915.86,120.82,838.23,93.47Z"/><path id="Path_2477" data-name="Path 2477" class="cls-2" d="M.07,273.37c2.8-199.55,227.3-242.11,481.59-171S876.81,53,896.82,265,693,613.08,476.83,504.87-4.86,624.56.07,273.37Z"/><path id="Path_2478" data-name="Path 2478" class="cls-3" d="M78.51,286.64c35,184.39,265.1,136,305,256.65S840,578.16,870.46,406.21c19.23-108.4,31.9-352.72-252.78-371.31S43.52,102.25,78.51,286.64Z"/><g id="Group_1423" data-name="Group 1423"><g id="Group_1422" data-name="Group 1422"><path id="Path_2479" data-name="Path 2479" class="cls-4" d="M741.85,158.14v24.51h42.61L665.79,301.31l-67.37-67.38L464.88,367.47l-87.66-87.65L345.3,311.74,296,262.47l-99.15,99.15L167.4,332.15H136.48l-135,135,15.17,15.17L145.37,353.61h13.14L196.87,392,296,292.81l49.28,49.28,31.92-31.93,87.66,87.66L598.42,264.28l67.37,67.38L799.64,197.82v42.61h24.51v-82.3Z"/><g id="Group_1209" data-name="Group 1209"><path id="Path_2480" data-name="Path 2480" class="cls-5" d="M543.53,19a11,11,0,0,1-4.08-.75,10.78,10.78,0,0,1-3.27-2,10,10,0,0,1-2.2-3,8.87,8.87,0,0,1,0-7.44,9.55,9.55,0,0,1,2.2-3,10.81,10.81,0,0,1,3.27-2,11.39,11.39,0,0,1,8.13,0,10.71,10.71,0,0,1,3.3,2,9.36,9.36,0,0,1,2.2,3,8.87,8.87,0,0,1,0,7.44,9.78,9.78,0,0,1-2.2,3,10.43,10.43,0,0,1-3.3,2A11,11,0,0,1,543.53,19Zm-6.84,23.24L554.4,21.6,570.72.12l3.83,3.4L557.41,23.8,540.52,45.66Zm6.84-27.45a3.38,3.38,0,0,0,1.73-.44,5.31,5.31,0,0,0,2.39-2.86,6.11,6.11,0,0,0,.34-2,5.49,5.49,0,0,0-1.32-3.73,4,4,0,0,0-3.14-1.54,3.34,3.34,0,0,0-1.72.44,5.13,5.13,0,0,0-1.42,1.16,5.33,5.33,0,0,0-1,1.66,6,6,0,0,0-.35,2,5.68,5.68,0,0,0,1.32,3.77A4,4,0,0,0,543.53,14.82Zm24.24,31a10.87,10.87,0,0,1-7.35-2.76,9.5,9.5,0,0,1-2.2-3,9,9,0,0,1,0-7.47,10.12,10.12,0,0,1,2.2-3,10.52,10.52,0,0,1,3.27-2,11,11,0,0,1,11.46,2,9.11,9.11,0,0,1,2.2,3,9,9,0,0,1-2.2,10.45,11,11,0,0,1-3.3,2,10.74,10.74,0,0,1-4.08.75Zm0-4.2a3.59,3.59,0,0,0,1.73-.44,5.32,5.32,0,0,0,2.39-2.83,6,6,0,0,0,0-4.11,5.89,5.89,0,0,0-1-1.7,4.2,4.2,0,0,0-1.41-1.13,3.74,3.74,0,0,0-1.7-.41,3.62,3.62,0,0,0-1.73.44,5.64,5.64,0,0,0-1.41,1.16,5.14,5.14,0,0,0-1,1.7,6.21,6.21,0,0,0-.35,2,5.6,5.6,0,0,0,1.32,3.74,4,4,0,0,0,3.14,1.54Z"/></g><path id="Path_2481" data-name="Path 2481" class="cls-6" d="M482,181.8l49-94.33h0s2.9-22.81-20.91-22.81-28.32,22.81-41.84,22.81-9.66-22.81-30.9-22.81S410.94,87.47,389.7,87.47,382,64.66,355.58,64.66s-33.47,22.81-33.47,22.81h0l49,94.33C277.78,207.63,209,297.09,209,403.48c0,126.58,92.16,172.36,212.34,172.36,57.82,0,111.58-10.6,151.81-35.7h0c43.39-27.06,71-71,71-136.66C644.13,297.09,575.31,207.63,482,181.8Z"/><g id="Group_1211" data-name="Group 1211"><g id="Group_1210" data-name="Group 1210"><path id="Path_2482" data-name="Path 2482" class="cls-7" d="M486.94,319a47.65,47.65,0,0,0-8.46-6.2,116.63,116.63,0,0,0-12.74-6.52A114.86,114.86,0,0,0,450,300.62a102.73,102.73,0,0,0-17.45-3.41q.15,30.69.29,61.4l6.07,1.2c10.52,2.4,21,5.05,31.3,8.16a98.51,98.51,0,0,1,23.95,10.5,48.54,48.54,0,0,1,15.71,15.36c4.3,7.06,6.08,14.9,6.49,22.71.44,8.63-.8,18.09-5.07,26.12A58.1,58.1,0,0,1,494.48,462a92.89,92.89,0,0,1-26,13,155.25,155.25,0,0,1-32.31,6.25q.1,15.54.2,31.08-9,.71-17.94,1.34,0-16,.08-32c-15.81-.34-31.46-2.23-46.34-6.74a133.07,133.07,0,0,1-39.39-19.79q9.15-14.83,18.2-29.75a53.85,53.85,0,0,0,10.32,8.09,100.14,100.14,0,0,0,16.05,8.18,145.42,145.42,0,0,0,20.38,6.59,121.1,121.1,0,0,0,23.2,3.43q0-30.9.08-61.8c-1.3-.39-2.65-.73-4-1s-2.75-.64-4.05-1c-10.06-2.54-20.24-5.26-29.74-9.16a76.22,76.22,0,0,1-20.72-12.08,45.46,45.46,0,0,1-12-16.48c-3.06-7.08-3.65-15.11-3.36-22.46.35-9,2.08-18.52,6.36-26.64a59.1,59.1,0,0,1,15.44-19,69.44,69.44,0,0,1,22.4-11.37c8.87-2.81,18.42-3.57,27.8-3.86l.09-30.2q7.74.66,15.49,1.26l.18,29.91c12.57,1.68,24.94,4.42,36.61,9.26a175.33,175.33,0,0,1,30.25,15.78Q494.37,305.87,486.94,319Zm-103,5.24c-.17,7.3,2.72,15.12,8.91,19.55,8.37,6,18.49,9,28.28,11.78l.09-58.82c-9.58.27-20,1-27.86,7.14-6.13,4.81-9.24,12.83-9.42,20.35ZM477,422.51a21.87,21.87,0,0,0-12-18.76c-10-5-21.11-8.26-32-11q.14,29.35.29,58.71c11.3-.92,23.09-2.77,32.77-8.8A23.27,23.27,0,0,0,477,422.51Z"/></g></g><path id="Path_2483" data-name="Path 2483" class="cls-8" d="M573.1,540.14c-40.23,25.1-94,35.69-151.81,35.69C301.11,575.83,209,530.06,209,403.48c0-106.39,68.82-195.85,162.14-221.67l-49-94.34s7.08-22.81,33.47-22.81,12.87,22.81,34.12,22.81a129.69,129.69,0,0,1,13.37,27.4c5.68,15.85,10.16,37.17,6.08,60.16a99.92,99.92,0,0,1-3.22,13c-2.82,8.78-5.67,25.21-7.53,46.37C389.1,340.24,404.6,564.35,573.1,540.14Z"/><g id="Group_1212" data-name="Group 1212"><path id="Path_2484" data-name="Path 2484" class="cls-9" d="M425.23,191c-15.21,0-37.73-1.64-59.43-8.68l1.39-8c80.88,14.89,121.72-6.18,122-6.4l.71,9.36C488.92,178,469.13,191,425.23,191Z"/></g><g id="Group_1213" data-name="Group 1213"><path id="Path_2485" data-name="Path 2485" class="cls-9" d="M391.46,183.52c-8.11,0-16.58-.36-25.33-1.19l.82-8.54A270.15,270.15,0,0,0,456.4,167a312.52,312.52,0,0,0,40-12.89L490.7,165c-.56.28-9.14,4.59-32,10.28A280.4,280.4,0,0,1,391.46,183.52Z"/></g><path id="Path_2486" data-name="Path 2486" class="cls-9" d="M490.83,165.1s8.87-3.08,5.39-11C496.22,154.09,488.56,162.73,490.83,165.1Z"/><path id="Path_2487" data-name="Path 2487" class="cls-9" d="M489.21,167.9s5,3.14.71,9.36C489.92,177.26,486.18,174.86,489.21,167.9Z"/><path id="Path_2488" data-name="Path 2488" class="cls-9" d="M367,173.79s-5.6,3.16-1.15,8.52C365.8,182.31,373.08,180.84,367,173.79Z"/><g id="Group_1214" data-name="Group 1214"><path id="Path_2489" data-name="Path 2489" class="cls-9" d="M199.12,333.18l-.78-7.73c70.77-7.14,98.91-26.56,111.51-77,3.87-15.48,9.31-29,16.16-40.21a87.91,87.91,0,0,1,19.29-22.54c12.58-10.22,22.9-11.35,23.35-11.42l1.35,7.25c-.07,0-9.27,1.49-20.25,10.58-10.23,8.46-24.15,25.43-32.35,58.23-7,27.95-19.08,46.93-38,59.72C261.26,322.29,236.52,329.41,199.12,333.18Z"/></g><g id="Group_1215" data-name="Group 1215"><path id="Path_2490" data-name="Path 2490" class="cls-9" d="M239.47,269.35a19.25,19.25,0,0,1-7.55-1.25l3.2-7.08-.07,0s5.51,2.12,16-1.75c10-3.69,26.56-13.6,48.66-39.9,46.33-55.11,75.44-44.48,76.65-44l-2.85,7.23.06,0c-.06,0-6.3-2.18-17.59,1.71-10.7,3.68-28.11,13.61-50.32,40-19.15,22.78-37,37.13-53.18,42.65A40.27,40.27,0,0,1,239.47,269.35Z"/></g><g id="Group_1216" data-name="Group 1216"><path id="Path_2491" data-name="Path 2491" class="cls-5" d="M729.19,357.13a9.41,9.41,0,0,0-2.15-1.62,37.45,37.45,0,0,0-3.71-1.95,38,38,0,0,0-4.72-1.81,26.84,26.84,0,0,0-5.33-1.1v16.48l2.38.57q5,1.33,9,2.86a24.39,24.39,0,0,1,6.86,3.8,15.71,15.71,0,0,1,4.33,5.48,18.18,18.18,0,0,1,1.53,7.86,19.75,19.75,0,0,1-1.86,8.95,17,17,0,0,1-5,6.1,22.31,22.31,0,0,1-7.43,3.57,38.83,38.83,0,0,1-8.9,1.38v10.48h-5.71V407.61a49.37,49.37,0,0,1-13-2.72A46.77,46.77,0,0,1,684,399l5.81-11.33a18.15,18.15,0,0,0,2.62,2,31.77,31.77,0,0,0,4.48,2.43,57.38,57.38,0,0,0,5.8,2.24,33.26,33.26,0,0,0,6.62,1.43V379.41q-.85-.18-1.71-.42c-.57-.16-1.14-.34-1.71-.53a60.77,60.77,0,0,1-8.43-2.9,22.34,22.34,0,0,1-6-3.72,13.84,13.84,0,0,1-3.57-4.95,17.14,17.14,0,0,1-1.19-6.71,20.81,20.81,0,0,1,1.67-8.53,19.13,19.13,0,0,1,4.57-6.43,21.51,21.51,0,0,1,6.9-4.19,31.55,31.55,0,0,1,8.58-1.9v-9.72h5.71V339a39.54,39.54,0,0,1,11.57,2.57,47,47,0,0,1,9.29,4.86Zm-29,.95a5.77,5.77,0,0,0,2.24,4.91,22.19,22.19,0,0,0,6.81,3V350.56Q700.24,351.13,700.23,358.08ZM723.38,389a5.76,5.76,0,0,0-2.67-5,29.38,29.38,0,0,0-7.43-3.34V396Q723.38,395.71,723.38,389Z"/></g><g id="Group_1217" data-name="Group 1217"><rect id="Rectangle_1322" data-name="Rectangle 1322" class="cls-10" x="237.33" y="571.44" width="150.65" height="18.29"/><rect id="Rectangle_1323" data-name="Rectangle 1323" class="cls-11" x="242.83" y="553.15" width="150.65" height="18.29"/><rect id="Rectangle_1324" data-name="Rectangle 1324" class="cls-12" x="239.75" y="534.86" width="150.65" height="18.29"/><rect id="Rectangle_1325" data-name="Rectangle 1325" class="cls-13" x="242.83" y="516.57" width="150.65" height="18.29"/><rect id="Rectangle_1326" data-name="Rectangle 1326" class="cls-14" x="245.4" y="498.28" width="150.65" height="18.29"/><rect id="Rectangle_1327" data-name="Rectangle 1327" class="cls-15" x="240.68" y="479.99" width="150.65" height="18.29"/><rect id="Rectangle_1328" data-name="Rectangle 1328" class="cls-16" x="237.33" y="461.7" width="150.65" height="18.29"/><rect id="Rectangle_1329" data-name="Rectangle 1329" class="cls-17" x="243.48" y="443.42" width="150.65" height="18.29"/><rect id="Rectangle_1330" data-name="Rectangle 1330" class="cls-18" x="249.26" y="588.98" width="150.65" height="18.29"/><rect id="Rectangle_1331" data-name="Rectangle 1331" class="cls-19" x="323.45" y="359.72" width="18.29" height="150.65" transform="translate(-110.27 757.14) rotate(-88.63)"/></g><g id="Group_1218" data-name="Group 1218"><path id="Path_2492" data-name="Path 2492" class="cls-20" d="M583.62,212.32c0-10.55-10.68-19.1-23.84-19.1a28.71,28.71,0,0,0-8.49,1.25,23.83,23.83,0,0,0-22.21-14.4c-11.22,0-20.64,7.37-23.17,17.31a17.39,17.39,0,0,0-6.26-1.14c-9.35,0-16.93,7.2-16.93,16.08Z"/></g><g id="Group_1219" data-name="Group 1219"><path id="Path_2493" data-name="Path 2493" class="cls-20" d="M386.44,132.33c0-8.4-8.5-15.2-19-15.2a23.1,23.1,0,0,0-6.76,1,19.29,19.29,0,0,0-36.12,2.32,13.9,13.9,0,0,0-5-.9c-7.44,0-13.47,5.73-13.47,12.8Z"/></g><g id="Group_1220" data-name="Group 1220"><rect id="Rectangle_1332" data-name="Rectangle 1332" class="cls-5" x="584.3" y="128.26" width="66.81" height="8.15"/></g><g id="Group_1221" data-name="Group 1221"><rect id="Rectangle_1333" data-name="Rectangle 1333" class="cls-5" x="570.32" y="148.78" width="66.81" height="8.15"/></g><g id="Group_1226" data-name="Group 1226"><g id="Group_1225" data-name="Group 1225"><g id="Group_1224" data-name="Group 1224"><g id="Group_1223" data-name="Group 1223"><g id="Group_1222" data-name="Group 1222"><path id="Path_2494" data-name="Path 2494" class="cls-21" d="M210,420.48s6.74,1.78,6.89,1.14,1.25-4.95,1.25-4.95c-.79-.71-8.13-1.45-8.13-1.45Z"/></g></g></g></g></g><g id="Group_1231" data-name="Group 1231"><g id="Group_1230" data-name="Group 1230"><g id="Group_1229" data-name="Group 1229"><g id="Group_1228" data-name="Group 1228"><g id="Group_1227" data-name="Group 1227"><path id="Path_2495" data-name="Path 2495" class="cls-22" d="M220.93,425.31a18.75,18.75,0,0,1-3.86-4.24c-5.17-.05-7-1.06-7-1.06s-3.26,8.78-2.48,10.3,5.08,1.22,13.77,2.39c12.25,1.65,11.13-2,10.32-2.91C230.53,428.46,222.91,426.68,220.93,425.31Z"/></g></g></g></g></g><g id="Group_1320" data-name="Group 1320"><g id="Group_1236" data-name="Group 1236"><g id="Group_1235" data-name="Group 1235"><g id="Group_1234" data-name="Group 1234"><g id="Group_1233" data-name="Group 1233"><g id="Group_1232" data-name="Group 1232"><rect id="Rectangle_1334" data-name="Rectangle 1334" class="cls-23" x="64.43" y="449.93" width="324.56" height="3.1" transform="translate(-244.56 633.49) rotate(-84.45)"/></g></g></g></g></g><g id="Group_1241" data-name="Group 1241"><g id="Group_1240" data-name="Group 1240"><g id="Group_1239" data-name="Group 1239"><g id="Group_1238" data-name="Group 1238"><g id="Group_1237" data-name="Group 1237"><rect id="Rectangle_1335" data-name="Rectangle 1335" class="cls-23" x="14.72" y="445.14" width="324.47" height="3.09" transform="translate(-284.79 579.47) rotate(-84.43)"/></g></g></g></g></g><g id="Group_1287" data-name="Group 1287"><g id="Group_1246" data-name="Group 1246"><g id="Group_1245" data-name="Group 1245"><g id="Group_1244" data-name="Group 1244"><g id="Group_1243" data-name="Group 1243"><g id="Group_1242" data-name="Group 1242"><rect id="Rectangle_1336" data-name="Rectangle 1336" class="cls-23" x="215.48" y="268.25" width="3.09" height="50.05" transform="translate(-95.84 480.96) rotate(-84.46)"/></g></g></g></g></g><g id="Group_1251" data-name="Group 1251"><g id="Group_1250" data-name="Group 1250"><g id="Group_1249" data-name="Group 1249"><g id="Group_1248" data-name="Group 1248"><g id="Group_1247" data-name="Group 1247"><rect id="Rectangle_1337" data-name="Rectangle 1337" class="cls-23" x="213.23" y="291.42" width="3.09" height="50.05" transform="translate(-120.92 499.65) rotate(-84.46)"/></g></g></g></g></g><g id="Group_1256" data-name="Group 1256"><g id="Group_1255" data-name="Group 1255"><g id="Group_1254" data-name="Group 1254"><g id="Group_1253" data-name="Group 1253"><g id="Group_1252" data-name="Group 1252"><rect id="Rectangle_1338" data-name="Rectangle 1338" class="cls-23" x="210.98" y="314.6" width="3.09" height="50.03" transform="translate(-146.11 518.18) rotate(-84.43)"/></g></g></g></g></g><g id="Group_1261" data-name="Group 1261"><g id="Group_1260" data-name="Group 1260"><g id="Group_1259" data-name="Group 1259"><g id="Group_1258" data-name="Group 1258"><g id="Group_1257" data-name="Group 1257"><rect id="Rectangle_1339" data-name="Rectangle 1339" class="cls-23" x="208.73" y="337.76" width="3.09" height="50.03" transform="translate(-171.19 536.86) rotate(-84.43)"/></g></g></g></g></g><g id="Group_1266" data-name="Group 1266"><g id="Group_1265" data-name="Group 1265"><g id="Group_1264" data-name="Group 1264"><g id="Group_1263" data-name="Group 1263"><g id="Group_1262" data-name="Group 1262"><rect id="Rectangle_1340" data-name="Rectangle 1340" class="cls-23" x="206.49" y="360.9" width="3.09" height="50.05" transform="translate(-196.18 555.71) rotate(-84.46)"/></g></g></g></g></g><g id="Group_1271" data-name="Group 1271"><g id="Group_1270" data-name="Group 1270"><g id="Group_1269" data-name="Group 1269"><g id="Group_1268" data-name="Group 1268"><g id="Group_1267" data-name="Group 1267"><rect id="Rectangle_1341" data-name="Rectangle 1341" class="cls-23" x="204.23" y="384.09" width="3.09" height="50.03" transform="translate(-221.36 574.22) rotate(-84.43)"/></g></g></g></g></g><g id="Group_1276" data-name="Group 1276"><g id="Group_1275" data-name="Group 1275"><g id="Group_1274" data-name="Group 1274"><g id="Group_1273" data-name="Group 1273"><g id="Group_1272" data-name="Group 1272"><rect id="Rectangle_1342" data-name="Rectangle 1342" class="cls-23" x="201.99" y="407.23" width="3.09" height="50.05" transform="translate(-246.35 593.09) rotate(-84.46)"/></g></g></g></g></g><g id="Group_1281" data-name="Group 1281"><g id="Group_1280" data-name="Group 1280"><g id="Group_1279" data-name="Group 1279"><g id="Group_1278" data-name="Group 1278"><g id="Group_1277" data-name="Group 1277"><rect id="Rectangle_1343" data-name="Rectangle 1343" class="cls-23" x="199.75" y="430.39" width="3.09" height="50.05" transform="translate(-271.44 611.78) rotate(-84.46)"/></g></g></g></g></g><g id="Group_1286" data-name="Group 1286"><g id="Group_1285" data-name="Group 1285"><g id="Group_1284" data-name="Group 1284"><g id="Group_1283" data-name="Group 1283"><g id="Group_1282" data-name="Group 1282"><rect id="Rectangle_1344" data-name="Rectangle 1344" class="cls-23" x="197.5" y="453.56" width="3.09" height="50.05" transform="translate(-296.52 630.48) rotate(-84.46)"/></g></g></g></g></g></g><g id="Group_1308" data-name="Group 1308"><g id="Group_1292" data-name="Group 1292"><g id="Group_1291" data-name="Group 1291"><g id="Group_1290" data-name="Group 1290"><g id="Group_1289" data-name="Group 1289"><g id="Group_1288" data-name="Group 1288"><rect id="Rectangle_1345" data-name="Rectangle 1345" class="cls-23" x="195.25" y="476.72" width="3.1" height="50.05" transform="translate(-321.61 649.16) rotate(-84.46)"/></g></g></g></g></g><g id="Group_1297" data-name="Group 1297"><g id="Group_1296" data-name="Group 1296"><g id="Group_1295" data-name="Group 1295"><g id="Group_1294" data-name="Group 1294"><g id="Group_1293" data-name="Group 1293"><rect id="Rectangle_1346" data-name="Rectangle 1346" class="cls-23" x="193" y="499.88" width="3.09" height="50.05" transform="matrix(0.1, -1, 1, 0.1, -346.7, 667.83)"/></g></g></g></g></g><g id="Group_1302" data-name="Group 1302"><g id="Group_1301" data-name="Group 1301"><g id="Group_1300" data-name="Group 1300"><g id="Group_1299" data-name="Group 1299"><g id="Group_1298" data-name="Group 1298"><rect id="Rectangle_1347" data-name="Rectangle 1347" class="cls-23" x="190.75" y="523.05" width="3.09" height="50.05" transform="translate(-371.78 686.51) rotate(-84.46)"/></g></g></g></g></g><g id="Group_1307" data-name="Group 1307"><g id="Group_1306" data-name="Group 1306"><g id="Group_1305" data-name="Group 1305"><g id="Group_1304" data-name="Group 1304"><g id="Group_1303" data-name="Group 1303"><rect id="Rectangle_1348" data-name="Rectangle 1348" class="cls-23" x="188.5" y="546.23" width="3.09" height="50.03" transform="translate(-396.94 704.97) rotate(-84.43)"/></g></g></g></g></g></g><g id="Group_1319" data-name="Group 1319"><g id="Group_1313" data-name="Group 1313"><g id="Group_1312" data-name="Group 1312"><g id="Group_1311" data-name="Group 1311"><g id="Group_1310" data-name="Group 1310"><g id="Group_1309" data-name="Group 1309"><rect id="Rectangle_1349" data-name="Rectangle 1349" class="cls-23" x="188.5" y="546.23" width="3.09" height="50.03" transform="translate(-396.94 704.97) rotate(-84.43)"/></g></g></g></g></g><g id="Group_1318" data-name="Group 1318"><g id="Group_1317" data-name="Group 1317"><g id="Group_1316" data-name="Group 1316"><g id="Group_1315" data-name="Group 1315"><g id="Group_1314" data-name="Group 1314"><rect id="Rectangle_1350" data-name="Rectangle 1350" class="cls-23" x="186.25" y="569.39" width="3.09" height="50.03" transform="translate(-422.02 723.64) rotate(-84.43)"/></g></g></g></g></g></g></g><g id="Group_1325" data-name="Group 1325"><g id="Group_1324" data-name="Group 1324"><g id="Group_1323" data-name="Group 1323"><g id="Group_1322" data-name="Group 1322"><g id="Group_1321" data-name="Group 1321"><path id="Path_2496" data-name="Path 2496" class="cls-24" d="M232.69,350.86c-1.29-6.52-6.2-24.74-6.2-24.74-3.62-5.8-36.65-2.47-36.65-2.47,2.68,18.29,12.63,18.52,17,28.38s5.07,9.5,10.6,21.45c3.71,8-10.52,44.25-10.52,44.25l13.49,2.17c1.54-6.29,16.34-41.07,16-44.66S233.82,356.53,232.69,350.86Z"/></g></g></g></g></g><g id="Group_1330" data-name="Group 1330"><g id="Group_1329" data-name="Group 1329"><g id="Group_1328" data-name="Group 1328"><g id="Group_1327" data-name="Group 1327"><g id="Group_1326" data-name="Group 1326"><path id="Path_2497" data-name="Path 2497" class="cls-25" d="M202.51,237.6c-2.36,1.19-5.5,3.47-5.6,7.6s2,10.29,4.3,14.55,9.09,5.15,13.6,3.47,4.92-15.33.79-22.15S202.51,237.6,202.51,237.6Z"/></g></g></g></g></g><g id="Group_1335" data-name="Group 1335"><g id="Group_1334" data-name="Group 1334"><g id="Group_1333" data-name="Group 1333"><g id="Group_1332" data-name="Group 1332"><g id="Group_1331" data-name="Group 1331"><path id="Path_2498" data-name="Path 2498" class="cls-25" d="M213.31,262.8s-15.85-12.5-14-7.19a95.15,95.15,0,0,1,3,11.88s11.86,0,11.26-1.19A7.54,7.54,0,0,1,213.31,262.8Z"/></g></g></g></g></g><g id="Group_1340" data-name="Group 1340"><g id="Group_1339" data-name="Group 1339"><g id="Group_1338" data-name="Group 1338"><g id="Group_1337" data-name="Group 1337"><g id="Group_1336" data-name="Group 1336"><path id="Path_2499" data-name="Path 2499" class="cls-26" d="M204.08,236.58s-8.23,2.27-7.93,6.95,1.5,10,3.34,12.35c0,0,.82,1.35,4.16.83s7.42-5,8.82-5.46,1.4-1.31,1.4-1.31l.88,1.28,1.48.09s-1.35-4,.69-5.6S214.8,232.84,204.08,236.58Z"/></g></g></g></g></g><g id="Group_1345" data-name="Group 1345"><g id="Group_1344" data-name="Group 1344"><g id="Group_1343" data-name="Group 1343"><g id="Group_1342" data-name="Group 1342"><g id="Group_1341" data-name="Group 1341"><path id="Path_2500" data-name="Path 2500" class="cls-25" d="M210.7,247.61c-.76,2.4,1.16,5.64,2.23,5.36s1.2-2.74.72-4.73C213.47,247.45,211.47,245.21,210.7,247.61Z"/></g></g></g></g></g><g id="Group_1350" data-name="Group 1350"><g id="Group_1349" data-name="Group 1349"><g id="Group_1348" data-name="Group 1348"><g id="Group_1347" data-name="Group 1347"><g id="Group_1346" data-name="Group 1346"><path id="Path_2501" data-name="Path 2501" class="cls-27" d="M217.07,421.07c-5.17-.05-7-1.06-7-1.06s-3.26,8.78-2.48,10.3,5.07,1.22,13.77,2.39a39.22,39.22,0,0,0,5.72.42l.51-5.23c-2.55-.89-5.5-1.8-6.63-2.58A18.75,18.75,0,0,1,217.07,421.07Z"/></g></g></g></g></g><g id="Group_1355" data-name="Group 1355"><g id="Group_1354" data-name="Group 1354"><g id="Group_1353" data-name="Group 1353"><g id="Group_1352" data-name="Group 1352"><g id="Group_1351" data-name="Group 1351"><path id="Path_2502" data-name="Path 2502" class="cls-21" d="M176.64,440.59s6.74,1.79,6.89,1.14,1.24-5,1.24-5c-.79-.71-8.13-1.45-8.13-1.45Z"/></g></g></g></g></g><g id="Group_1360" data-name="Group 1360"><g id="Group_1359" data-name="Group 1359"><g id="Group_1358" data-name="Group 1358"><g id="Group_1357" data-name="Group 1357"><g id="Group_1356" data-name="Group 1356"><path id="Path_2503" data-name="Path 2503" class="cls-24" d="M186.66,344c-.68,9.38-1.9,19.67-2.87,29.48-1.09,10.94-4.18,28.63-4.35,34.48s-5.08,31.43-5.08,31.43l12.6,1.45s8.18-45.2,10.12-49.82,11.52-37.56,11.84-41.25-19.08-26.07-19.08-26.07A141.92,141.92,0,0,0,186.66,344Z"/></g></g></g></g></g><g id="Group_1365" data-name="Group 1365"><g id="Group_1364" data-name="Group 1364"><g id="Group_1363" data-name="Group 1363"><g id="Group_1362" data-name="Group 1362"><g id="Group_1361" data-name="Group 1361"><path id="Path_2504" data-name="Path 2504" class="cls-27" d="M187.52,445.42a18.56,18.56,0,0,1-3.86-4.24c-5.16,0-7-1.06-7-1.06s-3.27,8.78-2.48,10.3,5.07,1.22,13.77,2.4c12.24,1.64,11.12-2,10.31-2.92C197.13,448.57,189.5,446.8,187.52,445.42Z"/></g></g></g></g></g><g id="Group_1370" data-name="Group 1370"><g id="Group_1369" data-name="Group 1369"><g id="Group_1368" data-name="Group 1368"><g id="Group_1367" data-name="Group 1367"><g id="Group_1366" data-name="Group 1366"><path id="Path_2505" data-name="Path 2505" class="cls-25" d="M282.84,245.08a4.33,4.33,0,0,0-1.11-2.1,1.8,1.8,0,0,0-.63-1.64c-.4-.39-2.23-.18-2.41-.15a11,11,0,0,0-2.22.2l-.3.11c-1,.43-5.85,6.68-5.85,6.68l.86,2.5,1.22,3.09s5.2-1.18,6.36-1.52a8.37,8.37,0,0,0,2.38-1.26,4.44,4.44,0,0,1,.44-.22c.59-.26,1.43-.58,1.43-.58a4.47,4.47,0,0,0,1.08-1c.36-.76-.53-1.86-.53-1.86A2.7,2.7,0,0,0,282.84,245.08Z"/></g></g></g></g></g><g id="Group_1388" data-name="Group 1388"><g id="Group_1374" data-name="Group 1374"><g id="Group_1373" data-name="Group 1373"><g id="Group_1372" data-name="Group 1372"><g id="Group_1371" data-name="Group 1371"><path id="Path_2506" data-name="Path 2506" class="cls-27" d="M187.67,270.23c-.4,0-9.08,16-8.18,26.82.1,1.17,1.44,2.44,2.35,3.07a3.79,3.79,0,0,0,2,.67l.53,0h0l9.31.32S200.65,278.76,187.67,270.23Z"/></g></g></g></g><g id="Group_1378" data-name="Group 1378"><g id="Group_1377" data-name="Group 1377"><g id="Group_1376" data-name="Group 1376"><g id="Group_1375" data-name="Group 1375"><path id="Path_2507" data-name="Path 2507" class="cls-27" d="M201.89,265.31l-.62.58s-1.25,2.4,3.46,2.6,12.11.55,8.58-2.87C213.32,265.62,206,263.92,201.89,265.31Z"/></g></g></g></g><g id="Group_1382" data-name="Group 1382"><g id="Group_1381" data-name="Group 1381"><g id="Group_1380" data-name="Group 1380"><g id="Group_1379" data-name="Group 1379"><path id="Path_2508" data-name="Path 2508" class="cls-27" d="M229.27,271.61a11.16,11.16,0,0,0-1.51-.75l-2.45-1c-5.28-2.17-12-4.21-12-4.21H202.53a92.81,92.81,0,0,0-13.1,3.64,9.72,9.72,0,0,0-1.76,1L189.13,301V301c.66,4.33,1.35,9.43,1.58,13,.1,1.46-1.57,9.3-2.44,16.5l-3.05,17.22s1.76,7.14,43.81,1.13c1.08-.15-2.66-32.14-2.38-34.15.2-1.34.17-11.73.09-18.21l1.17-6.56a28.57,28.57,0,0,1,2.57-1.63c1.62-.93,3.66-2,5.92-3.14-.26-1.55-.44-2.77-.51-3.48A13.14,13.14,0,0,0,229.27,271.61Z"/></g></g></g></g><g id="Group_1387" data-name="Group 1387"><g id="Group_1386" data-name="Group 1386"><g id="Group_1385" data-name="Group 1385"><g id="Group_1384" data-name="Group 1384"><g id="Group_1383" data-name="Group 1383"><path id="Path_2509" data-name="Path 2509" class="cls-27" d="M270.23,247.44s-17.34,16.42-21.13,18.45c-3.26,1.74-19.36,3.5-23.79,3.95l-1.13.11c-4.63,6.32,1.5,21.43,4.08,19.77a71.21,71.21,0,0,1,8.15-4.52c10-5,22.42-14.12,24.77-15.43,3.62-2,15.06-16,15.06-16C275.65,251.67,270.23,247.44,270.23,247.44Z"/></g></g></g></g></g></g><path id="Path_2510" data-name="Path 2510" class="cls-28" d="M684.26,589.35s-.14-1.56,3-3.48l-4.24-4.2a25.83,25.83,0,0,0-4.77,3.7C675.85,587.69,684.26,589.35,684.26,589.35Z"/><path id="Path_2511" data-name="Path 2511" class="cls-28" d="M782.56,588s-.44-3.84.7-5.74l-5.16-.88s-2.8,4.28-2.56,6.78S782.56,588,782.56,588Z"/><g id="Group_1390" data-name="Group 1390"><g id="Group_1389" data-name="Group 1389"><path id="Path_2512" data-name="Path 2512" class="cls-28" d="M694,604.27c0,1.45.1,2.25-4.33,2.3s-8.7-5.22-11.68-8.93-6.86-5.49-4.42-8c.3-.31.62-.63.94-.94,2.32-2.23,5.06-4.42,5.42-4.87s4.39,4.87,4.39,4.87a10.12,10.12,0,0,0,.38,4.27c.71,1.57,1.84,7.29,3.94,8.23h0C690.73,602.15,694,604,694,604.27Z"/></g></g><g id="Group_1392" data-name="Group 1392"><g id="Group_1391" data-name="Group 1391"><path id="Path_2513" data-name="Path 2513" class="cls-28" d="M795.85,600.13c-2.94-.06-11.3-.49-15.94,0s-6.44-.22-6.12-3.55c0-.18,0-.37.07-.55.41-3.26,1.72-7.35,1.8-8.72s6-.64,6-.64,3.07,4.56,4.77,5.48,6.81,2.82,8.78,3.7l.46.18h0c2.08.7,5.59.8,6.1,1.91S798.8,600.18,795.85,600.13Z"/></g></g><path id="Path_2514" data-name="Path 2514" class="cls-29" d="M795.85,600.13c-2.94-.06-11.3-.49-15.94,0s-6.44-.22-6.12-3.55c0-.18,0-.37.07-.55,1.12-.78,9.16-.31,13.92.31a20.85,20.85,0,0,0,7.87-.31h0c2.08.7,5.59.8,6.1,1.91S798.8,600.18,795.85,600.13Z"/><path id="Path_2515" data-name="Path 2515" class="cls-29" d="M694.13,604.22c0,1.45,0,2.3-4.47,2.35s-8.7-5.22-11.68-8.93-6.86-5.49-4.42-8c.3-.31.62-.63.94-.94.14.11,5.87,4.92,7.7,8.28,3,5.58,6.29,4.2,6.44,4.22h0C690.73,602.15,694.13,603.9,694.13,604.22Z"/><path id="Path_2516" data-name="Path 2516" class="cls-30" d="M801.63,543.15c-4.6,7.52-18.23,43.41-18.23,43.41l-11.69-.82s7.43-25.09,11.17-34.38c2.77-6.88,6.77-10.35,2.82-12.13-3.34-1.51-23.43-8.79-32-13a29.66,29.66,0,0,1-2.65-1.46,7.17,7.17,0,0,1-.71-.52c-4-3.37,3.89-28.32,17.64-20.89,0,0,30.12,22.46,32.46,26.36S806.23,535.63,801.63,543.15Z"/><g id="Group_1393" data-name="Group 1393"><path id="Path_2517" data-name="Path 2517" class="cls-30" d="M767.36,502.58s-19,28.62-36.58,44.32c-5,4.44-9,8.12-16.15,13.84-3.79,3-10.46,9.38-15.88,14.65l-.22.22c-3.86,3.76-7,6.94-8,7.92l-.1.09-.11.12-3.52,3.81-5.38-4.91A145.89,145.89,0,0,0,690.73,569c4.72-8.33,11.71-17.62,15.39-20.36,6.31-4.69,12.52-7.56,14.75-11.87s9.86-21.65,9.86-21.65S732,497.26,742.79,493C752.94,488.94,767.36,502.58,767.36,502.58Z"/></g><g id="Group_1394" data-name="Group 1394"><path id="Path_2518" data-name="Path 2518" class="cls-28" d="M776.34,427.87a10.31,10.31,0,0,0-1.14,2.77,25.94,25.94,0,0,0-.6,3,35.13,35.13,0,0,0-.33,3.83s-11.59-3-9.56-5.65,1.21-11,1.21-11S778,425.37,776.34,427.87Z"/></g><g id="Group_1395" data-name="Group 1395"><path id="Path_2519" data-name="Path 2519" class="cls-25" d="M783.79,405.59s2.89,2.72,1.27,10.16c0,0,.43,6,1.3,7.06s-2.51,1.33-2.89,2.07-1.19,4.21-3.62,6.23-13.8-4.79-14.22-8.41-7.88-19.36,4.89-19.57S783.79,405.59,783.79,405.59Z"/></g><g id="Group_1396" data-name="Group 1396"><path id="Path_2520" data-name="Path 2520" class="cls-31" d="M782.41,471q-.67,1.26-1.5,2.64c-1.47,2.48-3.3,5.29-5.48,8.54a26.83,26.83,0,0,0-1.58,2.49c-2.78,5.32-4.89,14.3-5.6,17.53-.17.77-.25,1.16-.25,1.16-15.4.85-31.92-8.63-31.92-8.63,9.78-11.06,13.47-19.47,13.47-19.47a34.57,34.57,0,0,0,1.56-10.55c.16-12.48,3.4-19.48,6.57-25a22.52,22.52,0,0,1,7-7.84l9.61,5.41c1.22,3.5,5.2,7.32,9.26,15.84C786.58,459.34,786.18,463.9,782.41,471Z"/></g><g id="Group_1397" data-name="Group 1397"><path id="Path_2521" data-name="Path 2521" class="cls-32" d="M785.48,413.07s2-15.5-13.15-13.3-8.07,19.48-6.25,25.1c0,0,.08-8.61,7.35-8.61S782.27,414.64,785.48,413.07Z"/></g><g id="Group_1398" data-name="Group 1398"><path id="Path_2522" data-name="Path 2522" class="cls-28" d="M772.34,414c-.85-1.61-4-.89-3.73,1.53s2.66,4.91,3.54,3.78A4.67,4.67,0,0,0,772.34,414Z"/></g><path id="Path_2523" data-name="Path 2523" class="cls-32" d="M766.66,404.58s-4.23-4.38-7.53.27,3.26,11.57,6.18,7.72A8.77,8.77,0,0,0,766.66,404.58Z"/><path id="Path_2524" data-name="Path 2524" class="cls-33" d="M775.2,430.64a23.27,23.27,0,0,0-.6,3c-3.82-1.92-6.52-7.44-6.52-7.44a30,30,0,0,0,7.11,4.45Z"/><g id="Group_1400" data-name="Group 1400"><path id="Path_2525" data-name="Path 2525" class="cls-34" d="M809.49,564.83a81.5,81.5,0,1,1,108.34,39.33h0A81.5,81.5,0,0,1,809.49,564.83Z"/><path id="Path_2526" data-name="Path 2526" class="cls-34" d="M922.17,602l-68.89-147.4A81.5,81.5,0,0,1,922.17,602Z"/><path id="Path_2527" data-name="Path 2527" class="cls-34" d="M809.49,564.84a81.53,81.53,0,0,1,22.35-97.7l66.94,143.23A81.54,81.54,0,0,1,809.49,564.84Z"/><path id="Path_2528" data-name="Path 2528" class="cls-35" d="M827.21,556.56a61.94,61.94,0,1,1,82.34,29.88h0a61.93,61.93,0,0,1-82.34-29.88Z"/><g id="Group_1399" data-name="Group 1399"><path id="Path_2529" data-name="Path 2529" class="cls-36" d="M876.11,556.57a12.43,12.43,0,0,0,3,.74,26.33,26.33,0,0,0,4.16.25,30,30,0,0,0,4.83-.45,26.31,26.31,0,0,0,5-1.39l-7.93-17-1.71.4a82.15,82.15,0,0,1-9.1,1.35,25.32,25.32,0,0,1-7.52-.38,14.37,14.37,0,0,1-6-2.85,16.39,16.39,0,0,1-4.47-6,18,18,0,0,1-1.92-8.14,16.18,16.18,0,0,1,1.91-7.14,21.64,21.64,0,0,1,5-6.06,34.26,34.26,0,0,1,7.31-4.76l-4-8.6,4.26-2,4.1,8.77a45.44,45.44,0,0,1,12.32-2.91,38.86,38.86,0,0,1,12.26.81l-.5,9.82a16,16,0,0,0-3.62-.9,32.74,32.74,0,0,0-5-.33,40.28,40.28,0,0,0-5.92.47,35.26,35.26,0,0,0-6.24,1.51l7.93,17c.38,0,.77-.11,1.16-.2s.77-.14,1.16-.19a77.42,77.42,0,0,1,8.71-1.13,21,21,0,0,1,6.8.57,13.21,13.21,0,0,1,5.21,2.71,15.35,15.35,0,0,1,3.85,5.34,19.13,19.13,0,0,1,1.94,7.78,17.2,17.2,0,0,1-1.43,7.21,20.71,20.71,0,0,1-4.29,6.3,30.81,30.81,0,0,1-6.75,5.1l3.86,8.27-4.26,2-3.86-8.28a34.59,34.59,0,0,1-10.84,2.46,39.3,39.3,0,0,1-10-.62Zm26-14.77a6.53,6.53,0,0,0-4.83-4,26,26,0,0,0-8.75.4l7.54,16.15q4.89-2.58,6.29-5.79A7.84,7.84,0,0,0,902.16,541.8Zm-36.4-16.14a6.73,6.73,0,0,0,5.42,4.11,34.2,34.2,0,0,0,9.58-.44l-7.58-16.23q-5.2,2.53-7.16,5.74a6.86,6.86,0,0,0-.26,6.82Z"/></g><path id="Path_2530" data-name="Path 2530" class="cls-37" d="M933.42,594.63a81.52,81.52,0,0,0-67.29-144Z"/><path id="Path_2531" data-name="Path 2531" class="cls-37" d="M898.78,610.37,831.84,467.13a82,82,0,0,1,17-10.63c1.48-.69,3-1.33,4.46-1.93L922.17,602c-1.42.77-2.86,1.5-4.34,2.19A81.84,81.84,0,0,1,898.78,610.37Z"/></g><path id="Path_2532" data-name="Path 2532" class="cls-32" d="M764.47,403.1a7.38,7.38,0,0,0-6.25-2.87c-4.3.1-9.35,6.77-7.7,16.17s-1,20.53-9.69,29.91c0,0,15.36-9,16.39-21.44s5.43-12.66,5.43-12.66Z"/><path id="Path_2533" data-name="Path 2533" class="cls-25" d="M804.78,493.29s4.11-.06,5.08.06a4.81,4.81,0,0,0,2.2,0c.27-.2,2.18-3.69,2.85-4.54s5.22-8.58,4.77-8.5a15.89,15.89,0,0,0-7.33,5.28c-3.07,3.85-6.76,2.59-8,3.52S804.78,493.29,804.78,493.29Z"/><path id="Path_2534" data-name="Path 2534" class="cls-38" d="M751.08,524.73s8.2-10.3,8.8-11.51c-.32.77-4.47,10.77-6.16,13A29.49,29.49,0,0,1,751.08,524.73Z"/><path id="Path_2535" data-name="Path 2535" class="cls-39" d="M782.41,471c-.45.84-.95,1.71-1.5,2.63,0,0-5.33-14.59-5.93-18.2C775,455.38,779.91,465.56,782.41,471Z"/><path id="Path_2536" data-name="Path 2536" class="cls-31" d="M806.38,488.62s-15.4-3-23.11-9.82c-2-1.78-10.71-31.51-10.71-31.51s-2.37-7.51-9-5.1-3.69,9.95-3.69,9.95,10,23.42,15.26,32.48c4.33,7.54,31.54,9.19,31.54,9.19Z"/><path id="Path_2537" data-name="Path 2537" class="cls-31" d="M763.47,432.69l2.07-2.78,9.44,5.32.22,4.69Z"/><g id="Group_1414" data-name="Group 1414"><g id="Group_1403" data-name="Group 1403"><g id="Group_1402" data-name="Group 1402"><g id="Group_1401" data-name="Group 1401"><path id="Path_2538" data-name="Path 2538" class="cls-28" d="M426.67,467.13s-2.42,2.39-3.26,2.27-2.14.49-2.92.53-2.93-.6-3.7-.27a23.24,23.24,0,0,1-2.6,1.92c-.67.21-2.07.47-1.89,1s1.5.69,1.5.69a1,1,0,0,0-.53.83c0,1.07.7,1.3.7,1.3s-.6.62-.48,1.07a1.5,1.5,0,0,0,1,1.15,1.6,1.6,0,0,0,.07,1.25,1.32,1.32,0,0,0,1.42.54c.3,1.47,1.06,1.29,2.45,1a21.09,21.09,0,0,0,6.87-5,25.23,25.23,0,0,1,5-4.48Z"/></g></g></g><g id="Group_1404" data-name="Group 1404"><path id="Path_2539" data-name="Path 2539" class="cls-40" d="M447.23,422.38a20.46,20.46,0,0,1-2.18,7.41c-2,3.89-2,9.35-2.28,11.21s-5.48,19.72-5.93,20.22-2,1.18-5.23,6.59-9.88,10.4-9.88,10.4l5.54,5.44s14.83-10.26,17.08-16.11c2.41-6.25,7.65-24.15,7.65-24.15S457.43,425.54,447.23,422.38Z"/></g><rect id="Rectangle_1351" data-name="Rectangle 1351" class="cls-41" x="413.35" y="444.36" width="26.6" height="44.39" transform="translate(-176.12 275.84) rotate(-30)"/><path id="Path_2540" data-name="Path 2540" class="cls-42" d="M445.71,585.77s-1.67,4-3,5.16-7.15,8.71-9.17,9.1-6,.64-6.2,1.5-.26,5,5.47,5.14,7.23,0,8.63-1.37,6.86-5.43,8.36-5.39l-.17,7.16,1.5,0s1.65-8.84,2.83-10.53.12-8-2.75-10.67A4,4,0,0,0,445.71,585.77Z"/><path id="Path_2541" data-name="Path 2541" class="cls-43" d="M433.55,600s6.36.87,9.06-1.22,6.08-7.27,11.48-7.37c0,0,1.93,2.47-1.24,8.12,0,0-1.75,6.48-1.7,7.55l-1.5,0,.17-7.16a30.56,30.56,0,0,0-9.13,6.52s-11,1.74-13.05-1.68a4.52,4.52,0,0,1-.63-3.38C427.5,599.7,433.55,600,433.55,600Z"/><path id="Path_2542" data-name="Path 2542" class="cls-42" d="M457.77,481.14s6.72,8.15-1.7,22.7c0,0-.71,7.44-.86,10.23s-1.94,13.23-1,18.3,4.12,12.68,2.94,20-6.57,28.26-5.53,33.64l-6-.14s-2.13-44.46-2.79-46-3.3-5-3-11.87-6.76-35.19-6.73-43S457.77,481.14,457.77,481.14Z"/><path id="Path_2543" data-name="Path 2543" class="cls-44" d="M449.5,585.9s-1.57,4.09-2.86,5.23-6.95,8.88-9,9.31-6,.79-6.15,1.65-.15,5,5.58,5,7.24-.14,8.6-1.57,6.73-5.59,8.23-5.59v7.16h1.5s1.44-8.88,2.58-10.6-.07-8-3-10.6A4,4,0,0,0,449.5,585.9Z"/><path id="Path_2544" data-name="Path 2544" class="cls-45" d="M437.68,600.44s6.38.72,9-1.43,5.91-7.41,11.3-7.65c0,0,2,2.43-1,8.16,0,0-1.6,6.51-1.52,7.58H454v-7.16a30.55,30.55,0,0,0-9,6.73s-10.93,2-13.08-1.36a4.51,4.51,0,0,1-.72-3.37C431.63,600.26,437.68,600.44,437.68,600.44Z"/><path id="Path_2545" data-name="Path 2545" class="cls-44" d="M459.09,481s6.9,8-1.17,22.75c0,0-.54,7.45-.62,10.24s-1.63,13.28-.54,18.32,4.42,12.58,3.41,19.87-5.9,28.41-4.73,33.77h-6s-3.18-44.4-3.88-46-3.42-4.89-3.26-11.8-9.55-33.38-9.7-41.22S459.09,481,459.09,481Z"/><path id="Path_2546" data-name="Path 2546" class="cls-40" d="M432.62,489.09s7.69,44.24,6,50.61c0,0,13-1.19,23.24-5.17,0,0-5.11-17.32-3.39-26.5s5.63-14.2,3.06-23.49S432.62,489.09,432.62,489.09Z"/><g id="Group_1407" data-name="Group 1407"><g id="Group_1406" data-name="Group 1406"><g id="Group_1405" data-name="Group 1405"><path id="Path_2547" data-name="Path 2547" class="cls-25" d="M394.61,467.38s-2.49.7-3.45-.41a8,8,0,0,0-3.09-1.78c-.71-.26-2.61-1.89-2.95-1s3,2.83,3.62,3.37-3,1.12-3.6,1.74.7,6.61,3.15,5.93,4.63-3,5.08-3.06a14,14,0,0,0,1.81-.42Z"/></g></g></g><g id="Group_1410" data-name="Group 1410"><g id="Group_1409" data-name="Group 1409"><g id="Group_1408" data-name="Group 1408"><path id="Path_2548" data-name="Path 2548" class="cls-25" d="M385.67,469s-7.38,2.58-7.72,3.16-.19,1,.51.77l7.2-2.29s-8.22,4.52-8.61,4.93c-.22.25.05,1,.43.94s8.79-4.09,8.79-4.09-7.66,4.24-7.89,4.68a.6.6,0,0,0,.33.78.58.58,0,0,0,.5,0c.59-.27,7.92-3.8,7.92-3.8s-5.38,3.44-5.35,3.92c0,.3.23,1,1.59.05s4.8-2.78,4.8-2.78Z"/></g></g></g><path id="Path_2549" data-name="Path 2549" class="cls-44" d="M437.9,390.51a11.81,11.81,0,0,0-12.11,11.17,29.25,29.25,0,0,0,1,4.43c.66,1.94-.93,7.76-.46,8a12.06,12.06,0,0,0,2.37.58s2.21,6.25,4.42,6.14,10.55-2.09,14.27-10S452,390.79,437.9,390.51Z"/><path id="Path_2550" data-name="Path 2550" class="cls-46" d="M425.79,401.68s5.77,3.7,11.41,4.32,9.4,6.32,9.4,6.32,8.25-11,1.11-19.46S424.26,390.94,425.79,401.68Z"/><path id="Path_2551" data-name="Path 2551" class="cls-45" d="M461.51,484.55c-7.53,8.15-28,6.94-28.9,4.54s-2.09-24.76-2.33-27.17a21.42,21.42,0,0,1,.23-3.67,12.66,12.66,0,0,0,0-2.95,3.36,3.36,0,0,0-.8-1.85c-1.89-2-4.66-6.12-4-9s8.3-12.42,10.64-15.05,8.54-8.54,8.54-8.54c8.84-.15,11.48,18.16,10.08,22.28s-5.51,21.5-3.18,24.21S461.51,484.55,461.51,484.55Z"/><path id="Path_2552" data-name="Path 2552" class="cls-44" d="M445.58,420.85a27.49,27.49,0,0,1,0-7s-10.5,4.85-8.69,6.17a3.26,3.26,0,0,1,1,1.79,20.9,20.9,0,0,1,.46,5.52l-3.49,4.15C431.82,435.69,445.84,422.25,445.58,420.85Z"/><path id="Path_2553" data-name="Path 2553" class="cls-25" d="M439.52,405.68a1.73,1.73,0,0,1,1.59-1.86,1.71,1.71,0,0,1,1.4.54c1.83,1.44-.42,6.67-1.9,6.21S439.52,406.8,439.52,405.68Z"/><path id="Path_2554" data-name="Path 2554" class="cls-33" d="M436.89,420a4.17,4.17,0,0,1,1.1,2,17.27,17.27,0,0,0,6.07-6.46C441.83,418.31,436.89,420,436.89,420Z"/><g id="Group_1411" data-name="Group 1411"><path id="Path_2555" data-name="Path 2555" class="cls-45" d="M452.42,427.57s-5.2-4.12-8.83-1.36-4.31,5.53-5.41,7.15-14,16.09-14.66,16.35S412.13,456,406.29,459,392,467.1,392,467.1l2.68,5.33s28.7-11.9,34-15.74,20.18-15.88,20.18-15.88S458.22,436.35,452.42,427.57Z"/></g><g id="Group_1413" data-name="Group 1413"><g id="Group_1412" data-name="Group 1412"><path id="Path_2556" data-name="Path 2556" class="cls-47" d="M414.11,473s3.56-1.82,4.78-1.29,0,1.25,0,1.25,1.23-.73,1.9.16-.83,1.67-.83,1.67a1.11,1.11,0,0,1,1.37.74s0,.05,0,.07c.32,1.13-1.07,1.49-1.07,1.49s1.74.39.87,1.6a6.16,6.16,0,0,1-4.37,2.15s-.7-.05-.93-1.15a1.52,1.52,0,0,1-1.53-1.49,1.74,1.74,0,0,1,.06-.45s-1.63-1.08-.51-2.3C413.83,475.43,412.16,474.17,414.11,473Z"/></g></g><path id="Path_2557" data-name="Path 2557" class="cls-46" d="M438.15,406.16s3.25,14.15-1.26,16.89c0,0,9.56-2.58,13.9-8.1,0,0,4.8-22.93-10.14-25.5C425.89,386.92,438.15,406.16,438.15,406.16Z"/><path id="Path_2558" data-name="Path 2558" class="cls-46" d="M444.61,444.22c-.34.37-11.5,12.12-14.1,14a12.13,12.13,0,0,0,0-2.95Z"/></g><g id="Group_1421" data-name="Group 1421"><g id="Group_1416" data-name="Group 1416"><path id="Path_2559" data-name="Path 2559" class="cls-34" d="M487.39,302.87A80.38,80.38,0,1,1,567.07,384a80.39,80.39,0,0,1-79.68-81.09Z"/><path id="Path_2560" data-name="Path 2560" class="cls-34" d="M571.86,383.86l1.41-160.48a80.39,80.39,0,0,1-1.41,160.48Z"/><path id="Path_2561" data-name="Path 2561" class="cls-34" d="M487.4,302.88a80.4,80.4,0,0,1,61.45-77.44l-1.37,155.94A80.4,80.4,0,0,1,487.4,302.88Z"/><path id="Path_2562" data-name="Path 2562" class="cls-35" d="M506.68,303.05a61.09,61.09,0,1,1,60.56,61.62h0A61.1,61.1,0,0,1,506.68,303.05Z"/><g id="Group_1415" data-name="Group 1415"><path id="Path_2563" data-name="Path 2563" class="cls-36" d="M586,290.3a12.1,12.1,0,0,0-2.31-2,28.75,28.75,0,0,0-3.57-2.06,30.89,30.89,0,0,0-4.46-1.72,26,26,0,0,0-5-1L570.19,302l1.69.4a79.71,79.71,0,0,1,8.63,2.81,24.55,24.55,0,0,1,6.46,3.65,14.11,14.11,0,0,1,4,5.14,16.24,16.24,0,0,1,1.29,7.31,17.64,17.64,0,0,1-1.9,8,15.74,15.74,0,0,1-4.83,5.46,21,21,0,0,1-7,3.16,33.76,33.76,0,0,1-8.55,1l-.24,9.37-4.64-.12.25-9.55a45,45,0,0,1-12.16-2.85,38.52,38.52,0,0,1-10.46-6.11l4.76-8.45a16.38,16.38,0,0,0,2.8,2.39,33.22,33.22,0,0,0,4.31,2.52,41.21,41.21,0,0,0,5.44,2.19,34.36,34.36,0,0,0,6.16,1.41l.48-18.46c-.36-.13-.73-.25-1.11-.35s-.75-.21-1.11-.34a76,76,0,0,1-8.18-2.84,20.69,20.69,0,0,1-5.76-3.49,13.08,13.08,0,0,1-3.4-4.69,15.22,15.22,0,0,1-1.05-6.4,18.94,18.94,0,0,1,1.72-7.73,17,17,0,0,1,4.43-5.73,20.31,20.31,0,0,1,6.56-3.67,29.92,29.92,0,0,1,8.21-1.53l.23-9,4.64.12-.23,9a34.29,34.29,0,0,1,10.64,2.6,38.78,38.78,0,0,1,8.53,4.94Zm-29.5,1.56a6.43,6.43,0,0,0,2.49,5.69,25.45,25.45,0,0,0,7.9,3.5l.45-17.57q-5.45.12-8.09,2.34a7.69,7.69,0,0,0-2.74,6Zm25,30.28a6.58,6.58,0,0,0-3-6,33.36,33.36,0,0,0-8.65-3.84L569.47,330q5.71.06,8.84-1.91a6.74,6.74,0,0,0,3.24-5.9Z"/></g><path id="Path_2564" data-name="Path 2564" class="cls-37" d="M585,382.12a80.41,80.41,0,0,0,1.38-156.76Z"/><path id="Path_2565" data-name="Path 2565" class="cls-37" d="M547.48,381.37l1.37-155.93a80.08,80.08,0,0,1,19.63-2.24c1.61,0,3.21.07,4.79.18l-1.41,160.48c-1.59.08-3.18.11-4.79.1A80.47,80.47,0,0,1,547.48,381.37Z"/></g><path id="Path_2566" data-name="Path 2566" class="cls-44" d="M527,381.44a5.68,5.68,0,0,1,.08-3.19,15.13,15.13,0,0,0,1.36-4.55c-.14-.38-4.19-2.42-5.68-3.53-1.07-.8-8.8-8.68-8.9-8.12s-.26,4.6,3.36,9.37,5.13,10.2,5.76,12S527,381.44,527,381.44Z"/><path id="Path_2567" data-name="Path 2567" class="cls-44" d="M600.76,382s-1.09-3.4-.49-4.78,3.19-2.95,6.64-4.57c3.22-1.5,10.57-5.72,10.93-5.39s.41,2.49-4.68,6.86-6.91,5.38-6.85,7.58S600.76,382,600.76,382Z"/><path id="Path_2568" data-name="Path 2568" class="cls-44" d="M569.87,422.85s-12.3,8.42-11.7,3.28a33.86,33.86,0,0,0-.71-10.48s12.21-5.31,11.66-1.49a15,15,0,0,0-.13,2.76,26.58,26.58,0,0,0,.3,3.07C569.44,421,569.63,421.9,569.87,422.85Z"/><path id="Path_2569" data-name="Path 2569" class="cls-24" d="M609.5,598.05a39.35,39.35,0,0,1,5.35,3.59c1.56,1.46,8.54.71,10,4.59s-5.1,5.83-12.24,3.75-8.34-3.54-10.75-4.71.16-7.67.16-7.67Z"/><path id="Path_2570" data-name="Path 2570" class="cls-24" d="M537.84,588.19a46.92,46.92,0,0,0,.47,5.92c.44,2.94,4,9.19,3.76,11.54s-4.65,5.9-9.45.2c-3.58-4.24-2.39-11.17-3.51-13.13s-.89-6.3,1.71-9.08S537.84,588.19,537.84,588.19Z"/><path id="Path_2571" data-name="Path 2571" class="cls-27" d="M589.48,487.74S608.3,523.38,609,528.38s1.38,58.6,2.17,62.1-1.17,5.16-1.17,5.16-6.28,2.5-8.16-.33-1.31-4.5-1.31-4.5-6.22-43.09-7-50.17-20.85-37.34-22.65-34.59-5.14,28.75-6.66,32.5-24.1,47.67-25.84,47.67-8.25-1-7.24-6.16,15.7-43.26,15.7-47.6,4.6-44.8,5.78-50.24S589.48,487.74,589.48,487.74Z"/><path id="Path_2572" data-name="Path 2572" class="cls-47" d="M609.46,598.49l.17-2.23-7.74-.62.2,2.3s.18,1.26,3.86,1.52S609.46,598.49,609.46,598.49Z"/><path id="Path_2573" data-name="Path 2573" class="cls-47" d="M538.31,586.22s-.63,2.63-.77,3.17-4.69,1.12-6-1.31-.68-3-.55-4.1a5.89,5.89,0,0,1,.5-1.59Z"/><path id="Path_2574" data-name="Path 2574" class="cls-24" d="M611.61,595.64a16.28,16.28,0,0,1-10.88.67,9.63,9.63,0,0,1-.25-5.5s4.27,2.18,10.54-1.07A12.34,12.34,0,0,1,611.61,595.64Z"/><g id="Group_1420" data-name="Group 1420"><g id="Group_1417" data-name="Group 1417"><path id="Path_2575" data-name="Path 2575" class="cls-48" d="M557.46,492.76c.11-1.37.15-1.83.15-1.83l-.53-.12s-.06.52-.18,1.88Z"/></g><g id="Group_1418" data-name="Group 1418"><path id="Path_2576" data-name="Path 2576" class="cls-24" d="M534.58,575.77c.54-1.17,1.15-2.48,1.8-3.9l.49.3c-.66,1.42-1.27,2.73-1.8,3.9Zm3.6-7.8,1.79-3.9.49.3-1.79,3.91Zm3.57-7.81,1.77-3.92.49.29-1.77,3.92Zm3.52-7.85,1.73-3.93.49.28c-.53,1.22-1.11,2.55-1.73,3.94Zm3.43-7.89c.65-1.56,1.2-2.9,1.63-4l.5.26c-.43,1.09-1,2.44-1.64,4Zm2.94-8.08c.27-1.16.55-2.6.84-4.29l.55.13c-.3,1.7-.58,3.15-.86,4.32Zm1.52-8.62c.2-1.35.4-2.81.6-4.36l.55.09c-.2,1.56-.4,3-.6,4.37ZM554.3,519c.16-1.39.33-2.86.5-4.37l.55.08c-.17,1.51-.34,3-.5,4.38Zm1-8.75c.15-1.41.3-2.89.44-4.38l.56.07c-.15,1.5-.3,3-.45,4.38Zm.86-8.77c.14-1.45.27-2.93.4-4.39l.56.06c-.13,1.47-.27,2.95-.4,4.4Z"/></g><g id="Group_1419" data-name="Group 1419"><path id="Path_2577" data-name="Path 2577" class="cls-48" d="M532.41,581.76s.33-.69.89-1.9l-.49-.3-.88,1.9Z"/></g></g><path id="Path_2578" data-name="Path 2578" class="cls-24" d="M539.86,586.48s-8.54.08-9.84-5.75c0,0,1.05-3.16,2-4,0,0,1.43,4.75,9.3,5.21A17.73,17.73,0,0,1,539.86,586.48Z"/><path id="Path_2579" data-name="Path 2579" class="cls-44" d="M559.8,390.51s11.72-4.14,12.26,10.36c.55,14.7-1.06,16.35-5.81,17.43s-10-.54-14.17-11.49C548.11,396.39,552.42,391.37,559.8,390.51Z"/><path id="Path_2580" data-name="Path 2580" class="cls-49" d="M607.87,408c-.9,2.2-10.43,16.55-11.58,19.16s-5.8,9.3-6.2,10.28-1.72,11.89-2.94,15.07-.06,24.88.42,28.39a30.44,30.44,0,0,0,1.91,6.8,327.22,327.22,0,0,1-38.54,5.67s1.25-9.19,1-12.7-4.49-25.46-6.29-28.89-18.26-27.56-18.92-28.53-7.66-12.23-8-14.85,1.6-23.21,1.62-26a22.37,22.37,0,0,1,0-2.95l7.38.57s.53,11.68,1,15,3.18,13.82,3.67,15.66,12.1,17.85,14.18,17.85c1.3,0,4.92-1.33,7.85-2.51,1.77-.71,3.29-1.37,3.89-1.64,1.59-.74,10.26-3.08,13.27-2.76,0,0,.72.1,1.81.2,2.49.24,6.93.53,9.2-.2,3.26-1.06,5-3.67,6.93-5.79s8.4-9.57,8.89-11.12.83-15.31,1-19.19a30.5,30.5,0,0,0,.1-4.9c-.09-.49,8.27-2.35,8.11-1s-.21,10.15.14,15.13S608.77,405.84,607.87,408Z"/><path id="Path_2581" data-name="Path 2581" class="cls-50" d="M553.34,409.76s-1.17-2.06-.09-2.81a1.22,1.22,0,0,1,1.72.22.42.42,0,0,1,.06.08l1.16-.19s-2.29-4.3,1.34-5.09,11.23-1.43,13.19-2.88c0,0,.8,3.31.87,4s.53-.15.53-.15.7-10.49-6-14-14.11.67-15.32,4.67S549.24,401.49,553.34,409.76Z"/><path id="Path_2582" data-name="Path 2582" class="cls-44" d="M553.49,404.32s-1.29-1-1.49.05,2.19,5.59,2.81,5.62S555,405.56,553.49,404.32Z"/><path id="Path_2583" data-name="Path 2583" class="cls-33" d="M569.29,420c-7.4,1.36-10.16-2.94-10.16-2.94,4.8,3.25,9.83.32,9.88.28A19.83,19.83,0,0,0,569.29,420Z"/><path id="Path_2584" data-name="Path 2584" class="cls-44" d="M569.09,440.47c-8.92.54-14.58-14.4-14.58-14.4,1.77-.72,3.29-1.38,3.89-1.65,1.59-.74,10.15-3.15,13.27-2.76,0,0,.72.1,1.81.21C573.48,421.86,578,439.92,569.09,440.47Z"/></g></g></g></g></g></g></svg>