<svg xmlns="http://www.w3.org/2000/svg" viewBox="0 0 38.04 37.9"><defs><style>.cls-1{fill:#707071;}</style></defs><g id="Layer_2" data-name="Layer 2"><g id="Layer_1-2" data-name="Layer 1"><path class="cls-1" d="M22.42,3.8a13.28,13.28,0,0,0-18.6,0,13.24,13.24,0,0,0,0,18.6,13,13,0,0,0,9.31,3.8,12.85,12.85,0,0,0,6.89-2l3.8,3.8,6.1,8.1a4.7,4.7,0,0,0,3.6,1.8,4.82,4.82,0,0,0,3.2-1.3A4.52,4.52,0,0,0,38,33.1a4.42,4.42,0,0,0-1.8-3.3l-8.1-6.1-2.1-2a1,1,0,1,0-1.4,1.4L26,24.5,24.52,26l-2.89-2.9a5,5,0,0,0,.79-.7A13.22,13.22,0,0,0,22.42,3.8Zm5.1,22.1L35,31.5a2.5,2.5,0,0,1,1,1.8,2.28,2.28,0,0,1-.7,1.9,2.4,2.4,0,0,1-1.8.7,2.63,2.63,0,0,1-2-1l-5.6-7.5ZM5.32,21a11.17,11.17,0,0,1,0-15.7A10.92,10.92,0,0,1,13.13,2a11.15,11.15,0,0,1,0,22.3A10.92,10.92,0,0,1,5.32,21Z"/><path class="cls-1" d="M6.72,6.7a1,1,0,0,0,1.4,1.4,7,7,0,0,1,10,0,1,1,0,0,0,1.4,0,1,1,0,0,0,0-1.4A9.11,9.11,0,0,0,6.72,6.7Z"/></g></g></svg>