<svg xmlns="http://www.w3.org/2000/svg" xmlns:xlink="http://www.w3.org/1999/xlink" viewBox="0 0 523.96 532.13"><defs><style>.cls-1{fill:#bbdefb;}.cls-1,.cls-7{opacity:0.3;}.cls-1,.cls-12,.cls-13,.cls-3,.cls-9{isolation:isolate;}.cls-2{fill:#41b853;}.cls-12,.cls-13,.cls-3,.cls-6{fill:#fff;}.cls-3{opacity:0.47;}.cls-4{fill:#040e8b;}.cls-5{fill:#000653;}.cls-8,.cls-9{fill:#f40058;}.cls-9{opacity:0.56;}.cls-10{fill:url(#linear-gradient);}.cls-11{fill:url(#linear-gradient-2);}.cls-12{opacity:0.85;}.cls-13{opacity:0.94;}.cls-14{fill:url(#linear-gradient-3);}.cls-15{fill:url(#linear-gradient-4);}.cls-16{fill:url(#linear-gradient-5);}.cls-17{fill:url(#linear-gradient-6);}.cls-18{fill:url(#linear-gradient-7);}.cls-19{fill:url(#linear-gradient-8);}.cls-20{fill:#4b9fa3;}.cls-21{fill:url(#linear-gradient-9);}.cls-22{fill:url(#linear-gradient-10);}.cls-23{fill:url(#linear-gradient-11);}.cls-24{fill:url(#linear-gradient-12);}.cls-25{fill:url(#linear-gradient-13);}.cls-26{fill:url(#linear-gradient-14);}.cls-27{fill:url(#linear-gradient-15);}.cls-28{fill:url(#linear-gradient-16);}.cls-29{fill:#f47960;}.cls-30{fill:url(#linear-gradient-17);}.cls-31{fill:url(#linear-gradient-18);}.cls-32{fill:url(#linear-gradient-19);}</style><linearGradient id="linear-gradient" x1="-1903.48" y1="-1550.33" x2="-1887.28" y2="-1518.55" gradientTransform="matrix(31.27, 0, 0, -26.67, 59765.65, -41003.2)" gradientUnits="userSpaceOnUse"><stop offset="0" stop-color="#fdf53f"/><stop offset="1" stop-color="#d93c65"/></linearGradient><linearGradient id="linear-gradient-2" x1="-1937.07" y1="-1487.92" x2="-1934.03" y2="-1478.02" gradientTransform="matrix(163.38, 0, 0, -83.99, 316773.04, -124612.43)" xlink:href="#linear-gradient"/><linearGradient id="linear-gradient-3" x1="-1906.29" y1="-1562.62" x2="-1909.13" y2="-1569.12" gradientTransform="matrix(41.59, 0, 0, -19.74, 79630.59, -30563.54)" gradientUnits="userSpaceOnUse"><stop offset="0" stop-color="#2b3582"/><stop offset="1" stop-color="#150e42"/></linearGradient><linearGradient id="linear-gradient-4" x1="-1695.18" y1="-1674.74" x2="-1694.18" y2="-1674.74" gradientTransform="matrix(10.47, 0, 0, -10.62, 19107.32, -17274.56)" gradientUnits="userSpaceOnUse"><stop offset="0" stop-color="#f9b776"/><stop offset="1" stop-color="#f47960"/></linearGradient><linearGradient id="linear-gradient-5" x1="-1870.37" y1="-1462.17" x2="-1873.27" y2="-1463.02" gradientTransform="matrix(34.63, 0, 0, -158.8, 66068.04, -233381.58)" xlink:href="#linear-gradient-3"/><linearGradient id="linear-gradient-6" x1="-1826.06" y1="-1555.05" x2="-1833.08" y2="-1562.66" gradientTransform="matrix(16.8, 0, 0, -16.86, 31377.74, -26357.27)" xlink:href="#linear-gradient-3"/><linearGradient id="linear-gradient-7" x1="-1655.63" y1="-1623.58" x2="-1654.63" y2="-1623.58" gradientTransform="matrix(9.04, 0, 0, -13.9, 16288.07, -22053.3)" xlink:href="#linear-gradient-4"/><linearGradient id="linear-gradient-8" x1="-1894.03" y1="-1462.68" x2="-1896.07" y2="-1463.52" gradientTransform="matrix(49.16, 0, 0, -161.74, 94318.07, -237661.2)" xlink:href="#linear-gradient-3"/><linearGradient id="linear-gradient-9" x1="-1921.51" y1="-1487.94" x2="-1921.17" y2="-1488.78" gradientTransform="matrix(53.5, 0, 0, -62.84, 102850.78, -93680.06)" xlink:href="#linear-gradient-4"/><linearGradient id="linear-gradient-10" x1="-1881.2" y1="-1510.54" x2="-1880.17" y2="-1512.27" gradientTransform="matrix(17.94, 0, 0, -30.56, 33729.1, -46664.22)" xlink:href="#linear-gradient-4"/><linearGradient id="linear-gradient-11" x1="-1809.53" y1="-1576.54" x2="-1811.41" y2="-1574.38" gradientTransform="matrix(7.42, 0, 0, -12.96, 13263.43, -20997.36)" xlink:href="#linear-gradient-4"/><linearGradient id="linear-gradient-12" x1="-1906.54" y1="-1524.48" x2="-1905.54" y2="-1524.48" gradientTransform="matrix(67.71, 0, 0, -34.56, 130375.94, -52379.88)" xlink:href="#linear-gradient-4"/><linearGradient id="linear-gradient-13" x1="-1925.35" y1="-1493.73" x2="-1925.83" y2="-1495.26" gradientTransform="matrix(72.53, 0, 0, -62.29, 139813.48, -92809.1)" xlink:href="#linear-gradient-3"/><linearGradient id="linear-gradient-14" x1="-1880.13" y1="-2003.8" x2="-1882.58" y2="-2017.32" gradientTransform="matrix(13.83, 0, 0, -6.57, 25660.22, -11609.73)" gradientUnits="userSpaceOnUse"><stop offset="0" stop-color="#53d8ff"/><stop offset="1" stop-color="#3840f7"/></linearGradient><linearGradient id="linear-gradient-15" x1="-1911.44" y1="-1836.96" x2="-1912.72" y2="-1846.25" gradientTransform="matrix(26.41, 0, 0, -9.56, 50118.61, -15963.54)" xlink:href="#linear-gradient-14"/><linearGradient id="linear-gradient-16" x1="-1821.08" y1="-1579.36" x2="-1820.08" y2="-1579.36" gradientTransform="matrix(21.09, 0, 0, -18.95, 39756.47, -29630.3)" xlink:href="#linear-gradient-4"/><linearGradient id="linear-gradient-17" x1="-1897.49" y1="-1541.45" x2="-1897.81" y2="-1540.39" gradientTransform="matrix(31.1, 0, 0, -30.96, 59208.15, -47226.79)" xlink:href="#linear-gradient-4"/><linearGradient id="linear-gradient-18" x1="-1909.67" y1="-1521.53" x2="-1909.46" y2="-1522.71" gradientTransform="matrix(40.81, 0, 0, -40.48, 78082.37, -61105.92)" xlink:href="#linear-gradient-3"/><linearGradient id="linear-gradient-19" x1="-1789.78" y1="-1868.75" x2="-1790.73" y2="-1864.1" gradientTransform="matrix(9.54, 0, 0, -6.39, 17284.88, -11395.22)" xlink:href="#linear-gradient-4"/></defs><g id="Layer_2" data-name="Layer 2"><g id="Layer_1-2" data-name="Layer 1"><g id="Group_1449" data-name="Group 1449"><path id="Path_2586" data-name="Path 2586" class="cls-1" d="M463.22,458.09c-10.75,11.33-20.93,18.63-29,24.4-94.54,67.84-206.42,48.06-230.19,43.23-35.11-7.13-103-20.91-152-78.61-74.24-87.3-62.68-224.83-5.1-315.62C57.44,114.89,113.08,22.72,226.16,7.94c68.43-9,148.2,9.1,206,57.49C553.39,167,544.76,372.26,463.22,458.09Z"/><g id="Group_1426" data-name="Group 1426"><path id="Path_2587" data-name="Path 2587" class="cls-2" d="M358.19,514.35a3.38,3.38,0,0,1-2.27-1.34c-8-10.76-66-94.92,11.22-171.85,73.31-73,106.54-88,111-130.94a5,5,0,0,1,9.52-1.7c16.65,33.76,42.61,112.55-43.28,164.26-94.74,57-87,119.57-82.4,137.34a3.4,3.4,0,0,1-2.43,4.15,3.46,3.46,0,0,1-1.32.08Z"/><path id="Path_2588" data-name="Path 2588" class="cls-2" d="M369.94,516a4.9,4.9,0,0,1-4.2-4.11c-2.26-14.63-7.82-69.32,32.47-83.82,44.36-16,80.16,25.34,112.76-7a2.48,2.48,0,0,1,4.2,2.16c-2.9,16.89-15.83,56-73.34,63.88-61.55,8.42-68.47,15.48-67.23,24.24a4.13,4.13,0,0,1-3.54,4.64,4.2,4.2,0,0,1-1.12,0Z"/><path id="Path_2589" data-name="Path 2589" class="cls-3" d="M476,254a63.6,63.6,0,0,1-2.94,9.14,94.36,94.36,0,0,1-4,8.67,114.62,114.62,0,0,1-10.24,16.15,133.63,133.63,0,0,1-27.3,26.75,175.15,175.15,0,0,1-16,10.38,144.83,144.83,0,0,0-15.2,10.18,160.82,160.82,0,0,0-26.33,25.43c-15.51,18.87-26.52,41.63-30.14,65.87a128.36,128.36,0,0,0-.21,36.67,151.82,151.82,0,0,0,9.72,35.69,1.2,1.2,0,0,1-2.2,1h0a143.39,143.39,0,0,1-11.59-36,124.53,124.53,0,0,1-1.08-38.05A130.41,130.41,0,0,1,348.71,389a148.11,148.11,0,0,1,20-32.6A159.61,159.61,0,0,1,396,329.69,153,153,0,0,1,411.9,319a173.15,173.15,0,0,0,15.53-9.86,147,147,0,0,0,27-24.64,128.24,128.24,0,0,0,10.93-14.76,96.84,96.84,0,0,0,8.45-16.3l0-.07A1.1,1.1,0,0,1,476,254Z"/><path id="Path_2590" data-name="Path 2590" class="cls-3" d="M367.39,506a4.09,4.09,0,0,0,.11-1.52l-.05-1.51,0-3q0-3,.13-6c.18-4,.52-8,1.06-12a89.84,89.84,0,0,1,6.12-23.4c3.18-7.43,8-14.53,15-19.17a33.09,33.09,0,0,1,11.49-4.73,42.15,42.15,0,0,1,12.33-.62c16,1.85,31.73,4.93,47.47,7.42,7.85,1.17,15.8,2.21,23.5,1.16a33.78,33.78,0,0,0,5.63-1.29,29.48,29.48,0,0,0,5.26-2.34,37,37,0,0,0,8.92-7.43h0a1,1,0,0,1,1.46,1.3,39.13,39.13,0,0,1-9.27,8,31.73,31.73,0,0,1-5.62,2.66,36.58,36.58,0,0,1-6,1.51c-8.2,1.2-16.33.18-24.26-.9s-15.81-2.61-23.7-3.89-15.81-2.51-23.64-3.43a39.13,39.13,0,0,0-11.53.48,30.22,30.22,0,0,0-10.61,4.25c-6.5,4.14-11.22,10.73-14.43,17.86a88.42,88.42,0,0,0-6.39,22.77c-.6,3.93-1,7.89-1.26,11.85q-.19,3-.25,6l0,3,0,1.49a3.31,3.31,0,0,0,.24,1.46.92.92,0,0,1-.39,1.23.91.91,0,0,1-1.22-.39.86.86,0,0,1-.05-.72Z"/></g><g id="Group_1433" data-name="Group 1433"><g id="Group_1427" data-name="Group 1427"><path id="Path_2591" data-name="Path 2591" class="cls-4" d="M283.67,6c-24.14-.19-48.49,3.64-70,12.58-50.15,20.81-92.7,75.86-76,132.1,5.41,18.27,2.57,38.42,20.77,46.36,9.84,4.3,36.66,6.85,46.85,3.47,27.1-9,44.91-33.62,30.18-60.93-4.72-8.75-10.83-16.73-14.9-25.8S214.55,94,218.71,85c8.15-17.72,35.25-23.35,52.82-22.82,20.74.63,39.53,10.89,50.69,28.48,13.91,21.93,17.43,48.61,15.4,74.07-2.18,27.24-13.66,48-30.87,68.93-14.82,18-31.14,35.26-41,56.39-9,19.39-12,40.88-12.41,62.1-.08,4.11-20.53,42.87-20.44,54.71,0,1.67,23.2,7.21,24.87,7.23l42.55.48a3.39,3.39,0,0,0,3.43-3.35c.65-57.6,18.37-112.52,63.22-151.21,16.32-14.07,33.9-25.54,46.59-43.3,18.08-25.33,27-50.25,24.43-81.5-2.35-28.55-11.75-57.1-30.36-79.26-20-23.8-49.26-38.66-79.68-45.08A225,225,0,0,0,283.67,6Z"/><path id="Path_2592" data-name="Path 2592" class="cls-4" d="M328.19,479.11C328.19,505.6,313.5,529,287,529c-5.73,0-25.19.06-30.28-1.78-18.46-6.67-18.53-20.86-18.53-41.62,0-26.49,8.95-52.54,35.43-52.54S328.19,452.62,328.19,479.11Z"/></g><g id="Group_1428" data-name="Group 1428"><path id="Path_2593" data-name="Path 2593" class="cls-5" d="M260.73,0c-24.14-.19-48.48,3.63-70,12.57-50.14,20.81-92.7,75.86-76,132.1,5.41,18.27,17.92,41.27,36.12,49.2,9.85,4.3,21.31,4,31.51.63,27.1-9,44.91-33.62,30.17-60.93-4.72-8.74-10.83-16.73-14.9-25.8S191.62,88,195.77,78.93c8.16-17.72,35.25-23.35,52.82-22.82,20.74.63,39.53,10.89,50.69,28.48,13.91,21.94,17.44,48.61,15.4,74.07-2.17,27.24-13.66,48-30.87,68.94-14.82,18-31.14,35.26-41,56.38-9,19.4-12,40.88-12.41,62.1-.07,4.11,1.31,47.06,1.4,58.9a3.06,3.06,0,0,0,3,3l42.55.48a3.39,3.39,0,0,0,3.43-3.35c.65-57.6,18.37-112.52,63.22-151.2,16.32-14.08,33.9-25.54,46.59-43.31,18.08-25.32,27-50.25,24.43-81.5-2.35-28.54-11.75-57.1-30.35-79.25-20-23.8-49.27-38.67-79.69-45.08A223.5,223.5,0,0,0,260.73,0Z"/><circle id="Ellipse_61" data-name="Ellipse 61" class="cls-5" cx="263.24" cy="479.59" r="47.96"/></g><g id="Group_1429" data-name="Group 1429"><path id="Path_2594" data-name="Path 2594" class="cls-6" d="M130.53,139.17a.61.61,0,0,1-.6-.48c-3.36-15.18-3.86-38.94,12.88-66,16.34-26.38,39.25-44,68.11-52.48,30.84-9,67.46-7.08,108.85,5.74a.62.62,0,0,1-.37,1.18c-41.15-12.75-77.53-14.68-108.14-5.73-28.55,8.34-51.23,25.82-67.4,51.94-16.52,26.68-16,50.11-12.73,65.06a.62.62,0,0,1-.46.74h-.14Z"/></g><g id="Group_1430" data-name="Group 1430"><path id="Path_2595" data-name="Path 2595" class="cls-6" d="M140.62,163.59a.6.6,0,0,1-.5-.25A61.88,61.88,0,0,1,133.3,150a.62.62,0,0,1,1.15-.44,61.65,61.65,0,0,0,6.66,13.1.62.62,0,0,1-.13.86.61.61,0,0,1-.37.12Z"/></g><g id="Group_1431" data-name="Group 1431"><path id="Path_2596" data-name="Path 2596" class="cls-6" d="M279.29,448.5a.64.64,0,0,1-.28-.06,34.46,34.46,0,0,0-15.77-3.76.62.62,0,0,1,0-1.23,35.73,35.73,0,0,1,16.32,3.89.62.62,0,0,1,.28.83A.63.63,0,0,1,279.29,448.5Z"/></g><g id="Group_1432" data-name="Group 1432"><path id="Path_2597" data-name="Path 2597" class="cls-6" d="M243.38,509.66a.68.68,0,0,1-.35-.1,36.16,36.16,0,0,1,3.12-61.83.63.63,0,0,1,.85.22.62.62,0,0,1-.22.84l-.05,0a34.93,34.93,0,0,0-3,59.72.61.61,0,0,1,.16.85.6.6,0,0,1-.5.27Z"/></g></g><g id="Group_1442" data-name="Group 1442"><g id="Group_1437" data-name="Group 1437"><g id="Group_1434" data-name="Group 1434" class="cls-7"><path id="Path_2598" data-name="Path 2598" class="cls-8" d="M103.69,89.72a1.45,1.45,0,0,1-2,.22h0c-1.21-1-2.48-1.92-3.77-2.8a1.44,1.44,0,0,1-.4-2v0a1.46,1.46,0,0,1,2-.38h0c1.36.92,2.7,1.91,4,2.94a1.44,1.44,0,0,1,.3,1.92A.47.47,0,0,1,103.69,89.72ZM91.27,83.3c-1.4-.7-2.85-1.33-4.3-1.9a1.45,1.45,0,1,1,1-2.73l.08,0c1.53.6,3,1.27,4.53,2a1.45,1.45,0,0,1,.66,1.94l-.09.15a1.44,1.44,0,0,1-1.86.51ZM79.69,79.11c-1.52-.36-3.07-.66-4.61-.89a1.45,1.45,0,0,1,.42-2.87c1.63.24,3.26.56,4.86.94a1.45,1.45,0,1,1-.67,2.82ZM67.46,77.62c-1.56,0-3.14,0-4.7.16a1.45,1.45,0,0,1-.22-2.89c1.64-.13,3.3-.18,4.94-.17a1.45,1.45,0,0,1,0,2.9ZM55.21,78.9c-1.53.33-3.06.73-4.55,1.2a1.45,1.45,0,0,1-.86-2.78c1.57-.48,3.18-.91,4.79-1.26a1.45,1.45,0,0,1,.62,2.84ZM43.54,82.85c-1.42.66-2.82,1.39-4.17,2.17a1.46,1.46,0,0,1-2-.53,1.45,1.45,0,0,1,.54-2c1.42-.82,2.9-1.59,4.38-2.29a1.45,1.45,0,0,1,1.24,2.63ZM10.82,125.68A1.44,1.44,0,0,1,9.61,124h0c.24-1.62.56-3.26.94-4.86a1.46,1.46,0,0,1,2.83.68h0c-.37,1.52-.67,3.07-.9,4.62a1.46,1.46,0,0,1-1.65,1.22ZM33,89.28c-1.23,1-2.43,2-3.58,3a1.45,1.45,0,0,1-2-2.13C28.69,89.08,30,88,31.26,87A1.45,1.45,0,0,1,33,89.28Zm-19.25,24.1A1.44,1.44,0,0,1,13,111.5h0c.6-1.53,1.28-3,2-4.52a1.45,1.45,0,1,1,2.6,1.29c-.7,1.4-1.34,2.84-1.91,4.3a1.46,1.46,0,0,1-1.89.81ZM24.25,97.9c-1,1.21-1.93,2.48-2.81,3.77A1.45,1.45,0,0,1,19,100.06l0,0c.93-1.36,1.92-2.7,3-4a1.45,1.45,0,0,1,2.34,1.7l-.09.14Z"/><path id="Path_2599" data-name="Path 2599" class="cls-8" d="M11.66,135.22a1.46,1.46,0,0,0,.23-.84c0-.74,0-1.51,0-2.26A1.45,1.45,0,0,0,9,132a.41.41,0,0,0,0,.11c0,.79,0,1.59,0,2.37a1.45,1.45,0,0,0,2.67.75Z"/></g><g id="Group_1435" data-name="Group 1435" class="cls-7"><path id="Path_2600" data-name="Path 2600" class="cls-8" d="M30.21,175.39a1.45,1.45,0,0,0-.25-1.86c-.55-.5-1.11-1-1.64-1.55a1.45,1.45,0,1,0-2,2.07c.57.55,1.15,1.1,1.73,1.63a1.45,1.45,0,0,0,2-.1A1.39,1.39,0,0,0,30.21,175.39Z"/><path id="Path_2601" data-name="Path 2601" class="cls-8" d="M113.9,166.7a1.45,1.45,0,1,1-2.35-1.7h0c.89-1.24,1.75-2.53,2.55-3.86a1.45,1.45,0,0,1,2.49,1.5c-.35.57-.71,1.14-1.07,1.7C115,165.14,114.46,165.93,113.9,166.7Zm4.39-10.34a1.45,1.45,0,0,1-.75-1.91h0c.61-1.41,1.16-2.86,1.65-4.32a1.45,1.45,0,0,1,2.75.92h0c-.51,1.53-1.1,3.07-1.74,4.55a1.44,1.44,0,0,1-1.9.76Zm-9.44,16.42c-1.12,1.17-2.3,2.3-3.51,3.38a1.45,1.45,0,0,1-2-2.13s0,0,0-.05c1.16-1,2.28-2.1,3.34-3.2a1.45,1.45,0,0,1,2.26,1.79l-.16.21Zm13.39-28.23a1.44,1.44,0,0,1-1.16-1.69h0c.28-1.51.5-3.05.66-4.58a1.45,1.45,0,0,1,2.89.29c-.17,1.61-.4,3.24-.7,4.83a1.46,1.46,0,0,1-1.69,1.16h0ZM99.07,181c-1.34.9-2.74,1.74-4.16,2.52a1.45,1.45,0,0,1-1.4-2.54h0c1.35-.74,2.68-1.55,3.95-2.4A1.45,1.45,0,1,1,99.07,181Zm-11.33,5.85c-1.51.58-3.07,1.1-4.62,1.55a1.45,1.45,0,0,1-.81-2.78h0c1.48-.43,3-.93,4.39-1.48a1.45,1.45,0,0,1,1,2.71ZM75.4,190.06c-1.6.24-3.24.41-4.85.51a1.45,1.45,0,0,1-.18-2.9h0c1.53-.1,3.08-.26,4.6-.48a1.45,1.45,0,1,1,.42,2.87Zm-12.76.47c-1.61-.12-3.24-.31-4.84-.56a1.45,1.45,0,0,1,.46-2.87c1.52.24,3.06.42,4.6.54a1.45,1.45,0,0,1-.21,2.89Zm-12.55-2.34c-1.55-.48-3.09-1-4.59-1.62a1.45,1.45,0,0,1,1.07-2.7h0c1.43.57,2.9,1.09,4.37,1.53a1.47,1.47,0,0,1,1,1.82,1.45,1.45,0,0,1-1.81,1h0Zm-11.72-5c-1-.59-2.07-1.22-3.06-1.86-.36-.24-.72-.47-1.07-.72a1.42,1.42,0,0,1-.4-2l0,0a1.45,1.45,0,0,1,2-.39h0l1,.67c1,.62,1.93,1.21,2.91,1.77a1.46,1.46,0,0,1,.55,2h0a.56.56,0,0,0-.05.08,1.44,1.44,0,0,1-1.93.46Z"/><path id="Path_2602" data-name="Path 2602" class="cls-8" d="M124.65,131.47a1.46,1.46,0,0,0,.23-.84c0-.79-.07-1.59-.13-2.38a1.45,1.45,0,0,0-2.9.23h0c.06.75.1,1.51.13,2.25a1.45,1.45,0,0,0,1.5,1.4A1.43,1.43,0,0,0,124.65,131.47Z"/></g><g id="Group_1436" data-name="Group 1436"><path id="Path_2603" data-name="Path 2603" class="cls-8" d="M106.44,114.51a.67.67,0,0,0-.63-.47l-8.25-.18A35.91,35.91,0,0,0,90,105l1.18-8.16a.69.69,0,0,0-.36-.7L82,91.56a.68.68,0,0,0-.78.12l-6,5.7a36,36,0,0,0-11.61-1l-4.95-6.61a.67.67,0,0,0-.75-.24l-9.43,3a.69.69,0,0,0-.47.63l-.18,8.25A36.07,36.07,0,0,0,39,109l-8.17-1.18a.68.68,0,0,0-.7.37L25.62,117a.68.68,0,0,0,.11.78l5.7,6a36.05,36.05,0,0,0-1,11.61l-6.61,4.95a.67.67,0,0,0-.24.75l3,9.43a.66.66,0,0,0,.63.47l8.25.19A36.07,36.07,0,0,0,43.06,160l-1.18,8.17a.69.69,0,0,0,.37.7l8.8,4.53a.68.68,0,0,0,.78-.11l6-5.7a36,36,0,0,0,11.61.95l4.95,6.62a.69.69,0,0,0,.75.24l9.43-3a.67.67,0,0,0,.47-.63l.18-8.25a36,36,0,0,0,8.9-7.54l8.16,1.18a.67.67,0,0,0,.7-.36l4.54-8.81a.69.69,0,0,0-.12-.78l-5.7-6a35.73,35.73,0,0,0,1-11.61l6.61-4.94a.67.67,0,0,0,.24-.75Z"/><path id="Path_2604" data-name="Path 2604" class="cls-9" d="M74,139.08a10,10,0,1,1,.88-1.17A11.17,11.17,0,0,1,74,139.08ZM58.93,133a7.66,7.66,0,1,0,1.21-4.63A7.55,7.55,0,0,0,58.93,133Z"/><path id="Path_2605" data-name="Path 2605" class="cls-9" d="M86.84,145.92a23.69,23.69,0,0,0,1.26-2.18h0c.13-.23.24-.47.36-.71a24.27,24.27,0,0,0,1.39-3.67l0-.05c0-.05,0-.1,0-.14l.08-.29a.6.6,0,0,0-.25-.64l-.16-.07a.58.58,0,0,0-.71.41,23.34,23.34,0,0,1-33.2,14.69,22.82,22.82,0,0,1-2.08-1.2,23.32,23.32,0,1,1,32.55-31.84.77.77,0,0,0,.18.18.58.58,0,0,0,.81-.79A24.48,24.48,0,1,0,53,153c.71.46,1.43.88,2.18,1.27a24.48,24.48,0,0,0,31.7-8.39Z"/></g></g><g id="Group_1441" data-name="Group 1441"><g id="Group_1438" data-name="Group 1438" class="cls-7"><path id="Path_2606" data-name="Path 2606" class="cls-8" d="M162.84,68.92a.9.9,0,0,0-.07-1.08c-.5-.57-1-1.14-1.54-1.7A.91.91,0,0,0,160,66a.89.89,0,0,0-.13,1.26.43.43,0,0,0,.11.12c.5.52,1,1.07,1.47,1.62a.9.9,0,0,0,1.27.08.69.69,0,0,0,.16-.18Z"/><path id="Path_2607" data-name="Path 2607" class="cls-8" d="M157.84,64.19a.89.89,0,0,1-1.26.14,36.36,36.36,0,0,0-3.05-2.21l-.67-.43a.89.89,0,0,1-.29-1.23.93.93,0,0,1,1.24-.29l.7.45a38,38,0,0,1,3.19,2.31.9.9,0,0,1,.19,1.19Zm-9-4.65a36.9,36.9,0,0,0-4.24-1.66.9.9,0,1,1,.4-1.75l.15,0a39.44,39.44,0,0,1,4.45,1.74A.89.89,0,0,1,150,59.1a.24.24,0,0,1-.06.11.89.89,0,0,1-1.12.32Zm-8.65-2.78a38,38,0,0,0-4.52-.56.89.89,0,0,1-.75-1,.92.92,0,0,1,.86-.76,39.59,39.59,0,0,1,4.74.59.89.89,0,0,1,.62,1.11A.88.88,0,0,1,140.2,56.76Zm-9.07-.56a38.22,38.22,0,0,0-4.52.56.9.9,0,0,1-.33-1.76,39.85,39.85,0,0,1,4.74-.59.9.9,0,0,1,1,.76.89.89,0,0,1-.76,1Zm-8.93,1.67A37.67,37.67,0,0,0,118,59.51a.89.89,0,0,1-1.22-.33.9.9,0,0,1,.33-1.23l.15-.07a41.15,41.15,0,0,1,4.44-1.72.91.91,0,0,1,1.08.69A.89.89,0,0,1,122.2,57.87Zm-8.26,3.79a37.1,37.1,0,0,0-3.71,2.63.9.9,0,0,1-1.13-1.4,39.23,39.23,0,0,1,3.9-2.76.91.91,0,0,1,1.21.4.9.9,0,0,1-.27,1.13Zm-7.07,5.69a36,36,0,0,0-3,3.46.9.9,0,0,1-1.27.07.89.89,0,0,1-.16-1.15,38.09,38.09,0,0,1,3.1-3.63.9.9,0,0,1,1.27,0,.92.92,0,0,1,.13,1.11l-.11.13ZM98.19,79.16A.9.9,0,0,1,97.72,78a37.61,37.61,0,0,1,1.82-3.72c.1-.19.2-.37.31-.55a.9.9,0,0,1,1.25-.23.91.91,0,0,1,.3,1.13c-.1.17-.2.34-.29.52a34.28,34.28,0,0,0-1.74,3.55.64.64,0,0,1-.08.14.89.89,0,0,1-1.1.34Z"/></g><g id="Group_1439" data-name="Group 1439" class="cls-7"><path id="Path_2608" data-name="Path 2608" class="cls-8" d="M165.55,114.61a39.56,39.56,0,0,1-2.84,3.74.9.9,0,1,1-1.46-1l.1-.12a34.91,34.91,0,0,0,2.71-3.57.9.9,0,0,1,1.5,1Zm1.17-3.66a.9.9,0,0,1-.4-1.2,36.41,36.41,0,0,0,1.78-4.11.9.9,0,0,1,1.69.61,39.21,39.21,0,0,1-1.87,4.31.22.22,0,0,1,0,.08.89.89,0,0,1-1.15.31Zm-7.28,10.76a36.79,36.79,0,0,1-3.66,2.94.9.9,0,0,1-1-1.46,36.25,36.25,0,0,0,3.49-2.8.9.9,0,1,1,1.35,1.2,1,1,0,0,1-.15.13Zm10.61-19.3a.91.91,0,0,1-.68-1.07,34.84,34.84,0,0,0,.74-4.42.9.9,0,1,1,1.8,0,.47.47,0,0,1,0,.16,38.21,38.21,0,0,1-.77,4.63.89.89,0,0,1-1.07.67Zm-18.26,24.71a41.17,41.17,0,0,1-4.26,2,.9.9,0,0,1-.79-1.62l.14,0a37.42,37.42,0,0,0,4.06-1.89.9.9,0,0,1,.85,1.58Zm-8.72,3.42a38.29,38.29,0,0,1-4.61.9.9.9,0,0,1-.24-1.77,38,38,0,0,0,4.4-.86.9.9,0,0,1,.61,1.69.42.42,0,0,1-.16,0Zm-9.29,1.24a38.57,38.57,0,0,1-4.69-.24.89.89,0,0,1-.71-1.06.91.91,0,0,1,.91-.72,35,35,0,0,0,4.47.22.9.9,0,0,1,.9.89.81.81,0,0,1-.14.5.89.89,0,0,1-.74.41Z"/><path id="Path_2609" data-name="Path 2609" class="cls-8" d="M172,92.88a.89.89,0,0,0,.15-.5c0-.76,0-1.53-.11-2.29a.9.9,0,0,0-.89-.9.89.89,0,0,0-.91.89.76.76,0,0,0,0,.15c.06.72.09,1.45.1,2.19a.9.9,0,0,0,1.65.47Z"/></g><g id="Group_1440" data-name="Group 1440"><path id="Path_2610" data-name="Path 2610" class="cls-8" d="M159.82,80.89a.46.46,0,0,0-.43-.32l-5.52-.12a23.93,23.93,0,0,0-5-6l.79-5.47a.44.44,0,0,0-.24-.46l-5.89-3a.47.47,0,0,0-.52.08l-4,3.82a23.94,23.94,0,0,0-7.77-.64l-3.31-4.43a.46.46,0,0,0-.5-.16l-6.31,2a.46.46,0,0,0-.32.43l-.12,5.52a24.14,24.14,0,0,0-6,5l-5.47-.79a.44.44,0,0,0-.46.24l-3,5.9a.45.45,0,0,0,.07.52l3.82,4a24.17,24.17,0,0,0-.64,7.77l-4.42,3.31a.44.44,0,0,0-.16.5l2,6.31a.45.45,0,0,0,.42.31l5.52.12a24,24,0,0,0,5,6l-.79,5.47a.47.47,0,0,0,.24.47l5.9,3a.44.44,0,0,0,.52-.08l4-3.81a24.17,24.17,0,0,0,7.77.64l3.31,4.42a.44.44,0,0,0,.5.16l6.31-2a.45.45,0,0,0,.31-.42l.12-5.52a24,24,0,0,0,5.95-5l5.47.79a.46.46,0,0,0,.47-.25l3-5.89a.45.45,0,0,0-.07-.52l-3.82-4a24.19,24.19,0,0,0,.64-7.77l4.42-3.31a.44.44,0,0,0,.16-.5Z"/><path id="Path_2611" data-name="Path 2611" class="cls-9" d="M138.2,97.4a6.75,6.75,0,1,1,.61-.8A5.83,5.83,0,0,1,138.2,97.4Zm-8.38-.74a5,5,0,0,0,7-.44h0a5,5,0,0,0-7.48-6.6h0a4.93,4.93,0,0,0,.44,7Z"/><path id="Path_2612" data-name="Path 2612" class="cls-9" d="M147.13,102.17a17,17,0,0,0,.87-1.49,17.27,17.27,0,0,0,1.25-3.2l0-.15a.9.9,0,1,0-1.68-.62.75.75,0,0,0-.05.16,15.64,15.64,0,0,1-1.16,3h0l-.08.15a14.85,14.85,0,0,1-4.95,5.49,15.06,15.06,0,0,1-3.65,1.78h0l-.1,0a15,15,0,0,1-11.51-1c-.46-.24-.91-.5-1.34-.78A15.1,15.1,0,1,1,145.8,85a.9.9,0,1,0,1.52-.95,16.89,16.89,0,1,0-23.57,23.06,13.94,13.94,0,0,0,1.5.87A16.9,16.9,0,0,0,147.13,102.17Z"/></g></g></g><g id="Group_1443" data-name="Group 1443"><path id="Path_2613" data-name="Path 2613" class="cls-10" d="M344.4,163l-26.07,26.67,31.27-8.36Z"/><path id="Path_2614" data-name="Path 2614" class="cls-11" d="M499.52,174.06l-148.13,7.19a6.67,6.67,0,0,1-7-6.34c0-.11,0-.21,0-.32V113.65a12.26,12.26,0,0,1,11.88-12.26l133.5-4.13a18,18,0,0,1,18,18v50.12A8.69,8.69,0,0,1,499.52,174.06Z"/><path id="Path_2615" data-name="Path 2615" class="cls-12" d="M355.82,178.8a9.16,9.16,0,0,1-9.14-9.16V114.72a12,12,0,0,1,11.81-11.9l129.26-3.9a17.56,17.56,0,0,1,17.76,17.32V163.6a8.62,8.62,0,0,1-8.31,8.52l-140.93,6.67ZM487.76,99.55l-129.25,3.9a11.35,11.35,0,0,0-11.19,11.26v54.93a8.51,8.51,0,0,0,8.51,8.51h.41l140.93-6.67v0a8,8,0,0,0,7.7-7.88V116.24a16.93,16.93,0,0,0-17.11-16.69Z"/><path id="Path_2616" data-name="Path 2616" class="cls-13" d="M487.33,110.67,368.88,115.1a1.91,1.91,0,0,0-2,1.72l.05,1A1.89,1.89,0,0,0,369,119.4l118.45-4.33a1.9,1.9,0,0,0,2-1.72l0-1.15A1.9,1.9,0,0,0,487.33,110.67Z"/><path id="Path_2617" data-name="Path 2617" class="cls-13" d="M476.73,140.65l-118.45,4.41a1.94,1.94,0,0,0-2,1.78l.05,1.07a1.92,1.92,0,0,0,2.15,1.6l118.45-4.3a1.92,1.92,0,0,0,2-1.77l-.05-1.19A1.92,1.92,0,0,0,476.73,140.65Z"/><path id="Path_2618" data-name="Path 2618" class="cls-13" d="M490.57,153.19l-132,5c-1.3,0-2.32.86-2.28,1.8l.05,1.09c0,.93,1.11,1.65,2.39,1.6l132.05-4.87c1.3-.05,2.32-.86,2.28-1.8l-.05-1.2C492.92,153.86,491.85,153.15,490.57,153.19Z"/><path id="Path_2619" data-name="Path 2619" class="cls-13" d="M422.39,128.34l-64.56,1.89c-.64,0-1.11.88-1.06,1.93l.06,1.22c.05,1,.6,1.86,1.23,1.84l64.56-1.76c.64,0,1.11-.88,1.06-1.93l-.07-1.34C423.56,129.15,423,128.33,422.39,128.34Z"/><path id="Path_2620" data-name="Path 2620" class="cls-13" d="M493.52,126.11l-61,1.75c-.6,0-1,.89-1,1.94l.06,1.21c.05,1,.57,1.86,1.16,1.85l61-1.63c.6,0,1.05-.88,1-1.93l-.06-1.34C494.63,126.92,494.11,126.1,493.52,126.11Z"/></g><g id="Group_1448" data-name="Group 1448"><path id="Path_2621" data-name="Path 2621" class="cls-14" d="M119.48,510.18s-1.22,6.91-1.82,13.75A4.72,4.72,0,0,0,122,529l.2,0c9.12.38,28.6,1.11,35.6.8a1.53,1.53,0,0,0,1.46-1.6,1.45,1.45,0,0,0-.11-.5h0a3.41,3.41,0,0,0-1.75-1.85l-32.2-14.8Z"/><path id="Path_2622" data-name="Path 2622" class="cls-15" d="M118.48,506.11l1,8.27s5.64,2.63,9.49-.33l-2.34-9.21Z"/><path id="Path_2623" data-name="Path 2623" class="cls-16" d="M119.22,350.68c-.42,2.16-2.27,107.74,9,155.06a1.61,1.61,0,0,1-.94,1.87,28.08,28.08,0,0,1-9.19,1.86,2.75,2.75,0,0,1-2.74-2c-3.23-11-18.69-66-20.7-118.53-2.26-58.71,0-2,0-2L96,350.67Z"/><path id="Path_2624" data-name="Path 2624" class="cls-17" d="M82.45,513.78s-1.94,3.49-3.83,12.76a2.88,2.88,0,0,0,2.24,3.4l.3,0c3,.3,7.64.67,11.35.65a2.87,2.87,0,0,0,2.85-2.88c0-.11,0-.21,0-.32-.42-3.39-1.7-8.94-5.65-13.27Z"/><path id="Path_2625" data-name="Path 2625" class="cls-18" d="M80.74,503.15,83,515.65s2.27,1.68,6.75.46l-1.09-13.45Z"/><path id="Path_2626" data-name="Path 2626" class="cls-19" d="M74.55,353.92c-9.23,55.7,2,137.68,5.79,153.73a2.52,2.52,0,0,0,2,1.9,16.76,16.76,0,0,0,7.22-.29,2.3,2.3,0,0,0,1.65-2.11c.51-13-.41-92.61,8.19-124.08a7.17,7.17,0,0,1,2.76-3.95l16.7-11.86,1.28-19.19Z"/><g id="Group_1444" data-name="Group 1444"><path id="Path_2627" data-name="Path 2627" class="cls-20" d="M133.37,248.36c-27.66-.45-58.19,7.27-58.19,7.27-8.24,48.11-1.44,103.6-1.44,103.6,21.42,5.62,45.57-3.43,45.57-3.43,3.56-20.11,20.17-76.71,20.17-76.71a91,91,0,0,0,33.82-10.73c-7-8.11-10.29-18.42-11.72-24.52A92.9,92.9,0,0,1,133.37,248.36Z"/><path id="Path_2628" data-name="Path 2628" class="cls-21" d="M215.08,207.62a5.3,5.3,0,0,0-6.16-1.73c-4.07,17.2-25.41,31.14-47.34,38,1.43,6.1,4.73,16.41,11.72,24.52C209.69,247.9,215.08,207.62,215.08,207.62Z"/></g><g id="Group_1445" data-name="Group 1445"><path id="Path_2629" data-name="Path 2629" class="cls-22" d="M214.42,208.45c.28.9-3,2.28-4.95-1.42-.07-1.77-1.14-9.36-.08-10.8C215,188.54,226,178.9,226,178.9a2.61,2.61,0,0,1,.32,3.62L221,188c1.11,2,2.46,3.7,3.1,6.12a7.4,7.4,0,0,1-.74,5.47c-.93,1.68-2.2,3.86-3.4,5.57A7.33,7.33,0,0,1,214.42,208.45Z"/><path id="Path_2630" data-name="Path 2630" class="cls-23" d="M218.66,191.63l-4.83,4.1-1.52,4.08,4.31,4.78s1.45-8.1,2.52-9.85S219.66,192.14,218.66,191.63Z"/></g><path id="Path_2631" data-name="Path 2631" class="cls-20" d="M85.79,282.41,75.18,255.62S49.35,273.18,45.1,295.44a61.07,61.07,0,0,1,22.46,6C69.47,291,85.79,282.41,85.79,282.41Z"/><path id="Path_2632" data-name="Path 2632" class="cls-24" d="M108.37,307.62s-29,16.39-38.8,2.4a11,11,0,0,1-2-8.55,61.07,61.07,0,0,0-22.47-6,30.78,30.78,0,0,0,3.34,21.06c17.15,31.36,63.78-1.74,63.78-1.74Z"/><g id="Group_1446" data-name="Group 1446"><path id="Path_2633" data-name="Path 2633" class="cls-25" d="M104.89,328.36l15.83-55.29a1.63,1.63,0,0,1,1.36-1.17c2.87-.33,11.18-1.27,20.78-2.08,11.56-1,25-1.77,33-1.1a1.61,1.61,0,0,1,1.48,1.74,1.58,1.58,0,0,1-.16.59c-4.56,9.23-23.33,46.77-32.72,59.07a1.67,1.67,0,0,1-1.31.64l-36.73-.34a1.61,1.61,0,0,1-1.6-1.64A1.47,1.47,0,0,1,104.89,328.36Z"/><path id="Path_2634" data-name="Path 2634" class="cls-26" d="M144.5,265,156,263.11a.83.83,0,0,1,1,.68.85.85,0,0,1,0,.39l-1.14,3.45a.81.81,0,0,1-.67.55L144,269.66a.82.82,0,0,1-.92-.71.94.94,0,0,1,0-.29l.7-3A.82.82,0,0,1,144.5,265Z"/><path id="Path_2635" data-name="Path 2635" class="cls-27" d="M135.91,274.74l.94-4.92a1.15,1.15,0,0,1,1-.92L161,266.55a1.14,1.14,0,0,1,1.25,1,1.29,1.29,0,0,1,0,.39l-1.47,6.13a1.14,1.14,0,0,1-1,.87l-22.66,1.14a1.13,1.13,0,0,1-1.19-1.08A.82.82,0,0,1,135.91,274.74Z"/><path id="Path_2636" data-name="Path 2636" class="cls-28" d="M108.71,315s-2.21-9.07-1.32-12.29,2.62-7.35,8.36-6.43a83.55,83.55,0,0,1,12.53,3.34s-.35,4.19-4.71,2.84l2.7,2.1s-.38,3.35-4.07,1.56l2.52,2.78a2.94,2.94,0,0,1-4,1.19l-.32-.2C117.71,308.11,116.41,316.09,108.71,315Z"/></g><path id="Path_2637" data-name="Path 2637" class="cls-29" d="M105.35,225.9l-8.8,25.46a.91.91,0,0,0,.42,1.1c2.4,1.33,11,5.16,21.46-1.45a4.34,4.34,0,0,0,2-3.08l2.85-22Z"/><g id="Group_1447" data-name="Group 1447"><path id="Path_2638" data-name="Path 2638" class="cls-30" d="M124.5,202.33s9.66,18.2,8.43,25.55-13.22,6.82-23.68.85l-7.31-19.65Z"/><path id="Path_2639" data-name="Path 2639" class="cls-31" d="M109.71,219.08a.76.76,0,0,0,.39-1L110,218a19.41,19.41,0,0,1-2.69-5.71s-1.74-1.11,4.42-2.58,15.35-3.77,17.28-9-3.07-18-11-7.72a.75.75,0,0,1-1,.14.93.93,0,0,1-.14-.14c-1.29-1.68-4.69-5.17-9.41-3.06-4.42,2-4.92,5.22-4.86,6.86a.73.73,0,0,1-.71.77h-.17c-2.24-.43-7.6-.79-10.1,4.71-2.06,4.53-.72,7.09.5,8.35a.73.73,0,0,1,0,1,.77.77,0,0,1-.31.19c-1.47.45-3.37,1.69-3.18,5.13.27,4.76,5.58,4.34,7.1,4.12a.73.73,0,0,1,.66.24c1.3,1.43,7.15,7.53,13.48,8.27a.76.76,0,0,0,.83-.68.69.69,0,0,0,0-.32l-2.74-8a.76.76,0,0,1,.41-.93Z"/><path id="Path_2640" data-name="Path 2640" class="cls-32" d="M110.81,220.21s-6.88-4.72-7.38-.74,6.2,5.76,9.51,4.27Z"/></g></g></g></g></g></svg>