<svg xmlns="http://www.w3.org/2000/svg" xmlns:xlink="http://www.w3.org/1999/xlink" viewBox="0 0 1120.94 688.7"><defs><style>.cls-1{fill:#000653;}.cls-2{fill:url(#linear-gradient);}.cls-3{fill:url(#linear-gradient-2);}.cls-4{fill:url(#linear-gradient-3);}.cls-5{fill:url(#linear-gradient-4);}.cls-6{fill:url(#linear-gradient-5);}.cls-7{fill:url(#linear-gradient-6);}.cls-8{fill:url(#linear-gradient-7);}.cls-9{fill:#b3d3ff;}.cls-10{fill:none;}.cls-11,.cls-24{fill:#fff;}.cls-12{fill:url(#linear-gradient-8);}.cls-13{fill:#7eb3e8;}.cls-14{fill:#d6eaff;}.cls-15{fill:#2f256a;}.cls-16{fill:#68c7ea;}.cls-17{fill:#679bd3;}.cls-18{fill:#2c2f87;}.cls-19{fill:#9cc6f7;}.cls-20{fill:#4271a8;}.cls-21{fill:#5bacdd;}.cls-22{fill:#41405b;}.cls-23,.cls-24,.cls-31,.cls-35,.cls-39,.cls-40{isolation:isolate;}.cls-24{font-size:103px;font-family:ArialMT, Arial;letter-spacing:0.2em;}.cls-25{fill:#2ed3ef;}.cls-26{fill:#ffda60;}.cls-27{fill:#e95d68;}.cls-28{fill:#ee7249;}.cls-29{fill:#ffeaa8;}.cls-30{fill:#fffcfa;}.cls-31,.cls-34,.cls-35{fill:#e63336;}.cls-31,.cls-39{opacity:0.6;}.cls-32,.cls-39{fill:#efe4dc;}.cls-33{fill:#ea5f39;}.cls-35{opacity:0.3;}.cls-36{fill:#213047;}.cls-37{fill:#2e4360;}.cls-38{fill:#0e1a2b;}.cls-40{fill:#e6faff;opacity:0.4;}.cls-41{fill:#ffc871;}.cls-42{fill:#fc8460;}.cls-43{fill:#38c5fc;}.cls-44{fill:#1e1951;}.cls-45{fill:#0faeff;}.cls-46{fill:#242357;}.cls-47{fill:#0771e9;}.cls-48{fill:#fecb2f;}.cls-49{opacity:0.5;}.cls-50{fill:#ef772b;}.cls-51{fill:#fcbe22;}</style><linearGradient id="linear-gradient" x1="-2550.68" y1="-975.97" x2="-2551.69" y2="-976.11" gradientTransform="matrix(206.02, 0, 0, -28.65, 526179.15, -27288.19)" gradientUnits="userSpaceOnUse"><stop offset="0" stop-color="#fff" stop-opacity="0"/><stop offset="0.12" stop-color="#f2faff" stop-opacity="0.19"/><stop offset="0.13" stop-color="#f1f9ff" stop-opacity="0.2"/><stop offset="0.21" stop-color="#e4f4ff" stop-opacity="0.38"/><stop offset="0.3" stop-color="#d9efff" stop-opacity="0.55"/><stop offset="0.39" stop-color="#d0ebff" stop-opacity="0.69"/><stop offset="0.49" stop-color="#c8e7ff" stop-opacity="0.8"/><stop offset="0.59" stop-color="#c2e5ff" stop-opacity="0.89"/><stop offset="0.7" stop-color="#bee3ff" stop-opacity="0.95"/><stop offset="0.83" stop-color="#bbe2ff" stop-opacity="0.99"/><stop offset="1" stop-color="#bbe2ff"/></linearGradient><linearGradient id="linear-gradient-2" x1="-2545.44" y1="-976" x2="-2546.45" y2="-976.08" gradientTransform="matrix(133.74, 0, 0, -28.65, 341456.36, -27288.34)" xlink:href="#linear-gradient"/><linearGradient id="linear-gradient-3" x1="-2539.63" y1="-976.01" x2="-2540.64" y2="-976.07" gradientTransform="matrix(96.28, 0, 0, -28.65, 244791.35, -27307.21)" xlink:href="#linear-gradient"/><linearGradient id="linear-gradient-4" x1="-2544.12" y1="-961.08" x2="-2545.12" y2="-961.14" gradientTransform="matrix(122.82, 0, 0, -37.84, 312690.64, -35877.8)" xlink:href="#linear-gradient"/><linearGradient id="linear-gradient-5" x1="-2544.12" y1="-961.08" x2="-2545.12" y2="-961.14" gradientTransform="matrix(122.82, 0, 0, -37.84, 313473.53, -35921.17)" xlink:href="#linear-gradient"/><linearGradient id="linear-gradient-6" x1="-2544.12" y1="-961.08" x2="-2545.12" y2="-961.14" gradientTransform="matrix(122.82, 0, 0, -37.84, 313576.68, -35815.89)" xlink:href="#linear-gradient"/><linearGradient id="linear-gradient-7" x1="-2544.12" y1="-961.08" x2="-2545.12" y2="-961.14" gradientTransform="matrix(122.82, 0, 0, -37.84, 312590.35, -35774.1)" xlink:href="#linear-gradient"/><linearGradient id="linear-gradient-8" x1="-2557.52" y1="-934.18" x2="-2558.5" y2="-934.48" gradientTransform="matrix(686.93, 0, 0, -89.33, 1757746.1, -82933.78)" xlink:href="#linear-gradient"/></defs><g id="Layer_2" data-name="Layer 2"><g id="Layer_1-2" data-name="Layer 1"><g id="Group_1183" data-name="Group 1183"><g id="Group_1100" data-name="Group 1100"><path id="Path_1978" data-name="Path 1978" class="cls-1" d="M496.86,2.27a281.92,281.92,0,0,0-65.38,15.9q-11.66,4.41-22.85,10a253.8,253.8,0,0,0-90.57,75.22,225,225,0,0,0-28.73,51.19c-7.24,18.25-10.48,37.1-19.73,54.54-5.69,10.72-16.46,17.92-27.77,22.29s-23.39,6.31-35.16,9.2c-20.56,5.05-41.65,14.11-53.12,31.9-12.31,19.09-12.3,36.14-25.17,54.85-14.76,21.45-44.33,28.89-58.92,50.45-11.54,17.06-11.22,39.83-5.14,59.51,4.32,14,11.26,29.11,5.46,43.66-2.65,6.63-11.81,24.93-19.87,24.93h1071a311,311,0,0,1-16.3-26.49c-6.81-12.52-7-33.75-5-47.63,2.89-19.78,6.69-39.11.85-58.82-12.24-41.3-57-59-88.8-82.55-27.33-20.25-54.22-45.78-60.22-79.26-5.06-28.2-11.74-66.67-19.69-88.36C917,82.26,894.07,64.46,854.63,58.17c-35.52-5.66-72.23,5.75-107.63-.62-28-5-53.19-20.45-79.28-31C613.88,4.77,554.22-4.74,496.86,2.27Z"/></g><path id="Path_1979" data-name="Path 1979" class="cls-2" d="M681.94,674.38c0,7.91-46.12,14.32-103,14.32s-103-6.41-103-14.32,46.12-14.33,103-14.33S681.94,666.46,681.94,674.38Z"/><ellipse id="Ellipse_51" data-name="Ellipse 51" class="cls-3" cx="953.25" cy="673.33" rx="66.87" ry="14.32"/><ellipse id="Ellipse_52" data-name="Ellipse 52" class="cls-4" cx="235.1" cy="654.46" rx="48.14" ry="14.32"/><ellipse id="Ellipse_53" data-name="Ellipse 53" class="cls-5" cx="162.86" cy="494.56" rx="61.41" ry="18.92"/><ellipse id="Ellipse_54" data-name="Ellipse 54" class="cls-6" cx="945.75" cy="451.19" rx="61.41" ry="18.92"/><ellipse id="Ellipse_55" data-name="Ellipse 55" class="cls-7" cx="1048.9" cy="556.47" rx="61.41" ry="18.92"/><ellipse id="Ellipse_56" data-name="Ellipse 56" class="cls-8" cx="62.57" cy="598.26" rx="61.41" ry="18.92"/><g id="Group_1102" data-name="Group 1102"><rect id="Rectangle_1312" data-name="Rectangle 1312" class="cls-9" x="220.44" y="209.62" width="9.3" height="285.41"/><path id="Path_1980" data-name="Path 1980" class="cls-9" d="M165.43,204.23l55.24-95.68a5.1,5.1,0,0,1,7-1.86,5.18,5.18,0,0,1,1.86,1.86l55.24,95.68a5.09,5.09,0,0,1-1.88,7,5,5,0,0,1-2.53.68H169.84a5.1,5.1,0,0,1-4.41-7.64Z"/><g id="Group_1101" data-name="Group 1101"><line id="Line_2" data-name="Line 2" class="cls-10" x1="225.75" y1="170.33" x2="221.23" y2="174.85"/><path id="Path_1981" data-name="Path 1981" class="cls-11" d="M240.3,159.15l2.76-2.76,7.52,2a8.05,8.05,0,0,0-16,2,2.31,2.31,0,0,1-.69,1.8L230.07,166l-2.81,2.78,5.24,5.05,2.16-2.13,3.54-3.54a2.39,2.39,0,0,1,2.34-.6,8,8,0,0,0,8.35-2.67l-7.57-2Z"/><line id="Line_3" data-name="Line 3" class="cls-10" x1="226.27" y1="180.08" x2="230.98" y2="175.37"/><path id="Path_1982" data-name="Path 1982" class="cls-11" d="M219.77,176.33l-2,2-3.54,3.53a2.39,2.39,0,0,1-2.34.6,8,8,0,0,0-8.34,2.67l7.56,2,1,3.71-2.76,2.76-7.52-2a8.05,8.05,0,0,0,16-1.95,2.31,2.31,0,0,1,.69-1.79l4.4-4.4,1.88-1.92Z"/><path id="Path_1983" data-name="Path 1983" class="cls-11" d="M249.6,193.31l-34.2-33a.51.51,0,0,0,0-.71l-3.19-3.18a1.26,1.26,0,0,1,0-1.76,5.46,5.46,0,0,1,7.72,0h0l.55.56a1,1,0,0,0,0-1.48l-.86-.87a8.19,8.19,0,0,0-11.58,0h0l-4.18,4.18h0l-.35.36-.25.25h0L203,158c.89.9-.14,2.83-1.25,4s-1.52,1-2,.8a.48.48,0,0,0-.67,0l0,0-.24.25h0l-1.07,1.07-.09.09a.75.75,0,0,0,0,1.06h0l.09.1h0l3.92,3.91a.88.88,0,0,0,1.24,0l0,0,.05,0,1.06-1.07.27-.26a.52.52,0,0,0,0-.73h0c-.18-.52.91-1.93,2.37-2.89a3.12,3.12,0,0,1,3.1-.16h0l.6.6a.54.54,0,0,0,.76,0h0l.23-.23,32.95,34.2a1.25,1.25,0,0,0,1.76,0l0,0,3.63-3.63a1.25,1.25,0,0,0,0-1.76Z"/></g></g><g id="Group_1117" data-name="Group 1117"><g id="Group_1113" data-name="Group 1113"><path id="Path_1984" data-name="Path 1984" class="cls-12" d="M843.56,488l75.63,75.7a6.82,6.82,0,0,1-4.82,11.64H241.07a6.82,6.82,0,0,1-4.82-11.64L311.88,488a6.84,6.84,0,0,1,4.83-2h522A6.83,6.83,0,0,1,843.56,488Z"/><g id="Group_1106" data-name="Group 1106"><g id="Group_1105" data-name="Group 1105"><g id="Group_1103" data-name="Group 1103"><path id="Path_1985" data-name="Path 1985" class="cls-13" d="M841.56,475.12l77.63,77.7a6.82,6.82,0,0,1-4.82,11.64H241.07a6.82,6.82,0,0,1-4.82-11.64l77.63-77.7Z"/></g><g id="Group_1104" data-name="Group 1104"><rect id="Rectangle_1313" data-name="Rectangle 1313" class="cls-13" x="234.24" y="537.03" width="686.96" height="20.41"/></g></g></g><g id="Group_1107" data-name="Group 1107"><rect id="Rectangle_1314" data-name="Rectangle 1314" class="cls-14" x="313.88" y="91.09" width="527.68" height="363.56" rx="4.1"/></g><path id="Rectangle_1315" data-name="Rectangle 1315" class="cls-15" d="M335.69,111.54H819.75a1.36,1.36,0,0,1,1.36,1.36V415.12a1.36,1.36,0,0,1-1.36,1.36H335.69a1.37,1.37,0,0,1-1.37-1.37V112.9A1.37,1.37,0,0,1,335.69,111.54Z"/><g id="Group_1108" data-name="Group 1108"><rect id="Rectangle_1316" data-name="Rectangle 1316" class="cls-16" x="341.14" y="118.35" width="473.16" height="291.32"/></g><g id="Group_1109" data-name="Group 1109"><path id="Path_1986" data-name="Path 1986" class="cls-17" d="M600.14,436.45H555.3a5.92,5.92,0,0,1-5.93-5.93h0a5.93,5.93,0,0,1,5.93-5.93h44.83a5.94,5.94,0,0,1,5.94,5.93h0A5.94,5.94,0,0,1,600.14,436.45Z"/></g><g id="Group_1110" data-name="Group 1110"><path id="Path_1987" data-name="Path 1987" class="cls-9" d="M843.56,456.64l75.63,75.7A6.82,6.82,0,0,1,914.37,544H241.07a6.82,6.82,0,0,1-4.82-11.64l75.63-75.7a6.84,6.84,0,0,1,4.83-2h522A6.87,6.87,0,0,1,843.56,456.64Z"/></g><path id="Path_1988" data-name="Path 1988" class="cls-15" d="M313.9,474l-38.56,39.67c-3.94,4.05-2.55,7.33,3.1,7.33H877c5.64,0,7-3.28,3.1-7.33L841.54,474c-3.94-4.05-11.7-7.33-17.35-7.33H331.25C325.61,466.65,317.84,469.93,313.9,474Z"/><path id="Path_1989" data-name="Path 1989" class="cls-18" d="M824.19,466.65H331.25c-5.64,0-13.41,3.28-17.35,7.33l-38.56,39.67c-2.9,3-2.9,5.55-.43,6.69l556.94-52.17A23.61,23.61,0,0,0,824.19,466.65Z"/><g id="Group_1111" data-name="Group 1111"><path id="Path_1990" data-name="Path 1990" class="cls-19" d="M841.56,444.42H313.88a10.22,10.22,0,0,0,10.22,10.23H831.33a10.23,10.23,0,0,0,10.23-10.22Z"/></g><g id="Group_1112" data-name="Group 1112"><path id="Path_1991" data-name="Path 1991" class="cls-20" d="M650.7,558.52h-146a3.82,3.82,0,0,1-3.82-3.82h0a3.83,3.83,0,0,1,3.82-3.83h146a3.83,3.83,0,0,1,3.82,3.83h0a3.82,3.82,0,0,1-3.82,3.82Z"/></g></g><g id="Group_1116" data-name="Group 1116"><g id="Group_1115" data-name="Group 1115"><g id="Group_1114" data-name="Group 1114"><rect id="Rectangle_1317" data-name="Rectangle 1317" class="cls-21" x="393.31" y="163.1" width="374.56" height="193.69" rx="2.73"/></g><rect id="Rectangle_1318" data-name="Rectangle 1318" class="cls-22" x="387.57" y="157.85" width="374.56" height="193.69" rx="2.73"/><g id="_" data-name=" " class="cls-23"><text class="cls-24" transform="translate(453.32 293.21)">&lt;_/&gt;</text></g><path id="Path_1992" data-name="Path 1992" class="cls-15" d="M755.31,157.85H394.39a6.81,6.81,0,0,0-6.82,6.81h0V177H762.13V164.66A6.81,6.81,0,0,0,755.31,157.85Z"/><path id="Path_1993" data-name="Path 1993" class="cls-25" d="M402,167.44a4.49,4.49,0,1,1,4.49,4.48h0A4.49,4.49,0,0,1,402,167.44Z"/><circle id="Ellipse_57" data-name="Ellipse 57" class="cls-26" cx="425.68" cy="167.44" r="4.49"/><path id="Path_1994" data-name="Path 1994" class="cls-27" d="M440.33,167.44a4.49,4.49,0,1,1,4.49,4.48h0A4.49,4.49,0,0,1,440.33,167.44Z"/></g></g></g><g id="Group_1119" data-name="Group 1119"><path id="Path_1995" data-name="Path 1995" class="cls-28" d="M890.43,439.77l29.66-86.36a4.74,4.74,0,0,1,2.7-2.89,14.12,14.12,0,0,1,10.94,0,4.79,4.79,0,0,1,2.7,2.89l29.65,86.36C966.08,453.62,890.43,453.62,890.43,439.77Z"/><path id="Path_1996" data-name="Path 1996" class="cls-29" d="M931,349.69a13.86,13.86,0,0,0-2.94-.26c-1.69.11-3.49.61-4.25,1.7-1.3,1.85-2,4.86-4,12.65-3,11.48-14.53,58.21-20.6,82.91a71,71,0,0,0,12.6,2.53c3.84-26.23,11.23-76.71,12.6-85.44,1.87-11.9,1.79-14.18,6.64-14.09Z"/><path id="Path_1997" data-name="Path 1997" class="cls-30" d="M946.82,383.67l-6.54-19c-2.06,1.37-7,2.45-12,2.45s-10-1.08-12-2.45l-6.54,19c2.3,2.2,10.42,3.7,18.57,3.7S944.52,385.87,946.82,383.67Z"/><path id="Path_1998" data-name="Path 1998" class="cls-30" d="M928.26,428c15.06,0,30.08-2.34,31.49-6.64l-6.44-18.74c-2.09,3.18-13.55,5.08-25,5.08s-23-1.91-25-5.08l-6.44,18.73C898.17,425.61,913.2,428,928.26,428Z"/><path id="Path_1999" data-name="Path 1999" class="cls-11" d="M917.92,407.18c-1,6.72-2,13.6-3,20.17a71.85,71.85,0,0,1-10.63-1.75c1.6-6.46,3.28-13.27,4.92-19.92A60.69,60.69,0,0,0,917.92,407.18Z"/><path id="Path_2000" data-name="Path 2000" class="cls-11" d="M923.9,366.8c-.64,4.31-1.73,11.53-3,20.16a43.45,43.45,0,0,1-6.69-1.21c2.09-8.4,3.87-15.5,5-19.86A25.85,25.85,0,0,0,923.9,366.8Z"/><path id="Path_2001" data-name="Path 2001" class="cls-11" d="M917.93,407.15c-1,6.72-2,13.6-3,20.16a72.28,72.28,0,0,1-10.63-1.75c1.6-6.45,3.28-13.26,4.92-19.91A60.69,60.69,0,0,0,917.93,407.15Z"/><g id="Group_1118" data-name="Group 1118"><path id="Path_2002" data-name="Path 2002" class="cls-28" d="M941.15,449.61c-.64.05-1.29.11-1.94.15C939.86,449.72,940.51,449.66,941.15,449.61Z"/><path id="Path_2003" data-name="Path 2003" class="cls-28" d="M936.51,449.94c-.66,0-1.33.07-2,.09C935.18,450,935.85,450,936.51,449.94Z"/><path id="Path_2004" data-name="Path 2004" class="cls-28" d="M939,449.78c-.74.06-1.49.1-2.24.15Z"/><path id="Path_2005" data-name="Path 2005" class="cls-28" d="M945.75,449.1c-.69.09-1.38.18-2.08.25C944.37,449.28,945.06,449.19,945.75,449.1Z"/><path id="Path_2006" data-name="Path 2006" class="cls-28" d="M926.87,450.16c-1.53,0-3.06-.05-4.58-.11C923.81,450.11,925.34,450.14,926.87,450.16Z"/><path id="Path_2007" data-name="Path 2007" class="cls-28" d="M934.1,450.05c-1.5.06-3,.09-4.54.1C931.08,450.14,932.59,450.11,934.1,450.05Z"/><path id="Path_2008" data-name="Path 2008" class="cls-28" d="M921.94,450l-2.19-.1Z"/><path id="Path_2009" data-name="Path 2009" class="cls-28" d="M919.71,449.92c-.77,0-1.54-.09-2.3-.15C918.17,449.83,918.94,449.88,919.71,449.92Z"/><path id="Path_2010" data-name="Path 2010" class="cls-28" d="M947.79,448.82l-1.66.23Z"/><path id="Path_2011" data-name="Path 2011" class="cls-28" d="M929.21,450.16h0Z"/><path id="Path_2012" data-name="Path 2012" class="cls-28" d="M955.73,447.19l-1.65.42Z"/><path id="Path_2013" data-name="Path 2013" class="cls-28" d="M962.88,444.29q-.5.31-1,.6Q962.39,444.61,962.88,444.29Z"/><path id="Path_2014" data-name="Path 2014" class="cls-28" d="M961.59,445c-.31.16-.63.32-1,.47C961,445.33,961.28,445.17,961.59,445Z"/><path id="Path_2015" data-name="Path 2015" class="cls-28" d="M964.6,442.94c-.2.19-.41.38-.64.57C964.19,443.32,964.4,443.13,964.6,442.94Z"/><path id="Path_2016" data-name="Path 2016" class="cls-28" d="M960.36,445.6c-.42.18-.86.35-1.32.53C959.5,446,959.94,445.78,960.36,445.6Z"/><path id="Path_2017" data-name="Path 2017" class="cls-28" d="M963.77,443.66c-.27.2-.54.4-.85.6A8,8,0,0,0,963.77,443.66Z"/><path id="Path_2018" data-name="Path 2018" class="cls-28" d="M957.28,446.73l-1.31.39Z"/><path id="Path_2019" data-name="Path 2019" class="cls-28" d="M917.21,449.76c-.67-.05-1.34-.1-2-.17Z"/><path id="Path_2020" data-name="Path 2020" class="cls-28" d="M953.8,447.67q-.72.18-1.47.33Q953.08,447.85,953.8,447.67Z"/><path id="Path_2021" data-name="Path 2021" class="cls-28" d="M959,446.14l-1.38.48Z"/><path id="Path_2022" data-name="Path 2022" class="cls-28" d="M951.92,448.09c-1.2.24-2.44.47-3.74.67C949.48,448.56,950.72,448.33,951.92,448.09Z"/><path id="Path_2023" data-name="Path 2023" class="cls-28" d="M943.64,449.36l-2,.21Z"/><path id="Path_2024" data-name="Path 2024" class="cls-28" d="M910.36,449.05l-1.84-.26Z"/><path id="Path_2025" data-name="Path 2025" class="cls-28" d="M965.71,441.39a5.36,5.36,0,0,1-.34.62A5.36,5.36,0,0,0,965.71,441.39Z"/><path id="Path_2026" data-name="Path 2026" class="cls-28" d="M965.79,441.21a3.73,3.73,0,0,0,.29-1.43c0,.22,0,.44-.06.66A4.25,4.25,0,0,1,965.79,441.21Z"/><path id="Path_2027" data-name="Path 2027" class="cls-28" d="M965.28,442.13a5.53,5.53,0,0,1-.58.7A5.53,5.53,0,0,0,965.28,442.13Z"/><path id="Path_2028" data-name="Path 2028" class="cls-28" d="M914.89,449.56c-1.45-.13-2.86-.29-4.24-.47C912,449.27,913.44,449.43,914.89,449.56Z"/><path id="Path_2029" data-name="Path 2029" class="cls-30" d="M946.82,383.67l-6.54-19h0l6.54,19Z"/><path id="Path_2030" data-name="Path 2030" class="cls-31" d="M954.08,447.61l-.28.06Z"/><path id="Path_2031" data-name="Path 2031" class="cls-31" d="M960.62,445.48l-.26.12Z"/><path id="Path_2032" data-name="Path 2032" class="cls-31" d="M952.32,448l-.4.09Z"/><path id="Path_2033" data-name="Path 2033" class="cls-31" d="M962.92,444.26l0,0Z"/><path id="Path_2034" data-name="Path 2034" class="cls-31" d="M964.7,442.84a.94.94,0,0,0-.1.1A.94.94,0,0,1,964.7,442.84Z"/><path id="Path_2035" data-name="Path 2035" class="cls-31" d="M964,443.51l-.19.15Z"/><path id="Path_2036" data-name="Path 2036" class="cls-31" d="M959,446.13l0,0Z"/><path id="Path_2037" data-name="Path 2037" class="cls-31" d="M948.18,448.76l-.4.06Z"/><path id="Path_2038" data-name="Path 2038" class="cls-31" d="M961.83,444.89l-.24.12Z"/><path id="Path_2039" data-name="Path 2039" class="cls-31" d="M957.63,446.62l-.35.11Z"/><path id="Path_2040" data-name="Path 2040" class="cls-31" d="M956,447.12l-.24.07Z"/><path id="Path_2041" data-name="Path 2041" class="cls-31" d="M965.79,441.21l-.08.18A1.42,1.42,0,0,0,965.79,441.21Z"/><path id="Path_2042" data-name="Path 2042" class="cls-31" d="M929.56,450.16h0Z"/><path id="Path_2043" data-name="Path 2043" class="cls-31" d="M927.18,450.16h0Z"/><path id="Path_2044" data-name="Path 2044" class="cls-31" d="M908.52,448.78l-.21,0Z"/><path id="Path_2045" data-name="Path 2045" class="cls-31" d="M934.51,450l-.41,0Z"/><path id="Path_2046" data-name="Path 2046" class="cls-31" d="M936.76,449.93h0Z"/><path id="Path_2047" data-name="Path 2047" class="cls-31" d="M919.75,449.93h0Z"/><path id="Path_2048" data-name="Path 2048" class="cls-31" d="M910.65,449.08l-.29,0Z"/><path id="Path_2049" data-name="Path 2049" class="cls-31" d="M915.21,449.59l-.32,0Z"/><path id="Path_2050" data-name="Path 2050" class="cls-31" d="M922.29,450.05l-.35,0Z"/><path id="Path_2051" data-name="Path 2051" class="cls-31" d="M928.26,349.42h0a13.18,13.18,0,0,1,2.73.28A13.18,13.18,0,0,0,928.26,349.42Z"/><path id="Path_2052" data-name="Path 2052" class="cls-31" d="M943.67,449.35h0Z"/><path id="Path_2053" data-name="Path 2053" class="cls-31" d="M965.37,442l-.08.13A.46.46,0,0,1,965.37,442Z"/><path id="Path_2054" data-name="Path 2054" class="cls-31" d="M946.13,449.05l-.38.05Z"/><path id="Path_2055" data-name="Path 2055" class="cls-31" d="M941.59,449.57l-.44,0Z"/><path id="Path_2056" data-name="Path 2056" class="cls-31" d="M917.41,449.77h0Z"/><path id="Path_2057" data-name="Path 2057" class="cls-31" d="M939.21,449.76l-.21,0Z"/><path id="Path_2058" data-name="Path 2058" class="cls-28" d="M935.14,355.55c.29.93,1.4,4.7,3,10.08a9.7,9.7,0,0,0,2.17-1l-3.85-11.22a4.76,4.76,0,0,0-2.7-2.89,16.19,16.19,0,0,0-2.73-.82,14,14,0,0,0-2.74-.28C931,349.42,933.8,351.24,935.14,355.55Z"/><path id="Path_2059" data-name="Path 2059" class="cls-31" d="M935.14,355.55c.29.93,1.4,4.7,3,10.08a9.7,9.7,0,0,0,2.17-1l-3.85-11.22a4.76,4.76,0,0,0-2.7-2.89,16.19,16.19,0,0,0-2.73-.82,14,14,0,0,0-2.74-.28C931,349.42,933.8,351.24,935.14,355.55Z"/><path id="Path_2060" data-name="Path 2060" class="cls-31" d="M946.82,383.67a8.53,8.53,0,0,1-3,1.6c1.9,6.54,3.89,13.38,5.71,19.66a7.73,7.73,0,0,0,3.76-2.35l6.44,18.74c-.42,1.28-2.07,2.38-4.53,3.3.66,2.32,1.1,3.88,1.21,4.35.9,3.56,4.33,11.38-6.38,15.62-20.1,8-60.63.69-59.36-5.55h0l-.25.73c0,3.67,5.3,6.36,13.08,8.09,1.41.28,2.44.46,2.74.54l.17,0c.56.11,1.14.2,1.72.3l.71.1,1.22.17.67.09q2,.26,4,.45l.76.07,1.22.1.87.07c.62,0,1.26.09,1.9.12l.84.05,1.26.06.83,0c1.42.06,2.85.09,4.29.1h3c1.42,0,2.84,0,4.25-.1l.91,0L936,450l1-.05,1.85-.12,1-.07,1.09-.09,1-.09,1.15-.12c.38,0,.74-.07,1.1-.12l1.48-.17.89-.12,1-.15.78-.12c1.23-.19,2.42-.41,3.56-.64l.67-.14,1-.23.65-.15,1.47-.37.54-.16,1-.29.56-.18c.35-.11.7-.23,1-.36l.35-.12,1.21-.48.4-.18.8-.39.36-.18q.52-.28,1-.57l.15-.1c.26-.17.5-.34.73-.52l.25-.2a7.19,7.19,0,0,0,.57-.52l.15-.14a6.13,6.13,0,0,0,.57-.69.86.86,0,0,0,.1-.16,4.13,4.13,0,0,0,.33-.58,1.67,1.67,0,0,0,.08-.2,3.33,3.33,0,0,0,.23-.74v0c0-.21,0-.42.06-.63v0Z"/><path id="Path_2061" data-name="Path 2061" class="cls-30" d="M943.84,385.27a8.53,8.53,0,0,0,3-1.6l-6.54-19a9.7,9.7,0,0,1-2.17,1C939.68,371,941.7,377.93,943.84,385.27Z"/><path id="Path_2062" data-name="Path 2062" class="cls-32" d="M943.84,385.27a8.53,8.53,0,0,0,3-1.6l-6.54-19a9.7,9.7,0,0,1-2.17,1C939.68,371,941.7,377.93,943.84,385.27Z"/><path id="Path_2063" data-name="Path 2063" class="cls-30" d="M959.75,421.32l-6.44-18.74a7.73,7.73,0,0,1-3.76,2.35c2.35,8.13,4.42,15.3,5.67,19.69C957.69,423.7,959.33,422.59,959.75,421.32Z"/><path id="Path_2064" data-name="Path 2064" class="cls-32" d="M959.75,421.32l-6.44-18.74a7.73,7.73,0,0,1-3.76,2.35c2.35,8.13,4.42,15.3,5.67,19.69C957.69,423.7,959.33,422.59,959.75,421.32Z"/></g><path id="Path_2065" data-name="Path 2065" class="cls-33" d="M972.52,443.91c-1.38-4-3.79-8.61-8-8.61l1.54,4.48c0,5.65-18.92,10.38-37.83,10.38s-37.83-4.73-37.83-10.38L892,435.3c-4.19,0-6.59,4.65-8,8.61s1,6.62,3.78,8.48c4.94,3.37,16.89,7.51,40.48,7.51s35.54-4.14,40.47-7.51C971.47,450.53,973.91,447.87,972.52,443.91Z"/><path id="Path_2066" data-name="Path 2066" class="cls-34" d="M972.52,443.91c-.11-.33-.24-.67-.37-1,1.2,3.93-5.22,14.4-43.95,14.4-40.19,0-44.49-12.28-43.67-14.82-.19.48-.37,1-.53,1.43-1.39,4,1,6.62,3.78,8.48,4.94,3.37,16.89,7.51,40.48,7.51s35.54-4.14,40.47-7.51C971.47,450.53,973.91,447.87,972.52,443.91Z"/><path id="Path_2067" data-name="Path 2067" class="cls-35" d="M964.54,435.3l1.54,4.48c0,5.65-18.91,10.38-37.82,10.38h0v9.74h0c23.58,0,35.53-4.14,40.47-7.51,2.73-1.86,5.18-4.52,3.79-8.48S968.73,435.3,964.54,435.3Z"/></g><g id="Group_1121" data-name="Group 1121"><path id="Path_2068" data-name="Path 2068" class="cls-28" d="M995.66,545.78l29.65-86.36a4.78,4.78,0,0,1,2.71-2.89,14.1,14.1,0,0,1,10.93,0,4.74,4.74,0,0,1,2.7,2.89l29.66,86.36C1071.31,559.63,995.66,559.63,995.66,545.78Z"/><path id="Path_2069" data-name="Path 2069" class="cls-29" d="M1036.19,455.7a13.8,13.8,0,0,0-2.94-.26c-1.69.11-3.48.61-4.25,1.7-1.3,1.85-2,4.86-4,12.65-3,11.48-14.52,58.21-20.6,82.91a71.39,71.39,0,0,0,12.6,2.53c3.84-26.23,11.23-76.71,12.6-85.44,1.88-11.9,1.79-14.18,6.64-14.09Z"/><path id="Path_2070" data-name="Path 2070" class="cls-30" d="M1052.05,489.68l-6.54-19c-2.06,1.38-7,2.45-12,2.45s-10-1.08-12-2.45l-6.53,19c2.29,2.2,10.41,3.7,18.56,3.7S1049.75,491.89,1052.05,489.68Z"/><path id="Path_2071" data-name="Path 2071" class="cls-30" d="M1033.49,534c15,0,30.08-2.34,31.48-6.64l-6.43-18.74c-2.09,3.17-13.56,5.08-25.06,5.08s-23-1.91-25.05-5.08L1002,527.32C1003.4,531.63,1018.43,534,1033.49,534Z"/><path id="Path_2072" data-name="Path 2072" class="cls-11" d="M1023.14,513.19c-1,6.72-2,13.6-3,20.17a72.28,72.28,0,0,1-10.63-1.75c1.6-6.45,3.29-13.27,4.93-19.91A62,62,0,0,0,1023.14,513.19Z"/><path id="Path_2073" data-name="Path 2073" class="cls-11" d="M1029.13,472.81c-.64,4.31-1.73,11.53-3,20.16a43.33,43.33,0,0,1-6.68-1.21c2.08-8.4,3.87-15.49,5-19.86A26,26,0,0,0,1029.13,472.81Z"/><path id="Path_2074" data-name="Path 2074" class="cls-11" d="M1023.15,513.16c-1,6.72-2,13.6-3,20.16a71.91,71.91,0,0,1-10.62-1.74c1.6-6.46,3.28-13.27,4.92-19.92A60.8,60.8,0,0,0,1023.15,513.16Z"/><g id="Group_1120" data-name="Group 1120"><path id="Path_2075" data-name="Path 2075" class="cls-28" d="M1046.37,555.62l-1.93.16Z"/><path id="Path_2076" data-name="Path 2076" class="cls-28" d="M1041.73,556l-2,.1Z"/><path id="Path_2077" data-name="Path 2077" class="cls-28" d="M1044.23,555.79l-2.25.15Z"/><path id="Path_2078" data-name="Path 2078" class="cls-28" d="M1051,555.11l-2.07.26C1049.6,555.29,1050.29,555.21,1051,555.11Z"/><path id="Path_2079" data-name="Path 2079" class="cls-28" d="M1032.1,556.17c-1.53,0-3.06,0-4.58-.11C1029,556.12,1030.57,556.15,1032.1,556.17Z"/><path id="Path_2080" data-name="Path 2080" class="cls-28" d="M1039.33,556.06c-1.51.06-3,.09-4.55.1C1036.3,556.15,1037.82,556.12,1039.33,556.06Z"/><path id="Path_2081" data-name="Path 2081" class="cls-28" d="M1027.16,556l-2.18-.1Z"/><path id="Path_2082" data-name="Path 2082" class="cls-28" d="M1024.94,555.93c-.78,0-1.54-.09-2.3-.15C1023.4,555.84,1024.16,555.89,1024.94,555.93Z"/><path id="Path_2083" data-name="Path 2083" class="cls-28" d="M1053,554.83l-1.66.23Z"/><path id="Path_2084" data-name="Path 2084" class="cls-28" d="M1034.43,556.17h0Z"/><path id="Path_2085" data-name="Path 2085" class="cls-28" d="M1061,553.19c-.54.15-1.09.29-1.66.43C1059.87,553.48,1060.42,553.34,1061,553.19Z"/><path id="Path_2086" data-name="Path 2086" class="cls-28" d="M1068.11,550.3c-.33.2-.68.41-1.06.6A11.77,11.77,0,0,0,1068.11,550.3Z"/><path id="Path_2087" data-name="Path 2087" class="cls-28" d="M1066.81,551l-1,.46Z"/><path id="Path_2088" data-name="Path 2088" class="cls-28" d="M1069.82,549q-.3.3-.63.57Q1069.52,549.25,1069.82,549Z"/><path id="Path_2089" data-name="Path 2089" class="cls-28" d="M1065.58,551.61c-.42.18-.85.36-1.31.53C1064.73,552,1065.16,551.79,1065.58,551.61Z"/><path id="Path_2090" data-name="Path 2090" class="cls-28" d="M1069,549.67q-.39.3-.84.6A9,9,0,0,0,1069,549.67Z"/><path id="Path_2091" data-name="Path 2091" class="cls-28" d="M1062.51,552.74l-1.31.39Z"/><path id="Path_2092" data-name="Path 2092" class="cls-28" d="M1022.44,555.77l-2-.17Z"/><path id="Path_2093" data-name="Path 2093" class="cls-28" d="M1059,553.68c-.48.12-1,.23-1.48.33C1058.06,553.91,1058.55,553.8,1059,553.68Z"/><path id="Path_2094" data-name="Path 2094" class="cls-28" d="M1064.23,552.15l-1.38.48Z"/><path id="Path_2095" data-name="Path 2095" class="cls-28" d="M1057.15,554.1c-1.2.24-2.45.47-3.74.67C1054.7,554.57,1056,554.34,1057.15,554.1Z"/><path id="Path_2096" data-name="Path 2096" class="cls-28" d="M1048.87,555.37l-2.06.21Z"/><path id="Path_2097" data-name="Path 2097" class="cls-28" d="M1015.58,555.06l-1.83-.26Z"/><path id="Path_2098" data-name="Path 2098" class="cls-28" d="M1070.94,547.4a4.59,4.59,0,0,1-.35.61A4.59,4.59,0,0,0,1070.94,547.4Z"/><path id="Path_2099" data-name="Path 2099" class="cls-28" d="M1071,547.22a3.73,3.73,0,0,0,.29-1.43c0,.22,0,.44-.06.66A4.25,4.25,0,0,1,1071,547.22Z"/><path id="Path_2100" data-name="Path 2100" class="cls-28" d="M1070.51,548.14a5.53,5.53,0,0,1-.58.7A5.53,5.53,0,0,0,1070.51,548.14Z"/><path id="Path_2101" data-name="Path 2101" class="cls-28" d="M1020.12,555.57c-1.45-.13-2.87-.29-4.25-.47C1017.25,555.28,1018.67,555.44,1020.12,555.57Z"/><path id="Path_2102" data-name="Path 2102" class="cls-30" d="M1052.05,489.68l-6.54-19h0l6.54,19Z"/><path id="Path_2103" data-name="Path 2103" class="cls-31" d="M1059.31,553.62l-.28.06Z"/><path id="Path_2104" data-name="Path 2104" class="cls-31" d="M1065.84,551.49l-.26.12Z"/><path id="Path_2105" data-name="Path 2105" class="cls-31" d="M1057.55,554l-.4.09Z"/><path id="Path_2106" data-name="Path 2106" class="cls-31" d="M1068.15,550.27l0,0Z"/><path id="Path_2107" data-name="Path 2107" class="cls-31" d="M1069.93,548.84a.52.52,0,0,1-.11.1A.52.52,0,0,0,1069.93,548.84Z"/><path id="Path_2108" data-name="Path 2108" class="cls-31" d="M1069.19,549.52l-.2.15Z"/><path id="Path_2109" data-name="Path 2109" class="cls-31" d="M1064.27,552.14h0Z"/><path id="Path_2110" data-name="Path 2110" class="cls-31" d="M1053.41,554.77l-.39.06Z"/><path id="Path_2111" data-name="Path 2111" class="cls-31" d="M1067.05,550.9a1.83,1.83,0,0,1-.24.13A1.83,1.83,0,0,0,1067.05,550.9Z"/><path id="Path_2112" data-name="Path 2112" class="cls-31" d="M1062.85,552.63l-.34.11Z"/><path id="Path_2113" data-name="Path 2113" class="cls-31" d="M1061.2,553.13l-.24.06Z"/><path id="Path_2114" data-name="Path 2114" class="cls-31" d="M1071,547.22l-.08.18A1.42,1.42,0,0,1,1071,547.22Z"/><path id="Path_2115" data-name="Path 2115" class="cls-31" d="M1034.78,556.17h0Z"/><path id="Path_2116" data-name="Path 2116" class="cls-31" d="M1032.41,556.17h0Z"/><path id="Path_2117" data-name="Path 2117" class="cls-31" d="M1013.75,554.8l-.21,0Z"/><path id="Path_2118" data-name="Path 2118" class="cls-31" d="M1039.74,556l-.41,0Z"/><path id="Path_2119" data-name="Path 2119" class="cls-31" d="M1042,555.94h0Z"/><path id="Path_2121" data-name="Path 2121" class="cls-31" d="M1015.87,555.1l-.29,0Z"/><path id="Path_2122" data-name="Path 2122" class="cls-31" d="M1020.44,555.6l-.32,0Z"/><path id="Path_2123" data-name="Path 2123" class="cls-31" d="M1027.52,556.06l-.36,0Z"/><path id="Path_2124" data-name="Path 2124" class="cls-31" d="M1033.49,455.43h0a14,14,0,0,1,2.73.28A14,14,0,0,0,1033.49,455.43Z"/><path id="Path_2125" data-name="Path 2125" class="cls-31" d="M1048.9,555.37h0Z"/><path id="Path_2126" data-name="Path 2126" class="cls-31" d="M1070.59,548a.57.57,0,0,1-.08.13A.91.91,0,0,0,1070.59,548Z"/><path id="Path_2127" data-name="Path 2127" class="cls-31" d="M1051.36,555.06l-.39.05Z"/><path id="Path_2128" data-name="Path 2128" class="cls-31" d="M1046.81,555.58l-.44,0Z"/><path id="Path_2129" data-name="Path 2129" class="cls-31" d="M1022.64,555.78h0Z"/><path id="Path_2130" data-name="Path 2130" class="cls-31" d="M1044.44,555.78h0Z"/><path id="Path_2131" data-name="Path 2131" class="cls-28" d="M1040.37,461.56c.28.93,1.4,4.7,3,10.08a9.7,9.7,0,0,0,2.17-1l-3.85-11.21a4.77,4.77,0,0,0-2.7-2.89,15.45,15.45,0,0,0-2.74-.83,13.89,13.89,0,0,0-2.73-.27C1036.25,455.43,1039,457.26,1040.37,461.56Z"/><path id="Path_2132" data-name="Path 2132" class="cls-31" d="M1040.37,461.56c.28.93,1.4,4.7,3,10.08a9.7,9.7,0,0,0,2.17-1l-3.85-11.21a4.77,4.77,0,0,0-2.7-2.89,15.45,15.45,0,0,0-2.74-.83,13.89,13.89,0,0,0-2.73-.27C1036.25,455.43,1039,457.26,1040.37,461.56Z"/><path id="Path_2133" data-name="Path 2133" class="cls-31" d="M1052.05,489.69a8.71,8.71,0,0,1-3,1.59c1.9,6.54,3.89,13.38,5.71,19.66a7.71,7.71,0,0,0,3.77-2.35l6.43,18.74c-.42,1.27-2.06,2.38-4.52,3.3.66,2.32,1.1,3.88,1.21,4.35.89,3.56,4.33,11.38-6.38,15.62-20.1,8-60.64.69-59.37-5.55h0l-.25.73c0,3.67,5.3,6.36,13.09,8.09,1.41.28,2.44.46,2.74.55l.16,0c.57.1,1.15.2,1.73.28l.71.11,1.22.18.67.09q2,.25,4,.45l.76.07,1.22.1.87.06c.62.05,1.26.09,1.9.12l.84.05,1.26.06.83,0c1.42.06,2.85.09,4.29.1h3c1.42,0,2.84,0,4.25-.1l.91,0,1.12,0,1-.05,1.85-.12,1-.08c.36,0,.73-.05,1.09-.09s.66,0,1-.09l1.15-.11,1.1-.12,1.48-.18.89-.12,1-.15.78-.12c1.23-.19,2.42-.4,3.56-.63l.67-.14,1-.23.64-.15,1.47-.38.54-.16,1-.29.56-.17,1-.36.34-.12c.42-.16.82-.32,1.21-.49l.4-.18c.28-.13.54-.25.8-.39l.36-.18c.35-.18.68-.37,1-.56l.16-.11c.26-.17.5-.34.73-.51l.25-.2a7.19,7.19,0,0,0,.57-.52l.15-.15a5.27,5.27,0,0,0,.57-.68.86.86,0,0,0,.1-.16,5.6,5.6,0,0,0,.33-.59,1.19,1.19,0,0,0,.08-.2,3.74,3.74,0,0,0,.23-.74v0c0-.21,0-.41.06-.62v0Z"/><path id="Path_2134" data-name="Path 2134" class="cls-30" d="M1049.06,491.28a8.71,8.71,0,0,0,3-1.59l-6.54-19.05a10.16,10.16,0,0,1-2.17,1C1044.9,477,1046.93,483.94,1049.06,491.28Z"/><path id="Path_2135" data-name="Path 2135" class="cls-32" d="M1049.06,491.28a8.71,8.71,0,0,0,3-1.59l-6.54-19.05a10.16,10.16,0,0,1-2.17,1C1044.9,477,1046.93,483.94,1049.06,491.28Z"/><path id="Path_2136" data-name="Path 2136" class="cls-30" d="M1065,527.33l-6.43-18.74a7.71,7.71,0,0,1-3.77,2.35c2.36,8.13,4.43,15.3,5.68,19.69C1062.91,529.71,1064.55,528.6,1065,527.33Z"/><path id="Path_2137" data-name="Path 2137" class="cls-32" d="M1065,527.33l-6.43-18.74a7.71,7.71,0,0,1-3.77,2.35c2.36,8.13,4.43,15.3,5.68,19.69C1062.91,529.71,1064.55,528.6,1065,527.33Z"/></g><path id="Path_2138" data-name="Path 2138" class="cls-33" d="M1077.75,549.92c-1.39-4-3.79-8.61-8-8.61l1.54,4.48c0,5.65-18.91,10.38-37.82,10.38s-37.83-4.73-37.83-10.38l1.54-4.48c-4.19,0-6.59,4.65-8,8.61s1.06,6.62,3.79,8.48c4.94,3.37,16.89,7.51,40.48,7.51s35.54-4.14,40.47-7.51C1076.69,556.54,1079.14,553.89,1077.75,549.92Z"/><path id="Path_2139" data-name="Path 2139" class="cls-34" d="M1077.75,549.92c-.12-.33-.24-.67-.37-1,1.2,3.94-5.22,14.4-44,14.4-40.19,0-44.48-12.28-43.66-14.81-.19.48-.37,1-.54,1.42-1.38,4,1.06,6.62,3.79,8.49,4.94,3.36,16.89,7.5,40.48,7.5s35.54-4.14,40.47-7.5C1076.69,556.54,1079.14,553.88,1077.75,549.92Z"/><path id="Path_2140" data-name="Path 2140" class="cls-35" d="M1069.77,541.31l1.54,4.48c0,5.65-18.91,10.38-37.82,10.38h0v9.74h0c23.58,0,35.53-4.14,40.47-7.51,2.73-1.86,5.17-4.51,3.79-8.48S1074,541.31,1069.77,541.31Z"/></g><g id="Group_1123" data-name="Group 1123"><path id="Path_2141" data-name="Path 2141" class="cls-28" d="M182.78,485l-29.65-86.36a4.81,4.81,0,0,0-2.71-2.89,14.12,14.12,0,0,0-10.94,0,4.79,4.79,0,0,0-2.7,2.89L107.13,485C107.13,498.83,182.78,498.83,182.78,485Z"/><path id="Path_2142" data-name="Path 2142" class="cls-29" d="M142.25,394.89a13.8,13.8,0,0,1,2.94-.26c1.69.11,3.48.61,4.25,1.7,1.3,1.85,2,4.86,4,12.65,3,11.48,14.53,58.21,20.6,82.91a71.21,71.21,0,0,1-12.6,2.53c-3.84-26.23-11.23-76.71-12.6-85.44-1.88-11.9-1.79-14.18-6.64-14.09Z"/><path id="Path_2143" data-name="Path 2143" class="cls-30" d="M126.4,428.88l6.53-19.05c2.07,1.38,7,2.45,12,2.45s10-1.07,12-2.45l6.54,19c-2.3,2.2-10.42,3.7-18.56,3.7S128.69,431.08,126.4,428.88Z"/><path id="Path_2144" data-name="Path 2144" class="cls-30" d="M145,473.16c-15.06,0-30.09-2.34-31.49-6.65l6.43-18.73c2.09,3.18,13.56,5.09,25.06,5.09s23-1.92,25-5.09l6.43,18.73C175,470.82,160,473.16,145,473.16Z"/><path id="Path_2145" data-name="Path 2145" class="cls-11" d="M155.3,452.38c1,6.72,2,13.6,3,20.17a72.06,72.06,0,0,0,10.63-1.75c-1.6-6.45-3.28-13.26-4.92-19.91A62.1,62.1,0,0,1,155.3,452.38Z"/><path id="Path_2146" data-name="Path 2146" class="cls-11" d="M149.31,412c.64,4.31,1.73,11.53,3,20.16A43.11,43.11,0,0,0,159,431c-2.08-8.4-3.87-15.49-5-19.86A26,26,0,0,1,149.31,412Z"/><path id="Path_2147" data-name="Path 2147" class="cls-11" d="M155.29,452.35c1,6.72,2,13.6,3,20.16a71.91,71.91,0,0,0,10.62-1.74c-1.6-6.46-3.28-13.27-4.92-19.92A60.55,60.55,0,0,1,155.29,452.35Z"/><g id="Group_1122" data-name="Group 1122"><path id="Path_2148" data-name="Path 2148" class="cls-28" d="M132.07,494.81c.64.05,1.28.11,1.93.15C133.35,494.92,132.71,494.86,132.07,494.81Z"/><path id="Path_2149" data-name="Path 2149" class="cls-28" d="M136.71,495.14c.66,0,1.32.07,2,.09C138,495.21,137.37,495.18,136.71,495.14Z"/><path id="Path_2150" data-name="Path 2150" class="cls-28" d="M134.22,495c.74.06,1.49.1,2.24.15C135.71,495.08,135,495,134.22,495Z"/><path id="Path_2151" data-name="Path 2151" class="cls-28" d="M127.47,494.31l2.07.25Z"/><path id="Path_2152" data-name="Path 2152" class="cls-28" d="M146.34,495.36c1.53,0,3.06-.05,4.58-.11C149.4,495.31,147.87,495.34,146.34,495.36Z"/><path id="Path_2153" data-name="Path 2153" class="cls-28" d="M139.11,495.25c1.51.06,3,.09,4.55.1C142.14,495.34,140.62,495.31,139.11,495.25Z"/><path id="Path_2154" data-name="Path 2154" class="cls-28" d="M151.28,495.23l2.19-.1Z"/><path id="Path_2155" data-name="Path 2155" class="cls-28" d="M153.51,495.12c.77,0,1.53-.09,2.3-.15C155,495,154.28,495.08,153.51,495.12Z"/><path id="Path_2156" data-name="Path 2156" class="cls-28" d="M125.43,494l1.65.23Z"/><path id="Path_2157" data-name="Path 2157" class="cls-28" d="M144,495.36h0Z"/><path id="Path_2158" data-name="Path 2158" class="cls-28" d="M117.49,492.39l1.65.42Z"/><path id="Path_2159" data-name="Path 2159" class="cls-28" d="M110.34,489.49q.5.31,1,.6Q110.84,489.8,110.34,489.49Z"/><path id="Path_2160" data-name="Path 2160" class="cls-28" d="M111.63,490.21c.31.16.63.32,1,.47C112.26,490.53,111.94,490.37,111.63,490.21Z"/><path id="Path_2161" data-name="Path 2161" class="cls-28" d="M108.62,488.14q.3.3.63.57Q108.92,488.44,108.62,488.14Z"/><path id="Path_2162" data-name="Path 2162" class="cls-28" d="M112.86,490.8c.42.18.85.36,1.31.53C113.71,491.16,113.28,491,112.86,490.8Z"/><path id="Path_2163" data-name="Path 2163" class="cls-28" d="M109.45,488.86q.39.3.84.6A9,9,0,0,1,109.45,488.86Z"/><path id="Path_2164" data-name="Path 2164" class="cls-28" d="M115.93,491.93l1.32.39Z"/><path id="Path_2165" data-name="Path 2165" class="cls-28" d="M156,495l2-.17Z"/><path id="Path_2166" data-name="Path 2166" class="cls-28" d="M119.41,492.87c.48.12,1,.23,1.48.33C120.38,493.1,119.89,493,119.41,492.87Z"/><path id="Path_2167" data-name="Path 2167" class="cls-28" d="M114.21,491.34c.44.17.9.32,1.38.48C115.11,491.66,114.65,491.51,114.21,491.34Z"/><path id="Path_2168" data-name="Path 2168" class="cls-28" d="M121.29,493.29c1.2.24,2.45.47,3.74.67C123.74,493.76,122.49,493.53,121.29,493.29Z"/><path id="Path_2169" data-name="Path 2169" class="cls-28" d="M129.58,494.56l2,.21C130.94,494.7,130.25,494.64,129.58,494.56Z"/><path id="Path_2170" data-name="Path 2170" class="cls-28" d="M162.86,494.25l1.83-.26Z"/><path id="Path_2171" data-name="Path 2171" class="cls-28" d="M107.51,486.59a4.53,4.53,0,0,0,.34.61A4.53,4.53,0,0,1,107.51,486.59Z"/><path id="Path_2172" data-name="Path 2172" class="cls-28" d="M107.43,486.41a3.94,3.94,0,0,1-.3-1.43c0,.22,0,.44.06.66A3.61,3.61,0,0,0,107.43,486.41Z"/><path id="Path_2173" data-name="Path 2173" class="cls-28" d="M107.93,487.32a6.64,6.64,0,0,0,.58.71A6.64,6.64,0,0,1,107.93,487.32Z"/><path id="Path_2174" data-name="Path 2174" class="cls-28" d="M158.32,494.76c1.45-.13,2.87-.29,4.25-.47C161.19,494.47,159.78,494.63,158.32,494.76Z"/><path id="Path_2175" data-name="Path 2175" class="cls-30" d="M126.4,428.88l6.53-19.05h0Z"/><path id="Path_2176" data-name="Path 2176" class="cls-31" d="M119.14,492.81l.27.06Z"/><path id="Path_2177" data-name="Path 2177" class="cls-31" d="M112.6,490.68l.26.12Z"/><path id="Path_2178" data-name="Path 2178" class="cls-31" d="M120.89,493.2l.4.09Z"/><path id="Path_2179" data-name="Path 2179" class="cls-31" d="M110.29,489.46l0,0Z"/><path id="Path_2180" data-name="Path 2180" class="cls-31" d="M108.51,488a.52.52,0,0,1,.11.1A.52.52,0,0,0,108.51,488Z"/><path id="Path_2181" data-name="Path 2181" class="cls-31" d="M109.25,488.71l.2.15Z"/><path id="Path_2182" data-name="Path 2182" class="cls-31" d="M114.17,491.33h0Z"/><path id="Path_2183" data-name="Path 2183" class="cls-31" d="M125,494l.4.06Z"/><path id="Path_2184" data-name="Path 2184" class="cls-31" d="M111.39,490.09l.24.12Z"/><path id="Path_2185" data-name="Path 2185" class="cls-31" d="M115.59,491.82l.35.11Z"/><path id="Path_2186" data-name="Path 2186" class="cls-31" d="M117.25,492.31l.24.07Z"/><path id="Path_2187" data-name="Path 2187" class="cls-31" d="M107.43,486.41a1.42,1.42,0,0,0,.08.18A1.42,1.42,0,0,1,107.43,486.41Z"/><path id="Path_2188" data-name="Path 2188" class="cls-31" d="M143.66,495.36h0Z"/><path id="Path_2189" data-name="Path 2189" class="cls-31" d="M146,495.36h0Z"/><path id="Path_2190" data-name="Path 2190" class="cls-31" d="M164.69,494l.22,0Z"/><path id="Path_2191" data-name="Path 2191" class="cls-31" d="M138.7,495.23l.41,0Z"/><path id="Path_2192" data-name="Path 2192" class="cls-31" d="M136.46,495.13h0Z"/><path id="Path_2193" data-name="Path 2193" class="cls-31" d="M153.47,495.13h0Z"/><path id="Path_2194" data-name="Path 2194" class="cls-31" d="M162.57,494.29l.29,0Z"/><path id="Path_2195" data-name="Path 2195" class="cls-31" d="M158,494.79l.31,0Z"/><path id="Path_2196" data-name="Path 2196" class="cls-31" d="M150.92,495.25l.36,0Z"/><path id="Path_2197" data-name="Path 2197" class="cls-31" d="M145,394.62h0a14,14,0,0,0-2.74.28A14,14,0,0,1,145,394.62Z"/><path id="Path_2198" data-name="Path 2198" class="cls-31" d="M129.55,494.56h0Z"/><path id="Path_2199" data-name="Path 2199" class="cls-31" d="M107.85,487.2l.08.13Z"/><path id="Path_2200" data-name="Path 2200" class="cls-31" d="M127.08,494.25l.39.06Z"/><path id="Path_2201" data-name="Path 2201" class="cls-31" d="M131.63,494.77l.44,0Z"/><path id="Path_2202" data-name="Path 2202" class="cls-31" d="M155.8,495h0Z"/><path id="Path_2203" data-name="Path 2203" class="cls-31" d="M134,495l.22,0Z"/><path id="Path_2204" data-name="Path 2204" class="cls-28" d="M138.08,400.75c-.29.93-1.4,4.7-3,10.08a9.57,9.57,0,0,1-2.18-1l3.86-11.22a4.76,4.76,0,0,1,2.7-2.89,15.32,15.32,0,0,1,2.73-.82,14,14,0,0,1,2.73-.28C142.19,394.62,139.42,396.44,138.08,400.75Z"/><path id="Path_2205" data-name="Path 2205" class="cls-31" d="M138.08,400.75c-.29.93-1.4,4.7-3,10.08a9.57,9.57,0,0,1-2.18-1l3.86-11.22a4.76,4.76,0,0,1,2.7-2.89,15.32,15.32,0,0,1,2.73-.82,14,14,0,0,1,2.73-.28C142.19,394.62,139.42,396.44,138.08,400.75Z"/><path id="Path_2206" data-name="Path 2206" class="cls-31" d="M126.4,428.87a8.44,8.44,0,0,0,3,1.6c-1.9,6.54-3.89,13.38-5.71,19.66a7.71,7.71,0,0,1-3.77-2.35l-6.43,18.74c.42,1.28,2.06,2.38,4.53,3.3-.66,2.32-1.1,3.88-1.22,4.35-.89,3.56-4.33,11.38,6.38,15.62,20.1,8,60.64.69,59.37-5.55h0l.25.73c0,3.66-5.3,6.36-13.08,8.08-1.42.29-2.45.47-2.75.55l-.16,0-1.73.29-.71.11-1.21.17-.68.1c-1.31.17-2.65.31-4,.44l-.76.07-1.22.1-.86.07-1.9.12-.85,0-1.26.06-.82,0c-1.43.06-2.86.09-4.3.1h-2.95c-1.43,0-2.85,0-4.26-.1l-.91,0-1.11-.06-1,0-1.84-.11-1-.08-1.09-.09-1-.09-1.15-.11-1.1-.12-1.48-.18-.89-.12-1-.15-.78-.12c-1.23-.19-2.42-.4-3.56-.64l-.67-.14-1-.22-.65-.15-1.47-.38-.54-.16-1-.29-.56-.17-1-.36-.34-.12c-.42-.16-.82-.32-1.21-.49l-.4-.18-.8-.38-.36-.19c-.34-.18-.67-.37-1-.56a1.53,1.53,0,0,0-.16-.11c-.26-.17-.5-.34-.73-.52l-.24-.2c-.2-.16-.4-.34-.58-.51l-.15-.15a6.22,6.22,0,0,1-.57-.68,1.4,1.4,0,0,0-.1-.16,4.83,4.83,0,0,1-.32-.59l-.09-.19a4.66,4.66,0,0,1-.23-.75v0c0-.2,0-.41,0-.62v0Z"/><path id="Path_2207" data-name="Path 2207" class="cls-30" d="M129.38,430.47a8.44,8.44,0,0,1-3-1.6l6.53-19a9.57,9.57,0,0,0,2.18,1C133.54,416.19,131.51,423.13,129.38,430.47Z"/><path id="Path_2208" data-name="Path 2208" class="cls-32" d="M129.38,430.47a8.44,8.44,0,0,1-3-1.6l6.53-19a9.57,9.57,0,0,0,2.18,1C133.54,416.19,131.51,423.13,129.38,430.47Z"/><path id="Path_2209" data-name="Path 2209" class="cls-30" d="M113.47,466.52l6.43-18.74a7.71,7.71,0,0,0,3.77,2.35c-2.35,8.13-4.42,15.3-5.67,19.69C115.53,468.9,113.89,467.8,113.47,466.52Z"/><path id="Path_2210" data-name="Path 2210" class="cls-32" d="M113.47,466.52l6.43-18.74a7.71,7.71,0,0,0,3.77,2.35c-2.35,8.13-4.42,15.3-5.67,19.69C115.53,468.9,113.89,467.8,113.47,466.52Z"/></g><path id="Path_2211" data-name="Path 2211" class="cls-33" d="M100.69,489.11c1.39-4,3.79-8.61,8-8.61L107.13,485c0,5.65,18.91,10.38,37.83,10.38s37.82-4.73,37.82-10.38l-1.54-4.48c4.19,0,6.59,4.65,8,8.61s-1.06,6.62-3.79,8.48c-4.94,3.37-16.89,7.51-40.48,7.51s-35.53-4.14-40.47-7.51C101.75,495.73,99.31,493.08,100.69,489.11Z"/><path id="Path_2212" data-name="Path 2212" class="cls-34" d="M100.69,489.11c.12-.33.25-.67.38-1-1.2,3.93,5.21,14.4,44,14.4,40.19,0,44.48-12.28,43.66-14.82.2.48.38,1,.54,1.43,1.39,4-1.06,6.62-3.79,8.48-4.94,3.37-16.89,7.51-40.48,7.51s-35.53-4.14-40.47-7.51C101.75,495.73,99.31,493.08,100.69,489.11Z"/><path id="Path_2213" data-name="Path 2213" class="cls-35" d="M108.67,480.5,107.13,485c0,5.65,18.91,10.38,37.83,10.38h0v9.74h0c-23.59,0-35.54-4.14-40.48-7.51-2.73-1.86-5.17-4.52-3.79-8.48S104.48,480.5,108.67,480.5Z"/></g><g id="Group_1125" data-name="Group 1125"><path id="Path_2214" data-name="Path 2214" class="cls-28" d="M82.49,586.14,52.84,499.78a4.75,4.75,0,0,0-2.71-2.89,14.1,14.1,0,0,0-10.93,0,4.74,4.74,0,0,0-2.7,2.89L6.85,586.14C6.84,600,82.49,600,82.49,586.14Z"/><path id="Path_2215" data-name="Path 2215" class="cls-29" d="M42,496.06a13.8,13.8,0,0,1,2.94-.26c1.69.11,3.48.61,4.25,1.7,1.3,1.84,2,4.85,4,12.64,3,11.48,14.52,58.21,20.6,82.92a71.39,71.39,0,0,1-12.6,2.53c-3.84-26.24-11.23-76.71-12.6-85.45-1.88-11.9-1.79-14.18-6.64-14.08Z"/><path id="Path_2216" data-name="Path 2216" class="cls-30" d="M26.1,530l6.54-19c2.06,1.37,7,2.45,12,2.45s10-1.08,12-2.46l6.54,19c-2.3,2.2-10.42,3.7-18.56,3.7S28.4,532.24,26.1,530Z"/><path id="Path_2217" data-name="Path 2217" class="cls-30" d="M44.66,574.32c-15,0-30.07-2.34-31.48-6.64L19.61,549c2.09,3.17,13.56,5.08,25,5.08s23-1.91,25.06-5.08l6.43,18.73C74.75,572,59.72,574.32,44.66,574.32Z"/><path id="Path_2218" data-name="Path 2218" class="cls-11" d="M55,553.55c1,6.72,2,13.6,3,20.16A72.26,72.26,0,0,0,68.6,572c-1.6-6.46-3.29-13.27-4.93-19.92A63.22,63.22,0,0,1,55,553.55Z"/><path id="Path_2219" data-name="Path 2219" class="cls-11" d="M49,513.16c.64,4.32,1.73,11.54,3,20.17a44.56,44.56,0,0,0,6.68-1.21c-2.08-8.4-3.87-15.5-5-19.87A25.13,25.13,0,0,1,49,513.16Z"/><path id="Path_2220" data-name="Path 2220" class="cls-11" d="M55,553.51c1,6.73,2,13.6,3,20.17a71.93,71.93,0,0,0,10.62-1.75C67,565.48,65.3,558.67,63.66,552A62,62,0,0,1,55,553.51Z"/><g id="Group_1124" data-name="Group 1124"><path id="Path_2221" data-name="Path 2221" class="cls-28" d="M31.78,596l1.93.16Z"/><path id="Path_2222" data-name="Path 2222" class="cls-28" d="M36.42,596.31l2,.1Z"/><path id="Path_2223" data-name="Path 2223" class="cls-28" d="M33.93,596.15l2.24.14Z"/><path id="Path_2224" data-name="Path 2224" class="cls-28" d="M27.18,595.47l2.07.25Z"/><path id="Path_2225" data-name="Path 2225" class="cls-28" d="M46.05,596.52c1.53,0,3.06,0,4.58-.11C49.12,596.47,47.58,596.51,46.05,596.52Z"/><path id="Path_2226" data-name="Path 2226" class="cls-28" d="M38.82,596.42c1.51.05,3,.09,4.55.1C41.85,596.51,40.33,596.48,38.82,596.42Z"/><path id="Path_2227" data-name="Path 2227" class="cls-28" d="M51,596.4l2.19-.1Z"/><path id="Path_2228" data-name="Path 2228" class="cls-28" d="M53.21,596.29c.77,0,1.54-.09,2.3-.15C54.75,596.2,54,596.25,53.21,596.29Z"/><path id="Path_2229" data-name="Path 2229" class="cls-28" d="M25.14,595.18c.54.09,1.09.16,1.65.24C26.23,595.34,25.68,595.27,25.14,595.18Z"/><path id="Path_2230" data-name="Path 2230" class="cls-28" d="M43.72,596.52h0Z"/><path id="Path_2231" data-name="Path 2231" class="cls-28" d="M17.19,593.55c.54.15,1.09.29,1.66.43C18.28,593.84,17.73,593.7,17.19,593.55Z"/><path id="Path_2232" data-name="Path 2232" class="cls-28" d="M10.05,590.66c.32.2.68.4,1,.6C10.73,591.06,10.37,590.86,10.05,590.66Z"/><path id="Path_2233" data-name="Path 2233" class="cls-28" d="M11.34,591.39l1,.46Z"/><path id="Path_2234" data-name="Path 2234" class="cls-28" d="M8.33,589.3a6.87,6.87,0,0,0,.63.58A6.87,6.87,0,0,1,8.33,589.3Z"/><path id="Path_2235" data-name="Path 2235" class="cls-28" d="M12.57,592c.42.18.85.36,1.31.53C13.42,592.32,13,592.14,12.57,592Z"/><path id="Path_2236" data-name="Path 2236" class="cls-28" d="M9.16,590c.26.2.54.4.84.59C9.7,590.43,9.42,590.23,9.16,590Z"/><path id="Path_2237" data-name="Path 2237" class="cls-28" d="M15.64,593.09l1.31.4Z"/><path id="Path_2238" data-name="Path 2238" class="cls-28" d="M55.72,596.12l2-.16Z"/><path id="Path_2239" data-name="Path 2239" class="cls-28" d="M19.12,594l1.48.33Z"/><path id="Path_2240" data-name="Path 2240" class="cls-28" d="M13.92,592.51c.44.16.9.32,1.38.47C14.82,592.83,14.36,592.67,13.92,592.51Z"/><path id="Path_2241" data-name="Path 2241" class="cls-28" d="M21,594.45c1.2.25,2.44.47,3.73.67C23.45,594.92,22.21,594.7,21,594.45Z"/><path id="Path_2242" data-name="Path 2242" class="cls-28" d="M29.29,595.73l2.05.2Z"/><path id="Path_2243" data-name="Path 2243" class="cls-28" d="M62.57,595.42l1.83-.27Z"/><path id="Path_2244" data-name="Path 2244" class="cls-28" d="M7.21,587.75a4.71,4.71,0,0,0,.35.62A4.71,4.71,0,0,1,7.21,587.75Z"/><path id="Path_2245" data-name="Path 2245" class="cls-28" d="M7.13,587.57a4.1,4.1,0,0,1-.29-1.43c0,.23,0,.44.06.67A3.93,3.93,0,0,0,7.13,587.57Z"/><path id="Path_2246" data-name="Path 2246" class="cls-28" d="M7.64,588.5a7.69,7.69,0,0,0,.58.7A7.69,7.69,0,0,1,7.64,588.5Z"/><path id="Path_2247" data-name="Path 2247" class="cls-28" d="M58,595.93c1.45-.14,2.87-.29,4.25-.48C60.9,595.64,59.48,595.79,58,595.93Z"/><path id="Path_2248" data-name="Path 2248" class="cls-30" d="M26.1,530l6.54-19h0Z"/><path id="Path_2249" data-name="Path 2249" class="cls-31" d="M18.85,594l.27.06Z"/><path id="Path_2250" data-name="Path 2250" class="cls-31" d="M12.3,591.85l.27.11Z"/><path id="Path_2251" data-name="Path 2251" class="cls-31" d="M20.6,594.37l.4.08Z"/><path id="Path_2252" data-name="Path 2252" class="cls-31" d="M10,590.62l.05,0Z"/><path id="Path_2253" data-name="Path 2253" class="cls-31" d="M8.22,589.2a.52.52,0,0,0,.11.1Z"/><path id="Path_2254" data-name="Path 2254" class="cls-31" d="M9,589.88l.2.15Z"/><path id="Path_2255" data-name="Path 2255" class="cls-31" d="M13.88,592.49l0,0Z"/><path id="Path_2256" data-name="Path 2256" class="cls-31" d="M24.75,595.13l.39.06Z"/><path id="Path_2257" data-name="Path 2257" class="cls-31" d="M11.1,591.26l.24.12Z"/><path id="Path_2258" data-name="Path 2258" class="cls-31" d="M15.3,593l.34.11Z"/><path id="Path_2259" data-name="Path 2259" class="cls-31" d="M17,593.48l.24.07Z"/><path id="Path_2260" data-name="Path 2260" class="cls-31" d="M7.13,587.57a1.42,1.42,0,0,1,.08.18A1.42,1.42,0,0,0,7.13,587.57Z"/><path id="Path_2261" data-name="Path 2261" class="cls-31" d="M43.37,596.52h0Z"/><path id="Path_2262" data-name="Path 2262" class="cls-31" d="M45.74,596.52h0Z"/><path id="Path_2263" data-name="Path 2263" class="cls-31" d="M64.4,595.15l.22,0Z"/><path id="Path_2264" data-name="Path 2264" class="cls-31" d="M38.41,596.4l.41,0Z"/><path id="Path_2265" data-name="Path 2265" class="cls-31" d="M36.17,596.29h0Z"/><path id="Path_2266" data-name="Path 2266" class="cls-31" d="M53.18,596.29h0Z"/><path id="Path_2267" data-name="Path 2267" class="cls-31" d="M62.28,595.45l.29,0Z"/><path id="Path_2268" data-name="Path 2268" class="cls-31" d="M57.71,596l.32,0Z"/><path id="Path_2269" data-name="Path 2269" class="cls-31" d="M50.63,596.41h0Z"/><path id="Path_2270" data-name="Path 2270" class="cls-31" d="M44.66,495.79h0a14,14,0,0,0-2.73.27A14,14,0,0,1,44.66,495.79Z"/><path id="Path_2271" data-name="Path 2271" class="cls-31" d="M29.25,595.72h0Z"/><path id="Path_2272" data-name="Path 2272" class="cls-31" d="M7.56,588.37l.08.13Z"/><path id="Path_2273" data-name="Path 2273" class="cls-31" d="M26.79,595.42l.39.05Z"/><path id="Path_2274" data-name="Path 2274" class="cls-31" d="M31.34,595.93l.44,0Z"/><path id="Path_2275" data-name="Path 2275" class="cls-31" d="M55.51,596.14l.2,0Z"/><path id="Path_2276" data-name="Path 2276" class="cls-31" d="M33.71,596.13l.22,0Z"/><path id="Path_2277" data-name="Path 2277" class="cls-28" d="M37.79,501.92c-.29.93-1.4,4.7-3,10.08a10.16,10.16,0,0,1-2.17-1l3.85-11.22a4.79,4.79,0,0,1,2.7-2.89,16.33,16.33,0,0,1,2.74-.83,13.89,13.89,0,0,1,2.73-.27C41.9,495.79,39.12,497.61,37.79,501.92Z"/><path id="Path_2278" data-name="Path 2278" class="cls-31" d="M37.79,501.92c-.29.93-1.4,4.7-3,10.08a10.16,10.16,0,0,1-2.17-1l3.85-11.22a4.79,4.79,0,0,1,2.7-2.89,16.33,16.33,0,0,1,2.74-.83,13.89,13.89,0,0,1,2.73-.27C41.9,495.79,39.12,497.61,37.79,501.92Z"/><path id="Path_2279" data-name="Path 2279" class="cls-31" d="M26.1,530a8.74,8.74,0,0,0,3,1.6c-1.9,6.54-3.89,13.37-5.71,19.66A7.79,7.79,0,0,1,19.61,549l-6.43,18.73c.42,1.28,2.06,2.38,4.53,3.3-.67,2.33-1.1,3.89-1.22,4.35-.89,3.57-4.33,11.39,6.38,15.63,20.1,8,60.64.68,59.37-5.55h0l.25.73c0,3.66-5.3,6.36-13.08,8.08-1.42.29-2.45.47-2.75.55l-.16,0-1.73.28-.71.11-1.22.18-.67.09q-2,.25-4,.45l-.76.07-1.22.1-.86.06-1.9.13-.85,0-1.26.06-.82,0c-1.43.05-2.86.08-4.3.1h-3c-1.43,0-2.85,0-4.26-.1l-.91,0L37,596.32l-1-.05c-.62,0-1.23-.07-1.84-.12l-1-.07L32.07,596l-1-.09-1.15-.11-1.1-.12-1.48-.18-.89-.12-1-.15-.78-.12c-1.23-.19-2.42-.4-3.56-.64l-.67-.13-1-.23-.65-.15-1.47-.38-.54-.16-1-.29-.56-.17-1-.36-.34-.12c-.42-.16-.82-.32-1.21-.49l-.4-.18-.8-.38-.36-.19c-.34-.18-.68-.37-1-.56a1.53,1.53,0,0,0-.16-.11c-.26-.17-.5-.34-.73-.51l-.25-.2c-.2-.17-.4-.35-.57-.52l-.15-.15a5.27,5.27,0,0,1-.57-.68s-.06-.1-.1-.16a5.6,5.6,0,0,1-.33-.59,1.19,1.19,0,0,1-.08-.2,3.74,3.74,0,0,1-.23-.74v0c0-.21-.06-.41-.06-.62v0Z"/><path id="Path_2280" data-name="Path 2280" class="cls-30" d="M29.09,531.64a8.74,8.74,0,0,1-3-1.6l6.54-19a10.16,10.16,0,0,0,2.17,1C33.25,517.35,31.22,524.3,29.09,531.64Z"/><path id="Path_2281" data-name="Path 2281" class="cls-32" d="M29.09,531.64a8.74,8.74,0,0,1-3-1.6l6.54-19a10.16,10.16,0,0,0,2.17,1C33.25,517.35,31.22,524.3,29.09,531.64Z"/><path id="Path_2282" data-name="Path 2282" class="cls-30" d="M13.18,567.68,19.61,549a7.79,7.79,0,0,0,3.77,2.35C21,559.43,19,566.6,17.71,571,15.24,570.06,13.6,569,13.18,567.68Z"/><path id="Path_2283" data-name="Path 2283" class="cls-32" d="M13.18,567.68,19.61,549a7.79,7.79,0,0,0,3.77,2.35C21,559.43,19,566.6,17.71,571,15.24,570.06,13.6,569,13.18,567.68Z"/></g><path id="Path_2284" data-name="Path 2284" class="cls-33" d="M.4,590.28c1.39-4,3.79-8.62,8-8.62l-1.54,4.48c0,5.65,18.91,10.39,37.82,10.39s37.83-4.74,37.83-10.39L81,581.66c4.19,0,6.59,4.65,8,8.62s-1.06,6.62-3.79,8.48c-4.94,3.37-16.89,7.51-40.48,7.51s-35.54-4.14-40.47-7.51C1.46,596.9-1,594.24.4,590.28Z"/><path id="Path_2285" data-name="Path 2285" class="cls-34" d="M.4,590.28c.12-.33.24-.67.37-1-1.2,3.93,5.22,14.4,44,14.4,40.19,0,44.48-12.28,43.66-14.82.19.48.37,1,.54,1.43,1.38,4-1.06,6.62-3.79,8.48-4.94,3.37-16.89,7.51-40.48,7.51s-35.54-4.14-40.47-7.51C1.46,596.9-1,594.24.4,590.28Z"/><path id="Path_2286" data-name="Path 2286" class="cls-35" d="M8.38,581.66l-1.54,4.48c0,5.65,18.91,10.39,37.82,10.39h0v9.74h0c-23.58,0-35.54-4.14-40.47-7.51C1.46,596.9-1,594.24.4,590.28S4.19,581.66,8.38,581.66Z"/></g><g id="Group_1139" data-name="Group 1139"><g id="Group_1138" data-name="Group 1138"><g id="Group_1128" data-name="Group 1128"><g id="Group_1126" data-name="Group 1126"><path id="Path_2287" data-name="Path 2287" class="cls-36" d="M517.1,674.38h13.06l-16.44-160.9H500.65Z"/></g><g id="Group_1127" data-name="Group 1127"><path id="Path_2288" data-name="Path 2288" class="cls-37" d="M497.16,674.38H484.09l16.45-160.9H513.6Z"/></g><path id="Path_2289" data-name="Path 2289" class="cls-38" d="M509.55,559.27h-13l.63-5.88h13Z"/><path id="Path_2290" data-name="Path 2290" class="cls-38" d="M503.88,615.2h-13l.62-5.89h13Z"/></g><g id="Group_1131" data-name="Group 1131"><g id="Group_1129" data-name="Group 1129"><path id="Path_2291" data-name="Path 2291" class="cls-36" d="M636.55,674.38H623.48l16.45-160.9H653Z"/></g><g id="Group_1130" data-name="Group 1130"><path id="Path_2292" data-name="Path 2292" class="cls-37" d="M656.36,674.38h13.07L653,513.48H639.92Z"/></g><path id="Path_2293" data-name="Path 2293" class="cls-38" d="M644.67,559.27h13l-.62-5.88h-13Z"/><path id="Path_2294" data-name="Path 2294" class="cls-38" d="M650.35,615.2h13l-.62-5.89h-13Z"/></g><g id="Group_1134" data-name="Group 1134"><rect id="Rectangle_1319" data-name="Rectangle 1319" class="cls-28" x="478.34" y="522.64" width="197.48" height="30.75"/><path id="Path_2295" data-name="Path 2295" class="cls-31" d="M482.47,549.26V522.64h-4.13v30.74H675.82v-4.12Z"/><path id="Path_2296" data-name="Path 2296" class="cls-30" d="M478.34,522.64v16.15l16.16-16.15Zm84.83,0-30.75,30.74h16.16l30.75-30.74Zm-42.41,0L490,553.38h16.15l30.75-30.74Zm84.83,0-30.75,30.74H591l30.74-30.74Zm54.08,30.74h16.15V537.24ZM648,522.64l-30.75,30.74H633.4l30.75-30.74Z"/><g id="Group_1132" data-name="Group 1132"><path id="Path_2297" data-name="Path 2297" class="cls-39" d="M494.13,549.26,490,553.39h16.15l4.13-4.13Z"/><path id="Path_2298" data-name="Path 2298" class="cls-39" d="M536.55,549.26l-4.13,4.13h16.16l4.12-4.13Z"/><path id="Path_2299" data-name="Path 2299" class="cls-39" d="M482.47,522.64h-4.13v16.15l4.13-4.12Z"/><path id="Path_2300" data-name="Path 2300" class="cls-39" d="M579,549.26l-4.13,4.13H591l4.13-4.13Z"/><path id="Path_2301" data-name="Path 2301" class="cls-39" d="M621.38,549.26l-4.13,4.13h16.16l4.12-4.13Z"/><path id="Path_2302" data-name="Path 2302" class="cls-39" d="M659.67,553.39h16.15v-4.13h-12Z"/></g><path id="Path_2303" data-name="Path 2303" class="cls-29" d="M478.34,522.64H675.82v30.75l-3.18-27.48Z"/><g id="Group_1133" data-name="Group 1133"><path id="Path_2304" data-name="Path 2304" class="cls-11" d="M619.36,525l2.38-2.38H605.59l-2.11,2.11Z"/><path id="Path_2305" data-name="Path 2305" class="cls-11" d="M577.65,524.31l1.67-1.67H563.17l-1.41,1.4Z"/><path id="Path_2306" data-name="Path 2306" class="cls-11" d="M661.08,525.72l3.08-3.08H648l-2.81,2.81Z"/><path id="Path_2307" data-name="Path 2307" class="cls-11" d="M674.15,538.91l1.67,14.47V537.24Z"/><path id="Path_2308" data-name="Path 2308" class="cls-11" d="M535.94,523.61l1-1H520.76l-.7.7Z"/><path id="Path_2309" data-name="Path 2309" class="cls-11" d="M494.5,522.64H478.34l15.89.27Z"/></g></g><g id="Group_1137" data-name="Group 1137"><rect id="Rectangle_1320" data-name="Rectangle 1320" class="cls-28" x="478.34" y="578.56" width="197.48" height="30.75"/><path id="Path_2310" data-name="Path 2310" class="cls-31" d="M482.47,605.18V578.56h-4.13v30.75H675.82v-4.13Z"/><path id="Path_2311" data-name="Path 2311" class="cls-30" d="M478.34,578.56v16.16l16.16-16.16Zm84.83,0-30.75,30.75h16.16l30.75-30.75Zm-42.41,0L490,609.31h16.15l30.75-30.75Zm84.83,0-30.75,30.75H591l30.74-30.75Zm54.08,30.75h16.15V593.16ZM648,578.56l-30.75,30.75H633.4l30.75-30.75Z"/><g id="Group_1135" data-name="Group 1135"><path id="Path_2312" data-name="Path 2312" class="cls-39" d="M494.13,605.19,490,609.31h16.15l4.13-4.12Z"/><path id="Path_2313" data-name="Path 2313" class="cls-39" d="M536.55,605.19l-4.13,4.12h16.16l4.12-4.12Z"/><path id="Path_2314" data-name="Path 2314" class="cls-39" d="M482.47,578.56h-4.13v16.16l4.13-4.13Z"/><path id="Path_2315" data-name="Path 2315" class="cls-39" d="M579,605.19l-4.13,4.12H591l4.13-4.12Z"/><path id="Path_2316" data-name="Path 2316" class="cls-39" d="M621.38,605.19l-4.13,4.12h16.16l4.12-4.12Z"/><path id="Path_2317" data-name="Path 2317" class="cls-39" d="M659.67,609.31h16.15v-4.12h-12Z"/></g><path id="Path_2318" data-name="Path 2318" class="cls-29" d="M478.34,578.56H675.82v30.75l-3.18-27.47Z"/><g id="Group_1136" data-name="Group 1136"><path id="Path_2319" data-name="Path 2319" class="cls-11" d="M619.36,580.94l2.38-2.38H605.59l-2.11,2.11Z"/><path id="Path_2320" data-name="Path 2320" class="cls-11" d="M577.65,580.24l1.67-1.67H563.17L561.76,580Z"/><path id="Path_2321" data-name="Path 2321" class="cls-11" d="M661.08,581.65l3.08-3.08H648l-2.81,2.81Z"/><path id="Path_2322" data-name="Path 2322" class="cls-11" d="M674.15,594.84l1.67,14.47V593.16Z"/><path id="Path_2323" data-name="Path 2323" class="cls-11" d="M535.94,579.54l1-1H520.76l-.7.7Z"/><path id="Path_2324" data-name="Path 2324" class="cls-11" d="M494.5,578.56H478.34l15.89.27Z"/></g></g></g></g><g id="Group_1141" data-name="Group 1141"><g id="Group_1140" data-name="Group 1140"><path id="Path_2325" data-name="Path 2325" class="cls-9" d="M1040,209.93V186.69l-21.36-2.34a54.9,54.9,0,0,0-5.77-13.89l13.45-16.77-16.43-16.44L993.1,150.71a55.05,55.05,0,0,0-13.89-5.77l-2.34-21.36H953.62l-2.34,21.36a55.05,55.05,0,0,0-13.89,5.77l-16.77-13.46-16.43,16.43,13.45,16.78a54.9,54.9,0,0,0-5.77,13.89l-21.35,2.34v23.24l21.35,2.34a54.9,54.9,0,0,0,5.77,13.89l-13.45,16.77,16.43,16.44,16.77-13.46a54.76,54.76,0,0,0,13.9,5.77L953.63,273h23.24l2.34-21.36a54.69,54.69,0,0,0,13.89-5.77l16.77,13.46,16.43-16.44-13.45-16.77a54.9,54.9,0,0,0,5.77-13.89Zm-74.73,24.25a35.87,35.87,0,1,1,35.87-35.87,35.87,35.87,0,0,1-35.87,35.87Z"/></g></g><g id="Group_1143" data-name="Group 1143"><g id="Group_1142" data-name="Group 1142"><path id="Path_2326" data-name="Path 2326" class="cls-9" d="M1113.48,309l-3.09-17.11-16,1.13a40.44,40.44,0,0,0-6.09-9.46l7.67-14.14-14.28-9.91-10.56,12.14a40.92,40.92,0,0,0-11-2.4l-4.57-15.41-17.1,3.1,1.11,16a41,41,0,0,0-9.45,6.1L1016,271.43,1006,285.72l12.14,10.55a41,41,0,0,0-2.4,11l-15.41,4.57,3.1,17.11,16-1.12a41.23,41.23,0,0,0,6.1,9.46l-7.67,14.14,14.28,9.91,10.55-12.15a41.07,41.07,0,0,0,11,2.4l4.56,15.41,17.11-3.09-1.12-16a40.69,40.69,0,0,0,9.46-6.1l14.14,7.68,9.9-14.29-12.14-10.55a40.7,40.7,0,0,0,2.4-11Zm-51.77,27.8a26.83,26.83,0,1,1,21.62-31.18h0A26.83,26.83,0,0,1,1061.71,336.84Z"/></g></g><path id="Path_2327" data-name="Path 2327" class="cls-40" d="M335.61,415.68,819.83,112.34a3.3,3.3,0,0,0-2.12-.8h-480a3.4,3.4,0,0,0-3.4,3.4h0V413.08A3.33,3.33,0,0,0,335.61,415.68Z"/><g id="Group_1161" data-name="Group 1161"><g id="Group_1147" data-name="Group 1147"><g id="Group_1144" data-name="Group 1144"><path id="Path_2328" data-name="Path 2328" class="cls-41" d="M214,460.11c1.49,1.46,3.9,10.87-.85,19.59-4.88,8.94-12.33,22-12.33,22l16,12.9c1.23,1,9-.81,8.85.15-.31,2-4.68,3.48-4.68,3.48l4.68,2.14s-3.7,5.53-8.72,5.78c0,0-23.71-17.71-24.69-19.55-1.28-2.41-1.91-4.66-.18-7.74C194.34,494.77,208.55,462.24,214,460.11Z"/></g><g id="Group_1145" data-name="Group 1145"><path id="Path_2329" data-name="Path 2329" class="cls-42" d="M207.93,489s-6.86.07-8.59-5.26l.88-1.79,9,4.67Z"/></g><g id="Group_1146" data-name="Group 1146"><path id="Path_2330" data-name="Path 2330" class="cls-43" d="M215.89,459.73c-.64-.6-4.24.18-6.57,3.56s-9.7,16.76-9.7,16.76.79,7.32,10.65,7.07c0,0,4.44-7.54,6-12.38S218,462.36,215.89,459.73Z"/></g></g><path id="Path_2331" data-name="Path 2331" class="cls-15" d="M189.25,645.85v8.6h27.12c6.6,0,11-.9,3.6-3.47s-18.88-5.13-18.88-5.13Z"/><path id="Path_2332" data-name="Path 2332" class="cls-15" d="M205,516.92a166.41,166.41,0,0,0-.89,26l-.29,41.25-14.58,61.64h11.84l21.2-58.34,7.32-67.25Z"/><path id="Path_2333" data-name="Path 2333" class="cls-44" d="M208.29,517.36s0,15.06,6.21,29.16l7.79,41,7.32-67.26Z"/><path id="Path_2334" data-name="Path 2334" class="cls-18" d="M240.72,521s4.36,54.45,3.9,56.77-3.17,68.07-3.17,68.07H229.61L227,585.42l-8.72-40.48c-7.48-10.72-10-26.73-10-26.73Z"/><path id="Path_2335" data-name="Path 2335" class="cls-18" d="M229.61,645.85v8.6h27.12c6.6,0,11-.9,3.6-3.47s-18.88-5.13-18.88-5.13Z"/><g id="Group_1151" data-name="Group 1151"><g id="Group_1148" data-name="Group 1148"><path id="Path_2336" data-name="Path 2336" class="cls-41" d="M255.73,504.07c2.22-2.93,2.7-10.3-1.18-21.58s-7.77-26.25-8.9-28.24-5.92-7.92-7.26-8.75-3.58,6.7-3.42,9.24,3.3,7.24,5.78,6.91l5.45,30.81Z"/></g><g id="Group_1149" data-name="Group 1149"><path id="Path_2337" data-name="Path 2337" class="cls-42" d="M235,454.74a9.52,9.52,0,0,0,2.08,4.6c4.76-.61,6-5.38,6.24-8.42a54.61,54.61,0,0,0-4.9-5.41C237.05,444.68,234.81,452.2,235,454.74Z"/></g><g id="Group_1150" data-name="Group 1150"><path id="Path_2338" data-name="Path 2338" class="cls-42" d="M244.61,483l1.59,9.48,6.58,2.22a111.32,111.32,0,0,0-4.08-11.36c-1.82-4.35-8-21.68-8-21.68Z"/></g></g><g id="Group_1152" data-name="Group 1152"><path id="Path_2339" data-name="Path 2339" class="cls-41" d="M220.32,448.24s-1.2,10.16-1.95,13.34c-.42,1.8-1.31,6.54-2.79,7.72,0,0,6.95,9.84,17.84,7.13s2.93-9.05,2.93-9.05l-5.94-4.9,1.45-9.31S231.87,445.37,220.32,448.24Z"/></g><g id="Group_1153" data-name="Group 1153"><path id="Path_2340" data-name="Path 2340" class="cls-42" d="M220,451.23c.23-1.74.37-3,.37-3,11.55-2.87,11.54,4.94,11.54,4.94l-.39,2.5C223.38,456.06,220,451.29,220,451.23Z"/></g><g id="Group_1154" data-name="Group 1154"><path id="Path_2341" data-name="Path 2341" class="cls-45" d="M218.86,459c-3.26-.64-11.13,3.25-11.13,11.09,0,8.17.9,16.44-.24,24.6-.91,6.55-2.86,16.23-3.19,24.75,0,0,3.27,3.33,16.2,4.55s21-2.67,21-2.67-.77-18,.1-29.94c1-13.67.7-19.87-4.4-24.67a19.45,19.45,0,0,0-6.8-4.22C220.92,464.72,218.86,459,218.86,459Z"/></g><g id="Group_1155" data-name="Group 1155"><path id="Path_2342" data-name="Path 2342" class="cls-41" d="M226.28,420.88c6.37-.85,12.07.24,14.24,8.1s2.19,14.86,1.51,18.67a9.25,9.25,0,0,1-5,6.3c-3.87,1.41-16.24.7-19.41-10C214,431.79,214.49,422.83,226.28,420.88Z"/></g><path id="Path_2343" data-name="Path 2343" class="cls-46" d="M215.74,434.91c1-.13,3.38,2,3.63,3.84a1.24,1.24,0,0,0,2.48,0,2.54,2.54,0,0,0,0-.29l-.89-6.64a12.1,12.1,0,0,0,4.06-6.4,16.32,16.32,0,0,0,12.36-2.11c6-3.91,6.47-7.84,5.63-9.61s-2.95,1.33-7.08,2.51a75.65,75.65,0,0,1-15.9,2.55c-4.28,0-5.76,5.11-5.76,5.11s-2.37.49-3.15,2.05-.3,11.14,4.6,19.47a56.89,56.89,0,0,1,4.39,8.54l.57-4.5a13.58,13.58,0,0,1-2.5-4Z"/><g id="Group_1156" data-name="Group 1156"><path id="Path_2344" data-name="Path 2344" class="cls-41" d="M219.36,438.74s-1-4.52-4.5-3.77-3.72,4-2.6,6.83c.81,2.06,4.56,5.19,7.34,2.87Z"/></g><g id="Group_1157" data-name="Group 1157"><path id="Path_2345" data-name="Path 2345" class="cls-42" d="M213.24,438.71a2.11,2.11,0,0,1,2.34-2.13,3.19,3.19,0,0,1,2.18,3.43,1.28,1.28,0,0,0-1.72.61,1.27,1.27,0,0,0,.61,1.71,1.21,1.21,0,0,0,.77.11,1.06,1.06,0,0,1-.54,1C216.28,443.75,212.94,442.28,213.24,438.71Z"/></g><g id="Group_1158" data-name="Group 1158"><path id="Path_2346" data-name="Path 2346" class="cls-47" d="M233.34,523.58c-18.17-3-23.49-14.39-23.49-14.39-.86-4.24,5.73,2.28,12.69.13,3.07-.82-5.67-5.59-9.4-13.07-2.71-5.44-4.71-9.1-5.08-11.8v1.18c0,.76,0,1.54-.05,2.39,0,.35,0,.71,0,1.07s0,.78-.07,1.17c0,.62-.08,1.24-.13,1.86-.08.9-.17,1.74-.28,2.5v.07c-.57,4.09-1.55,9.4-2.28,14.9-.44,3.3-.79,6.65-.91,9.84,0,0,3.26,3.34,16.2,4.56A49.74,49.74,0,0,0,233.34,523.58Z"/></g><path id="Path_2347" data-name="Path 2347" class="cls-46" d="M239.21,427.32s3.66-1.18,5-3.64.76-5,.3-5.19-3.4,2.88-8.3,2.22C236.2,420.71,232.29,425.08,239.21,427.32Z"/><g id="Group_1159" data-name="Group 1159"><path id="Path_2348" data-name="Path 2348" class="cls-41" d="M227.32,472.53c2.06-.62,11.76,1.85,17.29,10.46,5.68,8.83,8.08,10.53,10.91,16.63,2.67,5.75-3.77,10.21-10.14,2.32C240.11,495.41,226.59,478.46,227.32,472.53Z"/></g><g id="Group_1160" data-name="Group 1160"><path id="Path_2349" data-name="Path 2349" class="cls-43" d="M227.94,470.59c-.85.28-1.93,3.92,0,7.7s10.35,17,10.35,17,7,2.91,11.67-6.12c0,0-4.73-7.7-7.75-12C238.88,472.49,232.23,466.4,227.94,470.59Z"/></g></g><g id="Group_1176" data-name="Group 1176"><g id="Group_1165" data-name="Group 1165"><g id="Group_1162" data-name="Group 1162"><path id="Path_2350" data-name="Path 2350" class="cls-41" d="M951.66,484.48c-1.49,1.46-3.9,10.88.85,19.59,4.87,8.95,12.32,22,12.32,22l-16,12.9c-1.23,1-9-.81-8.85.16.32,2,4.69,3.47,4.69,3.47L940,544.75s3.7,5.52,8.73,5.78c0,0,23.7-17.71,24.68-19.55,1.28-2.42,1.92-4.66.18-7.74C971.26,519.14,957.05,486.62,951.66,484.48Z"/></g><g id="Group_1163" data-name="Group 1163"><path id="Path_2351" data-name="Path 2351" class="cls-42" d="M957.67,513.41s6.86.07,8.6-5.27l-.88-1.78-9,4.67Z"/></g><g id="Group_1164" data-name="Group 1164"><path id="Path_2352" data-name="Path 2352" class="cls-43" d="M949.71,484.1c.64-.6,4.24.19,6.57,3.56s9.7,16.76,9.7,16.76-.78,7.32-10.64,7.08c0,0-4.44-7.54-6-12.39S947.56,486.74,949.71,484.1Z"/></g></g><path id="Path_2353" data-name="Path 2353" class="cls-15" d="M993,648.08l3.8,7.45-23.44,12c-5.7,2.91-9.9,4.07-4.65-1.42s14.06-12.76,14.06-12.76Z"/><path id="Path_2354" data-name="Path 2354" class="cls-15" d="M959.25,535.06s8.44,10.68,1.23,26l1.57,34.46L993,648.08l-10.23,5.22-36-48.35L935.3,539.69Z"/><path id="Path_2355" data-name="Path 2355" class="cls-44" d="M959,536.82s7,13.71-6.55,28.54L946.76,605,935.3,539.7Z"/><path id="Path_2356" data-name="Path 2356" class="cls-18" d="M924.52,540.43s-4.23,52.83-3.78,55.08-4.37,66.06-4.37,66.06h11.48l10-58.64,10.43-37.29C964.13,551.92,959,536.82,959,536.82Z"/><path id="Path_2357" data-name="Path 2357" class="cls-18" d="M927.85,661.57v8.35H901.54c-6.4,0-10.67-.88-3.49-3.38s18.32-5,18.32-5Z"/><path id="Path_2358" data-name="Path 2358" class="cls-46" d="M937.28,447.79a9.21,9.21,0,0,0-9.43-1.85c-5.51,2.08-9.06,13.82-.48,19.58Z"/><g id="Group_1166" data-name="Group 1166"><path id="Path_2359" data-name="Path 2359" class="cls-41" d="M948.18,473.56a105.9,105.9,0,0,0,4,10.48c.87,1.69,2.94,6.21,4.71,7,0,0-4.49,11.56-16.06,11.56s-9-7.57-9-7.57l8.51-7.12s-3-9.28-3.11-8.37C937.23,479.57,935.92,473.56,948.18,473.56Z"/></g><g id="Group_1167" data-name="Group 1167"><path id="Path_2360" data-name="Path 2360" class="cls-42" d="M948.18,473.56l1.44,4.21s-3.74,6.5-10.73,5.81l-1.66-4a7.25,7.25,0,0,1,4.18-5C946.18,472.55,948.18,473.56,948.18,473.56Z"/></g><g id="Group_1168" data-name="Group 1168"><path id="Path_2361" data-name="Path 2361" class="cls-41" d="M939.09,450.81c-6.06-.57-9.24,1.6-10.8,6.63-1.75,7.53-2,14.44-1.23,18a8.75,8.75,0,0,0,5,5.78c3.72,1.18,15.4,0,18-10.22C953,459.37,950.33,452.2,939.09,450.81Z"/></g><g id="Group_1169" data-name="Group 1169"><path id="Path_2362" data-name="Path 2362" class="cls-45" d="M952.15,484c3.36-.67,6.07,1.94,7.89,7.29s1.62,9.71,0,13.79-6.56,13.13-7.41,14.59,7.52,16.52,7.52,16.52-8.19,7.43-17.08,9.19-18.65-4.25-18.65-4.25.27-10.15.87-21.46,2.28-28.62,9.11-30.84S952.15,484,952.15,484Z"/></g><g id="Group_1170" data-name="Group 1170"><path id="Path_2363" data-name="Path 2363" class="cls-47" d="M947.13,531.47c-1.74-5.4-8.83-5-6.29-8.09s8.47-6.12,9.14-9.38-1.33-5.56-5.76-10.52-2.44-16.78-2.44-16.78c5.36-1.46,10.37-2.66,10.37-2.66,3.35-.67,6.07,1.94,7.89,7.29s1.61,9.71,0,13.79-6.56,13.13-7.41,14.59,7.52,16.52,7.52,16.52-8.19,7.43-17.08,9.19a23,23,0,0,1-11.06-.93C945.31,547,948.87,536.87,947.13,531.47Z"/></g><path id="Path_2364" data-name="Path 2364" class="cls-46" d="M948.67,474.09l.17-8.4s-.83,4.3-2,4.51-3.27-.65-2.91-1.7,1.75-5.67,1.75-5.67-13.4-.67-13.26-12.94c0,0,7.45-5.16,13.47-3.12s10.77,9.09,7.28,20.27Z"/><path id="Path_2365" data-name="Path 2365" class="cls-46" d="M963.24,457.37a18.84,18.84,0,0,0,5.07,9.12c2.07,1.91,5.24,2.59,7.4,4.48a10.07,10.07,0,0,1,3.4,7.37,10.68,10.68,0,0,1-2.48,6.66c-1.28,1.69-3.43,3.11-3.72,5.37a13.84,13.84,0,0,0,.06,2.32c.29,6.36-6.19,11.28-12.12,10.76a13,13,0,0,1-8.89-4.79c-2.59-3.25-3.44-7.52-4-11.64a31.89,31.89,0,0,1-.38-7,39,39,0,0,1,1.07-6c1.11-4.27,2-7.93,1-12.25-.92-3.78-15.42-11-13.67-15,5.75-5.23,14-4.55,18.22-2.44C960,447.26,962,450.84,963.24,457.37Z"/><g id="Group_1171" data-name="Group 1171"><path id="Path_2366" data-name="Path 2366" class="cls-41" d="M947.91,467.57s1.24-4.33,4.62-3.37,3.3,4.17,2,6.84c-.93,1.94-4.71,4.7-7.26,2.26Z"/></g><g id="Group_1172" data-name="Group 1172"><path id="Path_2367" data-name="Path 2367" class="cls-42" d="M953.58,467.88a2,2,0,0,0-1.85-2.16,1.93,1.93,0,0,0-.34,0,3.11,3.11,0,0,0-2.25,3.25,1.26,1.26,0,1,1,1,2.31,1.29,1.29,0,0,1-.75.07,1,1,0,0,0,.48,1C950.44,472.67,953.74,471.37,953.58,467.88Z"/></g><g id="Group_1173" data-name="Group 1173"><path id="Path_2368" data-name="Path 2368" class="cls-41" d="M910.38,536.26c2.72-.27,4.94-1,6.54-4.13,2.13-4.2,21.38-34,20.17-39.69-2-.44-10.24,1.72-14.88,10.5-4.76,9-12.56,22.87-12.56,22.87L883.56,528c-2.21-.39-4.45-6.75-5.16-6.1-1.49,1.37.08,5.72.08,5.74a10.52,10.52,0,0,1-2.24.16,10.28,10.28,0,0,1-3.5-1.63,10.1,10.1,0,0,0-1.76-1,2.27,2.27,0,0,0-2,.06c-1.73,1.09-1.27,4.85-.56,6.36,3.6,7.64,15.64,5.19,22.43,5.11,5.92-.06,11.84-.1,17.75-.27C909.22,536.31,909.8,536.32,910.38,536.26Z"/></g><g id="Group_1174" data-name="Group 1174"><path id="Path_2369" data-name="Path 2369" class="cls-42" d="M925.43,517.75s-5.3,1-8.81-4.47l.86-1.58,9.29,3.74Z"/></g><g id="Group_1175" data-name="Group 1175"><path id="Path_2370" data-name="Path 2370" class="cls-43" d="M936.33,490.61c.86.2,2.2,3.63.67,7.44s-8.6,17.35-8.6,17.35-6.53,3.39-11.78-5c0,0,3.81-6.71,6.35-11.12C925.67,494.65,931,487.3,936.33,490.61Z"/></g></g><g id="Group_1179" data-name="Group 1179"><g id="Group_1178" data-name="Group 1178"><path id="Path_2371" data-name="Path 2371" class="cls-48" d="M634.7,504.1a11.68,11.68,0,1,1,11.68,11.69A11.68,11.68,0,0,1,634.7,504.1Z"/><g id="Group_1177" data-name="Group 1177" class="cls-49"><path id="Path_2372" data-name="Path 2372" class="cls-50" d="M638.75,504.1a7.64,7.64,0,1,1,7.63,7.64h0a7.64,7.64,0,0,1-7.63-7.64Z"/></g></g><circle id="Ellipse_58" data-name="Ellipse 58" class="cls-51" cx="646.92" cy="502.26" r="3.07"/><path id="Path_2373" data-name="Path 2373" class="cls-51" d="M650.05,506.41a1.08,1.08,0,1,1,1.08,1.08A1.08,1.08,0,0,1,650.05,506.41Z"/></g><g id="Group_1182" data-name="Group 1182"><g id="Group_1181" data-name="Group 1181"><path id="Path_2374" data-name="Path 2374" class="cls-48" d="M496.09,504.1a11.69,11.69,0,1,1,11.68,11.69,11.68,11.68,0,0,1-11.68-11.69Z"/><g id="Group_1180" data-name="Group 1180" class="cls-49"><path id="Path_2375" data-name="Path 2375" class="cls-50" d="M500.14,504.1a7.64,7.64,0,1,1,7.63,7.64h0a7.64,7.64,0,0,1-7.63-7.64Z"/></g></g><circle id="Ellipse_59" data-name="Ellipse 59" class="cls-51" cx="508.31" cy="502.26" r="3.07"/><path id="Path_2376" data-name="Path 2376" class="cls-51" d="M511.44,506.41a1.08,1.08,0,1,1,1.08,1.08h0A1.08,1.08,0,0,1,511.44,506.41Z"/></g></g></g></g></svg>