<?xml version="1.0" encoding="UTF-8"?>
<svg xmlns="http://www.w3.org/2000/svg" xmlns:xlink="http://www.w3.org/1999/xlink" width="869.25pt" height="809.999993pt" viewBox="0 0 869.25 809.999993" version="1.2">
<defs>
<clipPath id="clip1">
  <path d="M 29 0.347656 L 839 0.347656 L 839 809.648438 L 29 809.648438 Z M 29 0.347656 "/>
</clipPath>
<clipPath id="clip2">
  <path d="M 121 136 L 679 136 L 679 635 L 121 635 Z M 121 136 "/>
</clipPath>
<clipPath id="clip3">
  <path d="M 87.703125 168.988281 L 638.199219 116.183594 L 688.570312 641.316406 L 138.074219 694.121094 Z M 87.703125 168.988281 "/>
</clipPath>
<clipPath id="clip4">
  <path d="M 87.527344 167.15625 L 1867.316406 -3.558594 L 1917.972656 524.558594 L 138.183594 695.273438 Z M 87.527344 167.15625 "/>
</clipPath>
<clipPath id="clip5">
  <path d="M 87.527344 167.15625 L 1867.082031 -3.535156 L 1917.769531 524.898438 L 138.214844 695.589844 Z M 87.527344 167.15625 "/>
</clipPath>
<clipPath id="clip6">
  <path d="M 655 220 L 689 220 L 689 437 L 655 437 Z M 655 220 "/>
</clipPath>
<clipPath id="clip7">
  <path d="M 87.703125 168.988281 L 638.199219 116.183594 L 688.570312 641.316406 L 138.074219 694.121094 Z M 87.703125 168.988281 "/>
</clipPath>
<clipPath id="clip8">
  <path d="M 87.527344 167.15625 L 1867.316406 -3.558594 L 1917.972656 524.558594 L 138.183594 695.273438 Z M 87.527344 167.15625 "/>
</clipPath>
<clipPath id="clip9">
  <path d="M 87.527344 167.15625 L 1867.082031 -3.535156 L 1917.769531 524.898438 L 138.214844 695.589844 Z M 87.527344 167.15625 "/>
</clipPath>
<clipPath id="clip10">
  <path d="M 684 116 L 689 116 L 689 641 L 684 641 Z M 684 116 "/>
</clipPath>
<clipPath id="clip11">
  <path d="M 87.703125 168.988281 L 638.199219 116.183594 L 688.570312 641.316406 L 138.074219 694.121094 Z M 87.703125 168.988281 "/>
</clipPath>
<clipPath id="clip12">
  <path d="M 87.527344 167.15625 L 1867.316406 -3.558594 L 1917.972656 524.558594 L 138.183594 695.273438 Z M 87.527344 167.15625 "/>
</clipPath>
<clipPath id="clip13">
  <path d="M 87.527344 167.15625 L 1867.082031 -3.535156 L 1917.769531 524.898438 L 138.214844 695.589844 Z M 87.527344 167.15625 "/>
</clipPath>
</defs>
<g id="surface1">
<g clip-path="url(#clip1)" clip-rule="nonzero">
<path style=" stroke:none;fill-rule:nonzero;fill:rgb(100%,66.668701%,0%);fill-opacity:1;" d="M 434.25 0.347656 C 427.628906 0.347656 421.007812 0.511719 414.394531 0.835938 C 407.78125 1.160156 401.179688 1.648438 394.585938 2.296875 C 387.996094 2.945312 381.425781 3.757812 374.875 4.730469 C 368.324219 5.699219 361.800781 6.832031 355.308594 8.125 C 348.8125 9.417969 342.351562 10.867188 335.929688 12.476562 C 329.503906 14.085938 323.125 15.851562 316.785156 17.773438 C 310.449219 19.695312 304.164062 21.773438 297.925781 24.003906 C 291.691406 26.234375 285.515625 28.617188 279.398438 31.152344 C 273.277344 33.6875 267.226562 36.367188 261.238281 39.199219 C 255.253906 42.03125 249.339844 45.007812 243.5 48.128906 C 237.660156 51.25 231.898438 54.515625 226.21875 57.917969 C 220.539062 61.324219 214.945312 64.867188 209.4375 68.546875 C 203.933594 72.222656 198.519531 76.035156 193.199219 79.980469 C 187.882812 83.925781 182.660156 88 177.542969 92.199219 C 172.421875 96.402344 167.410156 100.726562 162.503906 105.171875 C 157.597656 109.621094 152.800781 114.1875 148.117188 118.867188 C 143.4375 123.550781 138.871094 128.347656 134.421875 133.253906 C 129.976562 138.160156 125.652344 143.171875 121.449219 148.292969 C 117.25 153.410156 113.175781 158.628906 109.230469 163.949219 C 105.285156 169.269531 101.476562 174.683594 97.796875 180.1875 C 94.117188 185.695312 90.574219 191.289062 87.167969 196.96875 C 83.765625 202.648438 80.5 208.410156 77.378906 214.25 C 74.257812 220.089844 71.28125 226.003906 68.449219 231.988281 C 65.617188 237.976562 62.9375 244.027344 60.402344 250.148438 C 57.867188 256.265625 55.484375 262.441406 53.253906 268.675781 C 51.023438 274.914062 48.945312 281.199219 47.023438 287.535156 C 45.101562 293.875 43.335938 300.253906 41.726562 306.679688 C 40.117188 313.101562 38.667969 319.5625 37.375 326.054688 C 36.082031 332.550781 34.949219 339.074219 33.980469 345.625 C 33.007812 352.175781 32.195312 358.746094 31.546875 365.335938 C 30.898438 371.929688 30.410156 378.53125 30.085938 385.144531 C 29.761719 391.757812 29.597656 398.378906 29.597656 405 C 29.597656 411.621094 29.761719 418.242188 30.085938 424.855469 C 30.410156 431.46875 30.898438 438.070312 31.546875 444.664062 C 32.195312 451.253906 33.007812 457.824219 33.980469 464.375 C 34.949219 470.925781 36.082031 477.449219 37.375 483.945312 C 38.667969 490.4375 40.117188 496.898438 41.726562 503.320312 C 43.335938 509.746094 45.101562 516.125 47.023438 522.464844 C 48.945312 528.800781 51.023438 535.085938 53.253906 541.324219 C 55.484375 547.558594 57.867188 553.734375 60.402344 559.851562 C 62.9375 565.972656 65.617188 572.023438 68.449219 578.011719 C 71.28125 583.996094 74.257812 589.910156 77.378906 595.75 C 80.5 601.589844 83.765625 607.351562 87.167969 613.03125 C 90.574219 618.710938 94.117188 624.304688 97.796875 629.8125 C 101.476562 635.316406 105.285156 640.730469 109.230469 646.050781 C 113.175781 651.371094 117.25 656.589844 121.449219 661.707031 C 125.652344 666.828125 129.976562 671.839844 134.421875 676.746094 C 138.871094 681.652344 143.4375 686.449219 148.117188 691.132812 C 152.800781 695.8125 157.597656 700.378906 162.503906 704.828125 C 167.410156 709.273438 172.421875 713.597656 177.542969 717.800781 C 182.660156 722 187.882812 726.074219 193.199219 730.019531 C 198.519531 733.964844 203.933594 737.777344 209.4375 741.453125 C 214.945312 745.132812 220.539062 748.675781 226.21875 752.082031 C 231.898438 755.484375 237.660156 758.75 243.5 761.871094 C 249.339844 764.992188 255.253906 767.96875 261.238281 770.800781 C 267.226562 773.632812 273.277344 776.3125 279.398438 778.847656 C 285.515625 781.382812 291.691406 783.765625 297.925781 785.996094 C 304.164062 788.226562 310.449219 790.304688 316.785156 792.226562 C 323.125 794.148438 329.503906 795.914062 335.929688 797.523438 C 342.351562 799.132812 348.8125 800.582031 355.308594 801.875 C 361.800781 803.167969 368.324219 804.300781 374.875 805.269531 C 381.425781 806.242188 387.996094 807.054688 394.585938 807.703125 C 401.179688 808.351562 407.78125 808.839844 414.394531 809.164062 C 421.007812 809.488281 427.628906 809.652344 434.25 809.652344 C 440.871094 809.652344 447.492188 809.488281 454.105469 809.164062 C 460.71875 808.839844 467.324219 808.351562 473.914062 807.703125 C 480.503906 807.054688 487.074219 806.242188 493.625 805.269531 C 500.175781 804.300781 506.699219 803.167969 513.195312 801.875 C 519.6875 800.582031 526.148438 799.132812 532.574219 797.523438 C 538.996094 795.914062 545.375 794.148438 551.714844 792.226562 C 558.050781 790.304688 564.335938 788.226562 570.574219 785.996094 C 576.808594 783.765625 582.984375 781.382812 589.101562 778.847656 C 595.222656 776.3125 601.273438 773.632812 607.261719 770.800781 C 613.246094 767.96875 619.160156 764.992188 625 761.871094 C 630.84375 758.75 636.601562 755.484375 642.28125 752.082031 C 647.960938 748.675781 653.554688 745.132812 659.0625 741.453125 C 664.570312 737.777344 669.980469 733.964844 675.300781 730.019531 C 680.621094 726.074219 685.839844 722 690.957031 717.800781 C 696.078125 713.597656 701.089844 709.273438 705.996094 704.828125 C 710.902344 700.378906 715.699219 695.8125 720.382812 691.132812 C 725.0625 686.449219 729.628906 681.652344 734.078125 676.746094 C 738.523438 671.839844 742.847656 666.828125 747.050781 661.707031 C 751.25 656.589844 755.324219 651.371094 759.269531 646.050781 C 763.214844 640.730469 767.027344 635.316406 770.707031 629.8125 C 774.382812 624.304688 777.925781 618.710938 781.332031 613.03125 C 784.734375 607.351562 788 601.589844 791.121094 595.75 C 794.242188 589.910156 797.21875 583.996094 800.050781 578.011719 C 802.882812 572.023438 805.566406 565.972656 808.097656 559.851562 C 810.632812 553.734375 813.015625 547.558594 815.246094 541.324219 C 817.476562 535.085938 819.554688 528.800781 821.476562 522.464844 C 823.398438 516.125 825.164062 509.746094 826.773438 503.320312 C 828.382812 496.898438 829.832031 490.4375 831.125 483.945312 C 832.417969 477.449219 833.550781 470.925781 834.519531 464.375 C 835.492188 457.824219 836.304688 451.253906 836.953125 444.664062 C 837.601562 438.070312 838.089844 431.46875 838.414062 424.855469 C 838.738281 418.242188 838.902344 411.621094 838.902344 405 C 838.902344 398.378906 838.738281 391.757812 838.414062 385.144531 C 838.089844 378.53125 837.601562 371.929688 836.953125 365.335938 C 836.304688 358.746094 835.492188 352.175781 834.519531 345.625 C 833.550781 339.074219 832.417969 332.550781 831.125 326.054688 C 829.832031 319.5625 828.382812 313.101562 826.773438 306.679688 C 825.164062 300.253906 823.398438 293.875 821.476562 287.535156 C 819.554688 281.199219 817.476562 274.914062 815.246094 268.675781 C 813.015625 262.441406 810.632812 256.265625 808.097656 250.148438 C 805.566406 244.027344 802.882812 237.976562 800.050781 231.988281 C 797.21875 226.003906 794.242188 220.089844 791.121094 214.25 C 788 208.410156 784.734375 202.648438 781.332031 196.96875 C 777.925781 191.289062 774.382812 185.695312 770.707031 180.1875 C 767.027344 174.683594 763.214844 169.269531 759.269531 163.949219 C 755.324219 158.628906 751.25 153.410156 747.050781 148.292969 C 742.847656 143.171875 738.523438 138.160156 734.078125 133.253906 C 729.628906 128.347656 725.0625 123.550781 720.382812 118.867188 C 715.699219 114.1875 710.902344 109.621094 705.996094 105.171875 C 701.089844 100.726562 696.078125 96.402344 690.957031 92.199219 C 685.839844 88 680.621094 83.925781 675.300781 79.980469 C 669.980469 76.035156 664.570312 72.222656 659.0625 68.546875 C 653.554688 64.867188 647.960938 61.324219 642.28125 57.917969 C 636.601562 54.515625 630.84375 51.25 625 48.128906 C 619.160156 45.007812 613.246094 42.03125 607.261719 39.199219 C 601.273438 36.367188 595.222656 33.6875 589.101562 31.152344 C 582.984375 28.617188 576.808594 26.234375 570.574219 24.003906 C 564.335938 21.773438 558.050781 19.695312 551.714844 17.773438 C 545.378906 15.851562 538.996094 14.085938 532.574219 12.476562 C 526.148438 10.867188 519.6875 9.417969 513.195312 8.125 C 506.699219 6.832031 500.175781 5.699219 493.625 4.730469 C 487.074219 3.757812 480.503906 2.945312 473.914062 2.296875 C 467.324219 1.648438 460.71875 1.160156 454.105469 0.835938 C 447.492188 0.511719 440.871094 0.347656 434.25 0.347656 Z M 434.25 0.347656 "/>
</g>
<g clip-path="url(#clip2)" clip-rule="nonzero">
<g clip-path="url(#clip3)" clip-rule="nonzero">
<g clip-path="url(#clip4)" clip-rule="nonzero">
<g clip-path="url(#clip5)" clip-rule="nonzero">
<path style=" stroke:none;fill-rule:nonzero;fill:rgb(10.198975%,9.799194%,31.369019%);fill-opacity:1;" d="M 405.839844 168.976562 C 406.207031 165.546875 406.019531 162.148438 405.269531 158.78125 C 404.519531 155.78125 403.8125 153.210938 403.070312 151.160156 L 403.097656 151.429688 C 402.671875 150.378906 402.308594 149.308594 402.003906 148.21875 C 401.707031 147.140625 401.601562 146.046875 401.6875 144.929688 C 401.730469 144.261719 401.867188 143.613281 402.09375 142.984375 C 402.320312 142.351562 402.628906 141.765625 403.023438 141.222656 C 403.414062 140.679688 403.875 140.203125 404.402344 139.789062 C 404.925781 139.378906 405.5 139.046875 406.121094 138.796875 C 408.96875 137.671875 411.910156 136.898438 414.941406 136.480469 C 422.53125 136.113281 429.988281 136.945312 437.308594 138.984375 C 442.726562 140.609375 447.464844 143.390625 451.523438 147.328125 C 456.152344 151.8125 459.910156 156.933594 462.800781 162.699219 C 466.148438 169.164062 469 175.84375 471.347656 182.734375 C 473.796875 189.867188 475.925781 197.085938 477.691406 204.449219 C 479.457031 211.8125 480.976562 218.601562 482.363281 224.859375 L 484.097656 231.871094 C 486.179688 242.273438 488.226562 253.6875 490.308594 266.050781 C 492.390625 278.414062 494.480469 291.15625 496.6875 304.242188 C 499.34375 320.992188 501.832031 336.378906 504.152344 350.402344 C 506.476562 364.429688 508.957031 376.878906 511.59375 387.757812 C 517.011719 372.375 523.664062 355.574219 531.546875 337.363281 C 539.429688 319.148438 547.628906 300.832031 556.144531 282.414062 C 564.730469 263.972656 573.09375 246.074219 581.242188 228.722656 C 589.390625 211.375 596.347656 195.804688 602.121094 182.019531 L 601.921875 179.917969 C 602.121094 177.769531 601.917969 175.65625 601.3125 173.585938 C 600.714844 171.875 600.160156 170.351562 599.675781 168.957031 C 599.402344 168.113281 599.167969 167.375 598.921875 166.773438 C 598.6875 166.042969 598.613281 165.296875 598.707031 164.535156 C 598.621094 164.039062 598.613281 163.539062 598.679688 163.039062 C 598.746094 162.539062 598.886719 162.058594 599.097656 161.601562 C 599.3125 161.140625 599.589844 160.726562 599.929688 160.351562 C 600.269531 159.980469 600.65625 159.667969 601.09375 159.414062 C 603.242188 158.261719 605.503906 157.417969 607.882812 156.886719 C 613.640625 155.515625 619.421875 155.40625 625.230469 156.554688 C 627.273438 156.992188 629.21875 157.699219 631.066406 158.667969 C 632.917969 159.640625 634.601562 160.84375 636.125 162.28125 C 638.847656 165.0625 640.707031 168.339844 641.707031 172.105469 C 642.800781 176.101562 643.363281 180.171875 643.394531 184.3125 C 643.503906 195.578125 643.035156 206.816406 641.988281 218.03125 C 640.867188 231.261719 639.316406 245.496094 637.339844 260.730469 C 635.363281 275.96875 633.152344 291.714844 630.710938 307.972656 C 628.308594 324.246094 625.894531 340.023438 623.46875 355.300781 C 620.898438 370.972656 618.746094 384.503906 617.015625 395.890625 C 615.285156 407.277344 613.902344 417.289062 612.863281 425.929688 C 611.816406 434.511719 611.097656 442.03125 610.652344 448.4375 C 610.207031 454.84375 609.980469 460.980469 610.027344 466.824219 C 610.070312 474.605469 610.675781 482.339844 611.84375 490.035156 C 612.839844 497.007812 614.847656 503.675781 617.863281 510.039062 C 620.601562 515.769531 624.476562 520.582031 629.484375 524.480469 C 632.195312 526.480469 635.128906 528.074219 638.28125 529.257812 C 641.4375 530.441406 644.691406 531.175781 648.046875 531.453125 C 649.414062 531.710938 650.78125 531.714844 652.148438 531.46875 C 653.816406 531.308594 655.621094 531.136719 657.53125 530.953125 L 664.5 530.285156 C 666.65625 530.050781 668.816406 530.023438 670.980469 530.207031 C 672.691406 530.304688 674.324219 530.71875 675.878906 531.449219 C 676.488281 531.734375 676.988281 532.15625 677.371094 532.714844 C 677.757812 533.269531 677.972656 533.886719 678.023438 534.5625 C 678.242188 536.84375 676.402344 539.738281 672.503906 543.25 C 660.691406 546.917969 648.613281 549.136719 636.269531 549.90625 C 622.695312 550.5 611.578125 548.464844 602.910156 543.804688 C 598.722656 541.613281 594.894531 538.902344 591.433594 535.675781 C 587.972656 532.453125 585 528.824219 582.515625 524.796875 C 577.324219 516.070312 573.863281 506.707031 572.136719 496.699219 C 570.105469 485.6875 569.085938 474.582031 569.078125 463.382812 C 568.980469 453.3125 569.375 443.179688 570.261719 432.976562 C 571.148438 422.777344 572.144531 413.382812 573.257812 404.792969 C 574.035156 398.164062 574.953125 391.035156 575.949219 383.027344 C 576.945312 375.019531 578.054688 367.027344 579.046875 358.691406 C 580.039062 350.359375 581.425781 341.902344 582.726562 333.351562 C 584.023438 324.796875 585.351562 316.59375 586.738281 308.683594 C 587.828125 301.644531 588.789062 295.246094 589.640625 289.371094 C 590.488281 283.5 591.257812 277.933594 592.148438 272.515625 C 593.042969 267.101562 593.671875 261.765625 594.320312 256.375 C 594.972656 250.980469 595.679688 245.367188 596.523438 239.441406 C 595.414062 242.566406 594.121094 245.816406 592.6875 249.242188 C 591.25 252.671875 589.402344 256.898438 587.148438 261.984375 C 584.894531 267.066406 582.15625 273.339844 578.871094 280.695312 C 575.582031 288.054688 571.484375 297.394531 566.554688 308.578125 C 561.628906 319.765625 555.769531 333.136719 549.058594 348.652344 C 542.347656 364.167969 534.402344 382.6875 525.292969 403.792969 L 525.269531 403.523438 C 525.058594 404.910156 524.746094 406.269531 524.332031 407.609375 C 523.921875 408.859375 523.601562 410.132812 523.367188 411.425781 C 522.371094 415.765625 520.820312 419.890625 518.714844 423.808594 C 517.550781 425.738281 516.074219 427.386719 514.28125 428.75 C 512.488281 430.117188 510.507812 431.101562 508.34375 431.710938 C 505.085938 432.914062 501.726562 433.371094 498.265625 433.085938 C 495.5 432.828125 492.9375 431.96875 490.578125 430.507812 C 488.378906 429.101562 486.535156 427.332031 485.042969 425.191406 C 483.480469 422.992188 482.230469 420.628906 481.296875 418.101562 C 478.183594 409.292969 475.601562 400.332031 473.558594 391.214844 C 471.019531 380.582031 468.574219 368.953125 466.222656 356.324219 C 463.871094 343.699219 461.664062 330.714844 459.605469 317.371094 C 457.429688 303.929688 455.386719 290.929688 453.476562 278.367188 L 449.605469 251.902344 L 442.644531 284.328125 C 440.445312 294.546875 438.273438 304.433594 436.207031 314.011719 C 432.761719 331.527344 429.382812 347.886719 426.058594 363.085938 C 422.738281 378.289062 419.132812 393.246094 415.242188 407.957031 C 410.113281 428.28125 404.125 448.425781 397.277344 468.386719 C 390.605469 487.929688 382.464844 506.839844 372.851562 525.113281 C 363.628906 542.734375 352.75 559.269531 340.222656 574.710938 C 327.992188 589.820312 313.753906 602.699219 297.5 613.34375 C 288.886719 619.121094 279.691406 623.730469 269.90625 627.164062 C 260.300781 630.542969 250.425781 632.722656 240.289062 633.703125 C 234.210938 634.289062 228.128906 634.441406 222.03125 634.148438 C 216.039062 633.84375 210.128906 632.988281 204.296875 631.582031 L 204.539062 631.558594 C 198.222656 630.316406 192.089844 628.460938 186.144531 625.988281 C 180.195312 623.511719 174.554688 620.472656 169.21875 616.863281 C 159.015625 609.863281 150.410156 601.261719 143.394531 591.0625 C 136.171875 580.4375 130.824219 568.941406 127.351562 556.574219 C 123.554688 543.164062 121.628906 529.488281 121.570312 515.550781 C 121.394531 504.863281 122.1875 494.246094 123.945312 483.699219 C 126.300781 469.089844 130.375 454.976562 136.175781 441.359375 C 141.75 427.945312 148.953125 415.46875 157.78125 403.9375 C 166.152344 393.066406 175.960938 383.703125 187.210938 375.855469 C 192.601562 372.0625 198.324219 368.859375 204.375 366.238281 C 210.425781 363.621094 216.679688 361.644531 223.132812 360.308594 C 228.621094 359.261719 234.140625 359.039062 239.695312 359.640625 C 245.246094 360.242188 250.59375 361.644531 255.730469 363.84375 C 260.292969 365.960938 264.511719 368.625 268.390625 371.832031 C 272.269531 375.042969 275.675781 378.691406 278.613281 382.777344 C 285.042969 391.789062 289.613281 401.667969 292.316406 412.40625 C 295.394531 424.011719 296.96875 435.8125 297.042969 447.820312 C 296.953125 450.546875 296.839844 453.601562 296.691406 456.609375 C 296.546875 459.613281 296.332031 462.488281 296.046875 465.179688 C 296.078125 466 295.980469 466.808594 295.765625 467.601562 C 295.589844 469.738281 295.367188 472.234375 295.019531 475.121094 C 294.695312 477.871094 294.15625 480.578125 293.410156 483.242188 C 292.761719 485.609375 291.777344 487.824219 290.464844 489.890625 C 289.972656 490.769531 289.304688 491.488281 288.46875 492.046875 C 287.632812 492.605469 286.714844 492.945312 285.71875 493.0625 C 282.792969 493.699219 280.800781 493.316406 279.765625 491.894531 C 279.242188 491.113281 278.871094 490.265625 278.648438 489.351562 C 278.425781 488.4375 278.363281 487.515625 278.46875 486.582031 C 278.359375 485.28125 278.414062 483.988281 278.640625 482.703125 C 278.859375 481.375 279.09375 480.15625 279.351562 479.046875 C 279.636719 478.261719 279.820312 477.457031 279.90625 476.625 C 279.980469 475.722656 280.054688 475.363281 280.070312 475.523438 C 280.769531 471.757812 281.347656 467.625 281.789062 463.148438 C 282.257812 458.613281 282.445312 454.0625 282.351562 449.5 C 282.164062 442.566406 281.503906 435.675781 280.371094 428.835938 C 279.375 422.433594 277.589844 416.257812 275.011719 410.3125 C 272.75 405.078125 269.484375 400.570312 265.214844 396.789062 C 263.121094 394.964844 260.78125 393.542969 258.203125 392.523438 C 255.621094 391.5 252.945312 390.9375 250.171875 390.835938 C 243.886719 389.859375 236.660156 391.976562 228.488281 397.183594 C 219.335938 403.242188 211.230469 410.484375 204.179688 418.902344 C 195.605469 428.875 188.050781 439.566406 181.519531 450.988281 C 174.492188 463.078125 168.839844 475.785156 164.566406 489.105469 C 162.695312 496.328125 161.277344 503.644531 160.316406 511.046875 C 159.328125 518.054688 158.761719 525.097656 158.625 532.175781 C 158.683594 542.167969 159.890625 552.023438 162.246094 561.738281 C 164.308594 570.523438 167.570312 578.839844 172.027344 586.683594 C 175.847656 593.488281 180.863281 599.253906 187.070312 603.976562 C 189.945312 606.136719 193.0625 607.871094 196.414062 609.175781 C 199.765625 610.476562 203.234375 611.304688 206.8125 611.65625 L 206.542969 611.679688 C 207.863281 611.710938 209.179688 611.667969 210.496094 611.546875 L 214.289062 611.183594 C 221.316406 610.53125 228.164062 609.042969 234.828125 606.71875 C 241.496094 604.398438 247.785156 601.308594 253.699219 597.449219 C 266.152344 589.265625 277.097656 579.40625 286.539062 567.871094 C 296.855469 555.324219 305.769531 541.855469 313.289062 527.453125 C 321.3125 512.363281 328.5 496.882812 334.847656 481.011719 C 341.09375 465.183594 346.582031 449.558594 351.3125 434.128906 C 356.039062 418.703125 360.113281 404.542969 363.527344 391.65625 C 365.621094 384.039062 368.164062 373.742188 371.15625 360.769531 C 374.144531 347.792969 377.261719 333.679688 380.507812 318.429688 C 383.710938 303.167969 386.847656 287.460938 389.914062 271.304688 C 392.980469 255.148438 395.738281 240.101562 398.183594 226.160156 C 400.644531 212.183594 402.621094 200.039062 404.109375 189.726562 C 405.21875 182.855469 405.792969 175.9375 405.839844 168.976562 Z M 405.839844 168.976562 "/>
</g>
</g>
</g>
</g>
<g clip-path="url(#clip6)" clip-rule="nonzero">
<g clip-path="url(#clip7)" clip-rule="nonzero">
<g clip-path="url(#clip8)" clip-rule="nonzero">
<g clip-path="url(#clip9)" clip-rule="nonzero">
<path style=" stroke:none;fill-rule:nonzero;fill:rgb(10.198975%,9.799194%,31.369019%);fill-opacity:1;" d="M 799.566406 349.558594 C 795.640625 358.4375 791.230469 367.761719 786.339844 377.527344 C 781.515625 387.183594 775.699219 396.199219 768.894531 404.570312 C 762.136719 412.898438 754.242188 419.945312 745.210938 425.714844 C 740.371094 428.722656 735.246094 431.113281 729.835938 432.886719 C 724.421875 434.660156 718.878906 435.769531 713.199219 436.207031 C 709.140625 436.726562 705.085938 436.683594 701.039062 436.078125 C 696.992188 435.476562 693.101562 434.332031 689.371094 432.648438 C 686.019531 431.050781 682.90625 429.082031 680.03125 426.730469 C 677.15625 424.378906 674.601562 421.722656 672.371094 418.75 C 667.585938 412.269531 664.035156 405.171875 661.722656 397.449219 C 659.085938 388.988281 657.351562 380.34375 656.519531 371.519531 L 655.875 364.808594 C 655.667969 362.46875 655.621094 360.125 655.746094 357.78125 L 655.773438 358.101562 C 655.714844 347.90625 656.507812 337.78125 658.15625 327.71875 C 659.84375 317.410156 662.292969 307.285156 665.503906 297.347656 C 668.613281 287.570312 672.535156 278.132812 677.261719 269.03125 C 681.65625 260.527344 686.957031 252.632812 693.152344 245.34375 C 698.78125 238.65625 705.320312 233.027344 712.765625 228.453125 C 716.214844 226.328125 719.855469 224.625 723.695312 223.339844 C 727.53125 222.050781 731.464844 221.21875 735.496094 220.835938 C 739.085938 220.425781 742.667969 220.480469 746.246094 220.992188 C 749.824219 221.507812 753.28125 222.464844 756.613281 223.867188 C 762.917969 226.539062 768.417969 230.371094 773.109375 235.363281 C 777.832031 240.4375 781.480469 246.199219 784.050781 252.640625 C 786.710938 259.195312 788.207031 266.003906 788.535156 273.066406 C 788.472656 278.019531 787.769531 282.878906 786.425781 287.648438 C 785.085938 292.414062 783.148438 296.925781 780.617188 301.179688 C 775.339844 310.128906 768.863281 318.101562 761.1875 325.097656 C 753.34375 332.246094 744.773438 338.378906 735.476562 343.496094 C 726.820312 348.34375 717.78125 352.3125 708.351562 355.398438 C 707.941406 358.457031 707.671875 361.582031 707.515625 364.777344 C 707.359375 367.972656 707.304688 371.351562 707.316406 374.886719 C 707.269531 376.34375 707.316406 377.796875 707.464844 379.25 L 707.878906 383.585938 C 708.226562 387.351562 708.890625 391.058594 709.871094 394.707031 C 710.746094 398.082031 712.152344 401.21875 714.085938 404.117188 C 715.949219 406.898438 718.367188 409.058594 721.332031 410.601562 C 724.75 412.28125 728.363281 413.039062 732.167969 412.878906 C 735.53125 412.4375 738.765625 411.527344 741.867188 410.148438 C 744.96875 408.765625 747.8125 406.972656 750.394531 404.769531 C 756.234375 399.949219 761.375 394.46875 765.816406 388.335938 C 770.460938 381.914062 774.585938 375.175781 778.183594 368.113281 C 781.84375 360.964844 785.0625 354.410156 787.839844 348.453125 L 787.863281 348.722656 C 791.375 340.972656 794.582031 333.359375 797.484375 325.882812 C 800.386719 318.410156 803.0625 311.644531 805.503906 305.589844 L 809.355469 296.195312 C 810.78125 292.6875 812.09375 289.652344 813.257812 287.066406 C 814.453125 286.320312 815.730469 285.753906 817.085938 285.367188 C 817.785156 285.265625 818.476562 285.308594 819.160156 285.496094 C 819.839844 285.679688 820.460938 285.992188 821.015625 286.429688 C 822.144531 287.378906 823.089844 288.484375 823.859375 289.746094 L 821.722656 295.796875 C 819.171875 302.605469 816.015625 310.746094 812.257812 320.226562 C 808.496094 329.703125 804.265625 339.480469 799.566406 349.558594 Z M 770.246094 256.738281 C 767.117188 251.890625 763.71875 249.652344 760.042969 250.023438 C 758.050781 250.382812 756.171875 251.058594 754.40625 252.046875 C 752.640625 253.035156 751.085938 254.285156 749.738281 255.796875 C 745.652344 259.875 742.101562 264.375 739.085938 269.300781 C 735.394531 275.195312 732.03125 281.273438 728.996094 287.535156 C 725.753906 294.207031 722.890625 300.871094 720.445312 307.386719 C 718.003906 313.902344 715.84375 320.28125 714.105469 326.214844 C 712.550781 330.964844 711.375 335.808594 710.585938 340.746094 C 717.605469 339.054688 724.292969 336.492188 730.648438 333.054688 C 738.390625 329.042969 745.574219 324.195312 752.195312 318.507812 C 758.867188 312.878906 764.578125 306.402344 769.335938 299.082031 C 771.578125 295.71875 773.285156 292.105469 774.453125 288.238281 C 775.621094 284.367188 776.203125 280.414062 776.199219 276.371094 C 776.167969 272.882812 775.644531 269.464844 774.628906 266.128906 C 773.617188 262.789062 772.15625 259.660156 770.246094 256.738281 Z M 770.246094 256.738281 "/>
</g>
</g>
</g>
</g>
<g clip-path="url(#clip10)" clip-rule="nonzero">
<g clip-path="url(#clip11)" clip-rule="nonzero">
<g clip-path="url(#clip12)" clip-rule="nonzero">
<g clip-path="url(#clip13)" clip-rule="nonzero">
<path style=" stroke:none;fill-rule:nonzero;fill:rgb(10.198975%,9.799194%,31.369019%);fill-opacity:1;" d="M 1679.140625 465.238281 C 1670.207031 466.171875 1661.390625 465.515625 1652.695312 463.261719 C 1648.542969 462.167969 1644.5625 460.644531 1640.746094 458.679688 C 1636.929688 456.714844 1633.375 454.359375 1630.074219 451.617188 C 1622.945312 445.574219 1617.304688 438.367188 1613.144531 429.992188 C 1608.226562 419.882812 1605.261719 409.226562 1604.242188 398.027344 C 1590.0625 395.480469 1575.769531 393.957031 1561.371094 393.449219 C 1546.972656 392.945312 1532.613281 393.464844 1518.289062 395.011719 C 1505.132812 396.277344 955.890625 482.730469 941.90625 485.242188 C 927.917969 487.75 913.5 490.847656 898.621094 494.558594 C 878.203125 499.644531 858.222656 506.09375 838.679688 513.902344 C 819.964844 521.355469 802.148438 530.550781 785.230469 541.488281 C 769.46875 551.652344 755.332031 563.722656 742.816406 577.699219 C 736.914062 584.261719 731.703125 591.332031 727.1875 598.917969 C 722.671875 606.503906 718.929688 614.453125 715.972656 622.773438 C 715.816406 623.140625 715.648438 623.648438 715.4375 624.292969 C 715.242188 624.878906 715.082031 625.472656 714.957031 626.078125 C 714.1875 628.960938 713.21875 631.773438 712.046875 634.515625 C 711.789062 635.238281 711.441406 635.914062 711.007812 636.542969 C 710.574219 637.175781 710.066406 637.738281 709.488281 638.238281 C 708.90625 638.738281 708.273438 639.152344 707.582031 639.488281 C 706.894531 639.820312 706.175781 640.0625 705.425781 640.207031 C 704.488281 640.207031 703.5625 640.085938 702.65625 639.851562 C 701.746094 639.613281 700.882812 639.269531 700.0625 638.8125 C 699.242188 638.355469 698.492188 637.804688 697.8125 637.15625 C 697.132812 636.507812 696.542969 635.789062 696.046875 634.988281 C 693.164062 631.105469 690.859375 626.902344 689.132812 622.382812 C 686.738281 616.730469 685.269531 610.84375 684.726562 604.722656 C 684.023438 597.34375 684.515625 590.046875 686.210938 582.828125 C 687.929688 575.382812 690.472656 568.234375 693.84375 561.375 C 697.316406 554.273438 701.394531 547.535156 706.078125 541.167969 C 710.671875 534.855469 715.726562 528.929688 721.238281 523.402344 C 731.386719 514.375 742.402344 506.585938 754.292969 500.027344 C 767.429688 492.726562 781.011719 486.375 795.039062 480.972656 C 809.957031 475.21875 825.128906 470.230469 840.546875 466.003906 C 856.3125 461.644531 872.011719 457.917969 887.644531 454.824219 C 895.953125 453.15625 904.375 451.777344 912.824219 450.695312 C 921.273438 449.613281 929.492188 448.6875 937.375 447.933594 C 961.589844 445.609375 1520.53125 360.644531 1542.976562 362.21875 C 1564.449219 363.589844 1585.359375 367.78125 1605.707031 374.800781 C 1606.953125 358.367188 1608.753906 342.964844 1611.105469 328.601562 C 1613.457031 314.234375 1616.046875 300.65625 1618.871094 287.859375 C 1621.703125 275.097656 1624.710938 263.160156 1627.902344 252.050781 C 1631.089844 240.941406 1634.066406 230.566406 1636.835938 220.929688 C 1637.878906 217.105469 1638.824219 213.34375 1639.875 209.597656 C 1640.929688 205.855469 1641.875 202.121094 1643.160156 198.269531 L 1638.828125 198.6875 C 1637.550781 198.816406 1636.265625 198.847656 1634.984375 198.785156 C 1633.582031 198.917969 1631.914062 199.078125 1629.976562 199.265625 C 1628.042969 199.449219 1626.378906 199.390625 1624.964844 199.363281 L 1610.632812 238.179688 C 1606.890625 237.667969 1604.277344 237.324219 1602.855469 237.214844 C 1601.554688 237.097656 1600.285156 236.820312 1599.054688 236.382812 C 1601.445312 229.953125 1603.894531 223.691406 1606.402344 217.59375 C 1608.914062 211.5 1611.386719 205.371094 1613.816406 199.210938 C 1610.976562 199.402344 1608.15625 199.25 1605.355469 198.753906 C 1602.550781 198.261719 1599.847656 197.4375 1597.246094 196.285156 C 1592.605469 194.195312 1588.695312 191.160156 1585.511719 187.1875 C 1582.394531 183.144531 1580.15625 178.667969 1578.792969 173.746094 C 1577.316406 168.5625 1576.582031 163.277344 1576.59375 157.886719 C 1576.589844 151.613281 1577.464844 145.464844 1579.222656 139.445312 C 1580.992188 133.230469 1583.726562 127.476562 1587.421875 122.179688 C 1590.929688 117.019531 1595.246094 112.664062 1600.371094 109.109375 C 1602.980469 107.335938 1605.777344 105.921875 1608.753906 104.871094 C 1611.730469 103.820312 1614.792969 103.167969 1617.9375 102.910156 C 1625.285156 102.207031 1630.914062 104.003906 1634.75 108.339844 C 1638.589844 112.675781 1640.710938 119.242188 1641.011719 128.050781 C 1640.886719 132.761719 1640.496094 137.449219 1639.835938 142.113281 C 1639.167969 147.046875 1638.382812 151.878906 1637.503906 156.558594 C 1636.621094 161.238281 1635.65625 165.601562 1634.652344 169.585938 C 1633.648438 173.570312 1632.796875 176.832031 1632.144531 179.398438 C 1631.875 179.804688 1631.738281 180.253906 1631.730469 180.742188 C 1631.730469 181.3125 1631.613281 181.859375 1631.371094 182.378906 C 1633.628906 182.554688 1635.886719 182.601562 1638.144531 182.519531 C 1640.695312 182.464844 1643.203125 182.304688 1645.652344 182.070312 C 1647.078125 181.933594 1648.503906 181.796875 1650.011719 181.652344 C 1651.515625 181.507812 1653.011719 181.230469 1654.597656 181.078125 C 1656.183594 180.925781 1657.289062 180.820312 1658.796875 180.675781 C 1660.300781 180.53125 1661.484375 180.417969 1662.75 180.296875 C 1665.898438 179.992188 1668.777344 179.71875 1671.449219 179.839844 C 1673.925781 179.824219 1676.347656 180.171875 1678.71875 180.882812 C 1683.261719 182.40625 1685.90625 186.746094 1686.59375 193.941406 C 1686.96875 198.90625 1686.734375 203.839844 1685.898438 208.746094 C 1685.027344 214.414062 1683.902344 220.230469 1682.519531 226.199219 C 1681.136719 232.171875 1679.566406 237.949219 1677.804688 243.539062 C 1676.046875 249.398438 1674.503906 254.503906 1673.164062 258.859375 C 1672.617188 260.515625 1672.003906 262.339844 1671.3125 264.472656 C 1670.683594 266.308594 1670.15625 268.171875 1669.730469 270.0625 C 1667.304688 279.867188 1664.824219 289.976562 1662.296875 300.386719 C 1659.765625 310.800781 1657.355469 321.171875 1655.070312 331.507812 C 1652.765625 341.828125 1650.765625 351.933594 1649.074219 361.832031 C 1647.378906 371.726562 1646.074219 381.152344 1645.160156 390.105469 C 1649.480469 392.699219 1653.402344 395.242188 1656.914062 397.730469 C 1660.582031 400.378906 1664.078125 403.234375 1667.402344 406.296875 C 1667.074219 403.886719 1666.941406 401.46875 1667.003906 399.039062 C 1667.0625 396.605469 1667.316406 394.195312 1667.761719 391.804688 C 1668.210938 389.417969 1668.84375 387.078125 1669.664062 384.789062 C 1670.488281 382.503906 1671.484375 380.292969 1672.660156 378.167969 C 1674.789062 374.46875 1677.40625 371.15625 1680.515625 368.238281 C 1683.628906 365.316406 1687.09375 362.914062 1690.917969 361.027344 C 1696.871094 358.078125 1703.148438 356.234375 1709.746094 355.496094 C 1715.699219 354.832031 1721.507812 355.46875 1727.171875 357.414062 C 1732.347656 359.175781 1736.988281 361.867188 1741.089844 365.484375 C 1745.113281 369.167969 1748.3125 373.464844 1750.6875 378.378906 C 1753.144531 383.503906 1754.628906 388.902344 1755.144531 394.5625 C 1755.675781 400.972656 1754.863281 407.207031 1752.703125 413.261719 C 1750.234375 420.222656 1746.644531 426.539062 1741.921875 432.214844 C 1736.417969 438.859375 1730.066406 444.5625 1722.875 449.324219 C 1714.371094 454.917969 1705.261719 459.246094 1695.554688 462.304688 C 1692.898438 462.910156 1690.238281 463.464844 1687.382812 464.011719 C 1684.53125 464.558594 1681.777344 464.984375 1679.140625 465.238281 Z M 1609.109375 169.371094 C 1608.949219 172.296875 1609.609375 175.023438 1611.089844 177.554688 C 1611.941406 178.691406 1612.992188 179.605469 1614.234375 180.292969 C 1615.480469 180.976562 1616.8125 181.378906 1618.226562 181.492188 C 1618.773438 179.835938 1619.632812 177.199219 1620.777344 173.554688 C 1621.921875 169.910156 1623.109375 165.851562 1624.253906 161.390625 C 1625.402344 156.929688 1626.410156 152.457031 1627.226562 147.945312 C 1627.960938 144.042969 1628.371094 140.105469 1628.457031 136.136719 C 1628.292969 132.453125 1627.777344 130.761719 1626.890625 130.847656 C 1625.492188 130.980469 1623.777344 132.34375 1621.71875 134.933594 C 1619.414062 137.957031 1617.472656 141.199219 1615.886719 144.65625 C 1613.988281 148.722656 1612.398438 152.910156 1611.121094 157.214844 C 1609.859375 161.167969 1609.1875 165.21875 1609.109375 169.371094 Z M 1674.359375 434.074219 C 1672.074219 429.5625 1669.121094 425.550781 1665.492188 422.035156 C 1659.660156 416.566406 1653.058594 412.285156 1645.6875 409.195312 C 1646.738281 414.464844 1648.25 419.59375 1650.234375 424.585938 C 1652.113281 429.46875 1654.746094 433.902344 1658.132812 437.886719 C 1661.34375 441.679688 1665.242188 444.542969 1669.816406 446.472656 C 1672.285156 447.429688 1674.835938 447.964844 1677.480469 448.074219 C 1680.121094 448.183594 1682.710938 447.863281 1685.246094 447.113281 C 1692.199219 445.738281 1698.570312 443.003906 1704.363281 438.917969 C 1709.464844 435.242188 1713.773438 430.796875 1717.285156 425.578125 C 1720.535156 420.75 1722.902344 415.519531 1724.386719 409.886719 C 1725.796875 404.789062 1726.277344 399.601562 1725.828125 394.332031 C 1725.660156 391.644531 1725.089844 389.046875 1724.121094 386.539062 C 1723.152344 384.027344 1721.832031 381.722656 1720.152344 379.621094 C 1719.292969 378.640625 1718.324219 377.785156 1717.242188 377.054688 C 1716.160156 376.328125 1715.003906 375.746094 1713.773438 375.316406 C 1712.542969 374.886719 1711.277344 374.621094 1709.980469 374.519531 C 1708.679688 374.417969 1707.390625 374.480469 1706.105469 374.714844 C 1704.828125 374.847656 1703.5625 375.058594 1702.3125 375.351562 C 1700.757812 375.683594 1699.257812 376.179688 1697.8125 376.84375 C 1694.753906 378.113281 1692.058594 379.921875 1689.726562 382.269531 C 1687.140625 384.808594 1684.980469 387.671875 1683.246094 390.855469 C 1681.335938 394.398438 1679.984375 398.140625 1679.1875 402.085938 C 1678.390625 406.03125 1678.183594 410.003906 1678.570312 414.007812 C 1679.191406 419.667969 1680.851562 425 1683.550781 430.007812 L 1683.285156 429.761719 C 1684.519531 431.601562 1684.875 433.035156 1684.347656 434.039062 C 1683.511719 435.410156 1682.425781 436.539062 1681.085938 437.425781 C 1680.792969 437.636719 1680.472656 437.804688 1680.125 437.921875 C 1679.78125 438.039062 1679.425781 438.101562 1679.0625 438.113281 C 1678.695312 438.121094 1678.339844 438.078125 1677.988281 437.984375 C 1677.636719 437.886719 1677.304688 437.742188 1677 437.542969 C 1675.875 436.71875 1675.007812 435.675781 1674.390625 434.421875 Z M 1674.359375 434.074219 "/>
</g>
</g>
</g>
</g>
<path style=" stroke:none;fill-rule:nonzero;fill:rgb(10.198975%,9.799194%,31.369019%);fill-opacity:1;" d="M 708.496094 512.722656 C 707.941406 512.722656 707.386719 512.75 706.835938 512.800781 C 706.285156 512.855469 705.738281 512.9375 705.195312 513.046875 C 704.652344 513.15625 704.113281 513.289062 703.582031 513.449219 C 703.050781 513.609375 702.53125 513.796875 702.019531 514.007812 C 701.507812 514.222656 701.007812 514.457031 700.519531 514.71875 C 700.03125 514.980469 699.554688 515.265625 699.09375 515.574219 C 698.632812 515.882812 698.1875 516.210938 697.757812 516.5625 C 697.332031 516.914062 696.921875 517.285156 696.527344 517.675781 C 696.136719 518.070312 695.765625 518.480469 695.414062 518.90625 C 695.0625 519.335938 694.734375 519.78125 694.425781 520.242188 C 694.117188 520.703125 693.832031 521.179688 693.570312 521.667969 C 693.308594 522.15625 693.074219 522.65625 692.859375 523.167969 C 692.648438 523.679688 692.460938 524.203125 692.300781 524.730469 C 692.140625 525.261719 692.007812 525.800781 691.898438 526.34375 C 691.789062 526.886719 691.707031 527.433594 691.652344 527.984375 C 691.601562 528.535156 691.574219 529.089844 691.574219 529.644531 C 691.574219 530.199219 691.601562 530.75 691.652344 531.304688 C 691.707031 531.855469 691.789062 532.402344 691.898438 532.945312 C 692.007812 533.488281 692.140625 534.027344 692.300781 534.554688 C 692.460938 535.085938 692.648438 535.609375 692.859375 536.121094 C 693.074219 536.632812 693.308594 537.132812 693.570312 537.621094 C 693.832031 538.109375 694.117188 538.585938 694.425781 539.046875 C 694.734375 539.507812 695.0625 539.953125 695.414062 540.378906 C 695.765625 540.808594 696.136719 541.21875 696.527344 541.609375 C 696.921875 542.003906 697.332031 542.375 697.757812 542.726562 C 698.1875 543.078125 698.632812 543.40625 699.09375 543.714844 C 699.554688 544.023438 700.03125 544.308594 700.519531 544.570312 C 701.007812 544.832031 701.507812 545.066406 702.019531 545.277344 C 702.53125 545.492188 703.050781 545.675781 703.582031 545.839844 C 704.113281 546 704.652344 546.132812 705.195312 546.242188 C 705.738281 546.351562 706.285156 546.429688 706.835938 546.484375 C 707.386719 546.539062 707.941406 546.566406 708.496094 546.566406 C 709.050781 546.566406 709.601562 546.539062 710.15625 546.484375 C 710.707031 546.429688 711.253906 546.351562 711.796875 546.242188 C 712.339844 546.132812 712.878906 546 713.40625 545.839844 C 713.9375 545.675781 714.460938 545.492188 714.972656 545.277344 C 715.484375 545.066406 715.984375 544.832031 716.472656 544.570312 C 716.960938 544.308594 717.4375 544.023438 717.898438 543.714844 C 718.359375 543.40625 718.804688 543.078125 719.230469 542.726562 C 719.660156 542.375 720.070312 542.003906 720.460938 541.609375 C 720.855469 541.21875 721.226562 540.808594 721.578125 540.378906 C 721.929688 539.953125 722.257812 539.507812 722.566406 539.046875 C 722.875 538.585938 723.160156 538.109375 723.421875 537.621094 C 723.683594 537.132812 723.917969 536.632812 724.128906 536.121094 C 724.34375 535.609375 724.527344 535.085938 724.691406 534.554688 C 724.851562 534.027344 724.984375 533.488281 725.09375 532.945312 C 725.203125 532.402344 725.28125 531.855469 725.335938 531.304688 C 725.390625 530.75 725.417969 530.199219 725.417969 529.644531 C 725.417969 529.089844 725.390625 528.535156 725.335938 527.984375 C 725.28125 527.433594 725.203125 526.886719 725.09375 526.34375 C 724.984375 525.800781 724.851562 525.261719 724.691406 524.730469 C 724.527344 524.203125 724.34375 523.679688 724.128906 523.167969 C 723.917969 522.65625 723.683594 522.15625 723.421875 521.667969 C 723.160156 521.179688 722.875 520.703125 722.566406 520.242188 C 722.257812 519.78125 721.929688 519.335938 721.578125 518.90625 C 721.226562 518.480469 720.855469 518.070312 720.460938 517.675781 C 720.070312 517.285156 719.660156 516.914062 719.230469 516.5625 C 718.804688 516.210938 718.359375 515.882812 717.898438 515.574219 C 717.4375 515.265625 716.960938 514.980469 716.472656 514.71875 C 715.984375 514.457031 715.484375 514.222656 714.972656 514.007812 C 714.460938 513.796875 713.9375 513.609375 713.40625 513.449219 C 712.878906 513.289062 712.339844 513.15625 711.796875 513.046875 C 711.253906 512.9375 710.707031 512.855469 710.15625 512.800781 C 709.601562 512.75 709.050781 512.722656 708.496094 512.722656 Z M 708.496094 512.722656 "/>
<path style=" stroke:none;fill-rule:nonzero;fill:rgb(100%,66.668701%,0%);fill-opacity:1;" d="M 654.59375 306.640625 L 688.40625 306.640625 L 688.40625 429.347656 L 654.59375 429.347656 Z M 654.59375 306.640625 "/>
</g>
</svg>
